<svg width="131" height="36" viewBox="0 0 131 36" fill="none" xmlns="http://www.w3.org/2000/svg">
<g opacity="0.8">
<path d="M21.76 23C21.6533 23 21.5627 22.968 21.488 22.904C21.424 22.8293 21.392 22.7387 21.392 22.632V12.168C21.392 12.0613 21.424 11.976 21.488 11.912C21.5627 11.8373 21.6533 11.8 21.76 11.8H22.608C22.7147 11.8 22.8 11.8373 22.864 11.912C22.9387 11.976 22.976 12.0613 22.976 12.168V21.608H28.288C28.4053 21.608 28.496 21.6453 28.56 21.72C28.6347 21.784 28.672 21.8747 28.672 21.992V22.632C28.672 22.7387 28.6347 22.8293 28.56 22.904C28.4853 22.968 28.3947 23 28.288 23H21.76ZM32.5996 23.16C32.077 23.16 31.5916 23.0533 31.1436 22.84C30.6956 22.6267 30.3383 22.3387 30.0716 21.976C29.8156 21.6027 29.6876 21.192 29.6876 20.744C29.6876 20.04 29.9756 19.464 30.5516 19.016C31.1383 18.5573 31.9276 18.2587 32.9196 18.12L35.3036 17.784V17.32C35.3036 16.232 34.6796 15.688 33.4316 15.688C32.9623 15.688 32.5783 15.7893 32.2796 15.992C31.981 16.184 31.757 16.4133 31.6076 16.68C31.5756 16.776 31.533 16.8453 31.4796 16.888C31.437 16.9307 31.373 16.952 31.2876 16.952H30.5996C30.5036 16.952 30.4183 16.92 30.3436 16.856C30.2796 16.7813 30.2476 16.696 30.2476 16.6C30.2583 16.344 30.3756 16.056 30.5996 15.736C30.8343 15.4053 31.1916 15.1227 31.6716 14.888C32.1516 14.6427 32.7436 14.52 33.4476 14.52C34.6423 14.52 35.501 14.8027 36.0236 15.368C36.5463 15.9227 36.8076 16.616 36.8076 17.448V22.632C36.8076 22.7387 36.7703 22.8293 36.6956 22.904C36.6316 22.968 36.5463 23 36.4396 23H35.7036C35.597 23 35.5063 22.968 35.4316 22.904C35.3676 22.8293 35.3356 22.7387 35.3356 22.632V21.944C35.101 22.2853 34.7596 22.5733 34.3116 22.808C33.8636 23.0427 33.293 23.16 32.5996 23.16ZM32.9356 21.96C33.629 21.96 34.1943 21.736 34.6316 21.288C35.0796 20.8293 35.3036 20.1733 35.3036 19.32V18.872L33.4476 19.144C32.6903 19.2507 32.1196 19.432 31.7356 19.688C31.3516 19.9333 31.1596 20.248 31.1596 20.632C31.1596 21.0587 31.3356 21.3893 31.6876 21.624C32.0396 21.848 32.4556 21.96 32.9356 21.96ZM31.6716 13.064C31.565 13.064 31.4796 13.032 31.4156 12.968C31.3516 12.904 31.3196 12.8187 31.3196 12.712V11.848C31.3196 11.7413 31.3516 11.656 31.4156 11.592C31.4796 11.5173 31.565 11.48 31.6716 11.48H32.5516C32.6583 11.48 32.7436 11.5173 32.8076 11.592C32.8823 11.656 32.9196 11.7413 32.9196 11.848V12.712C32.9196 12.8187 32.8823 12.904 32.8076 12.968C32.7436 13.032 32.6583 13.064 32.5516 13.064H31.6716ZM34.3916 13.064C34.285 13.064 34.1943 13.032 34.1196 12.968C34.0556 12.904 34.0236 12.8187 34.0236 12.712V11.848C34.0236 11.7413 34.0556 11.656 34.1196 11.592C34.1943 11.5173 34.285 11.48 34.3916 11.48H35.2556C35.3623 11.48 35.4476 11.5173 35.5116 11.592C35.5863 11.656 35.6236 11.7413 35.6236 11.848V12.712C35.6236 12.8187 35.5863 12.904 35.5116 12.968C35.4476 13.032 35.3623 13.064 35.2556 13.064H34.3916ZM42.5957 26.52C41.7211 26.52 41.0171 26.3707 40.4837 26.072C39.9504 25.784 39.5717 25.4533 39.3477 25.08C39.1237 24.7067 39.0011 24.3707 38.9797 24.072C38.9691 23.9653 39.0011 23.8747 39.0757 23.8C39.1611 23.7253 39.2517 23.688 39.3477 23.688H40.1157C40.2117 23.688 40.2917 23.7093 40.3557 23.752C40.4197 23.8053 40.4731 23.896 40.5157 24.024C40.6438 24.3653 40.8518 24.6587 41.1398 24.904C41.4384 25.16 41.8971 25.288 42.5157 25.288C43.3051 25.288 43.8864 25.1173 44.2598 24.776C44.6331 24.4453 44.8198 23.8533 44.8198 23V21.912C44.5424 22.264 44.1904 22.5467 43.7638 22.76C43.3371 22.9627 42.8304 23.064 42.2438 23.064C41.1131 23.064 40.2651 22.7067 39.6997 21.992C39.1451 21.2667 38.8517 20.3493 38.8197 19.24L38.8037 18.792L38.8197 18.36C38.8517 17.2613 39.1504 16.3493 39.7157 15.624C40.2811 14.888 41.1238 14.52 42.2438 14.52C43.3637 14.52 44.2384 14.9307 44.8678 15.752V15.064C44.8678 14.9573 44.8998 14.8667 44.9638 14.792C45.0384 14.7173 45.1291 14.68 45.2358 14.68H45.9718C46.0784 14.68 46.1691 14.7173 46.2438 14.792C46.3184 14.8667 46.3558 14.9573 46.3558 15.064V22.824C46.3558 25.288 45.1024 26.52 42.5957 26.52ZM42.5638 21.784C43.2891 21.784 43.8384 21.544 44.2118 21.064C44.5851 20.584 44.7878 20.0133 44.8198 19.352C44.8304 19.256 44.8358 19.0693 44.8358 18.792C44.8358 18.5253 44.8304 18.344 44.8198 18.248C44.7878 17.5867 44.5851 17.016 44.2118 16.536C43.8491 16.056 43.2998 15.816 42.5638 15.816C41.8064 15.816 41.2571 16.0507 40.9158 16.52C40.5744 16.9893 40.3877 17.608 40.3557 18.376L40.3398 18.792L40.3557 19.224C40.3877 19.9813 40.5744 20.6 40.9158 21.08C41.2571 21.5493 41.8064 21.784 42.5638 21.784ZM52.2226 26.52C51.348 26.52 50.644 26.3707 50.1106 26.072C49.5773 25.784 49.1986 25.4533 48.9746 25.08C48.7506 24.7067 48.628 24.3707 48.6066 24.072C48.596 23.9653 48.628 23.8747 48.7026 23.8C48.788 23.7253 48.8786 23.688 48.9746 23.688H49.7426C49.8386 23.688 49.9186 23.7093 49.9826 23.752C50.0466 23.8053 50.1 23.896 50.1426 24.024C50.2706 24.3653 50.4786 24.6587 50.7666 24.904C51.0653 25.16 51.524 25.288 52.1426 25.288C52.932 25.288 53.5133 25.1173 53.8866 24.776C54.26 24.4453 54.4466 23.8533 54.4466 23V21.912C54.1693 22.264 53.8173 22.5467 53.3906 22.76C52.964 22.9627 52.4573 23.064 51.8706 23.064C50.74 23.064 49.892 22.7067 49.3266 21.992C48.772 21.2667 48.4786 20.3493 48.4466 19.24L48.4306 18.792L48.4466 18.36C48.4786 17.2613 48.7773 16.3493 49.3426 15.624C49.908 14.888 50.7506 14.52 51.8706 14.52C52.9906 14.52 53.8653 14.9307 54.4946 15.752V15.064C54.4946 14.9573 54.5266 14.8667 54.5906 14.792C54.6653 14.7173 54.756 14.68 54.8626 14.68H55.5986C55.7053 14.68 55.796 14.7173 55.8706 14.792C55.9453 14.8667 55.9826 14.9573 55.9826 15.064V22.824C55.9826 25.288 54.7293 26.52 52.2226 26.52ZM52.1906 21.784C52.916 21.784 53.4653 21.544 53.8386 21.064C54.212 20.584 54.4146 20.0133 54.4466 19.352C54.4573 19.256 54.4626 19.0693 54.4626 18.792C54.4626 18.5253 54.4573 18.344 54.4466 18.248C54.4146 17.5867 54.212 17.016 53.8386 16.536C53.476 16.056 52.9266 15.816 52.1906 15.816C51.4333 15.816 50.884 16.0507 50.5426 16.52C50.2013 16.9893 50.0146 17.608 49.9826 18.376L49.9666 18.792L49.9826 19.224C50.0146 19.9813 50.2013 20.6 50.5426 21.08C50.884 21.5493 51.4333 21.784 52.1906 21.784ZM65.3476 23C63.6623 23 62.8196 22.0613 62.8196 20.184V15.96H61.5716C61.465 15.96 61.3743 15.928 61.2996 15.864C61.2356 15.7893 61.2036 15.6987 61.2036 15.592V15.048C61.2036 14.9413 61.2356 14.856 61.2996 14.792C61.3743 14.7173 61.465 14.68 61.5716 14.68H62.8196V12.008C62.8196 11.9013 62.8516 11.816 62.9156 11.752C62.9903 11.6773 63.081 11.64 63.1876 11.64H63.9396C64.0463 11.64 64.1316 11.6773 64.1956 11.752C64.2703 11.816 64.3076 11.9013 64.3076 12.008V14.68H66.2916C66.3983 14.68 66.4836 14.7173 66.5476 14.792C66.6223 14.856 66.6596 14.9413 66.6596 15.048V15.592C66.6596 15.6987 66.6223 15.7893 66.5476 15.864C66.4836 15.928 66.3983 15.96 66.2916 15.96H64.3076V20.072C64.3076 20.6053 64.3983 21.0107 64.5796 21.288C64.761 21.5547 65.0596 21.688 65.4756 21.688H66.4516C66.5583 21.688 66.6436 21.7253 66.7076 21.8C66.7823 21.864 66.8196 21.9493 66.8196 22.056V22.632C66.8196 22.7387 66.7823 22.8293 66.7076 22.904C66.6436 22.968 66.5583 23 66.4516 23H65.3476ZM68.6696 13.128C68.563 13.128 68.4723 13.096 68.3976 13.032C68.3336 12.9573 68.3016 12.8667 68.3016 12.76V11.896C68.3016 11.7893 68.3336 11.6987 68.3976 11.624C68.4723 11.5493 68.563 11.512 68.6696 11.512H69.6776C69.7843 11.512 69.875 11.5493 69.9496 11.624C70.0243 11.6987 70.0616 11.7893 70.0616 11.896V12.76C70.0616 12.8667 70.0243 12.9573 69.9496 13.032C69.875 13.096 69.7843 13.128 69.6776 13.128H68.6696ZM68.7976 23C68.691 23 68.6003 22.968 68.5256 22.904C68.4616 22.8293 68.4296 22.7387 68.4296 22.632V15.048C68.4296 14.9413 68.4616 14.856 68.5256 14.792C68.6003 14.7173 68.691 14.68 68.7976 14.68H69.5656C69.6723 14.68 69.7576 14.7173 69.8216 14.792C69.8963 14.856 69.9336 14.9413 69.9336 15.048V22.632C69.9336 22.7387 69.8963 22.8293 69.8216 22.904C69.7576 22.968 69.6723 23 69.5656 23H68.7976ZM72.7686 23C72.662 23 72.5713 22.968 72.4966 22.904C72.4326 22.8293 72.4006 22.7387 72.4006 22.632V12.008C72.4006 11.9013 72.4326 11.816 72.4966 11.752C72.5713 11.6773 72.662 11.64 72.7686 11.64H73.5206C73.6273 11.64 73.7126 11.6773 73.7766 11.752C73.8513 11.816 73.8886 11.9013 73.8886 12.008V22.632C73.8886 22.7387 73.8513 22.8293 73.7766 22.904C73.7126 22.968 73.6273 23 73.5206 23H72.7686ZM76.7392 23C76.6326 23 76.5419 22.968 76.4672 22.904C76.4032 22.8293 76.3712 22.7387 76.3712 22.632V12.008C76.3712 11.9013 76.4032 11.816 76.4672 11.752C76.5419 11.6773 76.6326 11.64 76.7392 11.64H77.4912C77.5979 11.64 77.6832 11.6773 77.7472 11.752C77.8219 11.816 77.8592 11.9013 77.8592 12.008V22.632C77.8592 22.7387 77.8219 22.8293 77.7472 22.904C77.6832 22.968 77.5979 23 77.4912 23H76.7392Z" fill="black"/>
<path d="M96 9C93.239 9 91 11.216 91 13.95C91 16.157 91.875 21.395 100.488 26.69C100.642 26.7839 100.819 26.8335 101 26.8335C101.181 26.8335 101.358 26.7839 101.512 26.69C110.125 21.395 111 16.157 111 13.95C111 11.216 108.761 9 106 9C103.239 9 101 12 101 12C101 12 98.761 9 96 9Z" stroke="black" stroke-width="2" stroke-linecap="round" stroke-linejoin="round"/>
<path d="M18 1H113V-1H18V1ZM113 35H18V37H113V35ZM18 35C8.61116 35 1 27.3888 1 18H-1C-1 28.4934 7.50659 37 18 37V35ZM130 18C130 27.3888 122.389 35 113 35V37C123.493 37 132 28.4934 132 18H130ZM113 1C122.389 1 130 8.61116 130 18H132C132 7.50659 123.493 -1 113 -1V1ZM18 -1C7.50659 -1 -1 7.50659 -1 18H1C1 8.61116 8.61116 1 18 1V-1Z" fill="black"/>
</g>
</svg>
