<svg width="242" height="36" viewBox="0 0 242 36" fill="none" xmlns="http://www.w3.org/2000/svg">
<g opacity="0.8">
<path d="M44.992 23.16C44.1067 23.16 43.3387 23.0213 42.688 22.744C42.048 22.4667 41.5573 22.104 41.216 21.656C40.8747 21.1973 40.6933 20.7067 40.672 20.184C40.672 20.0987 40.704 20.024 40.768 19.96C40.8427 19.8853 40.928 19.848 41.024 19.848H41.84C42.0427 19.848 42.1813 19.9547 42.256 20.168C42.352 20.616 42.624 21 43.072 21.32C43.5307 21.64 44.1707 21.8 44.992 21.8C45.8773 21.8 46.544 21.6453 46.992 21.336C47.44 21.016 47.664 20.5733 47.664 20.008C47.664 19.6453 47.552 19.352 47.328 19.128C47.1147 18.904 46.7947 18.7067 46.368 18.536C45.9413 18.3653 45.3013 18.152 44.448 17.896C43.616 17.6613 42.9547 17.4107 42.464 17.144C41.9733 16.8773 41.6053 16.5467 41.36 16.152C41.1147 15.7573 40.992 15.2613 40.992 14.664C40.992 14.088 41.1467 13.5707 41.456 13.112C41.776 12.6533 42.2293 12.296 42.816 12.04C43.4027 11.7733 44.1013 11.64 44.912 11.64C45.744 11.64 46.4587 11.7893 47.056 12.088C47.6533 12.376 48.1067 12.744 48.416 13.192C48.7253 13.64 48.8907 14.088 48.912 14.536C48.912 14.6213 48.88 14.696 48.816 14.76C48.7627 14.824 48.6827 14.856 48.576 14.856H47.728C47.504 14.856 47.3653 14.7547 47.312 14.552C47.248 14.104 46.9973 13.736 46.56 13.448C46.1227 13.1493 45.5733 13 44.912 13C44.1867 13 43.616 13.1387 43.2 13.416C42.784 13.6933 42.576 14.104 42.576 14.648C42.576 15.0107 42.672 15.3093 42.864 15.544C43.0667 15.7787 43.3707 15.9867 43.776 16.168C44.1813 16.3387 44.7733 16.536 45.552 16.76C46.4587 17.0053 47.1733 17.2613 47.696 17.528C48.2187 17.784 48.608 18.1093 48.864 18.504C49.12 18.888 49.248 19.3787 49.248 19.976C49.248 20.968 48.864 21.7467 48.096 22.312C47.328 22.8773 46.2933 23.16 44.992 23.16ZM54.5451 23.16C53.4465 23.16 52.5665 22.824 51.9051 22.152C51.2545 21.4693 50.8971 20.5413 50.8331 19.368L50.8171 18.824L50.8331 18.296C50.9078 17.144 51.2705 16.2267 51.9211 15.544C52.5825 14.8613 53.4518 14.52 54.5291 14.52C55.7131 14.52 56.6305 14.8987 57.2811 15.656C57.9318 16.4027 58.2571 17.416 58.2571 18.696V18.968C58.2571 19.0747 58.2198 19.1653 58.1451 19.24C58.0811 19.304 57.9958 19.336 57.8891 19.336H52.3531V19.48C52.3851 20.1733 52.5931 20.7653 52.9771 21.256C53.3718 21.736 53.8891 21.976 54.5291 21.976C55.0198 21.976 55.4198 21.88 55.7291 21.688C56.0491 21.4853 56.2838 21.2773 56.4331 21.064C56.5291 20.936 56.5985 20.8613 56.6411 20.84C56.6945 20.808 56.7851 20.792 56.9131 20.792H57.6971C57.7931 20.792 57.8731 20.8187 57.9371 20.872C58.0011 20.9253 58.0331 21 58.0331 21.096C58.0331 21.3307 57.8838 21.6133 57.5851 21.944C57.2971 22.2747 56.8865 22.5627 56.3531 22.808C55.8305 23.0427 55.2278 23.16 54.5451 23.16ZM56.7371 18.232V18.184C56.7371 17.448 56.5345 16.8507 56.1291 16.392C55.7345 15.9227 55.2011 15.688 54.5291 15.688C53.8571 15.688 53.3238 15.9227 52.9291 16.392C52.5451 16.8507 52.3531 17.448 52.3531 18.184V18.232H56.7371ZM66.5721 23.16C66.0495 23.16 65.5641 23.0533 65.1161 22.84C64.6681 22.6267 64.3108 22.3387 64.0441 21.976C63.7881 21.6027 63.6601 21.192 63.6601 20.744C63.6601 20.04 63.9481 19.464 64.5241 19.016C65.1108 18.5573 65.9001 18.2587 66.8921 18.12L69.2761 17.784V17.32C69.2761 16.232 68.6521 15.688 67.4041 15.688C66.9348 15.688 66.5508 15.7893 66.2521 15.992C65.9535 16.184 65.7295 16.4133 65.5801 16.68C65.5481 16.776 65.5055 16.8453 65.4521 16.888C65.4095 16.9307 65.3455 16.952 65.2601 16.952H64.5721C64.4761 16.952 64.3908 16.92 64.3161 16.856C64.2521 16.7813 64.2201 16.696 64.2201 16.6C64.2308 16.344 64.3481 16.056 64.5721 15.736C64.8068 15.4053 65.1641 15.1227 65.6441 14.888C66.1241 14.6427 66.7161 14.52 67.4201 14.52C68.6148 14.52 69.4735 14.8027 69.9961 15.368C70.5188 15.9227 70.7801 16.616 70.7801 17.448V22.632C70.7801 22.7387 70.7428 22.8293 70.6681 22.904C70.6041 22.968 70.5188 23 70.4121 23H69.6761C69.5695 23 69.4788 22.968 69.4041 22.904C69.3401 22.8293 69.3081 22.7387 69.3081 22.632V21.944C69.0735 22.2853 68.7321 22.5733 68.2841 22.808C67.8361 23.0427 67.2655 23.16 66.5721 23.16ZM66.9081 21.96C67.6015 21.96 68.1668 21.736 68.6041 21.288C69.0521 20.8293 69.2761 20.1733 69.2761 19.32V18.872L67.4201 19.144C66.6628 19.2507 66.0921 19.432 65.7081 19.688C65.3241 19.9333 65.1321 20.248 65.1321 20.632C65.1321 21.0587 65.3081 21.3893 65.6601 21.624C66.0121 21.848 66.4281 21.96 66.9081 21.96ZM73.5442 23C73.4376 23 73.3469 22.968 73.2722 22.904C73.2082 22.8293 73.1762 22.7387 73.1762 22.632V12.008C73.1762 11.9013 73.2082 11.816 73.2722 11.752C73.3469 11.6773 73.4376 11.64 73.5442 11.64H74.2962C74.4029 11.64 74.4882 11.6773 74.5522 11.752C74.6269 11.816 74.6642 11.9013 74.6642 12.008V22.632C74.6642 22.7387 74.6269 22.8293 74.5522 22.904C74.4882 22.968 74.4029 23 74.2962 23H73.5442ZM77.5149 23C77.4082 23 77.3175 22.968 77.2429 22.904C77.1789 22.8293 77.1469 22.7387 77.1469 22.632V12.008C77.1469 11.9013 77.1789 11.816 77.2429 11.752C77.3175 11.6773 77.4082 11.64 77.5149 11.64H78.2669C78.3735 11.64 78.4589 11.6773 78.5229 11.752C78.5975 11.816 78.6349 11.9013 78.6349 12.008V22.632C78.6349 22.7387 78.5975 22.8293 78.5229 22.904C78.4589 22.968 78.3735 23 78.2669 23H77.5149ZM83.4215 23.16C82.8988 23.16 82.4135 23.0533 81.9655 22.84C81.5175 22.6267 81.1602 22.3387 80.8935 21.976C80.6375 21.6027 80.5095 21.192 80.5095 20.744C80.5095 20.04 80.7975 19.464 81.3735 19.016C81.9602 18.5573 82.7495 18.2587 83.7415 18.12L86.1255 17.784V17.32C86.1255 16.232 85.5015 15.688 84.2535 15.688C83.7842 15.688 83.4002 15.7893 83.1015 15.992C82.8028 16.184 82.5788 16.4133 82.4295 16.68C82.3975 16.776 82.3548 16.8453 82.3015 16.888C82.2588 16.9307 82.1948 16.952 82.1095 16.952H81.4215C81.3255 16.952 81.2402 16.92 81.1655 16.856C81.1015 16.7813 81.0695 16.696 81.0695 16.6C81.0802 16.344 81.1975 16.056 81.4215 15.736C81.6562 15.4053 82.0135 15.1227 82.4935 14.888C82.9735 14.6427 83.5655 14.52 84.2695 14.52C85.4642 14.52 86.3228 14.8027 86.8455 15.368C87.3682 15.9227 87.6295 16.616 87.6295 17.448V22.632C87.6295 22.7387 87.5922 22.8293 87.5175 22.904C87.4535 22.968 87.3682 23 87.2615 23H86.5255C86.4188 23 86.3282 22.968 86.2535 22.904C86.1895 22.8293 86.1575 22.7387 86.1575 22.632V21.944C85.9228 22.2853 85.5815 22.5733 85.1335 22.808C84.6855 23.0427 84.1148 23.16 83.4215 23.16ZM83.7575 21.96C84.4508 21.96 85.0162 21.736 85.4535 21.288C85.9015 20.8293 86.1255 20.1733 86.1255 19.32V18.872L84.2695 19.144C83.5122 19.2507 82.9415 19.432 82.5575 19.688C82.1735 19.9333 81.9815 20.248 81.9815 20.632C81.9815 21.0587 82.1575 21.3893 82.5095 21.624C82.8615 21.848 83.2775 21.96 83.7575 21.96ZM97.5955 23.16C96.7528 23.16 96.0222 23.0267 95.4035 22.76C94.7955 22.4827 94.3315 22.1253 94.0115 21.688C93.7022 21.2507 93.5368 20.792 93.5155 20.312C93.5155 20.216 93.5475 20.1413 93.6115 20.088C93.6755 20.024 93.7555 19.992 93.8515 19.992H94.6355C94.8595 19.992 95.0088 20.1093 95.0835 20.344C95.2222 20.8773 95.5208 21.256 95.9795 21.48C96.4382 21.6933 96.9768 21.8 97.5955 21.8C98.3528 21.8 98.9555 21.624 99.4035 21.272C99.8515 20.9093 100.075 20.392 100.075 19.72C100.075 18.4293 99.2915 17.784 97.7235 17.784H96.2035C96.0968 17.784 96.0062 17.752 95.9315 17.688C95.8675 17.6133 95.8355 17.5227 95.8355 17.416V16.984C95.8355 16.8347 95.8942 16.6907 96.0115 16.552L99.1155 13.16H94.3955C94.2888 13.16 94.1982 13.128 94.1235 13.064C94.0595 12.9893 94.0275 12.8987 94.0275 12.792V12.184C94.0275 12.0773 94.0595 11.9867 94.1235 11.912C94.1982 11.8373 94.2888 11.8 94.3955 11.8H100.779C100.897 11.8 100.987 11.8373 101.051 11.912C101.126 11.976 101.163 12.0667 101.163 12.184V12.76C101.163 12.888 101.105 13.0107 100.988 13.128L97.8995 16.568L98.1555 16.584C99.2435 16.616 100.102 16.8987 100.731 17.432C101.361 17.9653 101.675 18.744 101.675 19.768C101.675 20.4613 101.499 21.064 101.148 21.576C100.795 22.088 100.31 22.4827 99.6915 22.76C99.0728 23.0267 98.3742 23.16 97.5955 23.16ZM107.589 23.16C106.213 23.16 105.205 22.76 104.565 21.96C103.925 21.16 103.584 20.1093 103.541 18.808C103.53 18.52 103.525 18.056 103.525 17.416C103.525 16.7547 103.53 16.2747 103.541 15.976C103.573 14.696 103.914 13.656 104.565 12.856C105.216 12.0453 106.224 11.64 107.589 11.64C108.965 11.64 109.978 12.0453 110.629 12.856C111.28 13.656 111.621 14.696 111.653 15.976C111.674 16.5733 111.685 17.0533 111.685 17.416C111.685 17.768 111.674 18.232 111.653 18.808C111.61 20.1093 111.269 21.16 110.629 21.96C109.989 22.76 108.976 23.16 107.589 23.16ZM107.589 21.784C108.389 21.784 108.992 21.5173 109.397 20.984C109.813 20.4507 110.032 19.6987 110.053 18.728C110.074 18.1093 110.085 17.6613 110.085 17.384C110.085 17.0853 110.074 16.648 110.053 16.072C110.032 15.112 109.818 14.36 109.413 13.816C109.008 13.272 108.4 13 107.589 13C106.789 13 106.181 13.272 105.765 13.816C105.36 14.36 105.146 15.112 105.125 16.072L105.109 17.384L105.125 18.728C105.146 19.6987 105.36 20.4507 105.765 20.984C106.181 21.5173 106.789 21.784 107.589 21.784ZM121.827 23.16C120.451 23.16 119.443 22.76 118.803 21.96C118.163 21.16 117.822 20.1093 117.779 18.808C117.768 18.52 117.763 18.056 117.763 17.416C117.763 16.7547 117.768 16.2747 117.779 15.976C117.811 14.696 118.152 13.656 118.803 12.856C119.454 12.0453 120.462 11.64 121.827 11.64C123.203 11.64 124.216 12.0453 124.867 12.856C125.518 13.656 125.859 14.696 125.891 15.976C125.912 16.5733 125.923 17.0533 125.923 17.416C125.923 17.768 125.912 18.232 125.891 18.808C125.848 20.1093 125.507 21.16 124.867 21.96C124.227 22.76 123.214 23.16 121.827 23.16ZM121.827 21.784C122.627 21.784 123.23 21.5173 123.635 20.984C124.051 20.4507 124.27 19.6987 124.291 18.728C124.312 18.1093 124.323 17.6613 124.323 17.384C124.323 17.0853 124.312 16.648 124.291 16.072C124.27 15.112 124.056 14.36 123.651 13.816C123.246 13.272 122.638 13 121.827 13C121.027 13 120.419 13.272 120.003 13.816C119.598 14.36 119.384 15.112 119.363 16.072L119.347 17.384L119.363 18.728C119.384 19.6987 119.598 20.4507 120.003 20.984C120.419 21.5173 121.027 21.784 121.827 21.784ZM132.063 23.16C130.687 23.16 129.679 22.76 129.039 21.96C128.399 21.16 128.058 20.1093 128.015 18.808C128.005 18.52 127.999 18.056 127.999 17.416C127.999 16.7547 128.005 16.2747 128.015 15.976C128.047 14.696 128.389 13.656 129.039 12.856C129.69 12.0453 130.698 11.64 132.063 11.64C133.439 11.64 134.453 12.0453 135.103 12.856C135.754 13.656 136.095 14.696 136.127 15.976C136.149 16.5733 136.159 17.0533 136.159 17.416C136.159 17.768 136.149 18.232 136.127 18.808C136.085 20.1093 135.743 21.16 135.103 21.96C134.463 22.76 133.45 23.16 132.063 23.16ZM132.063 21.784C132.863 21.784 133.466 21.5173 133.871 20.984C134.287 20.4507 134.506 19.6987 134.527 18.728C134.549 18.1093 134.559 17.6613 134.559 17.384C134.559 17.0853 134.549 16.648 134.527 16.072C134.506 15.112 134.293 14.36 133.887 13.816C133.482 13.272 132.874 13 132.063 13C131.263 13 130.655 13.272 130.239 13.816C129.834 14.36 129.621 15.112 129.599 16.072L129.583 17.384L129.599 18.728C129.621 19.6987 129.834 20.4507 130.239 20.984C130.655 21.5173 131.263 21.784 132.063 21.784ZM142.3 23.16C140.924 23.16 139.916 22.76 139.276 21.96C138.636 21.16 138.294 20.1093 138.252 18.808C138.241 18.52 138.236 18.056 138.236 17.416C138.236 16.7547 138.241 16.2747 138.252 15.976C138.284 14.696 138.625 13.656 139.276 12.856C139.926 12.0453 140.934 11.64 142.3 11.64C143.676 11.64 144.689 12.0453 145.34 12.856C145.99 13.656 146.332 14.696 146.364 15.976C146.385 16.5733 146.396 17.0533 146.396 17.416C146.396 17.768 146.385 18.232 146.364 18.808C146.321 20.1093 145.98 21.16 145.34 21.96C144.7 22.76 143.686 23.16 142.3 23.16ZM142.3 21.784C143.1 21.784 143.702 21.5173 144.108 20.984C144.524 20.4507 144.742 19.6987 144.764 18.728C144.785 18.1093 144.796 17.6613 144.796 17.384C144.796 17.0853 144.785 16.648 144.764 16.072C144.742 15.112 144.529 14.36 144.124 13.816C143.718 13.272 143.11 13 142.3 13C141.5 13 140.892 13.272 140.476 13.816C140.07 14.36 139.857 15.112 139.836 16.072L139.82 17.384L139.836 18.728C139.857 19.6987 140.07 20.4507 140.476 20.984C140.892 21.5173 141.5 21.784 142.3 21.784ZM156.762 23.16C155.61 23.16 154.735 22.76 154.138 21.96V22.632C154.138 22.7387 154.1 22.8293 154.026 22.904C153.962 22.968 153.876 23 153.77 23H153.034C152.927 23 152.836 22.968 152.762 22.904C152.698 22.8293 152.666 22.7387 152.666 22.632V12.008C152.666 11.9013 152.698 11.816 152.762 11.752C152.836 11.6773 152.927 11.64 153.034 11.64H153.818C153.924 11.64 154.01 11.6773 154.074 11.752C154.138 11.816 154.17 11.9013 154.17 12.008V15.688C154.799 14.9093 155.663 14.52 156.762 14.52C157.871 14.52 158.708 14.888 159.274 15.624C159.839 16.3493 160.143 17.2613 160.186 18.36C160.196 18.4773 160.202 18.6373 160.202 18.84C160.202 19.0427 160.196 19.2027 160.186 19.32C160.143 20.4293 159.839 21.3467 159.274 22.072C158.708 22.7973 157.871 23.16 156.762 23.16ZM156.426 21.864C157.183 21.864 157.732 21.6293 158.074 21.16C158.426 20.6907 158.618 20.072 158.65 19.304C158.66 19.1973 158.666 19.0427 158.666 18.84C158.666 16.824 157.919 15.816 156.426 15.816C155.711 15.816 155.162 16.0507 154.778 16.52C154.394 16.9893 154.191 17.5387 154.17 18.168L154.154 18.792L154.17 19.4C154.202 20.072 154.399 20.6533 154.762 21.144C155.135 21.624 155.69 21.864 156.426 21.864ZM165.653 23.16C164.48 23.16 163.568 22.8293 162.917 22.168C162.277 21.5067 161.936 20.6267 161.893 19.528L161.877 18.84L161.893 18.152C161.936 17.064 162.283 16.1893 162.933 15.528C163.584 14.856 164.491 14.52 165.653 14.52C166.816 14.52 167.723 14.856 168.373 15.528C169.024 16.1893 169.371 17.064 169.413 18.152C169.424 18.2693 169.429 18.4987 169.429 18.84C169.429 19.1813 169.424 19.4107 169.413 19.528C169.371 20.6267 169.024 21.5067 168.373 22.168C167.733 22.8293 166.827 23.16 165.653 23.16ZM165.653 21.928C166.325 21.928 166.853 21.7147 167.237 21.288C167.632 20.8613 167.845 20.248 167.877 19.448C167.888 19.3413 167.893 19.1387 167.893 18.84C167.893 18.5413 167.888 18.3387 167.877 18.232C167.845 17.432 167.632 16.8187 167.237 16.392C166.853 15.9653 166.325 15.752 165.653 15.752C164.981 15.752 164.448 15.9653 164.053 16.392C163.659 16.8187 163.451 17.432 163.429 18.232L163.413 18.84L163.429 19.448C163.451 20.248 163.659 20.8613 164.053 21.288C164.448 21.7147 164.981 21.928 165.653 21.928ZM163.861 13.064C163.755 13.064 163.669 13.032 163.605 12.968C163.541 12.904 163.509 12.8187 163.509 12.712V11.848C163.509 11.7413 163.541 11.656 163.605 11.592C163.669 11.5173 163.755 11.48 163.861 11.48H164.741C164.848 11.48 164.933 11.5173 164.997 11.592C165.072 11.656 165.109 11.7413 165.109 11.848V12.712C165.109 12.8187 165.072 12.904 164.997 12.968C164.933 13.032 164.848 13.064 164.741 13.064H163.861ZM166.581 13.064C166.475 13.064 166.384 13.032 166.309 12.968C166.245 12.904 166.213 12.8187 166.213 12.712V11.848C166.213 11.7413 166.245 11.656 166.309 11.592C166.384 11.5173 166.475 11.48 166.581 11.48H167.445C167.552 11.48 167.637 11.5173 167.701 11.592C167.776 11.656 167.813 11.7413 167.813 11.848V12.712C167.813 12.8187 167.776 12.904 167.701 12.968C167.637 13.032 167.552 13.064 167.445 13.064H166.581ZM174.873 23.16C173.731 23.16 172.835 22.84 172.185 22.2C171.545 21.5493 171.203 20.6427 171.161 19.48L171.145 18.84L171.161 18.2C171.203 17.0373 171.545 16.136 172.185 15.496C172.835 14.8453 173.731 14.52 174.873 14.52C175.641 14.52 176.291 14.6587 176.825 14.936C177.358 15.2133 177.753 15.5547 178.009 15.96C178.275 16.3653 178.419 16.7707 178.441 17.176C178.451 17.2827 178.419 17.368 178.345 17.432C178.27 17.496 178.179 17.528 178.073 17.528H177.305C177.198 17.528 177.118 17.5067 177.065 17.464C177.011 17.4213 176.958 17.336 176.905 17.208C176.723 16.696 176.467 16.3333 176.137 16.12C175.806 15.896 175.39 15.784 174.889 15.784C174.227 15.784 173.699 15.992 173.305 16.408C172.921 16.8133 172.713 17.4373 172.681 18.28L172.665 18.856L172.681 19.4C172.713 20.2533 172.921 20.8827 173.305 21.288C173.689 21.6933 174.217 21.896 174.889 21.896C175.39 21.896 175.806 21.7893 176.137 21.576C176.467 21.352 176.723 20.984 176.905 20.472C176.958 20.344 177.011 20.2587 177.065 20.216C177.118 20.1627 177.198 20.136 177.305 20.136H178.073C178.179 20.136 178.27 20.1733 178.345 20.248C178.419 20.312 178.451 20.3973 178.441 20.504C178.419 20.8987 178.275 21.304 178.009 21.72C177.753 22.1253 177.358 22.4667 176.825 22.744C176.302 23.0213 175.651 23.16 174.873 23.16ZM180.805 23C180.698 23 180.608 22.968 180.533 22.904C180.469 22.8293 180.437 22.7387 180.437 22.632V12.008C180.437 11.9013 180.469 11.816 180.533 11.752C180.608 11.6773 180.698 11.64 180.805 11.64H181.557C181.664 11.64 181.749 11.6773 181.813 11.752C181.888 11.816 181.925 11.9013 181.925 12.008V17.576L185.077 14.952C185.109 14.9307 185.162 14.888 185.237 14.824C185.312 14.7707 185.381 14.7333 185.445 14.712C185.52 14.6907 185.61 14.68 185.717 14.68H186.565C186.661 14.68 186.741 14.712 186.805 14.776C186.869 14.84 186.901 14.92 186.901 15.016C186.901 15.1333 186.837 15.2347 186.709 15.32L183.013 18.392L187.109 22.376C187.237 22.4827 187.301 22.5787 187.301 22.664C187.301 22.76 187.269 22.84 187.205 22.904C187.141 22.968 187.061 23 186.965 23H186.133C185.973 23 185.856 22.984 185.781 22.952C185.717 22.92 185.621 22.8453 185.493 22.728L181.925 19.32V22.632C181.925 22.7387 181.888 22.8293 181.813 22.904C181.749 22.968 181.664 23 181.557 23H180.805ZM191.688 23.16C190.59 23.16 189.71 22.824 189.048 22.152C188.398 21.4693 188.04 20.5413 187.976 19.368L187.96 18.824L187.976 18.296C188.051 17.144 188.414 16.2267 189.064 15.544C189.726 14.8613 190.595 14.52 191.672 14.52C192.856 14.52 193.774 14.8987 194.424 15.656C195.075 16.4027 195.4 17.416 195.4 18.696V18.968C195.4 19.0747 195.363 19.1653 195.288 19.24C195.224 19.304 195.139 19.336 195.032 19.336H189.496V19.48C189.528 20.1733 189.736 20.7653 190.12 21.256C190.515 21.736 191.032 21.976 191.672 21.976C192.163 21.976 192.563 21.88 192.872 21.688C193.192 21.4853 193.427 21.2773 193.576 21.064C193.672 20.936 193.742 20.8613 193.784 20.84C193.838 20.808 193.928 20.792 194.056 20.792H194.84C194.936 20.792 195.016 20.8187 195.08 20.872C195.144 20.9253 195.176 21 195.176 21.096C195.176 21.3307 195.027 21.6133 194.728 21.944C194.44 22.2747 194.03 22.5627 193.496 22.808C192.974 23.0427 192.371 23.16 191.688 23.16ZM193.88 18.232V18.184C193.88 17.448 193.678 16.8507 193.272 16.392C192.878 15.9227 192.344 15.688 191.672 15.688C191 15.688 190.467 15.9227 190.072 16.392C189.688 16.8507 189.496 17.448 189.496 18.184V18.232H193.88ZM197.761 23C197.655 23 197.564 22.968 197.489 22.904C197.425 22.8293 197.393 22.7387 197.393 22.632V15.064C197.393 14.9573 197.425 14.8667 197.489 14.792C197.564 14.7173 197.655 14.68 197.761 14.68H198.497C198.604 14.68 198.695 14.7173 198.769 14.792C198.844 14.8667 198.881 14.9573 198.881 15.064V15.768C199.319 15.0427 200.065 14.68 201.121 14.68H201.745C201.852 14.68 201.937 14.7173 202.001 14.792C202.076 14.856 202.113 14.9413 202.113 15.048V15.704C202.113 15.8107 202.076 15.896 202.001 15.96C201.937 16.024 201.852 16.056 201.745 16.056H200.785C200.209 16.056 199.756 16.2267 199.425 16.568C199.095 16.8987 198.929 17.352 198.929 17.928V22.632C198.929 22.7387 198.892 22.8293 198.817 22.904C198.743 22.968 198.652 23 198.545 23H197.761Z" fill="black"/>
<path d="M18 1H224V-1H18V1ZM224 35H18V37H224V35ZM18 35C8.61116 35 1 27.3888 1 18H-1C-1 28.4934 7.50659 37 18 37V35ZM241 18C241 27.3888 233.389 35 224 35V37C234.493 37 243 28.4934 243 18H241ZM224 1C233.389 1 241 8.61116 241 18H243C243 7.50659 234.493 -1 224 -1V1ZM18 -1C7.50659 -1 -1 7.50659 -1 18H1C1 8.61116 8.61116 1 18 1V-1Z" fill="black"/>
</g>
</svg>
