<svg width="170" height="46" viewBox="0 0 170 46" fill="none" xmlns="http://www.w3.org/2000/svg">
<path d="M0 10C0 4.47715 4.47715 0 10 0H160C165.523 0 170 4.47715 170 10V35.625C170 41.1478 165.523 45.625 160 45.625H10C4.47715 45.625 0 41.1478 0 35.625V10Z" fill="#333333"/>
<path d="M64.0902 20.5C64.0347 20.5 63.9903 20.4834 63.957 20.4501C63.9238 20.4168 63.9071 20.3724 63.9071 20.317V14.8671C63.9071 14.8117 63.9238 14.7673 63.957 14.734C63.9903 14.6952 64.0347 14.6758 64.0902 14.6758H65.8624C66.4393 14.6758 66.8941 14.7618 67.2269 14.9337C67.5653 15.1001 67.8038 15.347 67.9425 15.6742C68.0867 16.0015 68.1643 16.4175 68.1754 16.9223C68.181 17.0887 68.1838 17.3078 68.1838 17.5796C68.1838 17.8569 68.181 18.0788 68.1754 18.2452C68.1643 18.7777 68.0867 19.2076 67.9425 19.5348C67.8038 19.8566 67.5708 20.0979 67.2436 20.2587C66.9163 20.4196 66.4698 20.5 65.904 20.5H64.0902ZM65.8624 20.0008C66.3061 20.0008 66.6556 19.9425 66.9107 19.8261C67.1659 19.704 67.3489 19.5154 67.4599 19.2603C67.5764 18.9996 67.6402 18.6473 67.6513 18.2036C67.6568 18.0372 67.6596 17.8292 67.6596 17.5796C67.6596 17.3355 67.6568 17.1303 67.6513 16.9639C67.6402 16.3426 67.4932 15.8905 67.2103 15.6077C66.9329 15.3192 66.4698 15.175 65.8208 15.175H64.4313V20.0008H65.8624ZM71.5099 20.5832C70.0843 20.5832 69.3521 19.8177 69.3133 18.2868C69.3078 18.1204 69.305 17.8874 69.305 17.5879C69.305 17.2884 69.3078 17.0554 69.3133 16.889C69.3355 16.1346 69.5407 15.5633 69.929 15.175C70.3173 14.7867 70.8442 14.5926 71.5099 14.5926C72.1755 14.5926 72.7024 14.7867 73.0907 15.175C73.479 15.5633 73.6842 16.1346 73.7064 16.889C73.7175 17.2218 73.7231 17.4548 73.7231 17.5879C73.7231 17.721 73.7175 17.954 73.7064 18.2868C73.6676 19.8177 72.9354 20.5832 71.5099 20.5832ZM71.5099 20.084C72.0091 20.084 72.4057 19.9342 72.6997 19.6347C72.9992 19.3296 73.1601 18.8664 73.1822 18.2452C73.1933 17.9124 73.1989 17.6933 73.1989 17.5879C73.1989 17.4825 73.1933 17.2634 73.1822 16.9306C73.1601 16.3093 72.9992 15.8489 72.6997 15.5494C72.4001 15.2443 72.0035 15.0918 71.5099 15.0918C71.0162 15.0918 70.6196 15.2443 70.3201 15.5494C70.0205 15.8489 69.8597 16.3093 69.8375 16.9306C69.8319 17.097 69.8292 17.3161 69.8292 17.5879C69.8292 17.8597 69.8319 18.0788 69.8375 18.2452C69.8597 18.8664 70.0178 19.3296 70.3117 19.6347C70.6113 19.9342 71.0106 20.084 71.5099 20.084ZM75.9805 20.5C75.914 20.5 75.8613 20.4861 75.8224 20.4584C75.7892 20.4251 75.7642 20.3724 75.7476 20.3003L74.6077 14.942L74.591 14.8422C74.591 14.7978 74.6077 14.759 74.641 14.7257C74.6742 14.6924 74.7131 14.6758 74.7574 14.6758H74.9322C75.0376 14.6758 75.0986 14.7174 75.1152 14.8006L76.0887 19.5432L77.1204 16.1568C77.1648 16.0292 77.2508 15.9654 77.3783 15.9654H77.5614C77.689 15.9654 77.7749 16.0292 77.8193 16.1568L78.851 19.5432L79.8245 14.8006C79.8412 14.7174 79.9022 14.6758 80.0076 14.6758H80.1823C80.2267 14.6758 80.2655 14.6924 80.2988 14.7257C80.3321 14.759 80.3487 14.7978 80.3487 14.8422L80.3321 14.942L79.1922 20.3003C79.1755 20.3724 79.1478 20.4251 79.109 20.4584C79.0757 20.4861 79.0258 20.5 78.9592 20.5H78.8344C78.7068 20.5 78.6208 20.4334 78.5765 20.3003L77.4699 16.7891L76.3633 20.3003C76.3244 20.4334 76.2385 20.5 76.1053 20.5H75.9805ZM81.7139 20.5C81.6585 20.5 81.6141 20.4834 81.5808 20.4501C81.5475 20.4168 81.5309 20.3724 81.5309 20.317V14.8671C81.5309 14.8117 81.5475 14.7673 81.5808 14.734C81.6141 14.6952 81.6585 14.6758 81.7139 14.6758H81.8887C81.9608 14.6758 82.019 14.7091 82.0634 14.7756L85.1336 19.4683V14.8671C85.1336 14.8117 85.1502 14.7673 85.1835 14.734C85.2168 14.6952 85.2612 14.6758 85.3166 14.6758H85.4664C85.5274 14.6758 85.5746 14.6924 85.6078 14.7257C85.6411 14.759 85.6578 14.8061 85.6578 14.8671V20.3086C85.6578 20.3641 85.6411 20.4112 85.6078 20.4501C85.5746 20.4834 85.5302 20.5 85.4747 20.5H85.2917C85.2196 20.5 85.1613 20.4667 85.117 20.4002L82.0551 15.7241V20.317C82.0551 20.3724 82.0357 20.4168 81.9968 20.4501C81.9636 20.4834 81.9192 20.5 81.8637 20.5H81.7139ZM87.4017 20.5C87.3462 20.5 87.3018 20.4834 87.2685 20.4501C87.2353 20.4168 87.2186 20.3724 87.2186 20.317V14.8588C87.2186 14.8034 87.2353 14.759 87.2685 14.7257C87.3018 14.6924 87.3462 14.6758 87.4017 14.6758H87.5597C87.6152 14.6758 87.6596 14.6924 87.6929 14.7257C87.7261 14.759 87.7428 14.8034 87.7428 14.8588V20.0008H90.6133C90.6743 20.0008 90.7215 20.0174 90.7547 20.0507C90.788 20.084 90.8047 20.1311 90.8047 20.1921V20.317C90.8047 20.3724 90.7853 20.4168 90.7464 20.4501C90.7131 20.4834 90.6688 20.5 90.6133 20.5H87.4017ZM93.6594 20.5832C92.2339 20.5832 91.5017 19.8177 91.4629 18.2868C91.4573 18.1204 91.4546 17.8874 91.4546 17.5879C91.4546 17.2884 91.4573 17.0554 91.4629 16.889C91.4851 16.1346 91.6903 15.5633 92.0786 15.175C92.4669 14.7867 92.9938 14.5926 93.6594 14.5926C94.3251 14.5926 94.852 14.7867 95.2403 15.175C95.6286 15.5633 95.8338 16.1346 95.856 16.889C95.8671 17.2218 95.8726 17.4548 95.8726 17.5879C95.8726 17.721 95.8671 17.954 95.856 18.2868C95.8172 19.8177 95.085 20.5832 93.6594 20.5832ZM93.6594 20.084C94.1587 20.084 94.5553 19.9342 94.8492 19.6347C95.1488 19.3296 95.3096 18.8664 95.3318 18.2452C95.3429 17.9124 95.3485 17.6933 95.3485 17.5879C95.3485 17.4825 95.3429 17.2634 95.3318 16.9306C95.3096 16.3093 95.1488 15.8489 94.8492 15.5494C94.5497 15.2443 94.1531 15.0918 93.6594 15.0918C93.1658 15.0918 92.7692 15.2443 92.4696 15.5494C92.1701 15.8489 92.0092 16.3093 91.9871 16.9306C91.9815 17.097 91.9787 17.3161 91.9787 17.5879C91.9787 17.8597 91.9815 18.0788 91.9871 18.2452C92.0092 18.8664 92.1673 19.3296 92.4613 19.6347C92.7608 19.9342 93.1602 20.084 93.6594 20.084ZM96.683 20.5C96.6386 20.5 96.5998 20.4834 96.5665 20.4501C96.5332 20.4168 96.5166 20.378 96.5166 20.3336L96.5332 20.2421L98.6382 14.8422C98.6826 14.7312 98.763 14.6758 98.8795 14.6758H99.1624C99.2789 14.6758 99.3593 14.7312 99.4037 14.8422L101.509 20.2421L101.525 20.3336C101.525 20.378 101.509 20.4168 101.475 20.4501C101.442 20.4834 101.403 20.5 101.359 20.5H101.193C101.143 20.5 101.101 20.4861 101.068 20.4584C101.04 20.4307 101.021 20.4029 101.01 20.3752L100.494 19.0439H97.5483L97.0324 20.3752C97.0213 20.4029 96.9991 20.4307 96.9659 20.4584C96.9381 20.4861 96.8993 20.5 96.8494 20.5H96.683ZM100.294 18.5447L99.021 15.2665L97.748 18.5447H100.294ZM102.693 20.5C102.638 20.5 102.594 20.4834 102.56 20.4501C102.527 20.4168 102.51 20.3724 102.51 20.317V14.8671C102.51 14.8117 102.527 14.7673 102.56 14.734C102.594 14.6952 102.638 14.6758 102.693 14.6758H104.466C105.043 14.6758 105.497 14.7618 105.83 14.9337C106.169 15.1001 106.407 15.347 106.546 15.6742C106.69 16.0015 106.768 16.4175 106.779 16.9223C106.784 17.0887 106.787 17.3078 106.787 17.5796C106.787 17.8569 106.784 18.0788 106.779 18.2452C106.768 18.7777 106.69 19.2076 106.546 19.5348C106.407 19.8566 106.174 20.0979 105.847 20.2587C105.52 20.4196 105.073 20.5 104.507 20.5H102.693ZM104.466 20.0008C104.909 20.0008 105.259 19.9425 105.514 19.8261C105.769 19.704 105.952 19.5154 106.063 19.2603C106.18 18.9996 106.243 18.6473 106.255 18.2036C106.26 18.0372 106.263 17.8292 106.263 17.5796C106.263 17.3355 106.26 17.1303 106.255 16.9639C106.243 16.3426 106.096 15.8905 105.814 15.6077C105.536 15.3192 105.073 15.175 104.424 15.175H103.035V20.0008H104.466ZM110.469 20.5C110.414 20.5 110.37 20.4834 110.336 20.4501C110.303 20.4168 110.286 20.3724 110.286 20.317V14.8671C110.286 14.8117 110.303 14.7673 110.336 14.734C110.37 14.6952 110.414 14.6758 110.469 14.6758H113.681C113.742 14.6758 113.789 14.6924 113.822 14.7257C113.856 14.759 113.872 14.8061 113.872 14.8671V14.992C113.872 15.0474 113.853 15.0918 113.814 15.1251C113.781 15.1584 113.737 15.175 113.681 15.175H110.811V17.4132H113.515C113.576 17.4132 113.623 17.4298 113.656 17.4631C113.689 17.4964 113.706 17.5435 113.706 17.6045V17.7293C113.706 17.7848 113.687 17.8292 113.648 17.8625C113.614 17.8957 113.57 17.9124 113.515 17.9124H110.811V20.317C110.811 20.3724 110.791 20.4168 110.752 20.4501C110.719 20.4834 110.675 20.5 110.619 20.5H110.469ZM115.215 20.5C115.159 20.5 115.115 20.4834 115.081 20.4501C115.048 20.4168 115.032 20.3724 115.032 20.317V14.8671C115.032 14.8117 115.048 14.7673 115.081 14.734C115.115 14.6952 115.159 14.6758 115.215 14.6758H117.153C117.752 14.6758 118.221 14.8172 118.559 15.1001C118.898 15.383 119.067 15.8018 119.067 16.3565C119.067 16.7947 118.959 17.1497 118.742 17.4215C118.526 17.6877 118.215 17.868 117.811 17.9623L119.15 20.2421C119.167 20.2754 119.175 20.3059 119.175 20.3336C119.175 20.378 119.158 20.4168 119.125 20.4501C119.092 20.4834 119.053 20.5 119.009 20.5H118.909C118.826 20.5 118.762 20.4834 118.717 20.4501C118.679 20.4112 118.637 20.353 118.593 20.2754L117.27 18.0372H115.556V20.317C115.556 20.3724 115.536 20.4168 115.497 20.4501C115.464 20.4834 115.42 20.5 115.364 20.5H115.215ZM117.112 17.538C117.594 17.538 117.952 17.4409 118.185 17.2468C118.423 17.0471 118.543 16.7503 118.543 16.3565C118.543 15.9627 118.423 15.6687 118.185 15.4745C117.952 15.2748 117.594 15.175 117.112 15.175H115.556V17.538H117.112ZM122.326 20.5832C120.9 20.5832 120.168 19.8177 120.129 18.2868C120.123 18.1204 120.121 17.8874 120.121 17.5879C120.121 17.2884 120.123 17.0554 120.129 16.889C120.151 16.1346 120.356 15.5633 120.745 15.175C121.133 14.7867 121.66 14.5926 122.326 14.5926C122.991 14.5926 123.518 14.7867 123.906 15.175C124.295 15.5633 124.5 16.1346 124.522 16.889C124.533 17.2218 124.539 17.4548 124.539 17.5879C124.539 17.721 124.533 17.954 124.522 18.2868C124.483 19.8177 123.751 20.5832 122.326 20.5832ZM122.326 20.084C122.825 20.084 123.221 19.9342 123.515 19.6347C123.815 19.3296 123.976 18.8664 123.998 18.2452C124.009 17.9124 124.015 17.6933 124.015 17.5879C124.015 17.4825 124.009 17.2634 123.998 16.9306C123.976 16.3093 123.815 15.8489 123.515 15.5494C123.216 15.2443 122.819 15.0918 122.326 15.0918C121.832 15.0918 121.435 15.2443 121.136 15.5494C120.836 15.8489 120.675 16.3093 120.653 16.9306C120.648 17.097 120.645 17.3161 120.645 17.5879C120.645 17.8597 120.648 18.0788 120.653 18.2452C120.675 18.8664 120.833 19.3296 121.127 19.6347C121.427 19.9342 121.826 20.084 122.326 20.084ZM126.054 20.5C125.998 20.5 125.951 20.4834 125.912 20.4501C125.879 20.4168 125.863 20.3724 125.863 20.317V14.8671C125.863 14.8061 125.879 14.759 125.912 14.7257C125.951 14.6924 125.998 14.6758 126.054 14.6758H126.262C126.345 14.6758 126.403 14.7118 126.437 14.7839L128.325 18.4615L130.222 14.7839C130.261 14.7118 130.319 14.6758 130.397 14.6758H130.597C130.658 14.6758 130.705 14.6924 130.738 14.7257C130.772 14.759 130.788 14.8061 130.788 14.8671V20.317C130.788 20.3724 130.769 20.4168 130.73 20.4501C130.697 20.4834 130.652 20.5 130.597 20.5H130.447C130.392 20.5 130.347 20.4834 130.314 20.4501C130.281 20.4168 130.264 20.3724 130.264 20.317V15.8073L128.675 18.9358C128.625 19.0467 128.539 19.1022 128.417 19.1022H128.234C128.112 19.1022 128.026 19.0467 127.976 18.9358L126.387 15.8073V20.317C126.387 20.3724 126.37 20.4168 126.337 20.4501C126.304 20.4834 126.259 20.5 126.204 20.5H126.054ZM63.4162 30.5C63.3718 30.5 63.3302 30.4834 63.2914 30.4501C63.2581 30.4168 63.2415 30.3752 63.2415 30.3253L63.2581 30.2504L65.2633 24.8838C65.3021 24.7451 65.3992 24.6758 65.5545 24.6758H66.4614C66.6057 24.6758 66.7027 24.7451 66.7527 24.8838L68.7579 30.2504C68.7634 30.267 68.7662 30.292 68.7662 30.3253C68.7662 30.3752 68.7495 30.4168 68.7163 30.4501C68.683 30.4834 68.6441 30.5 68.5998 30.5H67.8759C67.8038 30.5 67.7483 30.4834 67.7095 30.4501C67.6707 30.4168 67.6457 30.3807 67.6346 30.3419L67.2436 29.3268H64.7724L64.3814 30.3419C64.337 30.4473 64.2566 30.5 64.1401 30.5H63.4162ZM66.9523 28.37L66.0038 25.799L65.0636 28.37H66.9523ZM69.7426 30.5C69.6872 30.5 69.64 30.4806 69.6012 30.4418C69.5624 30.4029 69.543 30.3558 69.543 30.3003V24.8838C69.543 24.8228 69.5596 24.7729 69.5929 24.734C69.6317 24.6952 69.6816 24.6758 69.7426 24.6758H71.9725C72.6381 24.6758 73.1623 24.8339 73.545 25.15C73.9278 25.4607 74.1191 25.9183 74.1191 26.5229C74.1191 27.1275 73.9278 27.5851 73.545 27.8957C73.1678 28.2008 72.6437 28.3534 71.9725 28.3534H70.7328V30.3003C70.7328 30.3558 70.7133 30.4029 70.6745 30.4418C70.6412 30.4806 70.5941 30.5 70.5331 30.5H69.7426ZM71.9309 27.4298C72.2526 27.4298 72.4994 27.3549 72.6714 27.2052C72.8433 27.0498 72.9293 26.8224 72.9293 26.5229C72.9293 26.2345 72.8461 26.0098 72.6797 25.8489C72.5133 25.6825 72.2637 25.5993 71.9309 25.5993H70.7161V27.4298H71.9309ZM75.2272 30.5C75.1718 30.5 75.1246 30.4806 75.0858 30.4418C75.0469 30.4029 75.0275 30.3558 75.0275 30.3003V24.8838C75.0275 24.8228 75.0442 24.7729 75.0775 24.734C75.1163 24.6952 75.1662 24.6758 75.2272 24.6758H77.4571C78.1227 24.6758 78.6469 24.8339 79.0296 25.15C79.4123 25.4607 79.6037 25.9183 79.6037 26.5229C79.6037 27.1275 79.4123 27.5851 79.0296 27.8957C78.6524 28.2008 78.1282 28.3534 77.4571 28.3534H76.2173V30.3003C76.2173 30.3558 76.1979 30.4029 76.1591 30.4418C76.1258 30.4806 76.0787 30.5 76.0176 30.5H75.2272ZM77.4155 27.4298C77.7372 27.4298 77.984 27.3549 78.156 27.2052C78.3279 27.0498 78.4139 26.8224 78.4139 26.5229C78.4139 26.2345 78.3307 26.0098 78.1643 25.8489C77.9979 25.6825 77.7483 25.5993 77.4155 25.5993H76.2007V27.4298H77.4155ZM84.2484 30.5832C83.7547 30.5832 83.3304 30.5083 82.9754 30.3586C82.6204 30.2088 82.3514 30.0119 82.1683 29.7678C81.9853 29.5237 81.8882 29.2603 81.8771 28.9774C81.8771 28.9275 81.8937 28.8859 81.927 28.8526C81.9603 28.8193 82.0019 28.8027 82.0518 28.8027H82.7923C82.8589 28.8027 82.9088 28.8165 82.9421 28.8443C82.9809 28.8664 83.017 28.9053 83.0503 28.9607C83.1057 29.1493 83.2333 29.3074 83.433 29.435C83.6327 29.5626 83.9045 29.6264 84.2484 29.6264C84.6422 29.6264 84.939 29.5626 85.1387 29.435C85.3383 29.3019 85.4382 29.1188 85.4382 28.8859C85.4382 28.7305 85.3855 28.603 85.2801 28.5031C85.1803 28.4033 85.0277 28.3173 84.8225 28.2452C84.6228 28.1731 84.3233 28.0843 83.9239 27.9789C83.2694 27.8236 82.7896 27.6184 82.4845 27.3632C82.185 27.1025 82.0352 26.7337 82.0352 26.2566C82.0352 25.9349 82.1212 25.6493 82.2931 25.3996C82.4706 25.15 82.723 24.9531 83.0503 24.8089C83.3831 24.6647 83.7686 24.5926 84.2068 24.5926C84.6616 24.5926 85.0555 24.673 85.3883 24.8339C85.7211 24.9947 85.9735 25.1972 86.1454 25.4412C86.3229 25.6798 86.4172 25.9183 86.4283 26.1568C86.4283 26.2067 86.4117 26.2483 86.3784 26.2816C86.3451 26.3149 86.3035 26.3315 86.2536 26.3315H85.4798C85.3633 26.3315 85.2829 26.2788 85.2385 26.1734C85.2052 25.9959 85.0943 25.8489 84.9057 25.7325C84.7171 25.6104 84.4841 25.5494 84.2068 25.5494C83.8962 25.5494 83.6521 25.6077 83.4746 25.7241C83.2971 25.8406 83.2083 26.0098 83.2083 26.2317C83.2083 26.387 83.2527 26.5146 83.3415 26.6144C83.4302 26.7143 83.5689 26.803 83.7575 26.8807C83.9516 26.9583 84.229 27.0443 84.5895 27.1386C85.0776 27.2495 85.4659 27.3743 85.7544 27.513C86.0483 27.6517 86.2647 27.8264 86.4033 28.0372C86.542 28.248 86.6114 28.517 86.6114 28.8443C86.6114 29.1993 86.5115 29.5099 86.3118 29.7761C86.1177 30.0368 85.8403 30.2365 85.4798 30.3752C85.1248 30.5139 84.7143 30.5832 84.2484 30.5832ZM88.9809 30.5C88.9254 30.5 88.8783 30.4806 88.8394 30.4418C88.8006 30.4029 88.7812 30.3558 88.7812 30.3003V25.6992H87.2419C87.1865 25.6992 87.1393 25.6798 87.1005 25.6409C87.0617 25.6021 87.0423 25.555 87.0423 25.4995V24.8838C87.0423 24.8228 87.0589 24.7729 87.0922 24.734C87.131 24.6952 87.1809 24.6758 87.2419 24.6758H91.4853C91.5463 24.6758 91.5962 24.6952 91.6351 24.734C91.6739 24.7729 91.6933 24.8228 91.6933 24.8838V25.4995C91.6933 25.555 91.6739 25.6021 91.6351 25.6409C91.5962 25.6798 91.5463 25.6992 91.4853 25.6992H89.9544V30.3003C89.9544 30.3558 89.935 30.4029 89.8961 30.4418C89.8573 30.4806 89.8074 30.5 89.7464 30.5H88.9809ZM94.6701 30.5832C93.9157 30.5832 93.3278 30.3918 92.9062 30.0091C92.4846 29.6264 92.2628 29.0578 92.2406 28.3034C92.235 28.1426 92.2322 27.9068 92.2322 27.5962C92.2322 27.28 92.235 27.0415 92.2406 26.8807C92.2628 26.1429 92.4902 25.5771 92.9228 25.1833C93.3555 24.7895 93.9379 24.5926 94.6701 24.5926C95.4023 24.5926 95.9847 24.7895 96.4174 25.1833C96.8556 25.5771 97.0858 26.1429 97.108 26.8807C97.119 27.2024 97.1246 27.4409 97.1246 27.5962C97.1246 27.746 97.119 27.9817 97.108 28.3034C97.0802 29.0578 96.8556 29.6264 96.434 30.0091C96.0124 30.3918 95.4245 30.5832 94.6701 30.5832ZM94.6701 29.6264C95.0417 29.6264 95.3385 29.5154 95.5604 29.2936C95.7822 29.0661 95.9015 28.7222 95.9181 28.2618C95.9292 27.929 95.9348 27.7044 95.9348 27.5879C95.9348 27.4603 95.9292 27.2357 95.9181 26.9139C95.9015 26.4536 95.7822 26.1124 95.5604 25.8905C95.3385 25.6631 95.0417 25.5494 94.6701 25.5494C94.304 25.5494 94.01 25.6631 93.7881 25.8905C93.5663 26.1124 93.447 26.4536 93.4304 26.9139C93.4248 27.0748 93.4221 27.2995 93.4221 27.5879C93.4221 27.8708 93.4248 28.0954 93.4304 28.2618C93.447 28.7222 93.5635 29.0661 93.7798 29.2936C94.0017 29.5154 94.2985 29.6264 94.6701 29.6264ZM98.4168 30.5C98.3614 30.5 98.3142 30.4806 98.2754 30.4418C98.2366 30.4029 98.2172 30.3558 98.2172 30.3003V24.8838C98.2172 24.8228 98.2338 24.7729 98.2671 24.734C98.3059 24.6952 98.3558 24.6758 98.4168 24.6758H100.572C101.249 24.6758 101.778 24.8339 102.161 25.15C102.549 25.4662 102.743 25.9155 102.743 26.4979C102.743 26.9029 102.644 27.244 102.444 27.5213C102.25 27.7931 101.978 27.99 101.628 28.1121L102.843 30.2337C102.86 30.267 102.868 30.2975 102.868 30.3253C102.868 30.3752 102.849 30.4168 102.81 30.4501C102.777 30.4834 102.738 30.5 102.693 30.5H101.936C101.848 30.5 101.778 30.4806 101.728 30.4418C101.684 30.4029 101.642 30.3475 101.604 30.2754L100.53 28.3034H99.3737V30.3003C99.3737 30.3558 99.3543 30.4029 99.3154 30.4418C99.2822 30.4806 99.235 30.5 99.174 30.5H98.4168ZM100.547 27.3632C100.88 27.3632 101.129 27.2884 101.296 27.1386C101.468 26.9888 101.554 26.7725 101.554 26.4896C101.554 26.2067 101.468 25.9876 101.296 25.8323C101.129 25.677 100.88 25.5993 100.547 25.5993H99.3737V27.3632H100.547ZM104.015 30.5C103.96 30.5 103.913 30.4806 103.874 30.4418C103.835 30.4029 103.815 30.3558 103.815 30.3003V24.8838C103.815 24.8228 103.832 24.7729 103.865 24.734C103.904 24.6952 103.954 24.6758 104.015 24.6758H107.676C107.737 24.6758 107.787 24.6952 107.826 24.734C107.865 24.7729 107.884 24.8228 107.884 24.8838V25.4329C107.884 25.4939 107.865 25.5439 107.826 25.5827C107.787 25.616 107.737 25.6326 107.676 25.6326H104.939V27.1053H107.493C107.554 27.1053 107.604 27.1247 107.643 27.1636C107.682 27.1968 107.701 27.244 107.701 27.305V27.8209C107.701 27.8819 107.682 27.9318 107.643 27.9706C107.604 28.0039 107.554 28.0205 107.493 28.0205H104.939V29.5432H107.743C107.804 29.5432 107.854 29.5626 107.892 29.6014C107.931 29.6402 107.951 29.6902 107.951 29.7512V30.3003C107.951 30.3613 107.931 30.4112 107.892 30.4501C107.854 30.4834 107.804 30.5 107.743 30.5H104.015Z" fill="white"/>
<path d="M32.8906 23.2132C32.8776 21.0086 33.8765 19.3471 35.8935 18.122C34.7654 16.5058 33.0587 15.6169 30.8089 15.4456C28.6787 15.2775 26.348 16.6868 25.4947 16.6868C24.5928 16.6868 22.5305 15.5037 20.9078 15.5037C17.559 15.5555 14 18.1738 14 23.5009C14 25.0751 14.2877 26.701 14.8631 28.3754C15.6324 30.58 18.4059 35.9814 21.2989 35.8942C22.8117 35.8586 23.8817 34.821 25.8502 34.821C27.7606 34.821 28.7498 35.8942 30.4371 35.8942C33.356 35.8521 35.8644 30.942 36.595 28.731C32.6805 26.8853 32.8906 23.3263 32.8906 23.2132ZM32.5479 31.8439C32.0857 32.4871 31.6202 32.9946 31.1935 33.3211C30.8541 33.5797 30.5923 33.6896 30.4177 33.6961C30.1268 33.6929 29.8456 33.6217 29.2961 33.4116C29.2573 33.3955 29.2152 33.3793 29.1603 33.3599L29.0181 33.305C28.4556 33.0884 28.1194 32.972 27.6895 32.8589C27.0883 32.7037 26.4903 32.6197 25.8502 32.6197C25.1973 32.6197 24.5831 32.7005 23.9722 32.8524C23.5229 32.9656 23.1447 33.0916 22.5919 33.2985C22.5693 33.3082 22.3301 33.3987 22.2622 33.4246C22.1491 33.4666 22.0618 33.4989 21.981 33.528C21.6448 33.6444 21.4315 33.6929 21.2407 33.6961C21.2181 33.6961 21.1987 33.6929 21.1826 33.6896C21.147 33.6832 21.1017 33.6702 21.05 33.6476C20.9046 33.5894 20.73 33.4827 20.5328 33.3308C20.0803 32.9785 19.5825 32.4257 19.075 31.7178C18.1861 30.4701 17.3456 28.8151 16.9416 27.6546C16.4437 26.2064 16.1981 24.8197 16.1981 23.4976C16.1981 21.5517 16.7735 20.0712 17.7626 19.0659C18.6127 18.2061 19.757 17.7244 20.924 17.6986C21.1147 17.7018 21.3927 17.7471 21.745 17.844C22.023 17.9184 22.3268 18.0186 22.7374 18.1641C22.8602 18.2093 23.2837 18.3612 23.3354 18.3806C23.5843 18.4711 23.7718 18.5358 23.956 18.594C24.5443 18.7815 25.0001 18.8849 25.4947 18.8849C25.9957 18.8849 26.4256 18.7782 27.0366 18.5681C27.2661 18.4905 28.1 18.1802 28.2487 18.1285C29.0763 17.8343 29.6872 17.676 30.2141 17.6372C30.3692 17.6242 30.5082 17.6242 30.6408 17.6339C31.3745 17.6921 32.0016 17.8376 32.535 18.08C31.3196 19.4829 30.6925 21.1994 30.6957 23.2003C30.686 23.6754 30.7248 24.2249 30.8606 24.8747C31.0675 25.8606 31.4618 26.8368 32.0857 27.7516C32.5609 28.4466 33.1492 29.0737 33.8538 29.6199C33.4821 30.386 33.0263 31.178 32.5479 31.8439ZM29.4932 13.3541C31.1321 11.4082 30.9834 9.6368 30.9349 9C29.4868 9.08404 27.8124 9.9859 26.8588 11.0946C25.8082 12.2842 25.1908 13.755 25.3234 15.4132C26.8879 15.5328 28.3166 14.7279 29.4932 13.3541Z" fill="white"/>
</svg>
