<svg width="1474" height="285" viewBox="0 0 1474 285" fill="none" xmlns="http://www.w3.org/2000/svg">
<path fill-rule="evenodd" clip-rule="evenodd" d="M2.993 1.77383L0.527 3.77083L0.264 110.673L0 217.574L2.594 220.011L5.188 222.448L93.358 222.442C179.778 222.436 181.715 222.393 191.027 220.298C204.036 217.371 210.841 214.629 219.546 208.807C229.054 202.448 235.17 195.469 240.019 185.448C244.653 175.87 246.027 168.991 246.027 155.37C246.027 143.105 243.87 135.101 238.213 126.376C227.142 109.299 206.46 98.4738 180.777 96.3128C176.515 95.9538 173.027 95.2978 173.027 94.8538C173.027 94.4108 174.413 91.9938 176.108 89.4828C181.947 80.8308 183.529 74.8138 183.479 61.4478C183.447 52.9218 182.915 47.7108 181.642 43.4478C176.271 25.4678 163.399 12.1348 145.363 5.87283C130.592 0.744834 130.334 0.725833 65.993 0.237833C6.63 -0.213167 5.411 -0.183167 2.993 1.77383ZM653.682 14.7768C652.165 16.4538 652.027 25.1778 652.027 119.777C652.027 219.788 652.085 223.006 653.926 224.847C655.403 226.324 657.996 226.909 665.595 227.479C679.616 228.53 697.044 227.313 699.265 225.127C700.797 223.619 701.092 220.012 701.765 194.583L702.527 165.748L723.706 191.098C735.355 205.041 747.082 218.811 749.767 221.698L754.648 226.948H779.682C802.666 226.948 804.853 226.798 806.372 225.119C807.282 224.113 808.027 222.266 808.027 221.013C808.027 218.34 808.144 218.493 779.008 182.948C744.492 140.839 744.778 141.211 745.702 139.597C746.156 138.803 753.315 130.794 761.611 121.801C792.921 87.8558 801.027 78.6328 801.027 76.9508C801.027 75.9968 800.094 74.0318 798.954 72.5828L796.882 69.9478L774.204 69.9518C753.728 69.9548 751.226 70.1388 748.426 71.8458C745.816 73.4378 731.508 88.5488 707.439 115.135L702.351 120.755L701.676 68.6658C701.077 22.3668 700.819 16.3758 699.359 14.7628C697.871 13.1188 695.726 12.9478 676.527 12.9478C657.268 12.9478 655.186 13.1148 653.682 14.7768ZM1011.58 14.8848C1010.04 16.5938 1009.77 19.9528 1009.28 43.3108L1008.73 69.7988L995.41 70.1228C977.961 70.5488 978.634 69.8798 978.185 87.2368C977.997 94.5078 978.247 102.03 978.742 103.953C979.957 108.673 983.605 109.82 997.623 109.892L1008.72 109.948L1009.37 122.105C1009.73 128.791 1010.03 144.654 1010.04 157.355C1010.06 183.158 1010.9 188.889 1016.31 199.873C1021.94 211.299 1032.94 220.107 1047.03 224.455C1053.89 226.574 1099.89 228.425 1103.6 226.731C1107.49 224.96 1108.2 221.35 1107.85 205.096C1107.57 192.229 1107.26 189.752 1105.74 188.231C1104.22 186.713 1101.48 186.367 1087.24 185.902C1068.33 185.284 1067.03 184.841 1063.01 177.707C1060.86 173.904 1060.53 171.736 1059.9 157.448C1059.51 148.648 1059.16 134.406 1059.11 125.799L1059.03 110.15L1079.92 109.799C1107 109.344 1105.03 110.905 1105.03 89.9478C1105.03 69.0338 1106.9 70.5528 1080.58 70.0978L1060.33 69.7478L1059.68 52.5978C1059.33 43.1648 1059.03 31.0928 1059.03 25.7688C1059.03 18.3068 1058.67 15.7308 1057.46 14.5188C1056.12 13.1888 1052.62 12.9478 1034.61 12.9478C1014.84 12.9478 1013.21 13.0848 1011.58 14.8848ZM112.68 44.4788C118.981 47.5618 122.397 52.0418 124.017 59.3518C126.262 69.4768 121.258 80.8018 112.527 85.3598C108.84 87.2838 106.599 87.4708 83.913 87.7458L59.299 88.0438L61.74 79.7458C64.743 69.5358 64.809 61.7478 61.971 52.4478C60.797 48.5978 59.588 44.3638 59.284 43.0388L58.733 40.6298L82.982 41.2218C106.64 41.7988 107.364 41.8778 112.68 44.4788ZM339.612 67.9838C306.576 73.1948 286.223 90.1158 278.311 118.948C276.834 124.329 276.527 129.494 276.527 148.948C276.527 170.51 276.717 173.104 278.83 180.403C286.453 206.73 304.885 223.087 332.887 228.37C343.675 230.406 366.904 230.447 378.351 228.451C406.641 223.517 425.53 206.978 433.224 180.403C435.337 173.104 435.527 170.51 435.527 148.948C435.527 122.164 434.861 118.249 427.878 104.006C419.647 87.2158 403.237 75.0368 382.065 70.0058C372.213 67.6648 348.729 66.5458 339.612 67.9838ZM524.61 67.9848C513.503 69.7358 506.53 71.9308 497.027 76.6668C480.2 85.0538 469.364 98.3798 463.83 117.493C461.713 124.804 461.529 127.351 461.548 148.948C461.566 170.392 461.768 173.144 463.851 180.403C470.754 204.46 487.114 220.32 512.057 227.134C519.672 229.214 522.648 229.446 541.527 229.429C565.67 229.406 572.029 228.17 586.365 220.711C604.508 211.272 615.544 195.694 619.701 173.656C621.768 162.697 621.102 127.289 618.663 118.448C611.843 93.7328 594.338 76.9698 568.505 70.4168C557.697 67.6758 534.663 66.3988 524.61 67.9848ZM871.152 68.4638C837.012 74.6458 817.9 95.3118 821.174 122.506C822.768 135.744 830.762 146.802 843.738 153.714C852.434 158.348 856.137 159.571 877.612 164.908C905.789 171.91 911.034 174.93 911.023 184.148C911.014 192.489 903.546 197.108 890.141 197.066C881.815 197.04 879.042 195.963 868.305 188.592L860.084 182.948H840.555C822.36 182.948 820.89 183.085 819.027 184.948C815.284 188.691 817.097 196.441 823.867 205.637C830.2 214.239 845.044 223.035 860.189 227.159C867.674 229.198 870.777 229.43 890.527 229.434C910.031 229.438 913.526 229.185 921.328 227.2C945.822 220.97 960.572 208.357 964.621 190.18C967.806 175.884 963.619 162.472 952.531 151.448C942.481 141.456 933.121 137.499 905.527 131.574C880.7 126.244 874.073 123.171 871.922 115.992C870.939 112.711 871.046 111.58 872.648 108.324C875.462 102.603 879.966 100.443 889.027 100.471C897.331 100.497 899.434 101.333 911.355 109.354L918.184 113.948H936.533H954.882L956.954 111.313C959.744 107.767 959.571 105.356 956.016 98.2428C948.211 82.6218 926.622 70.4988 902.171 68.0038C888.979 66.6588 880.421 66.7848 871.152 68.4638ZM1193.03 67.5418C1166.3 72.5198 1150.61 81.8228 1139.03 99.5468C1129.82 113.649 1126.53 128.88 1127.29 153.948C1127.71 168.023 1128.18 171.771 1130.47 179.448C1137.9 204.343 1153.61 219.92 1178.58 227.147C1185.66 229.196 1188.65 229.446 1206.03 229.446C1228.3 229.446 1234.62 228.199 1249.22 220.912C1267.29 211.897 1280.67 197.137 1279.83 187.151C1279.34 181.241 1277.72 180.88 1253.02 181.184L1231.51 181.448L1223.88 188.104C1217.55 193.632 1215.33 194.951 1210.79 195.892C1204.48 197.202 1197.57 196.065 1192.4 192.867C1186.24 189.063 1180.03 175.711 1180.03 166.29V163.051L1230.12 162.75L1280.2 162.448L1282.12 160.087C1283.71 158.123 1284.02 156.106 1284.01 148.087C1283.92 107.163 1264.15 78.8018 1229.52 69.9448C1221.77 67.9638 1198.86 66.4558 1193.03 67.5418ZM1394.03 68.4388C1385.05 70.4698 1374.57 75.9568 1368.03 82.0518L1362.53 87.1768L1362.03 80.6648C1361.2 69.9238 1361.25 69.9478 1339.02 69.9478C1319.07 69.9478 1314.59 70.7088 1313.64 74.2608C1313.32 75.4638 1313.06 122.348 1313.07 178.448C1313.09 267.868 1313.28 280.695 1314.6 282.448C1316.03 284.344 1317.28 284.448 1338.53 284.448C1358.72 284.448 1361.13 284.27 1362.74 282.664C1364.37 281.032 1364.55 277.929 1364.84 246.402L1365.15 211.924L1371.84 217.601C1383.72 227.681 1393.54 230.544 1413.3 229.683C1426.58 229.105 1432.96 227.419 1442.45 221.992C1453.52 215.66 1463.53 202.648 1468.44 188.209C1474.79 169.528 1475.5 135.571 1469.97 114.463C1463.91 91.3448 1449.57 75.5608 1429.17 69.5658C1421.27 67.2448 1402.04 66.6278 1394.03 68.4388ZM1216.71 102.786C1224.62 106.821 1229.43 115.223 1230.7 127.198L1231.31 132.948H1205.67H1180.03V129.053C1180.03 117.778 1187.77 104.685 1196.29 101.544C1201.91 99.4728 1211.34 100.047 1216.71 102.786ZM369.794 107.63C378.986 113.36 382.981 125.488 383.01 147.756C383.039 170.487 380.561 180.523 373.297 187.085C368.561 191.364 363.399 193.295 356.527 193.359C340.959 193.504 332.828 185.997 330.087 168.948C328.772 160.768 328.753 138.617 330.054 129.622C332.631 111.796 341.915 103.373 357.9 104.358C363.749 104.719 366.208 105.395 369.794 107.63ZM554.66 107.547C563.982 113.356 567.98 125.369 568.01 147.657C568.05 178.29 562.511 190.118 546.777 192.997C542.753 193.733 539.301 193.733 535.277 192.997C519.863 190.176 514.086 178.592 514.054 150.448C514.023 121.81 518.564 110.242 531.775 105.314C534.163 104.423 538.158 104.047 542.766 104.28C548.626 104.576 550.891 105.199 554.66 107.547ZM1405.72 110.481C1414.19 114.7 1418.07 122.408 1420.08 138.988C1421.41 149.893 1420.07 165.175 1417.11 172.976C1412.54 185.007 1406.16 189.356 1393.03 189.398C1382.44 189.432 1376.65 186.956 1371.47 180.169C1365.75 172.675 1364.77 167.461 1365.27 147.113C1365.76 127.277 1366.79 122.928 1372.56 116.179C1377.78 110.079 1382.96 107.95 1392.58 107.949C1399.2 107.948 1401.54 108.4 1405.72 110.481ZM167.927 130.02C174.417 131.412 180.191 135.668 183.71 141.656C186.165 145.832 186.527 147.476 186.527 154.448C186.527 160.891 186.071 163.324 184.184 166.948C181.151 172.775 178.459 175.641 173.527 178.295C169.588 180.415 168.672 180.452 113.658 180.73C60.408 180.999 57.821 180.929 58.477 179.23C62.012 170.079 63.395 164.276 63.791 156.928C64.199 149.344 63.908 147.387 61.138 139.121C59.427 134.013 58.027 129.635 58.027 129.391C58.027 128.386 163.11 128.987 167.927 130.02Z" fill="black"/>
</svg>
