<svg width="67" height="36" viewBox="0 0 67 36" fill="none" xmlns="http://www.w3.org/2000/svg">
<g opacity="0.8">
<path d="M0 18C0 8.05887 8.05888 0 18 0H49C58.9411 0 67 8.05887 67 18V18C67 27.9411 58.9411 36 49 36H18C8.05888 36 0 27.9411 0 18V18Z" fill="black"/>
<path d="M24.72 23C24.432 23 24.2347 22.8613 24.128 22.584L20.56 12.296L20.528 12.12C20.528 12.0347 20.56 11.96 20.624 11.896C20.688 11.832 20.7627 11.8 20.848 11.8H21.68C21.8827 11.8 22.0267 11.896 22.112 12.088L25.232 21.16L28.368 12.088C28.3893 12.024 28.4373 11.96 28.512 11.896C28.5867 11.832 28.6773 11.8 28.784 11.8H29.616C29.7013 11.8 29.776 11.832 29.84 11.896C29.9147 11.96 29.952 12.0347 29.952 12.12L29.92 12.296L26.336 22.584C26.2293 22.8613 26.0373 23 25.76 23H24.72ZM33.1778 23.16C32.6551 23.16 32.1697 23.0533 31.7218 22.84C31.2737 22.6267 30.9164 22.3387 30.6497 21.976C30.3937 21.6027 30.2657 21.192 30.2657 20.744C30.2657 20.04 30.5537 19.464 31.1298 19.016C31.7164 18.5573 32.5058 18.2587 33.4978 18.12L35.8818 17.784V17.32C35.8818 16.232 35.2578 15.688 34.0098 15.688C33.5404 15.688 33.1564 15.7893 32.8578 15.992C32.5591 16.184 32.3351 16.4133 32.1858 16.68C32.1538 16.776 32.1111 16.8453 32.0577 16.888C32.0151 16.9307 31.9511 16.952 31.8658 16.952H31.1777C31.0817 16.952 30.9964 16.92 30.9217 16.856C30.8577 16.7813 30.8257 16.696 30.8257 16.6C30.8364 16.344 30.9538 16.056 31.1777 15.736C31.4124 15.4053 31.7698 15.1227 32.2498 14.888C32.7298 14.6427 33.3218 14.52 34.0258 14.52C35.2204 14.52 36.0791 14.8027 36.6018 15.368C37.1244 15.9227 37.3858 16.616 37.3858 17.448V22.632C37.3858 22.7387 37.3484 22.8293 37.2738 22.904C37.2098 22.968 37.1244 23 37.0178 23H36.2818C36.1751 23 36.0844 22.968 36.0098 22.904C35.9458 22.8293 35.9138 22.7387 35.9138 22.632V21.944C35.6791 22.2853 35.3378 22.5733 34.8898 22.808C34.4418 23.0427 33.8711 23.16 33.1778 23.16ZM33.5138 21.96C34.2071 21.96 34.7724 21.736 35.2098 21.288C35.6578 20.8293 35.8818 20.1733 35.8818 19.32V18.872L34.0258 19.144C33.2684 19.2507 32.6978 19.432 32.3138 19.688C31.9298 19.9333 31.7378 20.248 31.7378 20.632C31.7378 21.0587 31.9138 21.3893 32.2657 21.624C32.6178 21.848 33.0338 21.96 33.5138 21.96ZM32.2498 13.064C32.1431 13.064 32.0578 13.032 31.9938 12.968C31.9298 12.904 31.8978 12.8187 31.8978 12.712V11.848C31.8978 11.7413 31.9298 11.656 31.9938 11.592C32.0578 11.5173 32.1431 11.48 32.2498 11.48H33.1298C33.2364 11.48 33.3218 11.5173 33.3858 11.592C33.4604 11.656 33.4978 11.7413 33.4978 11.848V12.712C33.4978 12.8187 33.4604 12.904 33.3858 12.968C33.3218 13.032 33.2364 13.064 33.1298 13.064H32.2498ZM34.9698 13.064C34.8631 13.064 34.7724 13.032 34.6978 12.968C34.6338 12.904 34.6018 12.8187 34.6018 12.712V11.848C34.6018 11.7413 34.6338 11.656 34.6978 11.592C34.7724 11.5173 34.8631 11.48 34.9698 11.48H35.8338C35.9404 11.48 36.0258 11.5173 36.0898 11.592C36.1644 11.656 36.2018 11.7413 36.2018 11.848V12.712C36.2018 12.8187 36.1644 12.904 36.0898 12.968C36.0258 13.032 35.9404 13.064 35.8338 13.064H34.9698ZM40.1499 23C40.0432 23 39.9525 22.968 39.8779 22.904C39.8139 22.8293 39.7819 22.7387 39.7819 22.632V12.008C39.7819 11.9013 39.8139 11.816 39.8779 11.752C39.9525 11.6773 40.0432 11.64 40.1499 11.64H40.9019C41.0085 11.64 41.0939 11.6773 41.1579 11.752C41.2325 11.816 41.2699 11.9013 41.2699 12.008V22.632C41.2699 22.7387 41.2325 22.8293 41.1579 22.904C41.0939 22.968 41.0085 23 40.9019 23H40.1499ZM44.1365 13.128C44.0298 13.128 43.9392 13.096 43.8645 13.032C43.8005 12.9573 43.7685 12.8667 43.7685 12.76V11.896C43.7685 11.7893 43.8005 11.6987 43.8645 11.624C43.9392 11.5493 44.0298 11.512 44.1365 11.512H45.1605C45.2672 11.512 45.3578 11.5493 45.4325 11.624C45.5072 11.6987 45.5445 11.7893 45.5445 11.896V12.76C45.5445 12.8667 45.5072 12.9573 45.4325 13.032C45.3578 13.096 45.2672 13.128 45.1605 13.128H44.1365ZM42.3765 26.04C42.2698 26.04 42.1845 26.0027 42.1205 25.928C42.0458 25.864 42.0085 25.7787 42.0085 25.672V25.128C42.0085 25.0213 42.0458 24.9307 42.1205 24.856C42.1845 24.792 42.2698 24.76 42.3765 24.76H42.6005C43.1232 24.76 43.4698 24.6267 43.6405 24.36C43.8112 24.0933 43.8965 23.6987 43.8965 23.176V15.048C43.8965 14.9413 43.9285 14.856 43.9925 14.792C44.0672 14.7173 44.1578 14.68 44.2645 14.68H45.0485C45.1552 14.68 45.2405 14.7173 45.3045 14.792C45.3792 14.856 45.4165 14.9413 45.4165 15.048V23.192C45.4165 25.0907 44.5045 26.04 42.6805 26.04H42.3765Z" fill="white"/>
</g>
</svg>
