<svg width="170" height="46" viewBox="0 0 170 46" fill="none" xmlns="http://www.w3.org/2000/svg">
<path d="M0 10C0 4.47715 4.47715 0 10 0H160C165.523 0 170 4.47715 170 10V35.625C170 41.1478 165.523 45.625 160 45.625H10C4.47715 45.625 0 41.1478 0 35.625V10Z" fill="#333333"/>
<path d="M64.0902 20.5C64.0347 20.5 63.9903 20.4834 63.957 20.4501C63.9238 20.4168 63.9071 20.3724 63.9071 20.317V14.8671C63.9071 14.8117 63.9238 14.7673 63.957 14.734C63.9903 14.6952 64.0347 14.6758 64.0902 14.6758H65.8624C66.4393 14.6758 66.8941 14.7618 67.2269 14.9337C67.5653 15.1001 67.8038 15.347 67.9425 15.6742C68.0867 16.0015 68.1643 16.4175 68.1754 16.9223C68.181 17.0887 68.1838 17.3078 68.1838 17.5796C68.1838 17.8569 68.181 18.0788 68.1754 18.2452C68.1643 18.7777 68.0867 19.2076 67.9425 19.5348C67.8038 19.8566 67.5708 20.0979 67.2436 20.2587C66.9163 20.4196 66.4698 20.5 65.904 20.5H64.0902ZM65.8624 20.0008C66.3061 20.0008 66.6556 19.9425 66.9107 19.8261C67.1659 19.704 67.3489 19.5154 67.4599 19.2603C67.5764 18.9996 67.6402 18.6473 67.6513 18.2036C67.6568 18.0372 67.6596 17.8292 67.6596 17.5796C67.6596 17.3355 67.6568 17.1303 67.6513 16.9639C67.6402 16.3426 67.4932 15.8905 67.2103 15.6077C66.9329 15.3192 66.4698 15.175 65.8208 15.175H64.4313V20.0008H65.8624ZM71.5099 20.5832C70.0843 20.5832 69.3521 19.8177 69.3133 18.2868C69.3078 18.1204 69.305 17.8874 69.305 17.5879C69.305 17.2884 69.3078 17.0554 69.3133 16.889C69.3355 16.1346 69.5407 15.5633 69.929 15.175C70.3173 14.7867 70.8442 14.5926 71.5099 14.5926C72.1755 14.5926 72.7024 14.7867 73.0907 15.175C73.479 15.5633 73.6842 16.1346 73.7064 16.889C73.7175 17.2218 73.7231 17.4548 73.7231 17.5879C73.7231 17.721 73.7175 17.954 73.7064 18.2868C73.6676 19.8177 72.9354 20.5832 71.5099 20.5832ZM71.5099 20.084C72.0091 20.084 72.4057 19.9342 72.6997 19.6347C72.9992 19.3296 73.1601 18.8664 73.1822 18.2452C73.1933 17.9124 73.1989 17.6933 73.1989 17.5879C73.1989 17.4825 73.1933 17.2634 73.1822 16.9306C73.1601 16.3093 72.9992 15.8489 72.6997 15.5494C72.4001 15.2443 72.0035 15.0918 71.5099 15.0918C71.0162 15.0918 70.6196 15.2443 70.3201 15.5494C70.0205 15.8489 69.8597 16.3093 69.8375 16.9306C69.8319 17.097 69.8292 17.3161 69.8292 17.5879C69.8292 17.8597 69.8319 18.0788 69.8375 18.2452C69.8597 18.8664 70.0178 19.3296 70.3117 19.6347C70.6113 19.9342 71.0106 20.084 71.5099 20.084ZM75.9805 20.5C75.914 20.5 75.8613 20.4861 75.8224 20.4584C75.7892 20.4251 75.7642 20.3724 75.7476 20.3003L74.6077 14.942L74.591 14.8422C74.591 14.7978 74.6077 14.759 74.641 14.7257C74.6742 14.6924 74.7131 14.6758 74.7574 14.6758H74.9322C75.0376 14.6758 75.0986 14.7174 75.1152 14.8006L76.0887 19.5432L77.1204 16.1568C77.1648 16.0292 77.2508 15.9654 77.3783 15.9654H77.5614C77.689 15.9654 77.7749 16.0292 77.8193 16.1568L78.851 19.5432L79.8245 14.8006C79.8412 14.7174 79.9022 14.6758 80.0076 14.6758H80.1823C80.2267 14.6758 80.2655 14.6924 80.2988 14.7257C80.3321 14.759 80.3487 14.7978 80.3487 14.8422L80.3321 14.942L79.1922 20.3003C79.1755 20.3724 79.1478 20.4251 79.109 20.4584C79.0757 20.4861 79.0258 20.5 78.9592 20.5H78.8344C78.7068 20.5 78.6208 20.4334 78.5765 20.3003L77.4699 16.7891L76.3633 20.3003C76.3244 20.4334 76.2385 20.5 76.1053 20.5H75.9805ZM81.7139 20.5C81.6585 20.5 81.6141 20.4834 81.5808 20.4501C81.5475 20.4168 81.5309 20.3724 81.5309 20.317V14.8671C81.5309 14.8117 81.5475 14.7673 81.5808 14.734C81.6141 14.6952 81.6585 14.6758 81.7139 14.6758H81.8887C81.9608 14.6758 82.019 14.7091 82.0634 14.7756L85.1336 19.4683V14.8671C85.1336 14.8117 85.1502 14.7673 85.1835 14.734C85.2168 14.6952 85.2612 14.6758 85.3166 14.6758H85.4664C85.5274 14.6758 85.5746 14.6924 85.6078 14.7257C85.6411 14.759 85.6578 14.8061 85.6578 14.8671V20.3086C85.6578 20.3641 85.6411 20.4112 85.6078 20.4501C85.5746 20.4834 85.5302 20.5 85.4747 20.5H85.2917C85.2196 20.5 85.1613 20.4667 85.117 20.4002L82.0551 15.7241V20.317C82.0551 20.3724 82.0357 20.4168 81.9968 20.4501C81.9636 20.4834 81.9192 20.5 81.8637 20.5H81.7139ZM87.4017 20.5C87.3462 20.5 87.3018 20.4834 87.2685 20.4501C87.2353 20.4168 87.2186 20.3724 87.2186 20.317V14.8588C87.2186 14.8034 87.2353 14.759 87.2685 14.7257C87.3018 14.6924 87.3462 14.6758 87.4017 14.6758H87.5597C87.6152 14.6758 87.6596 14.6924 87.6929 14.7257C87.7261 14.759 87.7428 14.8034 87.7428 14.8588V20.0008H90.6133C90.6743 20.0008 90.7215 20.0174 90.7547 20.0507C90.788 20.084 90.8047 20.1311 90.8047 20.1921V20.317C90.8047 20.3724 90.7853 20.4168 90.7464 20.4501C90.7131 20.4834 90.6688 20.5 90.6133 20.5H87.4017ZM93.6594 20.5832C92.2339 20.5832 91.5017 19.8177 91.4629 18.2868C91.4573 18.1204 91.4546 17.8874 91.4546 17.5879C91.4546 17.2884 91.4573 17.0554 91.4629 16.889C91.4851 16.1346 91.6903 15.5633 92.0786 15.175C92.4669 14.7867 92.9938 14.5926 93.6594 14.5926C94.3251 14.5926 94.852 14.7867 95.2403 15.175C95.6286 15.5633 95.8338 16.1346 95.856 16.889C95.8671 17.2218 95.8726 17.4548 95.8726 17.5879C95.8726 17.721 95.8671 17.954 95.856 18.2868C95.8172 19.8177 95.085 20.5832 93.6594 20.5832ZM93.6594 20.084C94.1587 20.084 94.5553 19.9342 94.8492 19.6347C95.1488 19.3296 95.3096 18.8664 95.3318 18.2452C95.3429 17.9124 95.3485 17.6933 95.3485 17.5879C95.3485 17.4825 95.3429 17.2634 95.3318 16.9306C95.3096 16.3093 95.1488 15.8489 94.8492 15.5494C94.5497 15.2443 94.1531 15.0918 93.6594 15.0918C93.1658 15.0918 92.7692 15.2443 92.4696 15.5494C92.1701 15.8489 92.0092 16.3093 91.9871 16.9306C91.9815 17.097 91.9787 17.3161 91.9787 17.5879C91.9787 17.8597 91.9815 18.0788 91.9871 18.2452C92.0092 18.8664 92.1673 19.3296 92.4613 19.6347C92.7608 19.9342 93.1602 20.084 93.6594 20.084ZM96.683 20.5C96.6386 20.5 96.5998 20.4834 96.5665 20.4501C96.5332 20.4168 96.5166 20.378 96.5166 20.3336L96.5332 20.2421L98.6382 14.8422C98.6826 14.7312 98.763 14.6758 98.8795 14.6758H99.1624C99.2789 14.6758 99.3593 14.7312 99.4037 14.8422L101.509 20.2421L101.525 20.3336C101.525 20.378 101.509 20.4168 101.475 20.4501C101.442 20.4834 101.403 20.5 101.359 20.5H101.193C101.143 20.5 101.101 20.4861 101.068 20.4584C101.04 20.4307 101.021 20.4029 101.01 20.3752L100.494 19.0439H97.5483L97.0324 20.3752C97.0213 20.4029 96.9991 20.4307 96.9659 20.4584C96.9381 20.4861 96.8993 20.5 96.8494 20.5H96.683ZM100.294 18.5447L99.021 15.2665L97.748 18.5447H100.294ZM102.693 20.5C102.638 20.5 102.594 20.4834 102.56 20.4501C102.527 20.4168 102.51 20.3724 102.51 20.317V14.8671C102.51 14.8117 102.527 14.7673 102.56 14.734C102.594 14.6952 102.638 14.6758 102.693 14.6758H104.466C105.043 14.6758 105.497 14.7618 105.83 14.9337C106.169 15.1001 106.407 15.347 106.546 15.6742C106.69 16.0015 106.768 16.4175 106.779 16.9223C106.784 17.0887 106.787 17.3078 106.787 17.5796C106.787 17.8569 106.784 18.0788 106.779 18.2452C106.768 18.7777 106.69 19.2076 106.546 19.5348C106.407 19.8566 106.174 20.0979 105.847 20.2587C105.52 20.4196 105.073 20.5 104.507 20.5H102.693ZM104.466 20.0008C104.909 20.0008 105.259 19.9425 105.514 19.8261C105.769 19.704 105.952 19.5154 106.063 19.2603C106.18 18.9996 106.243 18.6473 106.255 18.2036C106.26 18.0372 106.263 17.8292 106.263 17.5796C106.263 17.3355 106.26 17.1303 106.255 16.9639C106.243 16.3426 106.096 15.8905 105.814 15.6077C105.536 15.3192 105.073 15.175 104.424 15.175H103.035V20.0008H104.466ZM110.469 20.5C110.414 20.5 110.37 20.4834 110.336 20.4501C110.303 20.4168 110.286 20.3724 110.286 20.317V14.8671C110.286 14.8117 110.303 14.7673 110.336 14.734C110.37 14.6952 110.414 14.6758 110.469 14.6758H113.681C113.742 14.6758 113.789 14.6924 113.822 14.7257C113.856 14.759 113.872 14.8061 113.872 14.8671V14.992C113.872 15.0474 113.853 15.0918 113.814 15.1251C113.781 15.1584 113.737 15.175 113.681 15.175H110.811V17.4132H113.515C113.576 17.4132 113.623 17.4298 113.656 17.4631C113.689 17.4964 113.706 17.5435 113.706 17.6045V17.7293C113.706 17.7848 113.687 17.8292 113.648 17.8625C113.614 17.8957 113.57 17.9124 113.515 17.9124H110.811V20.317C110.811 20.3724 110.791 20.4168 110.752 20.4501C110.719 20.4834 110.675 20.5 110.619 20.5H110.469ZM115.215 20.5C115.159 20.5 115.115 20.4834 115.081 20.4501C115.048 20.4168 115.032 20.3724 115.032 20.317V14.8671C115.032 14.8117 115.048 14.7673 115.081 14.734C115.115 14.6952 115.159 14.6758 115.215 14.6758H117.153C117.752 14.6758 118.221 14.8172 118.559 15.1001C118.898 15.383 119.067 15.8018 119.067 16.3565C119.067 16.7947 118.959 17.1497 118.742 17.4215C118.526 17.6877 118.215 17.868 117.811 17.9623L119.15 20.2421C119.167 20.2754 119.175 20.3059 119.175 20.3336C119.175 20.378 119.158 20.4168 119.125 20.4501C119.092 20.4834 119.053 20.5 119.009 20.5H118.909C118.826 20.5 118.762 20.4834 118.717 20.4501C118.679 20.4112 118.637 20.353 118.593 20.2754L117.27 18.0372H115.556V20.317C115.556 20.3724 115.536 20.4168 115.497 20.4501C115.464 20.4834 115.42 20.5 115.364 20.5H115.215ZM117.112 17.538C117.594 17.538 117.952 17.4409 118.185 17.2468C118.423 17.0471 118.543 16.7503 118.543 16.3565C118.543 15.9627 118.423 15.6687 118.185 15.4745C117.952 15.2748 117.594 15.175 117.112 15.175H115.556V17.538H117.112ZM122.326 20.5832C120.9 20.5832 120.168 19.8177 120.129 18.2868C120.123 18.1204 120.121 17.8874 120.121 17.5879C120.121 17.2884 120.123 17.0554 120.129 16.889C120.151 16.1346 120.356 15.5633 120.745 15.175C121.133 14.7867 121.66 14.5926 122.326 14.5926C122.991 14.5926 123.518 14.7867 123.906 15.175C124.295 15.5633 124.5 16.1346 124.522 16.889C124.533 17.2218 124.539 17.4548 124.539 17.5879C124.539 17.721 124.533 17.954 124.522 18.2868C124.483 19.8177 123.751 20.5832 122.326 20.5832ZM122.326 20.084C122.825 20.084 123.221 19.9342 123.515 19.6347C123.815 19.3296 123.976 18.8664 123.998 18.2452C124.009 17.9124 124.015 17.6933 124.015 17.5879C124.015 17.4825 124.009 17.2634 123.998 16.9306C123.976 16.3093 123.815 15.8489 123.515 15.5494C123.216 15.2443 122.819 15.0918 122.326 15.0918C121.832 15.0918 121.435 15.2443 121.136 15.5494C120.836 15.8489 120.675 16.3093 120.653 16.9306C120.648 17.097 120.645 17.3161 120.645 17.5879C120.645 17.8597 120.648 18.0788 120.653 18.2452C120.675 18.8664 120.833 19.3296 121.127 19.6347C121.427 19.9342 121.826 20.084 122.326 20.084ZM126.054 20.5C125.998 20.5 125.951 20.4834 125.912 20.4501C125.879 20.4168 125.863 20.3724 125.863 20.317V14.8671C125.863 14.8061 125.879 14.759 125.912 14.7257C125.951 14.6924 125.998 14.6758 126.054 14.6758H126.262C126.345 14.6758 126.403 14.7118 126.437 14.7839L128.325 18.4615L130.222 14.7839C130.261 14.7118 130.319 14.6758 130.397 14.6758H130.597C130.658 14.6758 130.705 14.6924 130.738 14.7257C130.772 14.759 130.788 14.8061 130.788 14.8671V20.317C130.788 20.3724 130.769 20.4168 130.73 20.4501C130.697 20.4834 130.652 20.5 130.597 20.5H130.447C130.392 20.5 130.347 20.4834 130.314 20.4501C130.281 20.4168 130.264 20.3724 130.264 20.317V15.8073L128.675 18.9358C128.625 19.0467 128.539 19.1022 128.417 19.1022H128.234C128.112 19.1022 128.026 19.0467 127.976 18.9358L126.387 15.8073V20.317C126.387 20.3724 126.37 20.4168 126.337 20.4501C126.304 20.4834 126.259 20.5 126.204 20.5H126.054ZM66.0371 30.5832C65.2772 30.5832 64.6837 30.3863 64.2566 29.9925C63.835 29.5986 63.6104 29.0495 63.5826 28.345C63.5771 28.1842 63.5743 27.9262 63.5743 27.5712C63.5743 27.2162 63.5771 26.9583 63.5826 26.7975C63.6104 26.1096 63.8378 25.5716 64.2649 25.1833C64.6975 24.7895 65.2883 24.5926 66.0371 24.5926C66.5474 24.5926 66.9856 24.6786 67.3517 24.8505C67.7178 25.0225 67.9952 25.2388 68.1838 25.4995C68.3723 25.7546 68.4722 26.007 68.4833 26.2566V26.2733C68.4833 26.3177 68.4666 26.3565 68.4334 26.3898C68.4001 26.4175 68.3585 26.4314 68.3086 26.4314H67.4516C67.3961 26.4314 67.3545 26.423 67.3268 26.4064C67.299 26.3842 67.2741 26.3482 67.2519 26.2982C67.1742 26.093 67.0383 25.9183 66.8442 25.7741C66.65 25.6243 66.381 25.5494 66.0371 25.5494C65.6488 25.5494 65.3438 25.6548 65.1219 25.8656C64.9055 26.0764 64.7891 26.4009 64.7724 26.8391C64.7669 26.9999 64.7641 27.244 64.7641 27.5712C64.7641 27.893 64.7669 28.137 64.7724 28.3034C64.8057 29.1854 65.2328 29.6264 66.0538 29.6264C66.4476 29.6264 66.7638 29.521 67.0023 29.3102C67.2408 29.0939 67.36 28.7749 67.36 28.3534V28.0954H66.345C66.2839 28.0954 66.234 28.076 66.1952 28.0372C66.1619 27.9984 66.1453 27.9484 66.1453 27.8874V27.4464C66.1453 27.3854 66.1619 27.3355 66.1952 27.2967C66.234 27.2579 66.2839 27.2384 66.345 27.2384H68.3335C68.3945 27.2384 68.4417 27.2579 68.475 27.2967C68.5138 27.3355 68.5332 27.3854 68.5332 27.4464V28.3201C68.5332 28.7805 68.4306 29.1826 68.2254 29.5265C68.0257 29.8649 67.7372 30.1256 67.36 30.3086C66.9829 30.4917 66.5419 30.5832 66.0371 30.5832ZM71.4137 30.5832C70.7647 30.5832 70.2627 30.4168 69.9077 30.084C69.5527 29.7456 69.3613 29.2852 69.3336 28.7028L69.3253 28.3367L69.3336 27.9706C69.3613 27.3937 69.5555 26.9361 69.916 26.5978C70.2765 26.2594 70.7758 26.0902 71.4137 26.0902C72.0515 26.0902 72.5508 26.2594 72.9113 26.5978C73.2719 26.9361 73.466 27.3937 73.4937 27.9706C73.4993 28.0372 73.5021 28.1592 73.5021 28.3367C73.5021 28.5142 73.4993 28.6362 73.4937 28.7028C73.466 29.2852 73.2746 29.7456 72.9196 30.084C72.5646 30.4168 72.0626 30.5832 71.4137 30.5832ZM71.4137 29.7595C71.7076 29.7595 71.9351 29.668 72.0959 29.4849C72.2568 29.2963 72.3455 29.0218 72.3622 28.6612C72.3677 28.6057 72.3705 28.4976 72.3705 28.3367C72.3705 28.1759 72.3677 28.0677 72.3622 28.0122C72.3455 27.6517 72.2568 27.3799 72.0959 27.1968C71.9351 27.0082 71.7076 26.9139 71.4137 26.9139C71.1197 26.9139 70.8923 27.0082 70.7314 27.1968C70.5705 27.3799 70.4818 27.6517 70.4651 28.0122L70.4568 28.3367L70.4651 28.6612C70.4818 29.0218 70.5705 29.2963 70.7314 29.4849C70.8923 29.668 71.1197 29.7595 71.4137 29.7595ZM76.3376 30.5832C75.6886 30.5832 75.1866 30.4168 74.8316 30.084C74.4766 29.7456 74.2852 29.2852 74.2575 28.7028L74.2492 28.3367L74.2575 27.9706C74.2852 27.3937 74.4794 26.9361 74.8399 26.5978C75.2005 26.2594 75.6997 26.0902 76.3376 26.0902C76.9755 26.0902 77.4747 26.2594 77.8352 26.5978C78.1958 26.9361 78.3899 27.3937 78.4177 27.9706C78.4232 28.0372 78.426 28.1592 78.426 28.3367C78.426 28.5142 78.4232 28.6362 78.4177 28.7028C78.3899 29.2852 78.1986 29.7456 77.8436 30.084C77.4886 30.4168 76.9866 30.5832 76.3376 30.5832ZM76.3376 29.7595C76.6316 29.7595 76.859 29.668 77.0199 29.4849C77.1807 29.2963 77.2695 29.0218 77.2861 28.6612C77.2917 28.6057 77.2944 28.4976 77.2944 28.3367C77.2944 28.1759 77.2917 28.0677 77.2861 28.0122C77.2695 27.6517 77.1807 27.3799 77.0199 27.1968C76.859 27.0082 76.6316 26.9139 76.3376 26.9139C76.0436 26.9139 75.8162 27.0082 75.6553 27.1968C75.4945 27.3799 75.4057 27.6517 75.3891 28.0122L75.3808 28.3367L75.3891 28.6612C75.4057 29.0218 75.4945 29.2963 75.6553 29.4849C75.8162 29.668 76.0436 29.7595 76.3376 29.7595ZM81.3031 32.3305C80.8095 32.3305 80.4101 32.2473 80.105 32.0809C79.7999 31.92 79.5836 31.7342 79.456 31.5234C79.3284 31.3126 79.2647 31.1323 79.2647 30.9826C79.2647 30.9327 79.2841 30.8883 79.3229 30.8495C79.3673 30.8106 79.4144 30.7912 79.4643 30.7912H80.1882C80.2381 30.7912 80.2797 30.8023 80.313 30.8245C80.3518 30.8522 80.3823 30.8994 80.4045 30.9659C80.46 31.1157 80.5488 31.2405 80.6708 31.3404C80.7984 31.4457 80.9953 31.4984 81.2615 31.4984C81.5943 31.4984 81.8384 31.4236 81.9937 31.2738C82.1546 31.124 82.235 30.8661 82.235 30.5V29.9342C81.9299 30.2948 81.5028 30.475 80.9537 30.475C80.3768 30.475 79.9414 30.2975 79.6474 29.9425C79.3589 29.5875 79.2036 29.1105 79.1814 28.5114L79.1731 28.2868L79.1814 28.0621C79.2036 27.4742 79.3617 26.9999 79.6557 26.6394C79.9497 26.2733 80.3823 26.0902 80.9537 26.0902C81.2477 26.0902 81.5056 26.1457 81.7275 26.2566C81.9493 26.3676 82.1352 26.5201 82.2849 26.7143V26.3814C82.2849 26.3204 82.3043 26.2705 82.3432 26.2317C82.382 26.1929 82.4291 26.1734 82.4846 26.1734H83.1586C83.214 26.1734 83.2612 26.1956 83.3 26.24C83.3388 26.2788 83.3582 26.326 83.3582 26.3814L83.3666 30.3918C83.3666 31.0075 83.1946 31.4846 82.8507 31.8229C82.5068 32.1613 81.9909 32.3305 81.3031 32.3305ZM81.2615 29.5931C81.5777 29.5931 81.8134 29.4932 81.9688 29.2936C82.1296 29.0939 82.2184 28.8498 82.235 28.5614C82.2405 28.517 82.2433 28.4255 82.2433 28.2868C82.2433 28.1537 82.2405 28.0649 82.235 28.0205C82.2184 27.7266 82.1296 27.4797 81.9688 27.28C81.8134 27.0804 81.5777 26.9805 81.2615 26.9805C80.6625 26.9805 80.3463 27.3494 80.313 28.0871L80.3047 28.2868C80.3047 28.6806 80.374 28.9968 80.5127 29.2353C80.6569 29.4738 80.9065 29.5931 81.2615 29.5931ZM84.6829 30.5C84.6275 30.5 84.5803 30.4806 84.5415 30.4418C84.5027 30.4029 84.4832 30.3558 84.4832 30.3003V24.7923C84.4832 24.7312 84.5027 24.6841 84.5415 24.6508C84.5803 24.612 84.6275 24.5926 84.6829 24.5926H85.3735C85.4345 24.5926 85.4817 24.612 85.515 24.6508C85.5538 24.6841 85.5732 24.7312 85.5732 24.7923V30.3003C85.5732 30.3558 85.5538 30.4029 85.515 30.4418C85.4817 30.4806 85.4345 30.5 85.3735 30.5H84.6829ZM88.5406 30.5832C87.9249 30.5832 87.434 30.4057 87.0679 30.0507C86.7074 29.6902 86.516 29.1854 86.4938 28.5364L86.4855 28.3284L86.4938 28.1204C86.5216 27.488 86.7157 26.9916 87.0763 26.6311C87.4423 26.2705 87.9305 26.0902 88.5406 26.0902C89.1952 26.0902 89.6999 26.2899 90.0549 26.6893C90.4155 27.0887 90.5957 27.6212 90.5957 28.2868V28.4615C90.5957 28.517 90.5763 28.5641 90.5375 28.603C90.4987 28.6418 90.4488 28.6612 90.3877 28.6612H87.6254V28.7278C87.6365 29.0329 87.7197 29.2908 87.875 29.5016C88.0359 29.7068 88.255 29.8094 88.5323 29.8094C88.8596 29.8094 89.1231 29.6818 89.3227 29.4267C89.3727 29.3657 89.4115 29.3268 89.4392 29.3102C89.4725 29.2936 89.5197 29.2852 89.5807 29.2852H90.2962C90.3461 29.2852 90.3877 29.3019 90.421 29.3352C90.4598 29.3629 90.4793 29.3989 90.4793 29.4433C90.4793 29.5764 90.3988 29.7345 90.238 29.9176C90.0827 30.0951 89.858 30.2504 89.564 30.3835C89.27 30.5166 88.9289 30.5832 88.5406 30.5832ZM89.4642 27.9623V27.9373C89.4642 27.6101 89.381 27.3466 89.2146 27.1469C89.0537 26.9472 88.8291 26.8474 88.5406 26.8474C88.2522 26.8474 88.0275 26.9472 87.8667 27.1469C87.7058 27.3466 87.6254 27.6101 87.6254 27.9373V27.9623H89.4642ZM93.5883 32.0809C93.5328 32.0809 93.4856 32.0614 93.4468 32.0226C93.408 31.9893 93.3886 31.9422 93.3886 31.8812V26.3731C93.3886 26.3121 93.408 26.265 93.4468 26.2317C93.4856 26.1929 93.5328 26.1734 93.5883 26.1734H94.2456C94.3066 26.1734 94.3537 26.1929 94.387 26.2317C94.4258 26.265 94.4453 26.3121 94.4453 26.3731V26.7059C94.7559 26.2955 95.1996 26.0902 95.7765 26.0902C96.3367 26.0902 96.7666 26.2677 97.0662 26.6227C97.3657 26.9722 97.5265 27.4464 97.5487 28.0455C97.5543 28.1121 97.5571 28.2091 97.5571 28.3367C97.5571 28.4698 97.5543 28.5697 97.5487 28.6362C97.5265 29.2187 97.3657 29.6902 97.0662 30.0507C96.7666 30.4057 96.3367 30.5832 95.7765 30.5832C95.2163 30.5832 94.7892 30.3863 94.4952 29.9925V31.8812C94.4952 31.9422 94.4758 31.9893 94.4369 32.0226C94.4037 32.0614 94.3565 32.0809 94.2955 32.0809H93.5883ZM95.4687 29.6929C96.0677 29.6929 96.3867 29.3241 96.4255 28.5863C96.431 28.5309 96.4338 28.4477 96.4338 28.3367C96.4338 28.2258 96.431 28.1426 96.4255 28.0871C96.3867 27.3494 96.0677 26.9805 95.4687 26.9805C95.1469 26.9805 94.9084 27.0831 94.7531 27.2884C94.5978 27.4936 94.5118 27.746 94.4952 28.0455L94.4869 28.3617L94.4952 28.6862C94.5063 28.9635 94.5922 29.202 94.7531 29.4017C94.9195 29.5959 95.158 29.6929 95.4687 29.6929ZM98.6991 30.5C98.6436 30.5 98.5965 30.4806 98.5576 30.4418C98.5188 30.4029 98.4994 30.3558 98.4994 30.3003V24.7923C98.4994 24.7312 98.5188 24.6841 98.5576 24.6508C98.5965 24.612 98.6436 24.5926 98.6991 24.5926H99.3897C99.4507 24.5926 99.4978 24.612 99.5311 24.6508C99.5699 24.6841 99.5894 24.7312 99.5894 24.7923V30.3003C99.5894 30.3558 99.5699 30.4029 99.5311 30.4418C99.4978 30.4806 99.4507 30.5 99.3897 30.5H98.6991ZM101.949 30.5832C101.667 30.5832 101.406 30.5277 101.167 30.4168C100.934 30.3003 100.748 30.145 100.61 29.9509C100.477 29.7567 100.41 29.5432 100.41 29.3102C100.41 28.933 100.563 28.6279 100.868 28.395C101.173 28.162 101.592 28.0039 102.124 27.9207L103.264 27.7543V27.5796C103.264 27.3355 103.203 27.1525 103.081 27.0304C102.959 26.9084 102.762 26.8474 102.49 26.8474C102.307 26.8474 102.157 26.8834 102.041 26.9555C101.93 27.0221 101.841 27.0887 101.775 27.1552C101.708 27.2273 101.664 27.2745 101.642 27.2967C101.619 27.3632 101.578 27.3965 101.517 27.3965H100.876C100.826 27.3965 100.782 27.3799 100.743 27.3466C100.71 27.3133 100.693 27.2689 100.693 27.2135C100.699 27.0748 100.765 26.9167 100.893 26.7392C101.026 26.5617 101.228 26.4092 101.5 26.2816C101.772 26.154 102.105 26.0902 102.499 26.0902C103.153 26.0902 103.63 26.2372 103.93 26.5312C104.229 26.8252 104.379 27.2107 104.379 27.6877V30.3003C104.379 30.3558 104.36 30.4029 104.321 30.4418C104.287 30.4806 104.24 30.5 104.179 30.5H103.505C103.45 30.5 103.403 30.4806 103.364 30.4418C103.325 30.4029 103.306 30.3558 103.306 30.3003V29.9758C103.184 30.1533 103.009 30.3003 102.781 30.4168C102.56 30.5277 102.282 30.5832 101.949 30.5832ZM102.232 29.7928C102.537 29.7928 102.787 29.6929 102.981 29.4932C103.175 29.2936 103.272 29.0023 103.272 28.6196V28.4449L102.44 28.578C102.119 28.6279 101.875 28.7084 101.708 28.8193C101.547 28.9302 101.467 29.0661 101.467 29.227C101.467 29.4045 101.542 29.5432 101.691 29.643C101.841 29.7429 102.022 29.7928 102.232 29.7928ZM106.115 32.0809C106.07 32.0809 106.031 32.0642 105.998 32.0309C105.965 31.9977 105.948 31.9588 105.948 31.9145C105.948 31.8645 105.959 31.8202 105.982 31.7813L106.631 30.2421L105.033 26.473C105.011 26.423 105 26.3842 105 26.3565C105.005 26.3066 105.025 26.265 105.058 26.2317C105.091 26.1929 105.133 26.1734 105.183 26.1734H105.857C105.962 26.1734 106.037 26.2261 106.081 26.3315L107.188 29.0523L108.328 26.3315C108.372 26.2261 108.447 26.1734 108.553 26.1734H109.218C109.263 26.1734 109.301 26.1901 109.335 26.2234C109.373 26.2566 109.393 26.2955 109.393 26.3398C109.393 26.3787 109.382 26.423 109.36 26.473L107.005 31.9228C106.955 32.0282 106.877 32.0809 106.772 32.0809H106.115Z" fill="white"/>
<path d="M31.5025 22.6749L20.7408 11.8843L34.4329 19.7446L31.5025 22.6749ZM17.9329 11.25C17.2986 11.5816 16.875 12.1862 16.875 12.9711V34.4891C16.875 35.274 17.2994 35.8786 17.9329 36.2102L30.4454 23.7274L17.9329 11.25ZM38.6653 22.2505L35.7935 20.5879L32.5901 23.7328L35.7935 26.8777L38.7239 25.2152C39.6016 24.5185 39.6016 22.948 38.6653 22.2505ZM20.7416 35.5822L34.4337 27.7219L31.5033 24.7915L20.7416 35.5822Z" fill="white"/>
</svg>
