<svg width="135" height="36" viewBox="0 0 135 36" fill="none" xmlns="http://www.w3.org/2000/svg">
<g opacity="0.8">
<rect x="0.5" y="0.5" width="134" height="35" rx="17.5" fill="black"/>
<path d="M41.632 23C41.5253 23 41.4347 22.9627 41.36 22.888C41.2853 22.8133 41.248 22.7227 41.248 22.616V12.2C41.248 12.0827 41.28 11.9867 41.344 11.912C41.4187 11.8373 41.5147 11.8 41.632 11.8H46.272C47.52 11.8 48.448 12.0773 49.056 12.632C49.6747 13.176 49.984 13.9227 49.984 14.872C49.984 15.4267 49.8453 15.9013 49.568 16.296C49.3013 16.68 48.9867 16.9573 48.624 17.128C49.072 17.3307 49.4453 17.6613 49.744 18.12C50.0533 18.5787 50.208 19.1013 50.208 19.688C50.208 20.68 49.872 21.48 49.2 22.088C48.5387 22.696 47.6053 23 46.4 23H41.632ZM45.984 16.392C46.5387 16.392 46.96 16.2587 47.248 15.992C47.536 15.7253 47.68 15.368 47.68 14.92C47.68 14.4613 47.536 14.1093 47.248 13.864C46.96 13.608 46.5387 13.48 45.984 13.48H43.472V16.392H45.984ZM46.144 21.304C46.6987 21.304 47.1307 21.1547 47.44 20.856C47.7493 20.5467 47.904 20.1573 47.904 19.688C47.904 19.208 47.7493 18.8187 47.44 18.52C47.1307 18.2107 46.6987 18.056 46.144 18.056H43.472V21.304H46.144ZM55.1927 23.16C54.2114 23.16 53.4381 22.84 52.8728 22.2C52.3074 21.5493 52.0247 20.6693 52.0247 19.56V15.064C52.0247 14.9573 52.0621 14.8667 52.1367 14.792C52.2114 14.7173 52.3021 14.68 52.4087 14.68H53.8168C53.9341 14.68 54.0248 14.7173 54.0888 14.792C54.1634 14.856 54.2008 14.9467 54.2008 15.064V19.464C54.2008 20.7867 54.7821 21.448 55.9448 21.448C56.4994 21.448 56.9368 21.272 57.2568 20.92C57.5874 20.568 57.7528 20.0827 57.7528 19.464V15.064C57.7528 14.9573 57.7901 14.8667 57.8648 14.792C57.9394 14.7173 58.0301 14.68 58.1368 14.68H59.5448C59.6621 14.68 59.7528 14.7173 59.8168 14.792C59.8914 14.856 59.9288 14.9467 59.9288 15.064V22.616C59.9288 22.7227 59.8914 22.8133 59.8168 22.888C59.7528 22.9627 59.6621 23 59.5448 23H58.2488C58.1421 23 58.0514 22.9627 57.9768 22.888C57.9021 22.8133 57.8648 22.7227 57.8648 22.616V21.96C57.2674 22.76 56.3767 23.16 55.1927 23.16ZM65.8823 23C64.9116 23 64.1809 22.7493 63.6902 22.248C63.2102 21.736 62.9702 20.9893 62.9702 20.008V16.376H61.7062C61.5996 16.376 61.5089 16.3387 61.4342 16.264C61.3596 16.1787 61.3222 16.0827 61.3222 15.976V15.064C61.3222 14.9573 61.3596 14.8667 61.4342 14.792C61.5089 14.7173 61.5996 14.68 61.7062 14.68H62.9702V12.024C62.9702 11.9067 63.0076 11.816 63.0822 11.752C63.1569 11.6773 63.2476 11.64 63.3542 11.64H64.6502C64.7676 11.64 64.8583 11.6773 64.9223 11.752C64.9969 11.816 65.0343 11.9067 65.0343 12.024V14.68H67.0343C67.1516 14.68 67.2422 14.7173 67.3063 14.792C67.3809 14.856 67.4183 14.9467 67.4183 15.064V15.976C67.4183 16.0933 67.3809 16.1893 67.3063 16.264C67.2316 16.3387 67.1409 16.376 67.0343 16.376H65.0343V19.848C65.0343 20.3067 65.1143 20.6533 65.2743 20.888C65.4343 21.1227 65.7009 21.24 66.0743 21.24H67.1783C67.2849 21.24 67.3756 21.2773 67.4503 21.352C67.5249 21.4267 67.5623 21.5173 67.5623 21.624V22.616C67.5623 22.7227 67.5249 22.8133 67.4503 22.888C67.3863 22.9627 67.2956 23 67.1783 23H65.8823ZM72.8216 23C71.851 23 71.1203 22.7493 70.6296 22.248C70.1496 21.736 69.9096 20.9893 69.9096 20.008V16.376H68.6456C68.539 16.376 68.4483 16.3387 68.3736 16.264C68.299 16.1787 68.2616 16.0827 68.2616 15.976V15.064C68.2616 14.9573 68.299 14.8667 68.3736 14.792C68.4483 14.7173 68.539 14.68 68.6456 14.68H69.9096V12.024C69.9096 11.9067 69.947 11.816 70.0216 11.752C70.0963 11.6773 70.187 11.64 70.2936 11.64H71.5896C71.707 11.64 71.7976 11.6773 71.8616 11.752C71.9363 11.816 71.9736 11.9067 71.9736 12.024V14.68H73.9736C74.091 14.68 74.1816 14.7173 74.2456 14.792C74.3203 14.856 74.3576 14.9467 74.3576 15.064V15.976C74.3576 16.0933 74.3203 16.1893 74.2456 16.264C74.171 16.3387 74.0803 16.376 73.9736 16.376H71.9736V19.848C71.9736 20.3067 72.0536 20.6533 72.2136 20.888C72.3736 21.1227 72.6403 21.24 73.0136 21.24H74.1176C74.2243 21.24 74.315 21.2773 74.3896 21.352C74.4643 21.4267 74.5016 21.5173 74.5016 21.624V22.616C74.5016 22.7227 74.4643 22.8133 74.3896 22.888C74.3256 22.9627 74.235 23 74.1176 23H72.8216ZM79.681 23.16C78.433 23.16 77.4677 22.84 76.785 22.2C76.1023 21.5493 75.7343 20.664 75.681 19.544L75.665 18.84L75.681 18.136C75.7343 17.0267 76.1077 16.1467 76.801 15.496C77.4943 14.8453 78.4543 14.52 79.681 14.52C80.9077 14.52 81.8677 14.8453 82.561 15.496C83.2543 16.1467 83.6277 17.0267 83.681 18.136C83.6917 18.264 83.697 18.4987 83.697 18.84C83.697 19.1813 83.6917 19.416 83.681 19.544C83.6277 20.664 83.2597 21.5493 82.577 22.2C81.8943 22.84 80.929 23.16 79.681 23.16ZM79.681 21.576C80.2463 21.576 80.6837 21.4 80.993 21.048C81.3023 20.6853 81.473 20.1573 81.505 19.464C81.5157 19.3573 81.521 19.1493 81.521 18.84C81.521 18.5307 81.5157 18.3227 81.505 18.216C81.473 17.5227 81.3023 17 80.993 16.648C80.6837 16.2853 80.2463 16.104 79.681 16.104C79.1157 16.104 78.6783 16.2853 78.369 16.648C78.0597 17 77.889 17.5227 77.857 18.216L77.841 18.84L77.857 19.464C77.889 20.1573 78.0597 20.6853 78.369 21.048C78.6783 21.4 79.1157 21.576 79.681 21.576ZM85.9338 23C85.8271 23 85.7364 22.9627 85.6618 22.888C85.5871 22.8133 85.5498 22.7227 85.5498 22.616V15.064C85.5498 14.9573 85.5871 14.8667 85.6618 14.792C85.7364 14.7173 85.8271 14.68 85.9338 14.68H87.2458C87.3524 14.68 87.4431 14.7173 87.5178 14.792C87.5924 14.8667 87.6298 14.9573 87.6298 15.064V15.72C88.2591 14.92 89.1498 14.52 90.3018 14.52C91.2831 14.52 92.0618 14.8453 92.6378 15.496C93.2138 16.136 93.5018 17.0107 93.5018 18.12V22.616C93.5018 22.7227 93.4644 22.8133 93.3898 22.888C93.3258 22.9627 93.2351 23 93.1178 23H91.7098C91.6031 23 91.5124 22.9627 91.4378 22.888C91.3631 22.8133 91.3258 22.7227 91.3258 22.616V18.216C91.3258 17.5867 91.1711 17.1013 90.8618 16.76C90.5631 16.408 90.1258 16.232 89.5498 16.232C88.9844 16.232 88.5364 16.408 88.2058 16.76C87.8858 17.112 87.7258 17.5973 87.7258 18.216V22.616C87.7258 22.7227 87.6884 22.8133 87.6138 22.888C87.5498 22.9627 87.4591 23 87.3418 23H85.9338Z" fill="white"/>
<rect x="0.5" y="0.5" width="134" height="35" rx="17.5" stroke="black"/>
</g>
</svg>
