<svg width="262" height="228" viewBox="0 0 262 228" fill="none" xmlns="http://www.w3.org/2000/svg">
<path d="M74.48 54.618C74.48 63.3073 71.442 69.8733 65.366 74.316C59.3553 78.7587 51.45 80.98 41.65 80.98C31.7847 80.98 23.8467 78.7587 17.836 74.316C11.8253 69.8733 8.82 63.242 8.82 54.422V36.978C8.82 31.098 10.29 26.1653 13.23 22.18C16.17 18.1947 20.09 15.2547 24.99 13.36C29.9553 11.4 35.5087 10.42 41.65 10.42C47.7913 10.42 53.312 11.4 58.212 13.36C63.1773 15.2547 67.13 18.1947 70.07 22.18C73.01 26.1 74.48 30.9673 74.48 36.782V54.618ZM35.28 55.402C35.28 57.2313 35.9007 58.7667 37.142 60.008C38.3833 61.184 39.886 61.772 41.65 61.772C43.414 61.772 44.9167 61.1513 46.158 59.91C47.3993 58.6687 48.02 57.166 48.02 55.402V35.802C48.02 33.9727 47.3993 32.47 46.158 31.294C44.982 30.0527 43.4793 29.432 41.65 29.432C39.8207 29.432 38.2853 30.0527 37.044 31.294C35.868 32.5353 35.28 34.038 35.28 35.802V55.402ZM155.096 59.91C155.814 59.91 156.435 60.1713 156.958 60.694C157.48 61.2167 157.742 61.8373 157.742 62.556V77.354C157.742 78.0727 157.48 78.6933 156.958 79.216C156.435 79.7387 155.814 80 155.096 80H96.0017C95.2831 80 94.6624 79.7387 94.1397 79.216C93.6171 78.6933 93.3557 78.0727 93.3557 77.354V65.3C93.3557 64.32 93.4864 63.3727 93.7477 62.458C94.0091 61.5433 94.7277 60.7267 95.9037 60.008C107.01 53.0173 115.308 47.4313 120.796 43.25C126.349 39.0687 129.126 35.8347 129.126 33.548C129.126 32.3067 128.897 31.3593 128.44 30.706C127.982 29.9873 126.97 29.628 125.402 29.628C123.572 29.628 122.298 30.0853 121.58 31C120.861 31.9147 120.371 32.862 120.11 33.842C119.914 34.822 119.75 35.4753 119.62 35.802C119.424 36.3247 119.13 36.6513 118.738 36.782C118.411 36.8473 118.052 36.88 117.66 36.88C117.268 36.88 117.006 36.88 116.876 36.88H96.9817C96.3284 36.88 95.7404 36.6513 95.2177 36.194C94.7604 35.6713 94.5317 35.0833 94.5317 34.43C94.5317 29.5953 95.8057 25.3813 98.3537 21.788C100.967 18.1293 104.658 15.32 109.428 13.36C114.197 11.4 119.783 10.42 126.186 10.42C135.724 10.42 142.944 12.3147 147.844 16.104C152.744 19.8933 155.194 25.2833 155.194 32.274C155.194 35.5407 154.148 38.6113 152.058 41.486C150.032 44.3607 147.452 47.0067 144.316 49.424C141.245 51.8413 137.031 54.814 131.674 58.342L129.322 59.91H155.096Z" fill="black"/>
<path d="M7.944 140.24C6.424 140.24 5.12 140.016 4.032 139.568C2.944 139.12 2.12 138.536 1.56 137.816C1.016 137.08 0.728 136.28 0.696 135.416C0.696 135.288 0.744 135.176 0.84 135.08C0.952 134.968 1.08 134.912 1.224 134.912H4.248C4.44 134.912 4.592 134.952 4.704 135.032C4.832 135.096 4.96 135.2 5.088 135.344C5.296 135.76 5.632 136.104 6.096 136.376C6.56 136.648 7.176 136.784 7.944 136.784C8.856 136.784 9.552 136.64 10.032 136.352C10.512 136.064 10.752 135.672 10.752 135.176C10.752 134.824 10.624 134.536 10.368 134.312C10.128 134.088 9.744 133.888 9.216 133.712C8.688 133.536 7.904 133.336 6.864 133.112C4.944 132.712 3.504 132.128 2.544 131.36C1.6 130.576 1.128 129.464 1.128 128.024C1.128 127.048 1.4 126.176 1.944 125.408C2.488 124.64 3.264 124.04 4.272 123.608C5.28 123.176 6.456 122.96 7.8 122.96C9.192 122.96 10.4 123.2 11.424 123.68C12.448 124.16 13.224 124.768 13.752 125.504C14.296 126.224 14.584 126.936 14.616 127.64C14.616 127.784 14.568 127.904 14.472 128C14.376 128.096 14.256 128.144 14.112 128.144H10.944C10.752 128.144 10.592 128.112 10.464 128.048C10.352 127.984 10.248 127.88 10.152 127.736C10.056 127.368 9.792 127.056 9.36 126.8C8.944 126.544 8.424 126.416 7.8 126.416C7.08 126.416 6.528 126.544 6.144 126.8C5.76 127.056 5.568 127.432 5.568 127.928C5.568 128.264 5.672 128.544 5.88 128.768C6.104 128.992 6.456 129.2 6.936 129.392C7.432 129.568 8.136 129.752 9.048 129.944C10.536 130.216 11.72 130.56 12.6 130.976C13.496 131.376 14.152 131.904 14.568 132.56C14.984 133.2 15.192 134.008 15.192 134.984C15.192 136.056 14.88 136.992 14.256 137.792C13.648 138.576 12.792 139.184 11.688 139.616C10.6 140.032 9.352 140.24 7.944 140.24ZM23.8341 140C20.5221 140 18.8661 138.424 18.8661 135.272V130.664H16.9941C16.8181 130.664 16.6661 130.608 16.5381 130.496C16.4261 130.384 16.3701 130.24 16.3701 130.064V128.12C16.3701 127.944 16.4261 127.8 16.5381 127.688C16.6661 127.576 16.8181 127.52 16.9941 127.52H18.8661V123.56C18.8661 123.384 18.9221 123.24 19.0341 123.128C19.1621 123.016 19.3061 122.96 19.4661 122.96H22.2501C22.4261 122.96 22.5701 123.016 22.6821 123.128C22.7941 123.24 22.8501 123.384 22.8501 123.56V127.52H25.8501C26.0261 127.52 26.1701 127.576 26.2821 127.688C26.4101 127.8 26.4741 127.944 26.4741 128.12V130.064C26.4741 130.24 26.4101 130.384 26.2821 130.496C26.1701 130.608 26.0261 130.664 25.8501 130.664H22.8501V134.936C22.8501 136.12 23.3061 136.712 24.2181 136.712H26.0661C26.2421 136.712 26.3861 136.768 26.4981 136.88C26.6101 136.992 26.6661 137.136 26.6661 137.312V139.4C26.6661 139.56 26.6101 139.704 26.4981 139.832C26.3861 139.944 26.2421 140 26.0661 140H23.8341ZM32.5172 140.24C31.6692 140.24 30.8932 140.08 30.1892 139.76C29.5012 139.424 28.9572 138.976 28.5572 138.416C28.1732 137.84 27.9812 137.208 27.9812 136.52C27.9812 135.416 28.4292 134.528 29.3252 133.856C30.2372 133.184 31.4852 132.72 33.0692 132.464L36.0692 132.008V131.672C36.0692 131.064 35.9412 130.616 35.6852 130.328C35.4292 130.04 34.9972 129.896 34.3892 129.896C34.0212 129.896 33.7172 129.96 33.4772 130.088C33.2372 130.216 32.9892 130.392 32.7332 130.616C32.5092 130.808 32.3412 130.936 32.2292 131C32.1812 131.128 32.0932 131.192 31.9652 131.192H29.3492C29.1892 131.192 29.0532 131.144 28.9412 131.048C28.8452 130.936 28.8052 130.808 28.8212 130.664C28.8372 130.232 29.0452 129.752 29.4452 129.224C29.8612 128.696 30.4852 128.24 31.3172 127.856C32.1652 127.472 33.2052 127.28 34.4372 127.28C36.4052 127.28 37.8612 127.72 38.8052 128.6C39.7492 129.464 40.2212 130.632 40.2212 132.104V139.4C40.2212 139.56 40.1652 139.704 40.0532 139.832C39.9412 139.944 39.7972 140 39.6212 140H36.8372C36.6772 140 36.5332 139.944 36.4052 139.832C36.2932 139.704 36.2372 139.56 36.2372 139.4V138.56C35.8852 139.056 35.3892 139.464 34.7492 139.784C34.1252 140.088 33.3812 140.24 32.5172 140.24ZM33.6452 137.504C34.3812 137.504 34.9732 137.264 35.4212 136.784C35.8852 136.304 36.1172 135.6 36.1172 134.672V134.336L34.0772 134.696C32.6372 134.952 31.9172 135.456 31.9172 136.208C31.9172 136.608 32.0852 136.928 32.4212 137.168C32.7572 137.392 33.1652 137.504 33.6452 137.504ZM43.6494 140C43.4734 140 43.3294 139.944 43.2174 139.832C43.1054 139.72 43.0494 139.576 43.0494 139.4V128.12C43.0494 127.944 43.1054 127.8 43.2174 127.688C43.3294 127.576 43.4734 127.52 43.6494 127.52H46.4094C46.5854 127.52 46.7294 127.584 46.8414 127.712C46.9694 127.824 47.0334 127.96 47.0334 128.12V129.08C47.9134 128.04 49.0974 127.52 50.5854 127.52H51.6414C51.8174 127.52 51.9614 127.576 52.0734 127.688C52.1854 127.8 52.2414 127.944 52.2414 128.12V130.592C52.2414 130.752 52.1854 130.896 52.0734 131.024C51.9614 131.136 51.8174 131.192 51.6414 131.192H49.3134C48.6574 131.192 48.1454 131.376 47.7774 131.744C47.4254 132.096 47.2494 132.6 47.2494 133.256V139.4C47.2494 139.576 47.1854 139.72 47.0574 139.832C46.9454 139.944 46.8014 140 46.6254 140H43.6494ZM60.4519 140C57.1399 140 55.4839 138.424 55.4839 135.272V130.664H53.6119C53.4359 130.664 53.2839 130.608 53.1559 130.496C53.0439 130.384 52.9879 130.24 52.9879 130.064V128.12C52.9879 127.944 53.0439 127.8 53.1559 127.688C53.2839 127.576 53.4359 127.52 53.6119 127.52H55.4839V123.56C55.4839 123.384 55.5399 123.24 55.6519 123.128C55.7799 123.016 55.9239 122.96 56.0839 122.96H58.8679C59.0439 122.96 59.1879 123.016 59.2999 123.128C59.4119 123.24 59.4679 123.384 59.4679 123.56V127.52H62.4679C62.6439 127.52 62.7879 127.576 62.8999 127.688C63.0279 127.8 63.0919 127.944 63.0919 128.12V130.064C63.0919 130.24 63.0279 130.384 62.8999 130.496C62.7879 130.608 62.6439 130.664 62.4679 130.664H59.4679V134.936C59.4679 136.12 59.9239 136.712 60.8359 136.712H62.6839C62.8599 136.712 63.0039 136.768 63.1159 136.88C63.2279 136.992 63.2839 137.136 63.2839 137.312V139.4C63.2839 139.56 63.2279 139.704 63.1159 139.832C63.0039 139.944 62.8599 140 62.6839 140H60.4519ZM69.135 140.24C68.287 140.24 67.511 140.08 66.807 139.76C66.119 139.424 65.575 138.976 65.175 138.416C64.791 137.84 64.599 137.208 64.599 136.52C64.599 135.416 65.047 134.528 65.943 133.856C66.855 133.184 68.103 132.72 69.687 132.464L72.687 132.008V131.672C72.687 131.064 72.559 130.616 72.303 130.328C72.047 130.04 71.615 129.896 71.007 129.896C70.639 129.896 70.335 129.96 70.095 130.088C69.855 130.216 69.607 130.392 69.351 130.616C69.127 130.808 68.959 130.936 68.847 131C68.799 131.128 68.711 131.192 68.583 131.192H65.967C65.807 131.192 65.671 131.144 65.559 131.048C65.463 130.936 65.423 130.808 65.439 130.664C65.455 130.232 65.663 129.752 66.063 129.224C66.479 128.696 67.103 128.24 67.935 127.856C68.783 127.472 69.823 127.28 71.055 127.28C73.023 127.28 74.479 127.72 75.423 128.6C76.367 129.464 76.839 130.632 76.839 132.104V139.4C76.839 139.56 76.783 139.704 76.671 139.832C76.559 139.944 76.415 140 76.239 140H73.455C73.295 140 73.151 139.944 73.023 139.832C72.911 139.704 72.855 139.56 72.855 139.4V138.56C72.503 139.056 72.007 139.464 71.367 139.784C70.743 140.088 69.999 140.24 69.135 140.24ZM70.263 137.504C70.999 137.504 71.591 137.264 72.039 136.784C72.503 136.304 72.735 135.6 72.735 134.672V134.336L70.695 134.696C69.255 134.952 68.535 135.456 68.535 136.208C68.535 136.608 68.703 136.928 69.039 137.168C69.375 137.392 69.783 137.504 70.263 137.504ZM90.8119 140C87.4999 140 85.8439 138.424 85.8439 135.272V130.664H83.9719C83.7959 130.664 83.6439 130.608 83.5159 130.496C83.4039 130.384 83.3479 130.24 83.3479 130.064V128.12C83.3479 127.944 83.4039 127.8 83.5159 127.688C83.6439 127.576 83.7959 127.52 83.9719 127.52H85.8439V123.56C85.8439 123.384 85.8999 123.24 86.0119 123.128C86.1399 123.016 86.2839 122.96 86.4439 122.96H89.2279C89.4039 122.96 89.5479 123.016 89.6599 123.128C89.7719 123.24 89.8279 123.384 89.8279 123.56V127.52H92.8279C93.0039 127.52 93.1479 127.576 93.2599 127.688C93.3879 127.8 93.4519 127.944 93.4519 128.12V130.064C93.4519 130.24 93.3879 130.384 93.2599 130.496C93.1479 130.608 93.0039 130.664 92.8279 130.664H89.8279V134.936C89.8279 136.12 90.2839 136.712 91.1959 136.712H93.0439C93.2199 136.712 93.3639 136.768 93.4759 136.88C93.5879 136.992 93.6439 137.136 93.6439 137.312V139.4C93.6439 139.56 93.5879 139.704 93.4759 139.832C93.3639 139.944 93.2199 140 93.0439 140H90.8119ZM96.351 140C96.175 140 96.031 139.944 95.919 139.832C95.807 139.72 95.751 139.576 95.751 139.4V128.12C95.751 127.944 95.807 127.8 95.919 127.688C96.031 127.576 96.175 127.52 96.351 127.52H99.111C99.287 127.52 99.431 127.584 99.543 127.712C99.671 127.824 99.735 127.96 99.735 128.12V129.08C100.615 128.04 101.799 127.52 103.287 127.52H104.343C104.519 127.52 104.663 127.576 104.775 127.688C104.887 127.8 104.943 127.944 104.943 128.12V130.592C104.943 130.752 104.887 130.896 104.775 131.024C104.663 131.136 104.519 131.192 104.343 131.192H102.015C101.359 131.192 100.847 131.376 100.479 131.744C100.127 132.096 99.951 132.6 99.951 133.256V139.4C99.951 139.576 99.887 139.72 99.759 139.832C99.647 139.944 99.503 140 99.327 140H96.351ZM110.303 140.24C109.455 140.24 108.679 140.08 107.975 139.76C107.287 139.424 106.743 138.976 106.343 138.416C105.959 137.84 105.767 137.208 105.767 136.52C105.767 135.416 106.215 134.528 107.111 133.856C108.023 133.184 109.271 132.72 110.855 132.464L113.855 132.008V131.672C113.855 131.064 113.727 130.616 113.471 130.328C113.215 130.04 112.783 129.896 112.175 129.896C111.807 129.896 111.503 129.96 111.263 130.088C111.023 130.216 110.775 130.392 110.519 130.616C110.295 130.808 110.127 130.936 110.015 131C109.967 131.128 109.879 131.192 109.751 131.192H107.135C106.975 131.192 106.839 131.144 106.727 131.048C106.631 130.936 106.591 130.808 106.607 130.664C106.623 130.232 106.831 129.752 107.231 129.224C107.647 128.696 108.271 128.24 109.103 127.856C109.951 127.472 110.991 127.28 112.223 127.28C114.191 127.28 115.647 127.72 116.591 128.6C117.535 129.464 118.007 130.632 118.007 132.104V139.4C118.007 139.56 117.951 139.704 117.839 139.832C117.727 139.944 117.583 140 117.407 140H114.623C114.463 140 114.319 139.944 114.191 139.832C114.079 139.704 114.023 139.56 114.023 139.4V138.56C113.671 139.056 113.175 139.464 112.535 139.784C111.911 140.088 111.167 140.24 110.303 140.24ZM111.431 137.504C112.167 137.504 112.759 137.264 113.207 136.784C113.671 136.304 113.903 135.6 113.903 134.672V134.336L111.863 134.696C110.423 134.952 109.703 135.456 109.703 136.208C109.703 136.608 109.871 136.928 110.207 137.168C110.543 137.392 110.951 137.504 111.431 137.504ZM108.575 125.432C108.415 125.432 108.287 125.384 108.191 125.288C108.095 125.176 108.047 125.04 108.047 124.88V122.696C108.047 122.536 108.095 122.408 108.191 122.312C108.287 122.2 108.415 122.144 108.575 122.144H110.783C110.943 122.144 111.071 122.2 111.167 122.312C111.279 122.408 111.335 122.536 111.335 122.696V124.88C111.335 125.04 111.279 125.176 111.167 125.288C111.071 125.384 110.943 125.432 110.783 125.432H108.575ZM113.543 125.432C113.383 125.432 113.247 125.384 113.135 125.288C113.039 125.176 112.991 125.04 112.991 124.88V122.696C112.991 122.536 113.039 122.408 113.135 122.312C113.247 122.2 113.383 122.144 113.543 122.144H115.751C115.911 122.144 116.039 122.2 116.135 122.312C116.247 122.408 116.303 122.536 116.303 122.696V124.88C116.303 125.04 116.247 125.176 116.135 125.288C116.039 125.384 115.911 125.432 115.751 125.432H113.543ZM121.435 140C121.259 140 121.115 139.944 121.003 139.832C120.891 139.72 120.835 139.576 120.835 139.4V128.12C120.835 127.944 120.891 127.8 121.003 127.688C121.115 127.576 121.259 127.52 121.435 127.52H124.195C124.371 127.52 124.515 127.576 124.627 127.688C124.755 127.8 124.819 127.944 124.819 128.12V129.032C125.251 128.504 125.803 128.08 126.475 127.76C127.163 127.44 127.939 127.28 128.803 127.28C130.211 127.28 131.355 127.76 132.235 128.72C133.115 129.664 133.555 130.992 133.555 132.704V139.4C133.555 139.56 133.499 139.704 133.387 139.832C133.275 139.944 133.131 140 132.955 140H129.931C129.771 140 129.627 139.944 129.499 139.832C129.387 139.704 129.331 139.56 129.331 139.4V132.848C129.331 132.096 129.147 131.52 128.779 131.12C128.411 130.704 127.883 130.496 127.195 130.496C126.523 130.496 125.995 130.704 125.611 131.12C125.227 131.52 125.035 132.096 125.035 132.848V139.4C125.035 139.56 124.979 139.704 124.867 139.832C124.755 139.944 124.611 140 124.435 140H121.435ZM136.953 125.72C136.777 125.72 136.633 125.664 136.521 125.552C136.409 125.44 136.353 125.296 136.353 125.12V122.96C136.353 122.784 136.409 122.64 136.521 122.528C136.633 122.416 136.777 122.36 136.953 122.36H139.833C140.009 122.36 140.153 122.416 140.265 122.528C140.377 122.64 140.433 122.784 140.433 122.96V125.12C140.433 125.296 140.377 125.44 140.265 125.552C140.153 125.664 140.009 125.72 139.833 125.72H136.953ZM136.977 140C136.801 140 136.657 139.944 136.545 139.832C136.433 139.72 136.377 139.576 136.377 139.4V128.12C136.377 127.944 136.433 127.8 136.545 127.688C136.657 127.576 136.801 127.52 136.977 127.52H139.809C139.985 127.52 140.129 127.576 140.241 127.688C140.353 127.8 140.409 127.944 140.409 128.12V139.4C140.409 139.56 140.353 139.704 140.241 139.832C140.129 139.944 139.985 140 139.809 140H136.977ZM143.964 140C143.788 140 143.644 139.944 143.532 139.832C143.42 139.72 143.364 139.576 143.364 139.4V128.12C143.364 127.944 143.42 127.8 143.532 127.688C143.644 127.576 143.788 127.52 143.964 127.52H146.724C146.9 127.52 147.044 127.576 147.156 127.688C147.284 127.8 147.348 127.944 147.348 128.12V129.032C147.78 128.504 148.332 128.08 149.004 127.76C149.692 127.44 150.468 127.28 151.332 127.28C152.74 127.28 153.884 127.76 154.764 128.72C155.644 129.664 156.084 130.992 156.084 132.704V139.4C156.084 139.56 156.028 139.704 155.916 139.832C155.804 139.944 155.66 140 155.484 140H152.46C152.3 140 152.156 139.944 152.028 139.832C151.916 139.704 151.86 139.56 151.86 139.4V132.848C151.86 132.096 151.676 131.52 151.308 131.12C150.94 130.704 150.412 130.496 149.724 130.496C149.052 130.496 148.524 130.704 148.14 131.12C147.756 131.52 147.564 132.096 147.564 132.848V139.4C147.564 139.56 147.508 139.704 147.396 139.832C147.284 139.944 147.14 140 146.964 140H143.964ZM165.026 145.28C163.506 145.28 162.274 145.032 161.33 144.536C160.386 144.04 159.706 143.472 159.29 142.832C158.89 142.192 158.69 141.656 158.69 141.224C158.69 141.08 158.754 140.952 158.882 140.84C159.01 140.728 159.154 140.672 159.314 140.672H162.362C162.522 140.672 162.642 140.704 162.722 140.768C162.818 140.848 162.906 140.976 162.986 141.152C163.146 141.52 163.362 141.808 163.634 142.016C163.906 142.24 164.33 142.352 164.906 142.352C165.642 142.352 166.186 142.168 166.538 141.8C166.89 141.448 167.066 140.848 167.066 140V138.392C166.25 139.288 165.082 139.736 163.562 139.736C161.946 139.736 160.706 139.264 159.842 138.32C158.994 137.36 158.53 135.976 158.45 134.168L158.426 133.52C158.426 131.584 158.858 130.064 159.722 128.96C160.586 127.84 161.866 127.28 163.562 127.28C164.378 127.28 165.098 127.44 165.722 127.76C166.346 128.064 166.874 128.48 167.306 129.008V128.12C167.306 127.944 167.362 127.8 167.474 127.688C167.602 127.576 167.746 127.52 167.906 127.52H170.666C170.842 127.52 170.986 127.584 171.098 127.712C171.226 127.824 171.29 127.96 171.29 128.12V139.664C171.29 141.488 170.746 142.88 169.658 143.84C168.57 144.8 167.026 145.28 165.026 145.28ZM164.858 136.616C165.578 136.616 166.114 136.4 166.466 135.968C166.818 135.52 167.018 134.96 167.066 134.288C167.082 134.176 167.09 133.928 167.09 133.544C167.09 133.176 167.082 132.936 167.066 132.824C167.034 132.152 166.834 131.6 166.466 131.168C166.114 130.72 165.578 130.496 164.858 130.496C164.106 130.496 163.562 130.72 163.226 131.168C162.89 131.616 162.706 132.232 162.674 133.016L162.65 133.544C162.65 134.488 162.81 135.24 163.13 135.8C163.45 136.344 164.026 136.616 164.858 136.616Z" fill="black"/>
<path d="M1.856 173C1.74933 173 1.664 172.968 1.6 172.904C1.536 172.84 1.504 172.755 1.504 172.648V162.168C1.504 162.061 1.536 161.976 1.6 161.912C1.664 161.837 1.74933 161.8 1.856 161.8H8.032C8.14933 161.8 8.24 161.832 8.304 161.896C8.368 161.96 8.4 162.051 8.4 162.168V162.408C8.4 162.515 8.36267 162.6 8.288 162.664C8.224 162.728 8.13867 162.76 8.032 162.76H2.512V167.064H7.712C7.82933 167.064 7.92 167.096 7.984 167.16C8.048 167.224 8.08 167.315 8.08 167.432V167.672C8.08 167.779 8.04267 167.864 7.968 167.928C7.904 167.992 7.81867 168.024 7.712 168.024H2.512V172.648C2.512 172.755 2.47467 172.84 2.4 172.904C2.336 172.968 2.25067 173 2.144 173H1.856ZM13.4815 173.16C12.3722 173.16 11.5082 172.824 10.8895 172.152C10.2815 171.469 9.9615 170.589 9.9295 169.512L9.9135 168.84L9.9295 168.168C9.9615 167.091 10.2815 166.216 10.8895 165.544C11.5082 164.861 12.3722 164.52 13.4815 164.52C14.5908 164.52 15.4495 164.861 16.0575 165.544C16.6762 166.216 17.0015 167.091 17.0335 168.168C17.0442 168.275 17.0495 168.499 17.0495 168.84C17.0495 169.181 17.0442 169.405 17.0335 169.512C17.0015 170.589 16.6762 171.469 16.0575 172.152C15.4495 172.824 14.5908 173.16 13.4815 173.16ZM13.4815 172.232C14.2388 172.232 14.8468 171.992 15.3055 171.512C15.7748 171.021 16.0255 170.328 16.0575 169.432C16.0682 169.325 16.0735 169.128 16.0735 168.84C16.0735 168.552 16.0682 168.355 16.0575 168.248C16.0255 167.352 15.7748 166.664 15.3055 166.184C14.8468 165.693 14.2388 165.448 13.4815 165.448C12.7242 165.448 12.1108 165.693 11.6415 166.184C11.1828 166.664 10.9375 167.352 10.9055 168.248L10.8895 168.84L10.9055 169.432C10.9375 170.328 11.1828 171.021 11.6415 171.512C12.1108 171.992 12.7242 172.232 13.4815 172.232ZM19.6674 173C19.5607 173 19.4754 172.968 19.4114 172.904C19.3474 172.84 19.3154 172.755 19.3154 172.648V165.048C19.3154 164.941 19.3474 164.856 19.4114 164.792C19.4754 164.717 19.5607 164.68 19.6674 164.68H19.9234C20.03 164.68 20.1154 164.717 20.1794 164.792C20.254 164.856 20.2914 164.941 20.2914 165.048V165.784C20.6754 165.048 21.4007 164.68 22.4674 164.68H23.0594C23.166 164.68 23.2514 164.712 23.3154 164.776C23.3794 164.84 23.4114 164.925 23.4114 165.032V165.256C23.4114 165.363 23.3794 165.448 23.3154 165.512C23.2514 165.576 23.166 165.608 23.0594 165.608H22.3714C21.7314 165.608 21.2247 165.795 20.8514 166.168C20.478 166.541 20.2914 167.048 20.2914 167.688V172.648C20.2914 172.755 20.254 172.84 20.1794 172.904C20.1154 172.968 20.03 173 19.9234 173H19.6674ZM27.7579 173C26.9685 173 26.4085 172.765 26.0779 172.296C25.7472 171.816 25.5819 171.16 25.5819 170.328V165.608H24.3339C24.2272 165.608 24.1419 165.576 24.0779 165.512C24.0139 165.448 23.9819 165.363 23.9819 165.256V165.032C23.9819 164.925 24.0139 164.84 24.0779 164.776C24.1419 164.712 24.2272 164.68 24.3339 164.68H25.5819V161.992C25.5819 161.885 25.6139 161.8 25.6779 161.736C25.7419 161.672 25.8272 161.64 25.9339 161.64H26.2059C26.3125 161.64 26.3979 161.672 26.4619 161.736C26.5259 161.8 26.5579 161.885 26.5579 161.992V164.68H28.5419C28.6485 164.68 28.7339 164.712 28.7979 164.776C28.8619 164.84 28.8939 164.925 28.8939 165.032V165.256C28.8939 165.363 28.8619 165.448 28.7979 165.512C28.7339 165.576 28.6485 165.608 28.5419 165.608H26.5579V170.264C26.5579 170.861 26.6539 171.315 26.8459 171.624C27.0485 171.923 27.3792 172.072 27.8379 172.072H28.7019C28.8085 172.072 28.8939 172.104 28.9579 172.168C29.0219 172.232 29.0539 172.317 29.0539 172.424V172.648C29.0539 172.755 29.0219 172.84 28.9579 172.904C28.8939 172.968 28.8085 173 28.7019 173H27.7579ZM33.4279 173.16C32.7345 173.16 32.1479 173.043 31.6679 172.808C31.1985 172.573 30.8412 172.307 30.5959 172.008C30.3612 171.709 30.2439 171.469 30.2439 171.288C30.2439 171.192 30.2812 171.117 30.3559 171.064C30.4305 171 30.5105 170.968 30.5959 170.968H30.8359C30.9105 170.968 30.9692 170.984 31.0119 171.016C31.0652 171.037 31.1239 171.091 31.1879 171.176C31.4225 171.507 31.7052 171.768 32.0359 171.96C32.3772 172.141 32.8412 172.232 33.4279 172.232C34.0892 172.232 34.6225 172.109 35.0279 171.864C35.4332 171.608 35.6359 171.245 35.6359 170.776C35.6359 170.488 35.5505 170.253 35.3799 170.072C35.2199 169.891 34.9532 169.736 34.5799 169.608C34.2172 169.469 33.6732 169.315 32.9479 169.144C31.9985 168.931 31.3479 168.637 30.9959 168.264C30.6545 167.891 30.4839 167.416 30.4839 166.84C30.4839 166.445 30.5905 166.072 30.8039 165.72C31.0279 165.368 31.3532 165.08 31.7799 164.856C32.2172 164.632 32.7399 164.52 33.3479 164.52C33.9879 164.52 34.5265 164.632 34.9639 164.856C35.4119 165.069 35.7425 165.32 35.9559 165.608C36.1799 165.896 36.2919 166.131 36.2919 166.312C36.2919 166.408 36.2545 166.488 36.1799 166.552C36.1159 166.605 36.0359 166.632 35.9399 166.632H35.6999C35.5505 166.632 35.4332 166.563 35.3479 166.424C35.1345 166.104 34.8892 165.864 34.6119 165.704C34.3452 165.533 33.9239 165.448 33.3479 165.448C32.7292 165.448 32.2599 165.576 31.9399 165.832C31.6199 166.088 31.4599 166.424 31.4599 166.84C31.4599 167.096 31.5239 167.309 31.6519 167.48C31.7799 167.651 32.0199 167.811 32.3719 167.96C32.7239 168.099 33.2359 168.243 33.9079 168.392C34.8999 168.616 35.5985 168.915 36.0039 169.288C36.4092 169.661 36.6119 170.157 36.6119 170.776C36.6119 171.213 36.4892 171.613 36.2439 171.976C35.9985 172.339 35.6359 172.627 35.1559 172.84C34.6759 173.053 34.0999 173.16 33.4279 173.16ZM40.9829 173.16C40.4709 173.16 39.9962 173.053 39.5589 172.84C39.1215 172.627 38.7695 172.339 38.5029 171.976C38.2469 171.613 38.1189 171.213 38.1189 170.776C38.1189 170.072 38.4015 169.496 38.9669 169.048C39.5429 168.6 40.3162 168.312 41.2869 168.184L43.8149 167.832V167.272C43.8149 166.685 43.6335 166.237 43.2709 165.928C42.9189 165.608 42.3749 165.448 41.6389 165.448C41.0949 165.448 40.6469 165.555 40.2949 165.768C39.9535 165.981 39.7349 166.237 39.6389 166.536C39.5962 166.664 39.5429 166.755 39.4789 166.808C39.4255 166.851 39.3509 166.872 39.2549 166.872H39.0309C38.9349 166.872 38.8495 166.84 38.7749 166.776C38.7109 166.701 38.6789 166.616 38.6789 166.52C38.6789 166.285 38.7855 166.013 38.9989 165.704C39.2122 165.384 39.5429 165.107 39.9909 164.872C40.4389 164.637 40.9882 164.52 41.6389 164.52C42.7802 164.52 43.5909 164.792 44.0709 165.336C44.5509 165.88 44.7909 166.541 44.7909 167.32V172.648C44.7909 172.755 44.7589 172.84 44.6949 172.904C44.6309 172.968 44.5455 173 44.4389 173H44.1669C44.0602 173 43.9749 172.968 43.9109 172.904C43.8469 172.84 43.8149 172.755 43.8149 172.648V171.896C43.5802 172.248 43.2335 172.547 42.7749 172.792C42.3269 173.037 41.7295 173.16 40.9829 173.16ZM41.1429 172.232C41.9215 172.232 42.5615 171.976 43.0629 171.464C43.5642 170.952 43.8149 170.216 43.8149 169.256V168.712L41.7509 169C40.8762 169.117 40.2149 169.32 39.7669 169.608C39.3189 169.896 39.0949 170.259 39.0949 170.696C39.0949 171.187 39.2975 171.565 39.7029 171.832C40.1189 172.099 40.5989 172.232 41.1429 172.232ZM40.1509 162.968C40.0442 162.968 39.9589 162.936 39.8949 162.872C39.8309 162.808 39.7989 162.723 39.7989 162.616V162.008C39.7989 161.901 39.8309 161.816 39.8949 161.752C39.9589 161.677 40.0442 161.64 40.1509 161.64H40.7589C40.8655 161.64 40.9509 161.677 41.0149 161.752C41.0895 161.816 41.1269 161.901 41.1269 162.008V162.616C41.1269 162.723 41.0895 162.808 41.0149 162.872C40.9509 162.936 40.8655 162.968 40.7589 162.968H40.1509ZM42.5989 162.968C42.4922 162.968 42.4069 162.936 42.3429 162.872C42.2789 162.808 42.2469 162.723 42.2469 162.616V162.008C42.2469 161.901 42.2789 161.816 42.3429 161.752C42.4069 161.677 42.4922 161.64 42.5989 161.64H43.2069C43.3135 161.64 43.3989 161.677 43.4629 161.752C43.5375 161.816 43.5749 161.901 43.5749 162.008V162.616C43.5749 162.723 43.5375 162.808 43.4629 162.872C43.3989 162.936 43.3135 162.968 43.2069 162.968H42.5989ZM50.1229 173C49.3335 173 48.7735 172.765 48.4429 172.296C48.1122 171.816 47.9469 171.16 47.9469 170.328V165.608H46.6989C46.5922 165.608 46.5069 165.576 46.4429 165.512C46.3789 165.448 46.3469 165.363 46.3469 165.256V165.032C46.3469 164.925 46.3789 164.84 46.4429 164.776C46.5069 164.712 46.5922 164.68 46.6989 164.68H47.9469V161.992C47.9469 161.885 47.9789 161.8 48.0429 161.736C48.1069 161.672 48.1922 161.64 48.2989 161.64H48.5709C48.6775 161.64 48.7629 161.672 48.8269 161.736C48.8909 161.8 48.9229 161.885 48.9229 161.992V164.68H50.9069C51.0135 164.68 51.0989 164.712 51.1629 164.776C51.2269 164.84 51.2589 164.925 51.2589 165.032V165.256C51.2589 165.363 51.2269 165.448 51.1629 165.512C51.0989 165.576 51.0135 165.608 50.9069 165.608H48.9229V170.264C48.9229 170.861 49.0189 171.315 49.2109 171.624C49.4135 171.923 49.7442 172.072 50.2029 172.072H51.0669C51.1735 172.072 51.2589 172.104 51.3229 172.168C51.3869 172.232 51.4189 172.317 51.4189 172.424V172.648C51.4189 172.755 51.3869 172.84 51.3229 172.904C51.2589 172.968 51.1735 173 51.0669 173H50.1229ZM55.9529 173C55.1635 173 54.6035 172.765 54.2729 172.296C53.9422 171.816 53.7769 171.16 53.7769 170.328V165.608H52.5289C52.4222 165.608 52.3369 165.576 52.2729 165.512C52.2089 165.448 52.1769 165.363 52.1769 165.256V165.032C52.1769 164.925 52.2089 164.84 52.2729 164.776C52.3369 164.712 52.4222 164.68 52.5289 164.68H53.7769V161.992C53.7769 161.885 53.8089 161.8 53.8729 161.736C53.9369 161.672 54.0222 161.64 54.1289 161.64H54.4009C54.5075 161.64 54.5929 161.672 54.6569 161.736C54.7209 161.8 54.7529 161.885 54.7529 161.992V164.68H56.7369C56.8435 164.68 56.9289 164.712 56.9929 164.776C57.0569 164.84 57.0889 164.925 57.0889 165.032V165.256C57.0889 165.363 57.0569 165.448 56.9929 165.512C56.9289 165.576 56.8435 165.608 56.7369 165.608H54.7529V170.264C54.7529 170.861 54.8489 171.315 55.0409 171.624C55.2435 171.923 55.5742 172.072 56.0329 172.072H56.8969C57.0035 172.072 57.0889 172.104 57.1529 172.168C57.2169 172.232 57.2489 172.317 57.2489 172.424V172.648C57.2489 172.755 57.2169 172.84 57.1529 172.904C57.0889 172.968 57.0035 173 56.8969 173H55.9529ZM63.5399 173C63.4332 173 63.3479 172.968 63.2839 172.904C63.2199 172.84 63.1879 172.755 63.1879 172.648V165.032C63.1879 164.925 63.2199 164.84 63.2839 164.776C63.3479 164.712 63.4332 164.68 63.5399 164.68H63.8119C63.9185 164.68 64.0039 164.712 64.0679 164.776C64.1319 164.84 64.1639 164.925 64.1639 165.032V165.592C64.4412 165.24 64.7612 164.973 65.1239 164.792C65.4972 164.611 65.9399 164.52 66.4519 164.52C67.6465 164.52 68.4999 165.021 69.0119 166.024C69.2679 165.565 69.6305 165.203 70.0999 164.936C70.5799 164.659 71.1239 164.52 71.7319 164.52C72.6172 164.52 73.3372 164.824 73.8919 165.432C74.4465 166.029 74.7239 166.883 74.7239 167.992V172.648C74.7239 172.755 74.6919 172.84 74.6279 172.904C74.5639 172.968 74.4785 173 74.3719 173H74.0999C73.9932 173 73.9079 172.968 73.8439 172.904C73.7799 172.84 73.7479 172.755 73.7479 172.648V168.152C73.7479 167.181 73.5452 166.488 73.1399 166.072C72.7452 165.656 72.2225 165.448 71.5719 165.448C70.9959 165.448 70.4945 165.661 70.0679 166.088C69.6519 166.504 69.4439 167.192 69.4439 168.152V172.648C69.4439 172.755 69.4119 172.84 69.3479 172.904C69.2839 172.968 69.1985 173 69.0919 173H68.8199C68.7132 173 68.6279 172.968 68.5639 172.904C68.4999 172.84 68.4679 172.755 68.4679 172.648V168.152C68.4679 167.192 68.2599 166.504 67.8439 166.088C67.4279 165.661 66.9105 165.448 66.2919 165.448C65.7159 165.448 65.2145 165.661 64.7879 166.088C64.3719 166.504 64.1639 167.187 64.1639 168.136V172.648C64.1639 172.755 64.1319 172.84 64.0679 172.904C64.0039 172.968 63.9185 173 63.8119 173H63.5399ZM80.4828 173.16C79.3734 173.16 78.5094 172.824 77.8908 172.152C77.2828 171.469 76.9628 170.589 76.9308 169.512L76.9148 168.84L76.9308 168.168C76.9628 167.091 77.2828 166.216 77.8908 165.544C78.5094 164.861 79.3734 164.52 80.4828 164.52C81.5921 164.52 82.4508 164.861 83.0588 165.544C83.6774 166.216 84.0028 167.091 84.0348 168.168C84.0454 168.275 84.0508 168.499 84.0508 168.84C84.0508 169.181 84.0454 169.405 84.0348 169.512C84.0028 170.589 83.6774 171.469 83.0588 172.152C82.4508 172.824 81.5921 173.16 80.4828 173.16ZM80.4828 172.232C81.2401 172.232 81.8481 171.992 82.3068 171.512C82.7761 171.021 83.0268 170.328 83.0588 169.432C83.0694 169.325 83.0748 169.128 83.0748 168.84C83.0748 168.552 83.0694 168.355 83.0588 168.248C83.0268 167.352 82.7761 166.664 82.3068 166.184C81.8481 165.693 81.2401 165.448 80.4828 165.448C79.7254 165.448 79.1121 165.693 78.6428 166.184C78.1841 166.664 77.9388 167.352 77.9068 168.248L77.8908 168.84L77.9068 169.432C77.9388 170.328 78.1841 171.021 78.6428 171.512C79.1121 171.992 79.7254 172.232 80.4828 172.232ZM89.0229 173C88.2335 173 87.6735 172.765 87.3429 172.296C87.0122 171.816 86.8469 171.16 86.8469 170.328V165.608H85.5989C85.4922 165.608 85.4069 165.576 85.3429 165.512C85.2789 165.448 85.2469 165.363 85.2469 165.256V165.032C85.2469 164.925 85.2789 164.84 85.3429 164.776C85.4069 164.712 85.4922 164.68 85.5989 164.68H86.8469V161.992C86.8469 161.885 86.8789 161.8 86.9429 161.736C87.0069 161.672 87.0922 161.64 87.1989 161.64H87.4709C87.5775 161.64 87.6629 161.672 87.7269 161.736C87.7909 161.8 87.8229 161.885 87.8229 161.992V164.68H89.8069C89.9135 164.68 89.9989 164.712 90.0629 164.776C90.1269 164.84 90.1589 164.925 90.1589 165.032V165.256C90.1589 165.363 90.1269 165.448 90.0629 165.512C89.9989 165.576 89.9135 165.608 89.8069 165.608H87.8229V170.264C87.8229 170.861 87.9189 171.315 88.1109 171.624C88.3135 171.923 88.6442 172.072 89.1029 172.072H89.9669C90.0735 172.072 90.1589 172.104 90.2229 172.168C90.2869 172.232 90.3189 172.317 90.3189 172.424V172.648C90.3189 172.755 90.2869 172.84 90.2229 172.904C90.1589 172.968 90.0735 173 89.9669 173H89.0229ZM92.2289 162.968C92.1222 162.968 92.0369 162.936 91.9729 162.872C91.9089 162.808 91.8769 162.723 91.8769 162.616V162.008C91.8769 161.901 91.9089 161.816 91.9729 161.752C92.0369 161.677 92.1222 161.64 92.2289 161.64H92.8369C92.9435 161.64 93.0289 161.677 93.0929 161.752C93.1675 161.816 93.2049 161.901 93.2049 162.008V162.616C93.2049 162.723 93.1675 162.808 93.0929 162.872C93.0289 162.936 92.9435 162.968 92.8369 162.968H92.2289ZM92.4049 173C92.2982 173 92.2129 172.968 92.1489 172.904C92.0849 172.84 92.0529 172.755 92.0529 172.648V165.032C92.0529 164.925 92.0849 164.84 92.1489 164.776C92.2129 164.712 92.2982 164.68 92.4049 164.68H92.6769C92.7835 164.68 92.8689 164.712 92.9329 164.776C92.9969 164.84 93.0289 164.925 93.0289 165.032V172.648C93.0289 172.755 92.9969 172.84 92.9329 172.904C92.8689 172.968 92.7835 173 92.6769 173H92.4049ZM98.8634 173.16C97.754 173.16 96.89 172.824 96.2714 172.152C95.6634 171.469 95.3434 170.589 95.3114 169.512L95.2954 168.84L95.3114 168.168C95.3434 167.091 95.6634 166.216 96.2714 165.544C96.89 164.861 97.754 164.52 98.8634 164.52C99.9727 164.52 100.831 164.861 101.439 165.544C102.058 166.216 102.383 167.091 102.415 168.168C102.426 168.275 102.431 168.499 102.431 168.84C102.431 169.181 102.426 169.405 102.415 169.512C102.383 170.589 102.058 171.469 101.439 172.152C100.831 172.824 99.9727 173.16 98.8634 173.16ZM98.8634 172.232C99.6207 172.232 100.229 171.992 100.687 171.512C101.157 171.021 101.407 170.328 101.439 169.432C101.45 169.325 101.455 169.128 101.455 168.84C101.455 168.552 101.45 168.355 101.439 168.248C101.407 167.352 101.157 166.664 100.687 166.184C100.229 165.693 99.6207 165.448 98.8634 165.448C98.106 165.448 97.4927 165.693 97.0234 166.184C96.5647 166.664 96.3194 167.352 96.2874 168.248L96.2714 168.84L96.2874 169.432C96.3194 170.328 96.5647 171.021 97.0234 171.512C97.4927 171.992 98.106 172.232 98.8634 172.232ZM105.049 173C104.943 173 104.857 172.968 104.793 172.904C104.729 172.84 104.697 172.755 104.697 172.648V165.032C104.697 164.925 104.729 164.84 104.793 164.776C104.857 164.712 104.943 164.68 105.049 164.68H105.321C105.428 164.68 105.513 164.712 105.577 164.776C105.641 164.84 105.673 164.925 105.673 165.032V165.784C105.993 165.368 106.356 165.053 106.761 164.84C107.177 164.627 107.711 164.52 108.361 164.52C109.407 164.52 110.212 164.856 110.777 165.528C111.343 166.189 111.625 167.048 111.625 168.104V172.648C111.625 172.755 111.593 172.84 111.529 172.904C111.465 172.968 111.38 173 111.273 173H111.001C110.895 173 110.809 172.968 110.745 172.904C110.681 172.84 110.649 172.755 110.649 172.648V168.184C110.649 167.32 110.436 166.648 110.009 166.168C109.593 165.688 108.991 165.448 108.201 165.448C107.433 165.448 106.82 165.693 106.361 166.184C105.903 166.664 105.673 167.331 105.673 168.184V172.648C105.673 172.755 105.641 172.84 105.577 172.904C105.513 172.968 105.428 173 105.321 173H105.049ZM117.303 173.16C116.289 173.16 115.473 172.829 114.855 172.168C114.236 171.496 113.884 170.6 113.799 169.48L113.783 168.84L113.799 168.2C113.884 167.091 114.231 166.2 114.839 165.528C115.457 164.856 116.279 164.52 117.303 164.52C118.412 164.52 119.276 164.888 119.895 165.624C120.524 166.36 120.839 167.368 120.839 168.648V168.888C120.839 168.995 120.801 169.08 120.727 169.144C120.663 169.208 120.577 169.24 120.471 169.24H114.775V169.4C114.796 169.901 114.908 170.371 115.111 170.808C115.324 171.235 115.617 171.581 115.991 171.848C116.364 172.104 116.801 172.232 117.303 172.232C117.889 172.232 118.364 172.12 118.727 171.896C119.1 171.661 119.367 171.427 119.527 171.192C119.623 171.064 119.692 170.984 119.735 170.952C119.788 170.92 119.879 170.904 120.007 170.904H120.263C120.359 170.904 120.439 170.931 120.503 170.984C120.567 171.037 120.599 171.107 120.599 171.192C120.599 171.416 120.455 171.688 120.167 172.008C119.889 172.317 119.5 172.589 118.999 172.824C118.497 173.048 117.932 173.16 117.303 173.16ZM119.863 168.344V168.28C119.863 167.459 119.628 166.781 119.159 166.248C118.7 165.715 118.081 165.448 117.303 165.448C116.524 165.448 115.905 165.715 115.447 166.248C114.999 166.781 114.775 167.459 114.775 168.28V168.344H119.863ZM123.381 173C123.274 173 123.189 172.968 123.125 172.904C123.061 172.84 123.029 172.755 123.029 172.648V165.048C123.029 164.941 123.061 164.856 123.125 164.792C123.189 164.717 123.274 164.68 123.381 164.68H123.637C123.744 164.68 123.829 164.717 123.893 164.792C123.968 164.856 124.005 164.941 124.005 165.048V165.784C124.389 165.048 125.114 164.68 126.181 164.68H126.773C126.88 164.68 126.965 164.712 127.029 164.776C127.093 164.84 127.125 164.925 127.125 165.032V165.256C127.125 165.363 127.093 165.448 127.029 165.512C126.965 165.576 126.88 165.608 126.773 165.608H126.085C125.445 165.608 124.938 165.795 124.565 166.168C124.192 166.541 124.005 167.048 124.005 167.688V172.648C124.005 172.755 123.968 172.84 123.893 172.904C123.829 172.968 123.744 173 123.637 173H123.381ZM130.787 173.16C130.275 173.16 129.8 173.053 129.363 172.84C128.925 172.627 128.573 172.339 128.307 171.976C128.051 171.613 127.923 171.213 127.923 170.776C127.923 170.072 128.205 169.496 128.771 169.048C129.347 168.6 130.12 168.312 131.091 168.184L133.619 167.832V167.272C133.619 166.685 133.437 166.237 133.075 165.928C132.723 165.608 132.179 165.448 131.443 165.448C130.899 165.448 130.451 165.555 130.099 165.768C129.757 165.981 129.539 166.237 129.443 166.536C129.4 166.664 129.347 166.755 129.283 166.808C129.229 166.851 129.155 166.872 129.059 166.872H128.835C128.739 166.872 128.653 166.84 128.579 166.776C128.515 166.701 128.483 166.616 128.483 166.52C128.483 166.285 128.589 166.013 128.803 165.704C129.016 165.384 129.347 165.107 129.795 164.872C130.243 164.637 130.792 164.52 131.443 164.52C132.584 164.52 133.395 164.792 133.875 165.336C134.355 165.88 134.595 166.541 134.595 167.32V172.648C134.595 172.755 134.563 172.84 134.499 172.904C134.435 172.968 134.349 173 134.243 173H133.971C133.864 173 133.779 172.968 133.715 172.904C133.651 172.84 133.619 172.755 133.619 172.648V171.896C133.384 172.248 133.037 172.547 132.579 172.792C132.131 173.037 131.533 173.16 130.787 173.16ZM130.947 172.232C131.725 172.232 132.365 171.976 132.867 171.464C133.368 170.952 133.619 170.216 133.619 169.256V168.712L131.555 169C130.68 169.117 130.019 169.32 129.571 169.608C129.123 169.896 128.899 170.259 128.899 170.696C128.899 171.187 129.101 171.565 129.507 171.832C129.923 172.099 130.403 172.232 130.947 172.232ZM142.233 173C142.127 173 142.041 172.968 141.977 172.904C141.913 172.84 141.881 172.755 141.881 172.648V165.608H140.457C140.351 165.608 140.265 165.576 140.201 165.512C140.137 165.448 140.105 165.363 140.105 165.256V165.032C140.105 164.925 140.137 164.84 140.201 164.776C140.265 164.712 140.351 164.68 140.457 164.68H141.881V163.768C141.881 162.957 142.057 162.323 142.409 161.864C142.761 161.395 143.391 161.16 144.297 161.16H145.129C145.236 161.16 145.321 161.192 145.385 161.256C145.449 161.32 145.481 161.405 145.481 161.512V161.736C145.481 161.843 145.449 161.928 145.385 161.992C145.321 162.056 145.236 162.088 145.129 162.088H144.297C143.753 162.088 143.375 162.232 143.161 162.52C142.959 162.797 142.857 163.24 142.857 163.848V164.68H144.969C145.076 164.68 145.161 164.712 145.225 164.776C145.289 164.84 145.321 164.925 145.321 165.032V165.256C145.321 165.363 145.289 165.448 145.225 165.512C145.161 165.576 145.076 165.608 144.969 165.608H142.857V172.648C142.857 172.755 142.825 172.84 142.761 172.904C142.697 172.968 142.612 173 142.505 173H142.233ZM149.939 173.16C148.83 173.16 147.966 172.824 147.347 172.152C146.739 171.469 146.419 170.589 146.387 169.512L146.371 168.84L146.387 168.168C146.419 167.091 146.739 166.216 147.347 165.544C147.966 164.861 148.83 164.52 149.939 164.52C151.048 164.52 151.907 164.861 152.515 165.544C153.134 166.216 153.459 167.091 153.491 168.168C153.502 168.275 153.507 168.499 153.507 168.84C153.507 169.181 153.502 169.405 153.491 169.512C153.459 170.589 153.134 171.469 152.515 172.152C151.907 172.824 151.048 173.16 149.939 173.16ZM149.939 172.232C150.696 172.232 151.304 171.992 151.763 171.512C152.232 171.021 152.483 170.328 152.515 169.432C152.526 169.325 152.531 169.128 152.531 168.84C152.531 168.552 152.526 168.355 152.515 168.248C152.483 167.352 152.232 166.664 151.763 166.184C151.304 165.693 150.696 165.448 149.939 165.448C149.182 165.448 148.568 165.693 148.099 166.184C147.64 166.664 147.395 167.352 147.363 168.248L147.347 168.84L147.363 169.432C147.395 170.328 147.64 171.021 148.099 171.512C148.568 171.992 149.182 172.232 149.939 172.232ZM148.403 162.968C148.296 162.968 148.211 162.936 148.147 162.872C148.083 162.808 148.051 162.723 148.051 162.616V162.008C148.051 161.901 148.083 161.816 148.147 161.752C148.211 161.677 148.296 161.64 148.403 161.64H149.011C149.118 161.64 149.203 161.677 149.267 161.752C149.342 161.816 149.379 161.901 149.379 162.008V162.616C149.379 162.723 149.342 162.808 149.267 162.872C149.203 162.936 149.118 162.968 149.011 162.968H148.403ZM150.851 162.968C150.744 162.968 150.659 162.936 150.595 162.872C150.531 162.808 150.499 162.723 150.499 162.616V162.008C150.499 161.901 150.531 161.816 150.595 161.752C150.659 161.677 150.744 161.64 150.851 161.64H151.459C151.566 161.64 151.651 161.677 151.715 161.752C151.79 161.816 151.827 161.901 151.827 162.008V162.616C151.827 162.723 151.79 162.808 151.715 162.872C151.651 162.936 151.566 162.968 151.459 162.968H150.851ZM156.125 173C156.018 173 155.933 172.968 155.869 172.904C155.805 172.84 155.773 172.755 155.773 172.648V165.048C155.773 164.941 155.805 164.856 155.869 164.792C155.933 164.717 156.018 164.68 156.125 164.68H156.381C156.488 164.68 156.573 164.717 156.637 164.792C156.712 164.856 156.749 164.941 156.749 165.048V165.784C157.133 165.048 157.858 164.68 158.925 164.68H159.517C159.624 164.68 159.709 164.712 159.773 164.776C159.837 164.84 159.869 164.925 159.869 165.032V165.256C159.869 165.363 159.837 165.448 159.773 165.512C159.709 165.576 159.624 165.608 159.517 165.608H158.829C158.189 165.608 157.682 165.795 157.309 166.168C156.936 166.541 156.749 167.048 156.749 167.688V172.648C156.749 172.755 156.712 172.84 156.637 172.904C156.573 172.968 156.488 173 156.381 173H156.125ZM167.47 173.16C166.958 173.16 166.483 173.053 166.046 172.84C165.608 172.627 165.256 172.339 164.99 171.976C164.734 171.613 164.606 171.213 164.606 170.776C164.606 170.072 164.888 169.496 165.454 169.048C166.03 168.6 166.803 168.312 167.774 168.184L170.302 167.832V167.272C170.302 166.685 170.12 166.237 169.758 165.928C169.406 165.608 168.862 165.448 168.126 165.448C167.582 165.448 167.134 165.555 166.782 165.768C166.44 165.981 166.222 166.237 166.126 166.536C166.083 166.664 166.03 166.755 165.966 166.808C165.912 166.851 165.838 166.872 165.742 166.872H165.518C165.422 166.872 165.336 166.84 165.262 166.776C165.198 166.701 165.166 166.616 165.166 166.52C165.166 166.285 165.272 166.013 165.486 165.704C165.699 165.384 166.03 165.107 166.478 164.872C166.926 164.637 167.475 164.52 168.126 164.52C169.267 164.52 170.078 164.792 170.558 165.336C171.038 165.88 171.278 166.541 171.278 167.32V172.648C171.278 172.755 171.246 172.84 171.182 172.904C171.118 172.968 171.032 173 170.926 173H170.654C170.547 173 170.462 172.968 170.398 172.904C170.334 172.84 170.302 172.755 170.302 172.648V171.896C170.067 172.248 169.72 172.547 169.262 172.792C168.814 173.037 168.216 173.16 167.47 173.16ZM167.63 172.232C168.408 172.232 169.048 171.976 169.55 171.464C170.051 170.952 170.302 170.216 170.302 169.256V168.712L168.238 169C167.363 169.117 166.702 169.32 166.254 169.608C165.806 169.896 165.582 170.259 165.582 170.696C165.582 171.187 165.784 171.565 166.19 171.832C166.606 172.099 167.086 172.232 167.63 172.232ZM176.61 173C175.82 173 175.26 172.765 174.93 172.296C174.599 171.816 174.434 171.16 174.434 170.328V165.608H173.186C173.079 165.608 172.994 165.576 172.93 165.512C172.866 165.448 172.834 165.363 172.834 165.256V165.032C172.834 164.925 172.866 164.84 172.93 164.776C172.994 164.712 173.079 164.68 173.186 164.68H174.434V161.992C174.434 161.885 174.466 161.8 174.53 161.736C174.594 161.672 174.679 161.64 174.786 161.64H175.058C175.164 161.64 175.25 161.672 175.314 161.736C175.378 161.8 175.41 161.885 175.41 161.992V164.68H177.394C177.5 164.68 177.586 164.712 177.65 164.776C177.714 164.84 177.746 164.925 177.746 165.032V165.256C177.746 165.363 177.714 165.448 177.65 165.512C177.586 165.576 177.5 165.608 177.394 165.608H175.41V170.264C175.41 170.861 175.506 171.315 175.698 171.624C175.9 171.923 176.231 172.072 176.69 172.072H177.554C177.66 172.072 177.746 172.104 177.81 172.168C177.874 172.232 177.906 172.317 177.906 172.424V172.648C177.906 172.755 177.874 172.84 177.81 172.904C177.746 172.968 177.66 173 177.554 173H176.61ZM182.44 173C181.65 173 181.09 172.765 180.76 172.296C180.429 171.816 180.264 171.16 180.264 170.328V165.608H179.016C178.909 165.608 178.824 165.576 178.76 165.512C178.696 165.448 178.664 165.363 178.664 165.256V165.032C178.664 164.925 178.696 164.84 178.76 164.776C178.824 164.712 178.909 164.68 179.016 164.68H180.264V161.992C180.264 161.885 180.296 161.8 180.36 161.736C180.424 161.672 180.509 161.64 180.616 161.64H180.888C180.994 161.64 181.08 161.672 181.144 161.736C181.208 161.8 181.24 161.885 181.24 161.992V164.68H183.224C183.33 164.68 183.416 164.712 183.48 164.776C183.544 164.84 183.576 164.925 183.576 165.032V165.256C183.576 165.363 183.544 165.448 183.48 165.512C183.416 165.576 183.33 165.608 183.224 165.608H181.24V170.264C181.24 170.861 181.336 171.315 181.528 171.624C181.73 171.923 182.061 172.072 182.52 172.072H183.384C183.49 172.072 183.576 172.104 183.64 172.168C183.704 172.232 183.736 172.317 183.736 172.424V172.648C183.736 172.755 183.704 172.84 183.64 172.904C183.576 172.968 183.49 173 183.384 173H182.44ZM3.936 197.16C3.24267 197.16 2.656 197.043 2.176 196.808C1.70667 196.573 1.34933 196.307 1.104 196.008C0.869333 195.709 0.752 195.469 0.752 195.288C0.752 195.192 0.789333 195.117 0.864 195.064C0.938667 195 1.01867 194.968 1.104 194.968H1.344C1.41867 194.968 1.47733 194.984 1.52 195.016C1.57333 195.037 1.632 195.091 1.696 195.176C1.93067 195.507 2.21333 195.768 2.544 195.96C2.88533 196.141 3.34933 196.232 3.936 196.232C4.59733 196.232 5.13067 196.109 5.536 195.864C5.94133 195.608 6.144 195.245 6.144 194.776C6.144 194.488 6.05867 194.253 5.888 194.072C5.728 193.891 5.46133 193.736 5.088 193.608C4.72533 193.469 4.18133 193.315 3.456 193.144C2.50667 192.931 1.856 192.637 1.504 192.264C1.16267 191.891 0.992 191.416 0.992 190.84C0.992 190.445 1.09867 190.072 1.312 189.72C1.536 189.368 1.86133 189.08 2.288 188.856C2.72533 188.632 3.248 188.52 3.856 188.52C4.496 188.52 5.03467 188.632 5.472 188.856C5.92 189.069 6.25067 189.32 6.464 189.608C6.688 189.896 6.8 190.131 6.8 190.312C6.8 190.408 6.76267 190.488 6.688 190.552C6.624 190.605 6.544 190.632 6.448 190.632H6.208C6.05867 190.632 5.94133 190.563 5.856 190.424C5.64267 190.104 5.39733 189.864 5.12 189.704C4.85333 189.533 4.432 189.448 3.856 189.448C3.23733 189.448 2.768 189.576 2.448 189.832C2.128 190.088 1.968 190.424 1.968 190.84C1.968 191.096 2.032 191.309 2.16 191.48C2.288 191.651 2.528 191.811 2.88 191.96C3.232 192.099 3.744 192.243 4.416 192.392C5.408 192.616 6.10667 192.915 6.512 193.288C6.91733 193.661 7.12 194.157 7.12 194.776C7.12 195.213 6.99733 195.613 6.752 195.976C6.50667 196.339 6.144 196.627 5.664 196.84C5.184 197.053 4.608 197.16 3.936 197.16ZM11.491 197.16C10.979 197.16 10.5043 197.053 10.067 196.84C9.62967 196.627 9.27767 196.339 9.011 195.976C8.755 195.613 8.627 195.213 8.627 194.776C8.627 194.072 8.90967 193.496 9.475 193.048C10.051 192.6 10.8243 192.312 11.795 192.184L14.323 191.832V191.272C14.323 190.685 14.1417 190.237 13.779 189.928C13.427 189.608 12.883 189.448 12.147 189.448C11.603 189.448 11.155 189.555 10.803 189.768C10.4617 189.981 10.243 190.237 10.147 190.536C10.1043 190.664 10.051 190.755 9.987 190.808C9.93367 190.851 9.859 190.872 9.763 190.872H9.539C9.443 190.872 9.35767 190.84 9.283 190.776C9.219 190.701 9.187 190.616 9.187 190.52C9.187 190.285 9.29367 190.013 9.507 189.704C9.72033 189.384 10.051 189.107 10.499 188.872C10.947 188.637 11.4963 188.52 12.147 188.52C13.2883 188.52 14.099 188.792 14.579 189.336C15.059 189.88 15.299 190.541 15.299 191.32V196.648C15.299 196.755 15.267 196.84 15.203 196.904C15.139 196.968 15.0537 197 14.947 197H14.675C14.5683 197 14.483 196.968 14.419 196.904C14.355 196.84 14.323 196.755 14.323 196.648V195.896C14.0883 196.248 13.7417 196.547 13.283 196.792C12.835 197.037 12.2377 197.16 11.491 197.16ZM11.651 196.232C12.4297 196.232 13.0697 195.976 13.571 195.464C14.0723 194.952 14.323 194.216 14.323 193.256V192.712L12.259 193C11.3843 193.117 10.723 193.32 10.275 193.608C9.827 193.896 9.603 194.259 9.603 194.696C9.603 195.187 9.80567 195.565 10.211 195.832C10.627 196.099 11.107 196.232 11.651 196.232ZM18.2611 197C18.1545 197 18.0691 196.968 18.0051 196.904C17.9411 196.84 17.9091 196.755 17.9091 196.648V189.032C17.9091 188.925 17.9411 188.84 18.0051 188.776C18.0691 188.712 18.1545 188.68 18.2611 188.68H18.5331C18.6398 188.68 18.7251 188.712 18.7891 188.776C18.8531 188.84 18.8851 188.925 18.8851 189.032V189.592C19.1625 189.24 19.4825 188.973 19.8451 188.792C20.2185 188.611 20.6611 188.52 21.1731 188.52C22.3678 188.52 23.2211 189.021 23.7331 190.024C23.9891 189.565 24.3518 189.203 24.8211 188.936C25.3011 188.659 25.8451 188.52 26.4531 188.52C27.3385 188.52 28.0585 188.824 28.6131 189.432C29.1678 190.029 29.4451 190.883 29.4451 191.992V196.648C29.4451 196.755 29.4131 196.84 29.3491 196.904C29.2851 196.968 29.1998 197 29.0931 197H28.8211C28.7145 197 28.6291 196.968 28.5651 196.904C28.5011 196.84 28.4691 196.755 28.4691 196.648V192.152C28.4691 191.181 28.2665 190.488 27.8611 190.072C27.4665 189.656 26.9438 189.448 26.2931 189.448C25.7171 189.448 25.2158 189.661 24.7891 190.088C24.3731 190.504 24.1651 191.192 24.1651 192.152V196.648C24.1651 196.755 24.1331 196.84 24.0691 196.904C24.0051 196.968 23.9198 197 23.8131 197H23.5411C23.4345 197 23.3491 196.968 23.2851 196.904C23.2211 196.84 23.1891 196.755 23.1891 196.648V192.152C23.1891 191.192 22.9811 190.504 22.5651 190.088C22.1491 189.661 21.6318 189.448 21.0131 189.448C20.4371 189.448 19.9358 189.661 19.5091 190.088C19.0931 190.504 18.8851 191.187 18.8851 192.136V196.648C18.8851 196.755 18.8531 196.84 18.7891 196.904C18.7251 196.968 18.6398 197 18.5331 197H18.2611ZM32.404 197C32.2973 197 32.212 196.968 32.148 196.904C32.084 196.84 32.052 196.755 32.052 196.648V185.992C32.052 185.885 32.084 185.8 32.148 185.736C32.212 185.672 32.2973 185.64 32.404 185.64H32.676C32.7827 185.64 32.868 185.672 32.932 185.736C32.996 185.8 33.028 185.885 33.028 185.992V196.648C33.028 196.755 32.996 196.84 32.932 196.904C32.868 196.968 32.7827 197 32.676 197H32.404ZM37.9497 197.16C37.4377 197.16 36.9631 197.053 36.5257 196.84C36.0884 196.627 35.7364 196.339 35.4697 195.976C35.2137 195.613 35.0857 195.213 35.0857 194.776C35.0857 194.072 35.3684 193.496 35.9337 193.048C36.5097 192.6 37.2831 192.312 38.2537 192.184L40.7818 191.832V191.272C40.7818 190.685 40.6004 190.237 40.2378 189.928C39.8858 189.608 39.3418 189.448 38.6058 189.448C38.0617 189.448 37.6137 189.555 37.2617 189.768C36.9204 189.981 36.7017 190.237 36.6057 190.536C36.5631 190.664 36.5097 190.755 36.4457 190.808C36.3924 190.851 36.3177 190.872 36.2217 190.872H35.9977C35.9017 190.872 35.8164 190.84 35.7417 190.776C35.6777 190.701 35.6457 190.616 35.6457 190.52C35.6457 190.285 35.7524 190.013 35.9657 189.704C36.1791 189.384 36.5097 189.107 36.9577 188.872C37.4057 188.637 37.9551 188.52 38.6058 188.52C39.7471 188.52 40.5578 188.792 41.0378 189.336C41.5178 189.88 41.7578 190.541 41.7578 191.32V196.648C41.7578 196.755 41.7257 196.84 41.6617 196.904C41.5978 196.968 41.5124 197 41.4057 197H41.1337C41.0271 197 40.9418 196.968 40.8777 196.904C40.8138 196.84 40.7818 196.755 40.7818 196.648V195.896C40.5471 196.248 40.2004 196.547 39.7417 196.792C39.2937 197.037 38.6964 197.16 37.9497 197.16ZM38.1097 196.232C38.8884 196.232 39.5284 195.976 40.0297 195.464C40.5311 194.952 40.7818 194.216 40.7818 193.256V192.712L38.7178 193C37.8431 193.117 37.1817 193.32 36.7337 193.608C36.2857 193.896 36.0617 194.259 36.0617 194.696C36.0617 195.187 36.2644 195.565 36.6697 195.832C37.0857 196.099 37.5657 196.232 38.1097 196.232ZM51.2129 197.16C50.5195 197.16 49.9329 197.043 49.4529 196.808C48.9835 196.573 48.6262 196.307 48.3809 196.008C48.1462 195.709 48.0289 195.469 48.0289 195.288C48.0289 195.192 48.0662 195.117 48.1409 195.064C48.2155 195 48.2955 194.968 48.3809 194.968H48.6209C48.6955 194.968 48.7542 194.984 48.7969 195.016C48.8502 195.037 48.9089 195.091 48.9729 195.176C49.2075 195.507 49.4902 195.768 49.8209 195.96C50.1622 196.141 50.6262 196.232 51.2129 196.232C51.8742 196.232 52.4075 196.109 52.8129 195.864C53.2182 195.608 53.4209 195.245 53.4209 194.776C53.4209 194.488 53.3355 194.253 53.1649 194.072C53.0049 193.891 52.7382 193.736 52.3649 193.608C52.0022 193.469 51.4582 193.315 50.7329 193.144C49.7835 192.931 49.1329 192.637 48.7809 192.264C48.4395 191.891 48.2689 191.416 48.2689 190.84C48.2689 190.445 48.3755 190.072 48.5889 189.72C48.8129 189.368 49.1382 189.08 49.5649 188.856C50.0022 188.632 50.5249 188.52 51.1329 188.52C51.7729 188.52 52.3115 188.632 52.7489 188.856C53.1969 189.069 53.5275 189.32 53.7409 189.608C53.9649 189.896 54.0769 190.131 54.0769 190.312C54.0769 190.408 54.0395 190.488 53.9649 190.552C53.9009 190.605 53.8209 190.632 53.7249 190.632H53.4849C53.3355 190.632 53.2182 190.563 53.1329 190.424C52.9195 190.104 52.6742 189.864 52.3969 189.704C52.1302 189.533 51.7089 189.448 51.1329 189.448C50.5142 189.448 50.0449 189.576 49.7249 189.832C49.4049 190.088 49.2449 190.424 49.2449 190.84C49.2449 191.096 49.3089 191.309 49.4369 191.48C49.5649 191.651 49.8049 191.811 50.1569 191.96C50.5089 192.099 51.0209 192.243 51.6929 192.392C52.6849 192.616 53.3835 192.915 53.7889 193.288C54.1942 193.661 54.3969 194.157 54.3969 194.776C54.3969 195.213 54.2742 195.613 54.0289 195.976C53.7835 196.339 53.4209 196.627 52.9409 196.84C52.4609 197.053 51.8849 197.16 51.2129 197.16ZM59.3279 197C58.5385 197 57.9785 196.765 57.6479 196.296C57.3172 195.816 57.1519 195.16 57.1519 194.328V189.608H55.9039C55.7972 189.608 55.7119 189.576 55.6479 189.512C55.5839 189.448 55.5519 189.363 55.5519 189.256V189.032C55.5519 188.925 55.5839 188.84 55.6479 188.776C55.7119 188.712 55.7972 188.68 55.9039 188.68H57.1519V185.992C57.1519 185.885 57.1839 185.8 57.2479 185.736C57.3119 185.672 57.3972 185.64 57.5039 185.64H57.7759C57.8825 185.64 57.9679 185.672 58.0319 185.736C58.0959 185.8 58.1279 185.885 58.1279 185.992V188.68H60.1119C60.2185 188.68 60.3039 188.712 60.3679 188.776C60.4319 188.84 60.4639 188.925 60.4639 189.032V189.256C60.4639 189.363 60.4319 189.448 60.3679 189.512C60.3039 189.576 60.2185 189.608 60.1119 189.608H58.1279V194.264C58.1279 194.861 58.2239 195.315 58.4159 195.624C58.6185 195.923 58.9492 196.072 59.4079 196.072H60.2719C60.3785 196.072 60.4639 196.104 60.5279 196.168C60.5919 196.232 60.6239 196.317 60.6239 196.424V196.648C60.6239 196.755 60.5919 196.84 60.5279 196.904C60.4639 196.968 60.3785 197 60.2719 197H59.3279ZM65.4459 197.16C64.4325 197.16 63.6165 196.829 62.9979 196.168C62.3792 195.496 62.0272 194.6 61.9419 193.48L61.9259 192.84L61.9419 192.2C62.0272 191.091 62.3739 190.2 62.9819 189.528C63.6005 188.856 64.4219 188.52 65.4459 188.52C66.5552 188.52 67.4192 188.888 68.0379 189.624C68.6672 190.36 68.9819 191.368 68.9819 192.648V192.888C68.9819 192.995 68.9445 193.08 68.8699 193.144C68.8059 193.208 68.7205 193.24 68.6139 193.24H62.9179V193.4C62.9392 193.901 63.0512 194.371 63.2539 194.808C63.4672 195.235 63.7605 195.581 64.1339 195.848C64.5072 196.104 64.9445 196.232 65.4459 196.232C66.0325 196.232 66.5072 196.12 66.8699 195.896C67.2432 195.661 67.5099 195.427 67.6699 195.192C67.7659 195.064 67.8352 194.984 67.8779 194.952C67.9312 194.92 68.0219 194.904 68.1499 194.904H68.4059C68.5019 194.904 68.5819 194.931 68.6459 194.984C68.7099 195.037 68.7419 195.107 68.7419 195.192C68.7419 195.416 68.5979 195.688 68.3099 196.008C68.0325 196.317 67.6432 196.589 67.1419 196.824C66.6405 197.048 66.0752 197.16 65.4459 197.16ZM68.0059 192.344V192.28C68.0059 191.459 67.7712 190.781 67.3019 190.248C66.8432 189.715 66.2245 189.448 65.4459 189.448C64.6672 189.448 64.0485 189.715 63.5899 190.248C63.1419 190.781 62.9179 191.459 62.9179 192.28V192.344H68.0059ZM74.2763 200.52C73.4443 200.52 72.7776 200.376 72.2763 200.088C71.7749 199.8 71.4229 199.469 71.2203 199.096C71.0283 198.733 70.9323 198.413 70.9323 198.136C70.9323 198.04 70.9643 197.96 71.0283 197.896C71.1029 197.832 71.1883 197.8 71.2843 197.8H71.5083C71.6043 197.8 71.6789 197.821 71.7323 197.864C71.7963 197.917 71.8496 198.008 71.8923 198.136C72.2229 199.107 72.9909 199.592 74.1963 199.592C75.1136 199.592 75.7909 199.4 76.2283 199.016C76.6656 198.643 76.8843 197.971 76.8843 197V195.896C76.2656 196.739 75.3696 197.16 74.1963 197.16C73.0443 197.16 72.1909 196.787 71.6363 196.04C71.0923 195.283 70.8043 194.365 70.7723 193.288L70.7563 192.84L70.7723 192.392C70.8043 191.315 71.0923 190.403 71.6363 189.656C72.1909 188.899 73.0443 188.52 74.1963 188.52C75.3589 188.52 76.2549 188.941 76.8843 189.784V189.048C76.8843 188.941 76.9163 188.856 76.9803 188.792C77.0443 188.717 77.1296 188.68 77.2363 188.68H77.4923C77.5989 188.68 77.6843 188.717 77.7483 188.792C77.8229 188.856 77.8603 188.941 77.8603 189.048V196.84C77.8603 197.981 77.5936 198.877 77.0603 199.528C76.5269 200.189 75.5989 200.52 74.2763 200.52ZM74.2923 196.232C75.1349 196.232 75.7696 195.955 76.1963 195.4C76.6229 194.835 76.8523 194.173 76.8843 193.416C76.8949 193.309 76.9003 193.117 76.9003 192.84C76.9003 192.563 76.8949 192.371 76.8843 192.264C76.8523 191.507 76.6229 190.851 76.1963 190.296C75.7696 189.731 75.1349 189.448 74.2923 189.448C73.4283 189.448 72.7936 189.725 72.3883 190.28C71.9936 190.824 71.7803 191.528 71.7483 192.392L71.7323 192.84L71.7483 193.288C71.7803 194.152 71.9936 194.861 72.3883 195.416C72.7936 195.96 73.4283 196.232 74.2923 196.232ZM87.3941 197.16C86.7008 197.16 86.1141 197.043 85.6341 196.808C85.1648 196.573 84.8075 196.307 84.5621 196.008C84.3275 195.709 84.2101 195.469 84.2101 195.288C84.2101 195.192 84.2475 195.117 84.3221 195.064C84.3968 195 84.4768 194.968 84.5621 194.968H84.8021C84.8768 194.968 84.9355 194.984 84.9781 195.016C85.0315 195.037 85.0901 195.091 85.1541 195.176C85.3888 195.507 85.6715 195.768 86.0021 195.96C86.3435 196.141 86.8075 196.232 87.3941 196.232C88.0555 196.232 88.5888 196.109 88.9941 195.864C89.3995 195.608 89.6021 195.245 89.6021 194.776C89.6021 194.488 89.5168 194.253 89.3461 194.072C89.1861 193.891 88.9195 193.736 88.5461 193.608C88.1835 193.469 87.6395 193.315 86.9141 193.144C85.9648 192.931 85.3141 192.637 84.9621 192.264C84.6208 191.891 84.4501 191.416 84.4501 190.84C84.4501 190.445 84.5568 190.072 84.7701 189.72C84.9941 189.368 85.3195 189.08 85.7461 188.856C86.1835 188.632 86.7061 188.52 87.3141 188.52C87.9541 188.52 88.4928 188.632 88.9301 188.856C89.3781 189.069 89.7088 189.32 89.9221 189.608C90.1461 189.896 90.2581 190.131 90.2581 190.312C90.2581 190.408 90.2208 190.488 90.1461 190.552C90.0821 190.605 90.0021 190.632 89.9061 190.632H89.6661C89.5168 190.632 89.3995 190.563 89.3141 190.424C89.1008 190.104 88.8555 189.864 88.5781 189.704C88.3115 189.533 87.8901 189.448 87.3141 189.448C86.6955 189.448 86.2261 189.576 85.9061 189.832C85.5861 190.088 85.4261 190.424 85.4261 190.84C85.4261 191.096 85.4901 191.309 85.6181 191.48C85.7461 191.651 85.9861 191.811 86.3381 191.96C86.6901 192.099 87.2021 192.243 87.8741 192.392C88.8661 192.616 89.5648 192.915 89.9701 193.288C90.3755 193.661 90.5781 194.157 90.5781 194.776C90.5781 195.213 90.4555 195.613 90.2101 195.976C89.9648 196.339 89.6021 196.627 89.1221 196.84C88.6421 197.053 88.0661 197.16 87.3941 197.16ZM93.0611 197C92.9545 197 92.8691 196.968 92.8051 196.904C92.7411 196.84 92.7091 196.755 92.7091 196.648V189.032C92.7091 188.925 92.7411 188.84 92.8051 188.776C92.8691 188.712 92.9545 188.68 93.0611 188.68H93.3331C93.4398 188.68 93.5251 188.712 93.5891 188.776C93.6531 188.84 93.6851 188.925 93.6851 189.032V189.592C93.9625 189.24 94.2825 188.973 94.6451 188.792C95.0185 188.611 95.4611 188.52 95.9731 188.52C97.1678 188.52 98.0211 189.021 98.5331 190.024C98.7891 189.565 99.1518 189.203 99.6211 188.936C100.101 188.659 100.645 188.52 101.253 188.52C102.138 188.52 102.858 188.824 103.413 189.432C103.968 190.029 104.245 190.883 104.245 191.992V196.648C104.245 196.755 104.213 196.84 104.149 196.904C104.085 196.968 104 197 103.893 197H103.621C103.514 197 103.429 196.968 103.365 196.904C103.301 196.84 103.269 196.755 103.269 196.648V192.152C103.269 191.181 103.066 190.488 102.661 190.072C102.266 189.656 101.744 189.448 101.093 189.448C100.517 189.448 100.016 189.661 99.5891 190.088C99.1731 190.504 98.9651 191.192 98.9651 192.152V196.648C98.9651 196.755 98.9331 196.84 98.8691 196.904C98.8051 196.968 98.7198 197 98.6131 197H98.3411C98.2345 197 98.1491 196.968 98.0851 196.904C98.0211 196.84 97.9891 196.755 97.9891 196.648V192.152C97.9891 191.192 97.7811 190.504 97.3651 190.088C96.9491 189.661 96.4318 189.448 95.8131 189.448C95.2371 189.448 94.7358 189.661 94.3091 190.088C93.8931 190.504 93.6851 191.187 93.6851 192.136V196.648C93.6851 196.755 93.6531 196.84 93.5891 196.904C93.5251 196.968 93.4398 197 93.3331 197H93.0611ZM111.409 197C111.302 197 111.217 196.968 111.153 196.904C111.089 196.84 111.057 196.755 111.057 196.648V185.992C111.057 185.885 111.089 185.8 111.153 185.736C111.217 185.672 111.302 185.64 111.409 185.64H111.681C111.788 185.64 111.873 185.672 111.937 185.736C112.001 185.8 112.033 185.885 112.033 185.992V196.648C112.033 196.755 112.001 196.84 111.937 196.904C111.873 196.968 111.788 197 111.681 197H111.409ZM116.955 197.16C116.443 197.16 115.968 197.053 115.531 196.84C115.093 196.627 114.741 196.339 114.475 195.976C114.219 195.613 114.091 195.213 114.091 194.776C114.091 194.072 114.373 193.496 114.939 193.048C115.515 192.6 116.288 192.312 117.259 192.184L119.787 191.832V191.272C119.787 190.685 119.605 190.237 119.243 189.928C118.891 189.608 118.347 189.448 117.611 189.448C117.067 189.448 116.619 189.555 116.267 189.768C115.925 189.981 115.707 190.237 115.611 190.536C115.568 190.664 115.515 190.755 115.451 190.808C115.397 190.851 115.323 190.872 115.227 190.872H115.003C114.907 190.872 114.821 190.84 114.747 190.776C114.683 190.701 114.651 190.616 114.651 190.52C114.651 190.285 114.757 190.013 114.971 189.704C115.184 189.384 115.515 189.107 115.963 188.872C116.411 188.637 116.96 188.52 117.611 188.52C118.752 188.52 119.563 188.792 120.043 189.336C120.523 189.88 120.763 190.541 120.763 191.32V196.648C120.763 196.755 120.731 196.84 120.667 196.904C120.603 196.968 120.517 197 120.411 197H120.139C120.032 197 119.947 196.968 119.883 196.904C119.819 196.84 119.787 196.755 119.787 196.648V195.896C119.552 196.248 119.205 196.547 118.747 196.792C118.299 197.037 117.701 197.16 116.955 197.16ZM117.115 196.232C117.893 196.232 118.533 195.976 119.035 195.464C119.536 194.952 119.787 194.216 119.787 193.256V192.712L117.723 193C116.848 193.117 116.187 193.32 115.739 193.608C115.291 193.896 115.067 194.259 115.067 194.696C115.067 195.187 115.269 195.565 115.675 195.832C116.091 196.099 116.571 196.232 117.115 196.232ZM117.579 187.56C117.216 187.56 116.912 187.448 116.667 187.224C116.421 187 116.299 186.712 116.299 186.36C116.299 186.008 116.421 185.72 116.667 185.496C116.912 185.272 117.216 185.16 117.579 185.16C117.941 185.16 118.245 185.272 118.491 185.496C118.736 185.72 118.859 186.008 118.859 186.36C118.859 186.712 118.736 187 118.491 187.224C118.245 187.448 117.941 187.56 117.579 187.56ZM117.579 186.84C117.717 186.84 117.829 186.797 117.915 186.712C118.011 186.616 118.059 186.499 118.059 186.36C118.059 186.221 118.011 186.109 117.915 186.024C117.829 185.928 117.717 185.88 117.579 185.88C117.44 185.88 117.323 185.928 117.227 186.024C117.141 186.109 117.099 186.221 117.099 186.36C117.099 186.499 117.141 186.616 117.227 186.712C117.323 186.797 117.44 186.84 117.579 186.84ZM126.013 197.16C125.32 197.16 124.733 197.043 124.253 196.808C123.784 196.573 123.426 196.307 123.181 196.008C122.946 195.709 122.829 195.469 122.829 195.288C122.829 195.192 122.866 195.117 122.941 195.064C123.016 195 123.096 194.968 123.181 194.968H123.421C123.496 194.968 123.554 194.984 123.597 195.016C123.65 195.037 123.709 195.091 123.773 195.176C124.008 195.507 124.29 195.768 124.621 195.96C124.962 196.141 125.426 196.232 126.013 196.232C126.674 196.232 127.208 196.109 127.613 195.864C128.018 195.608 128.221 195.245 128.221 194.776C128.221 194.488 128.136 194.253 127.965 194.072C127.805 193.891 127.538 193.736 127.165 193.608C126.802 193.469 126.258 193.315 125.533 193.144C124.584 192.931 123.933 192.637 123.581 192.264C123.24 191.891 123.069 191.416 123.069 190.84C123.069 190.445 123.176 190.072 123.389 189.72C123.613 189.368 123.938 189.08 124.365 188.856C124.802 188.632 125.325 188.52 125.933 188.52C126.573 188.52 127.112 188.632 127.549 188.856C127.997 189.069 128.328 189.32 128.541 189.608C128.765 189.896 128.877 190.131 128.877 190.312C128.877 190.408 128.84 190.488 128.765 190.552C128.701 190.605 128.621 190.632 128.525 190.632H128.285C128.136 190.632 128.018 190.563 127.933 190.424C127.72 190.104 127.474 189.864 127.197 189.704C126.93 189.533 126.509 189.448 125.933 189.448C125.314 189.448 124.845 189.576 124.525 189.832C124.205 190.088 124.045 190.424 124.045 190.84C124.045 191.096 124.109 191.309 124.237 191.48C124.365 191.651 124.605 191.811 124.957 191.96C125.309 192.099 125.821 192.243 126.493 192.392C127.485 192.616 128.184 192.915 128.589 193.288C128.994 193.661 129.197 194.157 129.197 194.776C129.197 195.213 129.074 195.613 128.829 195.976C128.584 196.339 128.221 196.627 127.741 196.84C127.261 197.053 126.685 197.16 126.013 197.16ZM134.416 197.16C133.403 197.16 132.587 196.829 131.968 196.168C131.349 195.496 130.997 194.6 130.912 193.48L130.896 192.84L130.912 192.2C130.997 191.091 131.344 190.2 131.952 189.528C132.571 188.856 133.392 188.52 134.416 188.52C135.525 188.52 136.389 188.888 137.008 189.624C137.637 190.36 137.952 191.368 137.952 192.648V192.888C137.952 192.995 137.915 193.08 137.84 193.144C137.776 193.208 137.691 193.24 137.584 193.24H131.888V193.4C131.909 193.901 132.021 194.371 132.224 194.808C132.437 195.235 132.731 195.581 133.104 195.848C133.477 196.104 133.915 196.232 134.416 196.232C135.003 196.232 135.477 196.12 135.84 195.896C136.213 195.661 136.48 195.427 136.64 195.192C136.736 195.064 136.805 194.984 136.848 194.952C136.901 194.92 136.992 194.904 137.12 194.904H137.376C137.472 194.904 137.552 194.931 137.616 194.984C137.68 195.037 137.712 195.107 137.712 195.192C137.712 195.416 137.568 195.688 137.28 196.008C137.003 196.317 136.613 196.589 136.112 196.824C135.611 197.048 135.045 197.16 134.416 197.16ZM136.976 192.344V192.28C136.976 191.459 136.741 190.781 136.272 190.248C135.813 189.715 135.195 189.448 134.416 189.448C133.637 189.448 133.019 189.715 132.56 190.248C132.112 190.781 131.888 191.459 131.888 192.28V192.344H136.976ZM140.494 197C140.388 197 140.302 196.968 140.238 196.904C140.174 196.84 140.142 196.755 140.142 196.648V189.048C140.142 188.941 140.174 188.856 140.238 188.792C140.302 188.717 140.388 188.68 140.494 188.68H140.75C140.857 188.68 140.942 188.717 141.006 188.792C141.081 188.856 141.118 188.941 141.118 189.048V189.784C141.502 189.048 142.228 188.68 143.294 188.68H143.886C143.993 188.68 144.078 188.712 144.142 188.776C144.206 188.84 144.238 188.925 144.238 189.032V189.256C144.238 189.363 144.206 189.448 144.142 189.512C144.078 189.576 143.993 189.608 143.886 189.608H143.198C142.558 189.608 142.052 189.795 141.678 190.168C141.305 190.541 141.118 191.048 141.118 191.688V196.648C141.118 196.755 141.081 196.84 141.006 196.904C140.942 196.968 140.857 197 140.75 197H140.494ZM152.719 197.16C151.674 197.16 150.879 196.829 150.335 196.168C149.791 195.507 149.519 194.643 149.519 193.576V189.032C149.519 188.925 149.551 188.84 149.615 188.776C149.679 188.712 149.764 188.68 149.871 188.68H150.143C150.25 188.68 150.335 188.712 150.399 188.776C150.463 188.84 150.495 188.925 150.495 189.032V193.496C150.495 195.32 151.29 196.232 152.879 196.232C153.647 196.232 154.255 195.992 154.703 195.512C155.162 195.021 155.391 194.349 155.391 193.496V189.032C155.391 188.925 155.423 188.84 155.487 188.776C155.551 188.712 155.636 188.68 155.743 188.68H156.015C156.122 188.68 156.207 188.712 156.271 188.776C156.335 188.84 156.367 188.925 156.367 189.032V196.648C156.367 196.755 156.335 196.84 156.271 196.904C156.207 196.968 156.122 197 156.015 197H155.743C155.636 197 155.551 196.968 155.487 196.904C155.423 196.84 155.391 196.755 155.391 196.648V195.896C155.071 196.312 154.703 196.627 154.287 196.84C153.882 197.053 153.359 197.16 152.719 197.16ZM159.406 200.04C159.3 200.04 159.214 200.008 159.15 199.944C159.086 199.88 159.054 199.795 159.054 199.688V189.032C159.054 188.925 159.086 188.84 159.15 188.776C159.214 188.712 159.3 188.68 159.406 188.68H159.678C159.785 188.68 159.87 188.712 159.934 188.776C159.998 188.84 160.03 188.925 160.03 189.032V189.784C160.649 188.941 161.545 188.52 162.718 188.52C163.87 188.52 164.718 188.888 165.262 189.624C165.817 190.349 166.11 191.245 166.142 192.312C166.153 192.419 166.158 192.595 166.158 192.84C166.158 193.085 166.153 193.261 166.142 193.368C166.11 194.435 165.817 195.336 165.262 196.072C164.718 196.797 163.87 197.16 162.718 197.16C161.556 197.16 160.66 196.739 160.03 195.896V199.688C160.03 199.795 159.998 199.88 159.934 199.944C159.87 200.008 159.785 200.04 159.678 200.04H159.406ZM162.622 196.232C163.486 196.232 164.116 195.96 164.51 195.416C164.916 194.861 165.134 194.152 165.166 193.288C165.177 193.181 165.182 193.032 165.182 192.84C165.182 191.848 164.99 191.037 164.606 190.408C164.222 189.768 163.561 189.448 162.622 189.448C161.78 189.448 161.145 189.731 160.718 190.296C160.292 190.851 160.062 191.507 160.03 192.264L160.014 192.888L160.03 193.512C160.041 193.971 160.142 194.408 160.334 194.824C160.526 195.229 160.814 195.565 161.198 195.832C161.582 196.099 162.057 196.232 162.622 196.232ZM168.783 200.04C168.677 200.04 168.591 200.008 168.527 199.944C168.463 199.88 168.431 199.795 168.431 199.688V189.032C168.431 188.925 168.463 188.84 168.527 188.776C168.591 188.712 168.677 188.68 168.783 188.68H169.055C169.162 188.68 169.247 188.712 169.311 188.776C169.375 188.84 169.407 188.925 169.407 189.032V189.784C170.026 188.941 170.922 188.52 172.095 188.52C173.247 188.52 174.095 188.888 174.639 189.624C175.194 190.349 175.487 191.245 175.519 192.312C175.53 192.419 175.535 192.595 175.535 192.84C175.535 193.085 175.53 193.261 175.519 193.368C175.487 194.435 175.194 195.336 174.639 196.072C174.095 196.797 173.247 197.16 172.095 197.16C170.933 197.16 170.037 196.739 169.407 195.896V199.688C169.407 199.795 169.375 199.88 169.311 199.944C169.247 200.008 169.162 200.04 169.055 200.04H168.783ZM171.999 196.232C172.863 196.232 173.493 195.96 173.887 195.416C174.293 194.861 174.511 194.152 174.543 193.288C174.554 193.181 174.559 193.032 174.559 192.84C174.559 191.848 174.367 191.037 173.983 190.408C173.599 189.768 172.938 189.448 171.999 189.448C171.157 189.448 170.522 189.731 170.095 190.296C169.669 190.851 169.439 191.507 169.407 192.264L169.391 192.888L169.407 193.512C169.418 193.971 169.519 194.408 169.711 194.824C169.903 195.229 170.191 195.565 170.575 195.832C170.959 196.099 171.434 196.232 171.999 196.232ZM1.648 221C1.54133 221 1.456 220.968 1.392 220.904C1.328 220.84 1.296 220.755 1.296 220.648V213.048C1.296 212.941 1.328 212.856 1.392 212.792C1.456 212.717 1.54133 212.68 1.648 212.68H1.904C2.01067 212.68 2.096 212.717 2.16 212.792C2.23467 212.856 2.272 212.941 2.272 213.048V213.784C2.656 213.048 3.38133 212.68 4.448 212.68H5.04C5.14667 212.68 5.232 212.712 5.296 212.776C5.36 212.84 5.392 212.925 5.392 213.032V213.256C5.392 213.363 5.36 213.448 5.296 213.512C5.232 213.576 5.14667 213.608 5.04 213.608H4.352C3.712 213.608 3.20533 213.795 2.832 214.168C2.45867 214.541 2.272 215.048 2.272 215.688V220.648C2.272 220.755 2.23467 220.84 2.16 220.904C2.096 220.968 2.01067 221 1.904 221H1.648ZM9.839 221.16C8.82567 221.16 8.00967 220.829 7.391 220.168C6.77233 219.496 6.42033 218.6 6.335 217.48L6.319 216.84L6.335 216.2C6.42033 215.091 6.767 214.2 7.375 213.528C7.99367 212.856 8.815 212.52 9.839 212.52C10.9483 212.52 11.8123 212.888 12.431 213.624C13.0603 214.36 13.375 215.368 13.375 216.648V216.888C13.375 216.995 13.3377 217.08 13.263 217.144C13.199 217.208 13.1137 217.24 13.007 217.24H7.311V217.4C7.33233 217.901 7.44433 218.371 7.647 218.808C7.86033 219.235 8.15367 219.581 8.527 219.848C8.90033 220.104 9.33767 220.232 9.839 220.232C10.4257 220.232 10.9003 220.12 11.263 219.896C11.6363 219.661 11.903 219.427 12.063 219.192C12.159 219.064 12.2283 218.984 12.271 218.952C12.3243 218.92 12.415 218.904 12.543 218.904H12.799C12.895 218.904 12.975 218.931 13.039 218.984C13.103 219.037 13.135 219.107 13.135 219.192C13.135 219.416 12.991 219.688 12.703 220.008C12.4257 220.317 12.0363 220.589 11.535 220.824C11.0337 221.048 10.4683 221.16 9.839 221.16ZM12.399 216.344V216.28C12.399 215.459 12.1643 214.781 11.695 214.248C11.2363 213.715 10.6177 213.448 9.839 213.448C9.06033 213.448 8.44167 213.715 7.983 214.248C7.535 214.781 7.311 215.459 7.311 216.28V216.344H12.399ZM18.2054 221.16C17.512 221.16 16.9254 221.043 16.4454 220.808C15.976 220.573 15.6187 220.307 15.3734 220.008C15.1387 219.709 15.0214 219.469 15.0214 219.288C15.0214 219.192 15.0587 219.117 15.1334 219.064C15.208 219 15.288 218.968 15.3734 218.968H15.6134C15.688 218.968 15.7467 218.984 15.7894 219.016C15.8427 219.037 15.9014 219.091 15.9654 219.176C16.2 219.507 16.4827 219.768 16.8134 219.96C17.1547 220.141 17.6187 220.232 18.2054 220.232C18.8667 220.232 19.4 220.109 19.8054 219.864C20.2107 219.608 20.4134 219.245 20.4134 218.776C20.4134 218.488 20.328 218.253 20.1574 218.072C19.9974 217.891 19.7307 217.736 19.3574 217.608C18.9947 217.469 18.4507 217.315 17.7254 217.144C16.776 216.931 16.1254 216.637 15.7734 216.264C15.432 215.891 15.2614 215.416 15.2614 214.84C15.2614 214.445 15.368 214.072 15.5814 213.72C15.8054 213.368 16.1307 213.08 16.5574 212.856C16.9947 212.632 17.5174 212.52 18.1254 212.52C18.7654 212.52 19.304 212.632 19.7414 212.856C20.1894 213.069 20.52 213.32 20.7334 213.608C20.9574 213.896 21.0694 214.131 21.0694 214.312C21.0694 214.408 21.032 214.488 20.9574 214.552C20.8934 214.605 20.8134 214.632 20.7174 214.632H20.4774C20.328 214.632 20.2107 214.563 20.1254 214.424C19.912 214.104 19.6667 213.864 19.3894 213.704C19.1227 213.533 18.7014 213.448 18.1254 213.448C17.5067 213.448 17.0374 213.576 16.7174 213.832C16.3974 214.088 16.2374 214.424 16.2374 214.84C16.2374 215.096 16.3014 215.309 16.4294 215.48C16.5574 215.651 16.7974 215.811 17.1494 215.96C17.5014 216.099 18.0134 216.243 18.6854 216.392C19.6774 216.616 20.376 216.915 20.7814 217.288C21.1867 217.661 21.3894 218.157 21.3894 218.776C21.3894 219.213 21.2667 219.613 21.0214 219.976C20.776 220.339 20.4134 220.627 19.9334 220.84C19.4534 221.053 18.8774 221.16 18.2054 221.16ZM26.3204 221C25.531 221 24.971 220.765 24.6404 220.296C24.3097 219.816 24.1444 219.16 24.1444 218.328V213.608H22.8964C22.7897 213.608 22.7044 213.576 22.6404 213.512C22.5764 213.448 22.5444 213.363 22.5444 213.256V213.032C22.5444 212.925 22.5764 212.84 22.6404 212.776C22.7044 212.712 22.7897 212.68 22.8964 212.68H24.1444V209.992C24.1444 209.885 24.1764 209.8 24.2404 209.736C24.3044 209.672 24.3897 209.64 24.4964 209.64H24.7684C24.875 209.64 24.9604 209.672 25.0244 209.736C25.0884 209.8 25.1204 209.885 25.1204 209.992V212.68H27.1044C27.211 212.68 27.2964 212.712 27.3604 212.776C27.4244 212.84 27.4564 212.925 27.4564 213.032V213.256C27.4564 213.363 27.4244 213.448 27.3604 213.512C27.2964 213.576 27.211 213.608 27.1044 213.608H25.1204V218.264C25.1204 218.861 25.2164 219.315 25.4084 219.624C25.611 219.923 25.9417 220.072 26.4004 220.072H27.2644C27.371 220.072 27.4564 220.104 27.5204 220.168C27.5844 220.232 27.6164 220.317 27.6164 220.424V220.648C27.6164 220.755 27.5844 220.84 27.5204 220.904C27.4564 220.968 27.371 221 27.2644 221H26.3204ZM32.4384 221.16C31.425 221.16 30.609 220.829 29.9904 220.168C29.3717 219.496 29.0197 218.6 28.9344 217.48L28.9184 216.84L28.9344 216.2C29.0197 215.091 29.3664 214.2 29.9744 213.528C30.593 212.856 31.4144 212.52 32.4384 212.52C33.5477 212.52 34.4117 212.888 35.0304 213.624C35.6597 214.36 35.9744 215.368 35.9744 216.648V216.888C35.9744 216.995 35.937 217.08 35.8624 217.144C35.7984 217.208 35.713 217.24 35.6064 217.24H29.9104V217.4C29.9317 217.901 30.0437 218.371 30.2464 218.808C30.4597 219.235 30.753 219.581 31.1264 219.848C31.4997 220.104 31.937 220.232 32.4384 220.232C33.025 220.232 33.4997 220.12 33.8624 219.896C34.2357 219.661 34.5024 219.427 34.6624 219.192C34.7584 219.064 34.8277 218.984 34.8704 218.952C34.9237 218.92 35.0144 218.904 35.1424 218.904H35.3984C35.4944 218.904 35.5744 218.931 35.6384 218.984C35.7024 219.037 35.7344 219.107 35.7344 219.192C35.7344 219.416 35.5904 219.688 35.3024 220.008C35.025 220.317 34.6357 220.589 34.1344 220.824C33.633 221.048 33.0677 221.16 32.4384 221.16ZM34.9984 216.344V216.28C34.9984 215.459 34.7637 214.781 34.2944 214.248C33.8357 213.715 33.217 213.448 32.4384 213.448C31.6597 213.448 31.041 213.715 30.5824 214.248C30.1344 214.781 29.9104 215.459 29.9104 216.28V216.344H34.9984ZM38.5168 221C38.4101 221 38.3248 220.968 38.2608 220.904C38.1968 220.84 38.1648 220.755 38.1648 220.648V213.048C38.1648 212.941 38.1968 212.856 38.2608 212.792C38.3248 212.717 38.4101 212.68 38.5168 212.68H38.7728C38.8794 212.68 38.9648 212.717 39.0288 212.792C39.1034 212.856 39.1408 212.941 39.1408 213.048V213.784C39.5248 213.048 40.2501 212.68 41.3168 212.68H41.9088C42.0154 212.68 42.1008 212.712 42.1648 212.776C42.2288 212.84 42.2608 212.925 42.2608 213.032V213.256C42.2608 213.363 42.2288 213.448 42.1648 213.512C42.1008 213.576 42.0154 213.608 41.9088 213.608H41.2208C40.5808 213.608 40.0741 213.795 39.7008 214.168C39.3274 214.541 39.1408 215.048 39.1408 215.688V220.648C39.1408 220.755 39.1034 220.84 39.0288 220.904C38.9648 220.968 38.8794 221 38.7728 221H38.5168ZM45.9222 221.16C45.4102 221.16 44.9356 221.053 44.4982 220.84C44.0609 220.627 43.7089 220.339 43.4422 219.976C43.1862 219.613 43.0582 219.213 43.0582 218.776C43.0582 218.072 43.3409 217.496 43.9062 217.048C44.4822 216.6 45.2556 216.312 46.2262 216.184L48.7543 215.832V215.272C48.7543 214.685 48.5729 214.237 48.2102 213.928C47.8582 213.608 47.3142 213.448 46.5782 213.448C46.0342 213.448 45.5862 213.555 45.2342 213.768C44.8929 213.981 44.6742 214.237 44.5782 214.536C44.5356 214.664 44.4822 214.755 44.4182 214.808C44.3649 214.851 44.2902 214.872 44.1942 214.872H43.9702C43.8742 214.872 43.7889 214.84 43.7142 214.776C43.6502 214.701 43.6182 214.616 43.6182 214.52C43.6182 214.285 43.7249 214.013 43.9382 213.704C44.1516 213.384 44.4822 213.107 44.9302 212.872C45.3782 212.637 45.9276 212.52 46.5782 212.52C47.7196 212.52 48.5302 212.792 49.0103 213.336C49.4902 213.88 49.7302 214.541 49.7302 215.32V220.648C49.7302 220.755 49.6982 220.84 49.6342 220.904C49.5702 220.968 49.4849 221 49.3782 221H49.1062C48.9996 221 48.9142 220.968 48.8502 220.904C48.7862 220.84 48.7543 220.755 48.7543 220.648V219.896C48.5196 220.248 48.1729 220.547 47.7142 220.792C47.2662 221.037 46.6689 221.16 45.9222 221.16ZM46.0822 220.232C46.8609 220.232 47.5009 219.976 48.0022 219.464C48.5036 218.952 48.7543 218.216 48.7543 217.256V216.712L46.6902 217C45.8156 217.117 45.1542 217.32 44.7062 217.608C44.2582 217.896 44.0342 218.259 44.0342 218.696C44.0342 219.187 44.2369 219.565 44.6422 219.832C45.0582 220.099 45.5382 220.232 46.0822 220.232ZM52.6924 221C52.5857 221 52.5004 220.968 52.4364 220.904C52.3724 220.84 52.3404 220.755 52.3404 220.648V213.032C52.3404 212.925 52.3724 212.84 52.4364 212.776C52.5004 212.712 52.5857 212.68 52.6924 212.68H52.9644C53.071 212.68 53.1564 212.712 53.2204 212.776C53.2844 212.84 53.3164 212.925 53.3164 213.032V213.784C53.6364 213.368 53.999 213.053 54.4044 212.84C54.8204 212.627 55.3537 212.52 56.0044 212.52C57.0497 212.52 57.855 212.856 58.4204 213.528C58.9857 214.189 59.2684 215.048 59.2684 216.104V220.648C59.2684 220.755 59.2364 220.84 59.1724 220.904C59.1084 220.968 59.023 221 58.9164 221H58.6444C58.5377 221 58.4524 220.968 58.3884 220.904C58.3244 220.84 58.2924 220.755 58.2924 220.648V216.184C58.2924 215.32 58.079 214.648 57.6524 214.168C57.2364 213.688 56.6337 213.448 55.8444 213.448C55.0764 213.448 54.463 213.693 54.0044 214.184C53.5457 214.664 53.3164 215.331 53.3164 216.184V220.648C53.3164 220.755 53.2844 220.84 53.2204 220.904C53.1564 220.968 53.071 221 52.9644 221H52.6924ZM64.8659 221.16C63.7139 221.16 62.8605 220.787 62.3059 220.04C61.7619 219.283 61.4739 218.365 61.4419 217.288L61.4259 216.84L61.4419 216.392C61.4739 215.315 61.7619 214.403 62.3059 213.656C62.8605 212.899 63.7139 212.52 64.8659 212.52C66.0285 212.52 66.9245 212.941 67.5539 213.784V209.992C67.5539 209.885 67.5859 209.8 67.6499 209.736C67.7139 209.672 67.7992 209.64 67.9059 209.64H68.1779C68.2845 209.64 68.3699 209.672 68.4339 209.736C68.4979 209.8 68.5299 209.885 68.5299 209.992V220.648C68.5299 220.755 68.4979 220.84 68.4339 220.904C68.3699 220.968 68.2845 221 68.1779 221H67.9059C67.7992 221 67.7139 220.968 67.6499 220.904C67.5859 220.84 67.5539 220.755 67.5539 220.648V219.896C66.9352 220.739 66.0392 221.16 64.8659 221.16ZM64.9619 220.232C65.8045 220.232 66.4392 219.955 66.8659 219.4C67.2925 218.835 67.5219 218.173 67.5539 217.416C67.5645 217.309 67.5699 217.101 67.5699 216.792C67.5699 216.483 67.5645 216.275 67.5539 216.168C67.5432 215.709 67.4419 215.277 67.2499 214.872C67.0579 214.456 66.7699 214.115 66.3859 213.848C66.0019 213.581 65.5272 213.448 64.9619 213.448C64.0979 213.448 63.4632 213.725 63.0579 214.28C62.6632 214.824 62.4499 215.528 62.4179 216.392L62.4019 216.84C62.4019 217.832 62.5939 218.648 62.9779 219.288C63.3619 219.917 64.0232 220.232 64.9619 220.232ZM74.3071 221.16C73.2938 221.16 72.4778 220.829 71.8591 220.168C71.2405 219.496 70.8885 218.6 70.8031 217.48L70.7871 216.84L70.8031 216.2C70.8885 215.091 71.2351 214.2 71.8431 213.528C72.4618 212.856 73.2831 212.52 74.3071 212.52C75.4165 212.52 76.2805 212.888 76.8991 213.624C77.5285 214.36 77.8431 215.368 77.8431 216.648V216.888C77.8431 216.995 77.8058 217.08 77.7311 217.144C77.6671 217.208 77.5818 217.24 77.4751 217.24H71.7791V217.4C71.8005 217.901 71.9125 218.371 72.1151 218.808C72.3285 219.235 72.6218 219.581 72.9951 219.848C73.3685 220.104 73.8058 220.232 74.3071 220.232C74.8938 220.232 75.3685 220.12 75.7311 219.896C76.1045 219.661 76.3711 219.427 76.5311 219.192C76.6271 219.064 76.6965 218.984 76.7391 218.952C76.7925 218.92 76.8831 218.904 77.0111 218.904H77.2671C77.3631 218.904 77.4431 218.931 77.5071 218.984C77.5711 219.037 77.6031 219.107 77.6031 219.192C77.6031 219.416 77.4591 219.688 77.1711 220.008C76.8938 220.317 76.5045 220.589 76.0031 220.824C75.5018 221.048 74.9365 221.16 74.3071 221.16ZM76.8671 216.344V216.28C76.8671 215.459 76.6325 214.781 76.1631 214.248C75.7045 213.715 75.0858 213.448 74.3071 213.448C73.5285 213.448 72.9098 213.715 72.4511 214.248C72.0031 214.781 71.7791 215.459 71.7791 216.28V216.344H76.8671ZM84.6065 221C84.4998 221 84.4145 220.968 84.3505 220.904C84.2865 220.84 84.2545 220.755 84.2545 220.648V209.992C84.2545 209.885 84.2865 209.8 84.3505 209.736C84.4145 209.672 84.4998 209.64 84.6065 209.64H84.8785C84.9852 209.64 85.0705 209.672 85.1345 209.736C85.1985 209.8 85.2305 209.885 85.2305 209.992V215.656L88.7985 212.952C88.9692 212.824 89.0865 212.749 89.1505 212.728C89.2145 212.696 89.3212 212.68 89.4705 212.68H89.7745C89.8705 212.68 89.9452 212.712 89.9985 212.776C90.0625 212.829 90.0945 212.904 90.0945 213C90.0945 213.117 90.0252 213.224 89.8865 213.32L85.8385 216.392L90.2865 220.36C90.4252 220.488 90.4945 220.595 90.4945 220.68C90.4945 220.776 90.4625 220.856 90.3985 220.92C90.3452 220.973 90.2705 221 90.1745 221H89.9185C89.7585 221 89.6412 220.989 89.5665 220.968C89.4918 220.936 89.3852 220.856 89.2465 220.728L85.2305 217.16V220.648C85.2305 220.755 85.1985 220.84 85.1345 220.904C85.0705 220.968 84.9852 221 84.8785 221H84.6065ZM94.1991 221.16C93.6871 221.16 93.2125 221.053 92.7751 220.84C92.3378 220.627 91.9858 220.339 91.7191 219.976C91.4631 219.613 91.3351 219.213 91.3351 218.776C91.3351 218.072 91.6178 217.496 92.1831 217.048C92.7591 216.6 93.5325 216.312 94.5031 216.184L97.0311 215.832V215.272C97.0311 214.685 96.8498 214.237 96.4871 213.928C96.1351 213.608 95.5911 213.448 94.8551 213.448C94.3111 213.448 93.8631 213.555 93.5111 213.768C93.1698 213.981 92.9511 214.237 92.8551 214.536C92.8125 214.664 92.7591 214.755 92.6951 214.808C92.6418 214.851 92.5671 214.872 92.4711 214.872H92.2471C92.1511 214.872 92.0658 214.84 91.9911 214.776C91.9271 214.701 91.8951 214.616 91.8951 214.52C91.8951 214.285 92.0018 214.013 92.2151 213.704C92.4285 213.384 92.7591 213.107 93.2071 212.872C93.6551 212.637 94.2045 212.52 94.8551 212.52C95.9965 212.52 96.8071 212.792 97.2871 213.336C97.7671 213.88 98.0071 214.541 98.0071 215.32V220.648C98.0071 220.755 97.9751 220.84 97.9111 220.904C97.8471 220.968 97.7618 221 97.6551 221H97.3831C97.2765 221 97.1911 220.968 97.1271 220.904C97.0631 220.84 97.0311 220.755 97.0311 220.648V219.896C96.7965 220.248 96.4498 220.547 95.9911 220.792C95.5431 221.037 94.9458 221.16 94.1991 221.16ZM94.3591 220.232C95.1378 220.232 95.7778 219.976 96.2791 219.464C96.7805 218.952 97.0311 218.216 97.0311 217.256V216.712L94.9671 217C94.0925 217.117 93.4311 217.32 92.9831 217.608C92.5351 217.896 92.3111 218.259 92.3111 218.696C92.3111 219.187 92.5138 219.565 92.9191 219.832C93.3351 220.099 93.8151 220.232 94.3591 220.232ZM100.985 224.04C100.879 224.04 100.793 224.008 100.729 223.944C100.665 223.88 100.633 223.795 100.633 223.688V213.032C100.633 212.925 100.665 212.84 100.729 212.776C100.793 212.712 100.879 212.68 100.985 212.68H101.257C101.364 212.68 101.449 212.712 101.513 212.776C101.577 212.84 101.609 212.925 101.609 213.032V213.784C102.228 212.941 103.124 212.52 104.297 212.52C105.449 212.52 106.297 212.888 106.841 213.624C107.396 214.349 107.689 215.245 107.721 216.312C107.732 216.419 107.737 216.595 107.737 216.84C107.737 217.085 107.732 217.261 107.721 217.368C107.689 218.435 107.396 219.336 106.841 220.072C106.297 220.797 105.449 221.16 104.297 221.16C103.135 221.16 102.239 220.739 101.609 219.896V223.688C101.609 223.795 101.577 223.88 101.513 223.944C101.449 224.008 101.364 224.04 101.257 224.04H100.985ZM104.201 220.232C105.065 220.232 105.695 219.96 106.089 219.416C106.495 218.861 106.713 218.152 106.745 217.288C106.756 217.181 106.761 217.032 106.761 216.84C106.761 215.848 106.569 215.037 106.185 214.408C105.801 213.768 105.14 213.448 104.201 213.448C103.359 213.448 102.724 213.731 102.297 214.296C101.871 214.851 101.641 215.507 101.609 216.264L101.593 216.888L101.609 217.512C101.62 217.971 101.721 218.408 101.913 218.824C102.105 219.229 102.393 219.565 102.777 219.832C103.161 220.099 103.636 220.232 104.201 220.232ZM110.17 210.968C110.063 210.968 109.978 210.936 109.914 210.872C109.85 210.808 109.818 210.723 109.818 210.616V210.008C109.818 209.901 109.85 209.816 109.914 209.752C109.978 209.677 110.063 209.64 110.17 209.64H110.778C110.885 209.64 110.97 209.677 111.034 209.752C111.109 209.816 111.146 209.901 111.146 210.008V210.616C111.146 210.723 111.109 210.808 111.034 210.872C110.97 210.936 110.885 210.968 110.778 210.968H110.17ZM110.346 221C110.239 221 110.154 220.968 110.09 220.904C110.026 220.84 109.994 220.755 109.994 220.648V213.032C109.994 212.925 110.026 212.84 110.09 212.776C110.154 212.712 110.239 212.68 110.346 212.68H110.618C110.725 212.68 110.81 212.712 110.874 212.776C110.938 212.84 110.97 212.925 110.97 213.032V220.648C110.97 220.755 110.938 220.84 110.874 220.904C110.81 220.968 110.725 221 110.618 221H110.346ZM116.437 221C115.647 221 115.087 220.765 114.757 220.296C114.426 219.816 114.261 219.16 114.261 218.328V213.608H113.013C112.906 213.608 112.821 213.576 112.757 213.512C112.693 213.448 112.661 213.363 112.661 213.256V213.032C112.661 212.925 112.693 212.84 112.757 212.776C112.821 212.712 112.906 212.68 113.013 212.68H114.261V209.992C114.261 209.885 114.293 209.8 114.357 209.736C114.421 209.672 114.506 209.64 114.613 209.64H114.885C114.991 209.64 115.077 209.672 115.141 209.736C115.205 209.8 115.237 209.885 115.237 209.992V212.68H117.221C117.327 212.68 117.413 212.712 117.477 212.776C117.541 212.84 117.573 212.925 117.573 213.032V213.256C117.573 213.363 117.541 213.448 117.477 213.512C117.413 213.576 117.327 213.608 117.221 213.608H115.237V218.264C115.237 218.861 115.333 219.315 115.525 219.624C115.727 219.923 116.058 220.072 116.517 220.072H117.381C117.487 220.072 117.573 220.104 117.637 220.168C117.701 220.232 117.733 220.317 117.733 220.424V220.648C117.733 220.755 117.701 220.84 117.637 220.904C117.573 220.968 117.487 221 117.381 221H116.437ZM122.555 221.16C121.541 221.16 120.725 220.829 120.107 220.168C119.488 219.496 119.136 218.6 119.051 217.48L119.035 216.84L119.051 216.2C119.136 215.091 119.483 214.2 120.091 213.528C120.709 212.856 121.531 212.52 122.555 212.52C123.664 212.52 124.528 212.888 125.147 213.624C125.776 214.36 126.091 215.368 126.091 216.648V216.888C126.091 216.995 126.053 217.08 125.979 217.144C125.915 217.208 125.829 217.24 125.723 217.24H120.027V217.4C120.048 217.901 120.16 218.371 120.363 218.808C120.576 219.235 120.869 219.581 121.243 219.848C121.616 220.104 122.053 220.232 122.555 220.232C123.141 220.232 123.616 220.12 123.979 219.896C124.352 219.661 124.619 219.427 124.779 219.192C124.875 219.064 124.944 218.984 124.987 218.952C125.04 218.92 125.131 218.904 125.259 218.904H125.515C125.611 218.904 125.691 218.931 125.755 218.984C125.819 219.037 125.851 219.107 125.851 219.192C125.851 219.416 125.707 219.688 125.419 220.008C125.141 220.317 124.752 220.589 124.251 220.824C123.749 221.048 123.184 221.16 122.555 221.16ZM125.115 216.344V216.28C125.115 215.459 124.88 214.781 124.411 214.248C123.952 213.715 123.333 213.448 122.555 213.448C121.776 213.448 121.157 213.715 120.699 214.248C120.251 214.781 120.027 215.459 120.027 216.28V216.344H125.115ZM128.649 221C128.542 221 128.457 220.968 128.393 220.904C128.329 220.84 128.297 220.755 128.297 220.648V209.992C128.297 209.885 128.329 209.8 128.393 209.736C128.457 209.672 128.542 209.64 128.649 209.64H128.921C129.028 209.64 129.113 209.672 129.177 209.736C129.241 209.8 129.273 209.885 129.273 209.992V220.648C129.273 220.755 129.241 220.84 129.177 220.904C129.113 220.968 129.028 221 128.921 221H128.649ZM136.336 210.968C136.229 210.968 136.144 210.936 136.08 210.872C136.016 210.808 135.984 210.723 135.984 210.616V210.008C135.984 209.901 136.016 209.816 136.08 209.752C136.144 209.677 136.229 209.64 136.336 209.64H136.944C137.05 209.64 137.136 209.677 137.2 209.752C137.274 209.816 137.312 209.901 137.312 210.008V210.616C137.312 210.723 137.274 210.808 137.2 210.872C137.136 210.936 137.05 210.968 136.944 210.968H136.336ZM136.512 221C136.405 221 136.32 220.968 136.256 220.904C136.192 220.84 136.16 220.755 136.16 220.648V213.032C136.16 212.925 136.192 212.84 136.256 212.776C136.32 212.712 136.405 212.68 136.512 212.68H136.784C136.89 212.68 136.976 212.712 137.04 212.776C137.104 212.84 137.136 212.925 137.136 213.032V220.648C137.136 220.755 137.104 220.84 137.04 220.904C136.976 220.968 136.89 221 136.784 221H136.512ZM140.026 221C139.92 221 139.834 220.968 139.77 220.904C139.706 220.84 139.674 220.755 139.674 220.648V219.88C139.674 219.773 139.706 219.688 139.77 219.624C139.834 219.549 139.92 219.512 140.026 219.512H140.794C140.901 219.512 140.986 219.549 141.05 219.624C141.125 219.688 141.162 219.773 141.162 219.88V220.648C141.162 220.755 141.125 220.84 141.05 220.904C140.986 220.968 140.901 221 140.794 221H140.026Z" fill="black"/>
</svg>
