<svg width="290" height="228" viewBox="0 0 290 228" fill="none" xmlns="http://www.w3.org/2000/svg">
<path d="M74.48 54.618C74.48 63.3073 71.442 69.8733 65.366 74.316C59.3553 78.7587 51.45 80.98 41.65 80.98C31.7847 80.98 23.8467 78.7587 17.836 74.316C11.8253 69.8733 8.82 63.242 8.82 54.422V36.978C8.82 31.098 10.29 26.1653 13.23 22.18C16.17 18.1947 20.09 15.2547 24.99 13.36C29.9553 11.4 35.5087 10.42 41.65 10.42C47.7913 10.42 53.312 11.4 58.212 13.36C63.1773 15.2547 67.13 18.1947 70.07 22.18C73.01 26.1 74.48 30.9673 74.48 36.782V54.618ZM35.28 55.402C35.28 57.2313 35.9007 58.7667 37.142 60.008C38.3833 61.184 39.886 61.772 41.65 61.772C43.414 61.772 44.9167 61.1513 46.158 59.91C47.3993 58.6687 48.02 57.166 48.02 55.402V35.802C48.02 33.9727 47.3993 32.47 46.158 31.294C44.982 30.0527 43.4793 29.432 41.65 29.432C39.8207 29.432 38.2853 30.0527 37.044 31.294C35.868 32.5353 35.28 34.038 35.28 35.802V55.402ZM140.494 38.252C152.972 41.192 159.212 47.954 159.212 58.538C159.212 62.9807 157.742 66.9007 154.802 70.298C151.927 73.6953 147.909 76.3413 142.748 78.236C137.586 80.0653 131.739 80.98 125.206 80.98C117.431 80.98 110.996 79.902 105.9 77.746C100.869 75.5247 97.1777 72.846 94.8257 69.71C92.5391 66.574 91.3957 63.536 91.3957 60.596C91.3957 59.9427 91.5917 59.42 91.9837 59.028C92.4411 58.636 92.9637 58.44 93.5517 58.44H115.014C115.732 58.44 116.484 58.832 117.268 59.616C118.182 60.4653 119.097 61.086 120.012 61.478C120.926 61.8047 122.69 61.968 125.304 61.968C127.786 61.968 129.648 61.478 130.89 60.498C132.131 59.518 132.752 58.2767 132.752 56.774C132.752 53.8993 130.236 52.462 125.206 52.462H112.172C111.453 52.462 110.832 52.2007 110.31 51.678C109.787 51.1553 109.526 50.5347 109.526 49.816V41.878C109.526 40.9633 109.722 40.1793 110.114 39.526C110.506 38.8073 110.996 38.2847 111.584 37.958L125.99 30.51H98.5497C97.8311 30.51 97.2104 30.2487 96.6877 29.726C96.1651 29.2033 95.9037 28.5827 95.9037 27.864V14.046C95.9037 13.3273 96.1651 12.7067 96.6877 12.184C97.2104 11.6613 97.8311 11.4 98.5497 11.4H152.058C152.776 11.4 153.397 11.6613 153.92 12.184C154.442 12.7067 154.704 13.3273 154.704 14.046V26.492C154.704 27.9947 154.018 29.3013 152.646 30.412L140.494 38.252Z" fill="black"/>
<path d="M2.28 140C2.12 140 1.976 139.944 1.848 139.832C1.736 139.704 1.68 139.56 1.68 139.4V123.8C1.68 123.624 1.736 123.48 1.848 123.368C1.976 123.256 2.12 123.2 2.28 123.2H5.448C5.624 123.2 5.768 123.256 5.88 123.368C5.992 123.48 6.048 123.624 6.048 123.8V136.376H13.32C13.496 136.376 13.64 136.44 13.752 136.568C13.864 136.68 13.92 136.824 13.92 137V139.4C13.92 139.56 13.864 139.704 13.752 139.832C13.64 139.944 13.496 140 13.32 140H2.28ZM16.0749 144.56C15.9309 144.56 15.8109 144.512 15.7149 144.416C15.6189 144.32 15.5709 144.2 15.5709 144.056C15.5709 143.944 15.5949 143.84 15.6429 143.744L17.5149 139.232L12.9069 128.336C12.8589 128.208 12.8349 128.112 12.8349 128.048C12.8669 127.904 12.9309 127.784 13.0269 127.688C13.1229 127.576 13.2429 127.52 13.3869 127.52H16.1229C16.4589 127.52 16.6909 127.688 16.8189 128.024L19.5549 135.008L22.3629 128.024C22.5229 127.688 22.7629 127.52 23.0829 127.52H25.7709C25.9149 127.52 26.0349 127.576 26.1309 127.688C26.2429 127.784 26.2989 127.896 26.2989 128.024C26.2989 128.088 26.2749 128.192 26.2269 128.336L19.4349 144.056C19.3069 144.392 19.0669 144.56 18.7149 144.56H16.0749ZM32.9248 140.24C31.6288 140.24 30.5408 140.056 29.6608 139.688C28.7968 139.32 28.1568 138.88 27.7408 138.368C27.3248 137.856 27.1168 137.4 27.1168 137C27.1168 136.84 27.1728 136.712 27.2848 136.616C27.4128 136.504 27.5488 136.448 27.6928 136.448H30.4288C30.5248 136.448 30.6128 136.488 30.6928 136.568C30.8848 136.696 31.0288 136.8 31.1248 136.88C31.4768 137.136 31.7808 137.328 32.0368 137.456C32.3088 137.568 32.6368 137.624 33.0208 137.624C33.4848 137.624 33.8608 137.536 34.1488 137.36C34.4528 137.168 34.6048 136.904 34.6048 136.568C34.6048 136.296 34.5248 136.08 34.3648 135.92C34.2208 135.76 33.9328 135.608 33.5008 135.464C33.0688 135.304 32.4128 135.136 31.5328 134.96C30.2048 134.688 29.1808 134.248 28.4608 133.64C27.7568 133.016 27.4048 132.184 27.4048 131.144C27.4048 130.488 27.6128 129.864 28.0288 129.272C28.4448 128.68 29.0608 128.2 29.8768 127.832C30.7088 127.464 31.6928 127.28 32.8288 127.28C33.9648 127.28 34.9568 127.456 35.8048 127.808C36.6528 128.16 37.2928 128.592 37.7248 129.104C38.1728 129.6 38.3968 130.056 38.3968 130.472C38.3968 130.616 38.3408 130.744 38.2288 130.856C38.1328 130.968 38.0128 131.024 37.8688 131.024H35.3728C35.2448 131.024 35.1248 130.984 35.0128 130.904C34.8048 130.792 34.6208 130.672 34.4608 130.544C34.1888 130.336 33.9328 130.176 33.6928 130.064C33.4528 129.952 33.1568 129.896 32.8048 129.896C32.3888 129.896 32.0528 129.992 31.7968 130.184C31.5568 130.376 31.4368 130.624 31.4368 130.928C31.4368 131.168 31.5008 131.368 31.6288 131.528C31.7728 131.688 32.0608 131.848 32.4928 132.008C32.9408 132.152 33.5968 132.304 34.4608 132.464C36.0128 132.736 37.1408 133.216 37.8448 133.904C38.5648 134.592 38.9248 135.4 38.9248 136.328C38.9248 137.512 38.3968 138.464 37.3408 139.184C36.2848 139.888 34.8128 140.24 32.9248 140.24ZM46.3104 140.24C45.0144 140.24 43.9264 140.056 43.0464 139.688C42.1824 139.32 41.5424 138.88 41.1264 138.368C40.7104 137.856 40.5024 137.4 40.5024 137C40.5024 136.84 40.5584 136.712 40.6704 136.616C40.7984 136.504 40.9344 136.448 41.0784 136.448H43.8144C43.9104 136.448 43.9984 136.488 44.0784 136.568C44.2704 136.696 44.4144 136.8 44.5104 136.88C44.8624 137.136 45.1664 137.328 45.4224 137.456C45.6944 137.568 46.0224 137.624 46.4064 137.624C46.8704 137.624 47.2464 137.536 47.5344 137.36C47.8384 137.168 47.9904 136.904 47.9904 136.568C47.9904 136.296 47.9104 136.08 47.7504 135.92C47.6064 135.76 47.3184 135.608 46.8864 135.464C46.4544 135.304 45.7984 135.136 44.9184 134.96C43.5904 134.688 42.5664 134.248 41.8464 133.64C41.1424 133.016 40.7904 132.184 40.7904 131.144C40.7904 130.488 40.9984 129.864 41.4144 129.272C41.8304 128.68 42.4464 128.2 43.2624 127.832C44.0944 127.464 45.0784 127.28 46.2144 127.28C47.3504 127.28 48.3424 127.456 49.1904 127.808C50.0384 128.16 50.6784 128.592 51.1104 129.104C51.5584 129.6 51.7824 130.056 51.7824 130.472C51.7824 130.616 51.7264 130.744 51.6144 130.856C51.5184 130.968 51.3984 131.024 51.2544 131.024H48.7584C48.6304 131.024 48.5104 130.984 48.3984 130.904C48.1904 130.792 48.0064 130.672 47.8464 130.544C47.5744 130.336 47.3184 130.176 47.0784 130.064C46.8384 129.952 46.5424 129.896 46.1904 129.896C45.7744 129.896 45.4384 129.992 45.1824 130.184C44.9424 130.376 44.8224 130.624 44.8224 130.928C44.8224 131.168 44.8864 131.368 45.0144 131.528C45.1584 131.688 45.4464 131.848 45.8784 132.008C46.3264 132.152 46.9824 132.304 47.8464 132.464C49.3984 132.736 50.5264 133.216 51.2304 133.904C51.9504 134.592 52.3104 135.4 52.3104 136.328C52.3104 137.512 51.7824 138.464 50.7264 139.184C49.6704 139.888 48.1984 140.24 46.3104 140.24ZM55.1601 140C54.9841 140 54.8401 139.944 54.7281 139.832C54.6161 139.72 54.5601 139.576 54.5601 139.4V128.12C54.5601 127.944 54.6161 127.8 54.7281 127.688C54.8401 127.576 54.9841 127.52 55.1601 127.52H57.9201C58.0961 127.52 58.2401 127.576 58.3521 127.688C58.4801 127.8 58.5441 127.944 58.5441 128.12V129.032C58.9761 128.504 59.5281 128.08 60.2001 127.76C60.8881 127.44 61.6641 127.28 62.5281 127.28C63.9361 127.28 65.0801 127.76 65.9601 128.72C66.8401 129.664 67.2801 130.992 67.2801 132.704V139.4C67.2801 139.56 67.2241 139.704 67.1121 139.832C67.0001 139.944 66.8561 140 66.6801 140H63.6561C63.4961 140 63.3521 139.944 63.2241 139.832C63.1121 139.704 63.0561 139.56 63.0561 139.4V132.848C63.0561 132.096 62.8721 131.52 62.5041 131.12C62.1361 130.704 61.6081 130.496 60.9201 130.496C60.2481 130.496 59.7201 130.704 59.3361 131.12C58.9521 131.52 58.7601 132.096 58.7601 132.848V139.4C58.7601 139.56 58.7041 139.704 58.5921 139.832C58.4801 139.944 58.3361 140 58.1601 140H55.1601ZM73.8459 140.24C72.9979 140.24 72.2219 140.08 71.5179 139.76C70.8299 139.424 70.2859 138.976 69.8859 138.416C69.5019 137.84 69.3099 137.208 69.3099 136.52C69.3099 135.416 69.7579 134.528 70.6539 133.856C71.5659 133.184 72.8139 132.72 74.3979 132.464L77.3979 132.008V131.672C77.3979 131.064 77.2699 130.616 77.0139 130.328C76.7579 130.04 76.3259 129.896 75.7179 129.896C75.3499 129.896 75.0459 129.96 74.8059 130.088C74.5659 130.216 74.3179 130.392 74.0619 130.616C73.8379 130.808 73.6699 130.936 73.5579 131C73.5099 131.128 73.4219 131.192 73.2939 131.192H70.6779C70.5179 131.192 70.3819 131.144 70.2699 131.048C70.1739 130.936 70.1339 130.808 70.1499 130.664C70.1659 130.232 70.3739 129.752 70.7739 129.224C71.1899 128.696 71.8139 128.24 72.6459 127.856C73.4939 127.472 74.5339 127.28 75.7659 127.28C77.7339 127.28 79.1899 127.72 80.1339 128.6C81.0779 129.464 81.5499 130.632 81.5499 132.104V139.4C81.5499 139.56 81.4939 139.704 81.3819 139.832C81.2699 139.944 81.1259 140 80.9499 140H78.1659C78.0059 140 77.8619 139.944 77.7339 139.832C77.6219 139.704 77.5659 139.56 77.5659 139.4V138.56C77.2139 139.056 76.7179 139.464 76.0779 139.784C75.4539 140.088 74.7099 140.24 73.8459 140.24ZM74.9739 137.504C75.7099 137.504 76.3019 137.264 76.7499 136.784C77.2139 136.304 77.4459 135.6 77.4459 134.672V134.336L75.4059 134.696C73.9659 134.952 73.2459 135.456 73.2459 136.208C73.2459 136.608 73.4139 136.928 73.7499 137.168C74.0859 137.392 74.4939 137.504 74.9739 137.504ZM90.2076 144.56C90.0476 144.56 89.9036 144.504 89.7756 144.392C89.6636 144.28 89.6076 144.136 89.6076 143.96V128.12C89.6076 127.944 89.6636 127.8 89.7756 127.688C89.9036 127.576 90.0476 127.52 90.2076 127.52H92.9196C93.0956 127.52 93.2396 127.576 93.3516 127.688C93.4636 127.8 93.5196 127.944 93.5196 128.12V128.984C94.3836 127.848 95.6236 127.28 97.2396 127.28C98.8076 127.28 100.032 127.768 100.912 128.744C101.792 129.72 102.272 131.096 102.352 132.872C102.368 133.08 102.376 133.376 102.376 133.76C102.376 134.144 102.368 134.44 102.352 134.648C102.288 136.376 101.808 137.744 100.912 138.752C100.016 139.744 98.7916 140.24 97.2396 140.24C95.6716 140.24 94.5036 139.704 93.7356 138.632V143.96C93.7356 144.136 93.6796 144.28 93.5676 144.392C93.4556 144.504 93.3116 144.56 93.1356 144.56H90.2076ZM95.9436 137.024C96.6956 137.024 97.2316 136.8 97.5516 136.352C97.8876 135.904 98.0796 135.288 98.1276 134.504C98.1596 134.184 98.1756 133.936 98.1756 133.76C98.1756 133.584 98.1596 133.336 98.1276 133.016C98.0796 132.232 97.8876 131.616 97.5516 131.168C97.2316 130.72 96.6956 130.496 95.9436 130.496C95.2076 130.496 94.6636 130.728 94.3116 131.192C93.9756 131.64 93.7836 132.224 93.7356 132.944L93.7116 133.832L93.7356 134.744C93.7676 135.4 93.9676 135.944 94.3356 136.376C94.7036 136.808 95.2396 137.024 95.9436 137.024ZM108.612 140.24C107.764 140.24 106.988 140.08 106.284 139.76C105.596 139.424 105.052 138.976 104.652 138.416C104.268 137.84 104.076 137.208 104.076 136.52C104.076 135.416 104.524 134.528 105.42 133.856C106.332 133.184 107.58 132.72 109.164 132.464L112.164 132.008V131.672C112.164 131.064 112.036 130.616 111.78 130.328C111.524 130.04 111.092 129.896 110.484 129.896C110.116 129.896 109.812 129.96 109.572 130.088C109.332 130.216 109.084 130.392 108.828 130.616C108.604 130.808 108.436 130.936 108.324 131C108.276 131.128 108.188 131.192 108.06 131.192H105.444C105.284 131.192 105.148 131.144 105.036 131.048C104.94 130.936 104.9 130.808 104.916 130.664C104.932 130.232 105.14 129.752 105.54 129.224C105.956 128.696 106.58 128.24 107.412 127.856C108.26 127.472 109.3 127.28 110.532 127.28C112.5 127.28 113.956 127.72 114.9 128.6C115.844 129.464 116.316 130.632 116.316 132.104V139.4C116.316 139.56 116.26 139.704 116.148 139.832C116.036 139.944 115.892 140 115.716 140H112.932C112.772 140 112.628 139.944 112.5 139.832C112.388 139.704 112.332 139.56 112.332 139.4V138.56C111.98 139.056 111.484 139.464 110.844 139.784C110.22 140.088 109.476 140.24 108.612 140.24ZM109.74 137.504C110.476 137.504 111.068 137.264 111.516 136.784C111.98 136.304 112.212 135.6 112.212 134.672V134.336L110.172 134.696C108.732 134.952 108.012 135.456 108.012 136.208C108.012 136.608 108.18 136.928 108.516 137.168C108.852 137.392 109.26 137.504 109.74 137.504ZM110.436 125.84C109.812 125.84 109.284 125.64 108.852 125.24C108.436 124.84 108.228 124.336 108.228 123.728C108.228 123.136 108.436 122.64 108.852 122.24C109.284 121.84 109.812 121.64 110.436 121.64C111.06 121.64 111.588 121.84 112.02 122.24C112.452 122.64 112.668 123.136 112.668 123.728C112.668 124.336 112.452 124.84 112.02 125.24C111.588 125.64 111.06 125.84 110.436 125.84ZM110.436 124.448C110.644 124.448 110.812 124.384 110.94 124.256C111.084 124.112 111.156 123.936 111.156 123.728C111.156 123.52 111.084 123.352 110.94 123.224C110.812 123.08 110.644 123.008 110.436 123.008C110.228 123.008 110.052 123.08 109.908 123.224C109.78 123.352 109.716 123.52 109.716 123.728C109.716 123.936 109.78 124.112 109.908 124.256C110.052 124.384 110.228 124.448 110.436 124.448ZM132.006 140.24C130.406 140.24 129.166 139.704 128.286 138.632V139.4C128.286 139.56 128.23 139.704 128.118 139.832C128.006 139.944 127.862 140 127.686 140H124.974C124.814 140 124.67 139.944 124.542 139.832C124.43 139.704 124.374 139.56 124.374 139.4V123.56C124.374 123.384 124.43 123.24 124.542 123.128C124.67 123.016 124.814 122.96 124.974 122.96H127.902C128.078 122.96 128.222 123.016 128.334 123.128C128.446 123.24 128.502 123.384 128.502 123.56V128.696C129.398 127.752 130.566 127.28 132.006 127.28C133.558 127.28 134.782 127.784 135.678 128.792C136.574 129.8 137.054 131.168 137.118 132.896C137.134 133.104 137.142 133.392 137.142 133.76C137.142 134.112 137.134 134.392 137.118 134.6C137.038 136.392 136.558 137.784 135.678 138.776C134.798 139.752 133.574 140.24 132.006 140.24ZM130.71 137.024C131.462 137.024 131.998 136.8 132.318 136.352C132.654 135.904 132.846 135.288 132.894 134.504C132.926 134.184 132.942 133.936 132.942 133.76C132.942 133.584 132.926 133.336 132.894 133.016C132.846 132.232 132.654 131.616 132.318 131.168C131.998 130.72 131.462 130.496 130.71 130.496C130.006 130.496 129.47 130.712 129.102 131.144C128.734 131.576 128.534 132.12 128.502 132.776L128.478 133.664L128.502 134.576C128.55 135.296 128.742 135.888 129.078 136.352C129.43 136.8 129.974 137.024 130.71 137.024ZM145.538 140.24C143.554 140.24 142.026 139.768 140.954 138.824C139.882 137.88 139.298 136.552 139.202 134.84C139.186 134.632 139.178 134.272 139.178 133.76C139.178 133.248 139.186 132.888 139.202 132.68C139.298 130.984 139.898 129.664 141.002 128.72C142.106 127.76 143.618 127.28 145.538 127.28C147.474 127.28 148.994 127.76 150.098 128.72C151.202 129.664 151.802 130.984 151.898 132.68C151.914 132.888 151.922 133.248 151.922 133.76C151.922 134.272 151.914 134.632 151.898 134.84C151.802 136.552 151.218 137.88 150.146 138.824C149.074 139.768 147.538 140.24 145.538 140.24ZM145.538 137.312C146.242 137.312 146.762 137.104 147.098 136.688C147.434 136.256 147.626 135.6 147.674 134.72C147.69 134.56 147.698 134.24 147.698 133.76C147.698 133.28 147.69 132.96 147.674 132.8C147.626 131.936 147.426 131.288 147.074 130.856C146.738 130.424 146.226 130.208 145.538 130.208C144.21 130.208 143.506 131.072 143.426 132.8L143.402 133.76L143.426 134.72C143.458 135.6 143.642 136.256 143.978 136.688C144.33 137.104 144.85 137.312 145.538 137.312ZM155.026 140C154.866 140 154.722 139.944 154.594 139.832C154.482 139.704 154.426 139.56 154.426 139.4V123.56C154.426 123.384 154.482 123.24 154.594 123.128C154.722 123.016 154.866 122.96 155.026 122.96H157.81C157.986 122.96 158.13 123.016 158.242 123.128C158.354 123.24 158.41 123.384 158.41 123.56V131.6L161.746 127.928C161.778 127.896 161.834 127.84 161.914 127.76C162.01 127.68 162.106 127.624 162.202 127.592C162.298 127.544 162.41 127.52 162.538 127.52H165.754C165.898 127.52 166.018 127.576 166.114 127.688C166.226 127.784 166.282 127.904 166.282 128.048C166.282 128.224 166.218 128.36 166.09 128.456L161.77 133.112L166.69 139.088C166.818 139.216 166.882 139.336 166.882 139.448C166.882 139.608 166.826 139.744 166.714 139.856C166.618 139.952 166.49 140 166.33 140H163.042C162.834 140 162.674 139.968 162.562 139.904C162.466 139.84 162.346 139.736 162.202 139.592L158.41 135.032V139.4C158.41 139.56 158.354 139.704 158.242 139.832C158.13 139.944 157.986 140 157.81 140H155.026ZM173.783 140.24C171.863 140.24 170.351 139.72 169.247 138.68C168.143 137.64 167.567 136.128 167.519 134.144V133.304C167.583 131.416 168.167 129.944 169.271 128.888C170.391 127.816 171.887 127.28 173.759 127.28C175.119 127.28 176.263 127.56 177.191 128.12C178.135 128.664 178.839 129.416 179.303 130.376C179.783 131.336 180.023 132.44 180.023 133.688V134.264C180.023 134.424 179.967 134.568 179.855 134.696C179.743 134.808 179.599 134.864 179.423 134.864H171.743V135.032C171.775 135.784 171.959 136.392 172.295 136.856C172.631 137.32 173.119 137.552 173.759 137.552C174.159 137.552 174.487 137.472 174.743 137.312C174.999 137.136 175.231 136.928 175.439 136.688C175.583 136.512 175.695 136.408 175.775 136.376C175.871 136.328 176.015 136.304 176.207 136.304H179.183C179.327 136.304 179.447 136.352 179.543 136.448C179.655 136.528 179.711 136.64 179.711 136.784C179.711 137.2 179.471 137.68 178.991 138.224C178.527 138.768 177.847 139.24 176.951 139.64C176.055 140.04 174.999 140.24 173.783 140.24ZM175.799 132.488V132.44C175.799 131.656 175.615 131.04 175.247 130.592C174.895 130.128 174.399 129.896 173.759 129.896C173.135 129.896 172.639 130.128 172.271 130.592C171.919 131.04 171.743 131.656 171.743 132.44V132.488H175.799ZM182.993 140C182.817 140 182.673 139.944 182.561 139.832C182.449 139.72 182.393 139.576 182.393 139.4V128.12C182.393 127.944 182.449 127.8 182.561 127.688C182.673 127.576 182.817 127.52 182.993 127.52H185.753C185.929 127.52 186.073 127.576 186.185 127.688C186.313 127.8 186.377 127.944 186.377 128.12V129.032C186.809 128.504 187.361 128.08 188.033 127.76C188.721 127.44 189.497 127.28 190.361 127.28C191.769 127.28 192.913 127.76 193.793 128.72C194.673 129.664 195.113 130.992 195.113 132.704V139.4C195.113 139.56 195.057 139.704 194.945 139.832C194.833 139.944 194.689 140 194.513 140H191.489C191.329 140 191.185 139.944 191.057 139.832C190.945 139.704 190.889 139.56 190.889 139.4V132.848C190.889 132.096 190.705 131.52 190.337 131.12C189.969 130.704 189.441 130.496 188.753 130.496C188.081 130.496 187.553 130.704 187.169 131.12C186.785 131.52 186.593 132.096 186.593 132.848V139.4C186.593 139.56 186.537 139.704 186.425 139.832C186.313 139.944 186.169 140 185.993 140H182.993Z" fill="black"/>
<path d="M1.856 173C1.74933 173 1.664 172.968 1.6 172.904C1.536 172.84 1.504 172.755 1.504 172.648V162.168C1.504 162.061 1.536 161.976 1.6 161.912C1.664 161.837 1.74933 161.8 1.856 161.8H8.032C8.14933 161.8 8.24 161.832 8.304 161.896C8.368 161.96 8.4 162.051 8.4 162.168V162.408C8.4 162.515 8.36267 162.6 8.288 162.664C8.224 162.728 8.13867 162.76 8.032 162.76H2.512V167.064H7.712C7.82933 167.064 7.92 167.096 7.984 167.16C8.048 167.224 8.08 167.315 8.08 167.432V167.672C8.08 167.779 8.04267 167.864 7.968 167.928C7.904 167.992 7.81867 168.024 7.712 168.024H2.512V172.648C2.512 172.755 2.47467 172.84 2.4 172.904C2.336 172.968 2.25067 173 2.144 173H1.856ZM13.4815 173.16C12.3722 173.16 11.5082 172.824 10.8895 172.152C10.2815 171.469 9.9615 170.589 9.9295 169.512L9.9135 168.84L9.9295 168.168C9.9615 167.091 10.2815 166.216 10.8895 165.544C11.5082 164.861 12.3722 164.52 13.4815 164.52C14.5908 164.52 15.4495 164.861 16.0575 165.544C16.6762 166.216 17.0015 167.091 17.0335 168.168C17.0442 168.275 17.0495 168.499 17.0495 168.84C17.0495 169.181 17.0442 169.405 17.0335 169.512C17.0015 170.589 16.6762 171.469 16.0575 172.152C15.4495 172.824 14.5908 173.16 13.4815 173.16ZM13.4815 172.232C14.2388 172.232 14.8468 171.992 15.3055 171.512C15.7748 171.021 16.0255 170.328 16.0575 169.432C16.0682 169.325 16.0735 169.128 16.0735 168.84C16.0735 168.552 16.0682 168.355 16.0575 168.248C16.0255 167.352 15.7748 166.664 15.3055 166.184C14.8468 165.693 14.2388 165.448 13.4815 165.448C12.7242 165.448 12.1108 165.693 11.6415 166.184C11.1828 166.664 10.9375 167.352 10.9055 168.248L10.8895 168.84L10.9055 169.432C10.9375 170.328 11.1828 171.021 11.6415 171.512C12.1108 171.992 12.7242 172.232 13.4815 172.232ZM19.6674 173C19.5607 173 19.4754 172.968 19.4114 172.904C19.3474 172.84 19.3154 172.755 19.3154 172.648V165.048C19.3154 164.941 19.3474 164.856 19.4114 164.792C19.4754 164.717 19.5607 164.68 19.6674 164.68H19.9234C20.03 164.68 20.1154 164.717 20.1794 164.792C20.254 164.856 20.2914 164.941 20.2914 165.048V165.784C20.6754 165.048 21.4007 164.68 22.4674 164.68H23.0594C23.166 164.68 23.2514 164.712 23.3154 164.776C23.3794 164.84 23.4114 164.925 23.4114 165.032V165.256C23.4114 165.363 23.3794 165.448 23.3154 165.512C23.2514 165.576 23.166 165.608 23.0594 165.608H22.3714C21.7314 165.608 21.2247 165.795 20.8514 166.168C20.478 166.541 20.2914 167.048 20.2914 167.688V172.648C20.2914 172.755 20.254 172.84 20.1794 172.904C20.1154 172.968 20.03 173 19.9234 173H19.6674ZM27.7579 173C26.9685 173 26.4085 172.765 26.0779 172.296C25.7472 171.816 25.5819 171.16 25.5819 170.328V165.608H24.3339C24.2272 165.608 24.1419 165.576 24.0779 165.512C24.0139 165.448 23.9819 165.363 23.9819 165.256V165.032C23.9819 164.925 24.0139 164.84 24.0779 164.776C24.1419 164.712 24.2272 164.68 24.3339 164.68H25.5819V161.992C25.5819 161.885 25.6139 161.8 25.6779 161.736C25.7419 161.672 25.8272 161.64 25.9339 161.64H26.2059C26.3125 161.64 26.3979 161.672 26.4619 161.736C26.5259 161.8 26.5579 161.885 26.5579 161.992V164.68H28.5419C28.6485 164.68 28.7339 164.712 28.7979 164.776C28.8619 164.84 28.8939 164.925 28.8939 165.032V165.256C28.8939 165.363 28.8619 165.448 28.7979 165.512C28.7339 165.576 28.6485 165.608 28.5419 165.608H26.5579V170.264C26.5579 170.861 26.6539 171.315 26.8459 171.624C27.0485 171.923 27.3792 172.072 27.8379 172.072H28.7019C28.8085 172.072 28.8939 172.104 28.9579 172.168C29.0219 172.232 29.0539 172.317 29.0539 172.424V172.648C29.0539 172.755 29.0219 172.84 28.9579 172.904C28.8939 172.968 28.8085 173 28.7019 173H27.7579ZM33.4279 173.16C32.7345 173.16 32.1479 173.043 31.6679 172.808C31.1985 172.573 30.8412 172.307 30.5959 172.008C30.3612 171.709 30.2439 171.469 30.2439 171.288C30.2439 171.192 30.2812 171.117 30.3559 171.064C30.4305 171 30.5105 170.968 30.5959 170.968H30.8359C30.9105 170.968 30.9692 170.984 31.0119 171.016C31.0652 171.037 31.1239 171.091 31.1879 171.176C31.4225 171.507 31.7052 171.768 32.0359 171.96C32.3772 172.141 32.8412 172.232 33.4279 172.232C34.0892 172.232 34.6225 172.109 35.0279 171.864C35.4332 171.608 35.6359 171.245 35.6359 170.776C35.6359 170.488 35.5505 170.253 35.3799 170.072C35.2199 169.891 34.9532 169.736 34.5799 169.608C34.2172 169.469 33.6732 169.315 32.9479 169.144C31.9985 168.931 31.3479 168.637 30.9959 168.264C30.6545 167.891 30.4839 167.416 30.4839 166.84C30.4839 166.445 30.5905 166.072 30.8039 165.72C31.0279 165.368 31.3532 165.08 31.7799 164.856C32.2172 164.632 32.7399 164.52 33.3479 164.52C33.9879 164.52 34.5265 164.632 34.9639 164.856C35.4119 165.069 35.7425 165.32 35.9559 165.608C36.1799 165.896 36.2919 166.131 36.2919 166.312C36.2919 166.408 36.2545 166.488 36.1799 166.552C36.1159 166.605 36.0359 166.632 35.9399 166.632H35.6999C35.5505 166.632 35.4332 166.563 35.3479 166.424C35.1345 166.104 34.8892 165.864 34.6119 165.704C34.3452 165.533 33.9239 165.448 33.3479 165.448C32.7292 165.448 32.2599 165.576 31.9399 165.832C31.6199 166.088 31.4599 166.424 31.4599 166.84C31.4599 167.096 31.5239 167.309 31.6519 167.48C31.7799 167.651 32.0199 167.811 32.3719 167.96C32.7239 168.099 33.2359 168.243 33.9079 168.392C34.8999 168.616 35.5985 168.915 36.0039 169.288C36.4092 169.661 36.6119 170.157 36.6119 170.776C36.6119 171.213 36.4892 171.613 36.2439 171.976C35.9985 172.339 35.6359 172.627 35.1559 172.84C34.6759 173.053 34.0999 173.16 33.4279 173.16ZM40.9829 173.16C40.4709 173.16 39.9962 173.053 39.5589 172.84C39.1215 172.627 38.7695 172.339 38.5029 171.976C38.2469 171.613 38.1189 171.213 38.1189 170.776C38.1189 170.072 38.4015 169.496 38.9669 169.048C39.5429 168.6 40.3162 168.312 41.2869 168.184L43.8149 167.832V167.272C43.8149 166.685 43.6335 166.237 43.2709 165.928C42.9189 165.608 42.3749 165.448 41.6389 165.448C41.0949 165.448 40.6469 165.555 40.2949 165.768C39.9535 165.981 39.7349 166.237 39.6389 166.536C39.5962 166.664 39.5429 166.755 39.4789 166.808C39.4255 166.851 39.3509 166.872 39.2549 166.872H39.0309C38.9349 166.872 38.8495 166.84 38.7749 166.776C38.7109 166.701 38.6789 166.616 38.6789 166.52C38.6789 166.285 38.7855 166.013 38.9989 165.704C39.2122 165.384 39.5429 165.107 39.9909 164.872C40.4389 164.637 40.9882 164.52 41.6389 164.52C42.7802 164.52 43.5909 164.792 44.0709 165.336C44.5509 165.88 44.7909 166.541 44.7909 167.32V172.648C44.7909 172.755 44.7589 172.84 44.6949 172.904C44.6309 172.968 44.5455 173 44.4389 173H44.1669C44.0602 173 43.9749 172.968 43.9109 172.904C43.8469 172.84 43.8149 172.755 43.8149 172.648V171.896C43.5802 172.248 43.2335 172.547 42.7749 172.792C42.3269 173.037 41.7295 173.16 40.9829 173.16ZM41.1429 172.232C41.9215 172.232 42.5615 171.976 43.0629 171.464C43.5642 170.952 43.8149 170.216 43.8149 169.256V168.712L41.7509 169C40.8762 169.117 40.2149 169.32 39.7669 169.608C39.3189 169.896 39.0949 170.259 39.0949 170.696C39.0949 171.187 39.2975 171.565 39.7029 171.832C40.1189 172.099 40.5989 172.232 41.1429 172.232ZM40.1509 162.968C40.0442 162.968 39.9589 162.936 39.8949 162.872C39.8309 162.808 39.7989 162.723 39.7989 162.616V162.008C39.7989 161.901 39.8309 161.816 39.8949 161.752C39.9589 161.677 40.0442 161.64 40.1509 161.64H40.7589C40.8655 161.64 40.9509 161.677 41.0149 161.752C41.0895 161.816 41.1269 161.901 41.1269 162.008V162.616C41.1269 162.723 41.0895 162.808 41.0149 162.872C40.9509 162.936 40.8655 162.968 40.7589 162.968H40.1509ZM42.5989 162.968C42.4922 162.968 42.4069 162.936 42.3429 162.872C42.2789 162.808 42.2469 162.723 42.2469 162.616V162.008C42.2469 161.901 42.2789 161.816 42.3429 161.752C42.4069 161.677 42.4922 161.64 42.5989 161.64H43.2069C43.3135 161.64 43.3989 161.677 43.4629 161.752C43.5375 161.816 43.5749 161.901 43.5749 162.008V162.616C43.5749 162.723 43.5375 162.808 43.4629 162.872C43.3989 162.936 43.3135 162.968 43.2069 162.968H42.5989ZM50.1229 173C49.3335 173 48.7735 172.765 48.4429 172.296C48.1122 171.816 47.9469 171.16 47.9469 170.328V165.608H46.6989C46.5922 165.608 46.5069 165.576 46.4429 165.512C46.3789 165.448 46.3469 165.363 46.3469 165.256V165.032C46.3469 164.925 46.3789 164.84 46.4429 164.776C46.5069 164.712 46.5922 164.68 46.6989 164.68H47.9469V161.992C47.9469 161.885 47.9789 161.8 48.0429 161.736C48.1069 161.672 48.1922 161.64 48.2989 161.64H48.5709C48.6775 161.64 48.7629 161.672 48.8269 161.736C48.8909 161.8 48.9229 161.885 48.9229 161.992V164.68H50.9069C51.0135 164.68 51.0989 164.712 51.1629 164.776C51.2269 164.84 51.2589 164.925 51.2589 165.032V165.256C51.2589 165.363 51.2269 165.448 51.1629 165.512C51.0989 165.576 51.0135 165.608 50.9069 165.608H48.9229V170.264C48.9229 170.861 49.0189 171.315 49.2109 171.624C49.4135 171.923 49.7442 172.072 50.2029 172.072H51.0669C51.1735 172.072 51.2589 172.104 51.3229 172.168C51.3869 172.232 51.4189 172.317 51.4189 172.424V172.648C51.4189 172.755 51.3869 172.84 51.3229 172.904C51.2589 172.968 51.1735 173 51.0669 173H50.1229ZM55.9529 173C55.1635 173 54.6035 172.765 54.2729 172.296C53.9422 171.816 53.7769 171.16 53.7769 170.328V165.608H52.5289C52.4222 165.608 52.3369 165.576 52.2729 165.512C52.2089 165.448 52.1769 165.363 52.1769 165.256V165.032C52.1769 164.925 52.2089 164.84 52.2729 164.776C52.3369 164.712 52.4222 164.68 52.5289 164.68H53.7769V161.992C53.7769 161.885 53.8089 161.8 53.8729 161.736C53.9369 161.672 54.0222 161.64 54.1289 161.64H54.4009C54.5075 161.64 54.5929 161.672 54.6569 161.736C54.7209 161.8 54.7529 161.885 54.7529 161.992V164.68H56.7369C56.8435 164.68 56.9289 164.712 56.9929 164.776C57.0569 164.84 57.0889 164.925 57.0889 165.032V165.256C57.0889 165.363 57.0569 165.448 56.9929 165.512C56.9289 165.576 56.8435 165.608 56.7369 165.608H54.7529V170.264C54.7529 170.861 54.8489 171.315 55.0409 171.624C55.2435 171.923 55.5742 172.072 56.0329 172.072H56.8969C57.0035 172.072 57.0889 172.104 57.1529 172.168C57.2169 172.232 57.2489 172.317 57.2489 172.424V172.648C57.2489 172.755 57.2169 172.84 57.1529 172.904C57.0889 172.968 57.0035 173 56.8969 173H55.9529ZM63.5399 173C63.4332 173 63.3479 172.968 63.2839 172.904C63.2199 172.84 63.1879 172.755 63.1879 172.648V165.032C63.1879 164.925 63.2199 164.84 63.2839 164.776C63.3479 164.712 63.4332 164.68 63.5399 164.68H63.8119C63.9185 164.68 64.0039 164.712 64.0679 164.776C64.1319 164.84 64.1639 164.925 64.1639 165.032V165.592C64.4412 165.24 64.7612 164.973 65.1239 164.792C65.4972 164.611 65.9399 164.52 66.4519 164.52C67.6465 164.52 68.4999 165.021 69.0119 166.024C69.2679 165.565 69.6305 165.203 70.0999 164.936C70.5799 164.659 71.1239 164.52 71.7319 164.52C72.6172 164.52 73.3372 164.824 73.8919 165.432C74.4465 166.029 74.7239 166.883 74.7239 167.992V172.648C74.7239 172.755 74.6919 172.84 74.6279 172.904C74.5639 172.968 74.4785 173 74.3719 173H74.0999C73.9932 173 73.9079 172.968 73.8439 172.904C73.7799 172.84 73.7479 172.755 73.7479 172.648V168.152C73.7479 167.181 73.5452 166.488 73.1399 166.072C72.7452 165.656 72.2225 165.448 71.5719 165.448C70.9959 165.448 70.4945 165.661 70.0679 166.088C69.6519 166.504 69.4439 167.192 69.4439 168.152V172.648C69.4439 172.755 69.4119 172.84 69.3479 172.904C69.2839 172.968 69.1985 173 69.0919 173H68.8199C68.7132 173 68.6279 172.968 68.5639 172.904C68.4999 172.84 68.4679 172.755 68.4679 172.648V168.152C68.4679 167.192 68.2599 166.504 67.8439 166.088C67.4279 165.661 66.9105 165.448 66.2919 165.448C65.7159 165.448 65.2145 165.661 64.7879 166.088C64.3719 166.504 64.1639 167.187 64.1639 168.136V172.648C64.1639 172.755 64.1319 172.84 64.0679 172.904C64.0039 172.968 63.9185 173 63.8119 173H63.5399ZM80.4828 173.16C79.3734 173.16 78.5094 172.824 77.8908 172.152C77.2828 171.469 76.9628 170.589 76.9308 169.512L76.9148 168.84L76.9308 168.168C76.9628 167.091 77.2828 166.216 77.8908 165.544C78.5094 164.861 79.3734 164.52 80.4828 164.52C81.5921 164.52 82.4508 164.861 83.0588 165.544C83.6774 166.216 84.0028 167.091 84.0348 168.168C84.0454 168.275 84.0508 168.499 84.0508 168.84C84.0508 169.181 84.0454 169.405 84.0348 169.512C84.0028 170.589 83.6774 171.469 83.0588 172.152C82.4508 172.824 81.5921 173.16 80.4828 173.16ZM80.4828 172.232C81.2401 172.232 81.8481 171.992 82.3068 171.512C82.7761 171.021 83.0268 170.328 83.0588 169.432C83.0694 169.325 83.0748 169.128 83.0748 168.84C83.0748 168.552 83.0694 168.355 83.0588 168.248C83.0268 167.352 82.7761 166.664 82.3068 166.184C81.8481 165.693 81.2401 165.448 80.4828 165.448C79.7254 165.448 79.1121 165.693 78.6428 166.184C78.1841 166.664 77.9388 167.352 77.9068 168.248L77.8908 168.84L77.9068 169.432C77.9388 170.328 78.1841 171.021 78.6428 171.512C79.1121 171.992 79.7254 172.232 80.4828 172.232ZM89.0229 173C88.2335 173 87.6735 172.765 87.3429 172.296C87.0122 171.816 86.8469 171.16 86.8469 170.328V165.608H85.5989C85.4922 165.608 85.4069 165.576 85.3429 165.512C85.2789 165.448 85.2469 165.363 85.2469 165.256V165.032C85.2469 164.925 85.2789 164.84 85.3429 164.776C85.4069 164.712 85.4922 164.68 85.5989 164.68H86.8469V161.992C86.8469 161.885 86.8789 161.8 86.9429 161.736C87.0069 161.672 87.0922 161.64 87.1989 161.64H87.4709C87.5775 161.64 87.6629 161.672 87.7269 161.736C87.7909 161.8 87.8229 161.885 87.8229 161.992V164.68H89.8069C89.9135 164.68 89.9989 164.712 90.0629 164.776C90.1269 164.84 90.1589 164.925 90.1589 165.032V165.256C90.1589 165.363 90.1269 165.448 90.0629 165.512C89.9989 165.576 89.9135 165.608 89.8069 165.608H87.8229V170.264C87.8229 170.861 87.9189 171.315 88.1109 171.624C88.3135 171.923 88.6442 172.072 89.1029 172.072H89.9669C90.0735 172.072 90.1589 172.104 90.2229 172.168C90.2869 172.232 90.3189 172.317 90.3189 172.424V172.648C90.3189 172.755 90.2869 172.84 90.2229 172.904C90.1589 172.968 90.0735 173 89.9669 173H89.0229ZM92.2289 162.968C92.1222 162.968 92.0369 162.936 91.9729 162.872C91.9089 162.808 91.8769 162.723 91.8769 162.616V162.008C91.8769 161.901 91.9089 161.816 91.9729 161.752C92.0369 161.677 92.1222 161.64 92.2289 161.64H92.8369C92.9435 161.64 93.0289 161.677 93.0929 161.752C93.1675 161.816 93.2049 161.901 93.2049 162.008V162.616C93.2049 162.723 93.1675 162.808 93.0929 162.872C93.0289 162.936 92.9435 162.968 92.8369 162.968H92.2289ZM92.4049 173C92.2982 173 92.2129 172.968 92.1489 172.904C92.0849 172.84 92.0529 172.755 92.0529 172.648V165.032C92.0529 164.925 92.0849 164.84 92.1489 164.776C92.2129 164.712 92.2982 164.68 92.4049 164.68H92.6769C92.7835 164.68 92.8689 164.712 92.9329 164.776C92.9969 164.84 93.0289 164.925 93.0289 165.032V172.648C93.0289 172.755 92.9969 172.84 92.9329 172.904C92.8689 172.968 92.7835 173 92.6769 173H92.4049ZM98.8634 173.16C97.754 173.16 96.89 172.824 96.2714 172.152C95.6634 171.469 95.3434 170.589 95.3114 169.512L95.2954 168.84L95.3114 168.168C95.3434 167.091 95.6634 166.216 96.2714 165.544C96.89 164.861 97.754 164.52 98.8634 164.52C99.9727 164.52 100.831 164.861 101.439 165.544C102.058 166.216 102.383 167.091 102.415 168.168C102.426 168.275 102.431 168.499 102.431 168.84C102.431 169.181 102.426 169.405 102.415 169.512C102.383 170.589 102.058 171.469 101.439 172.152C100.831 172.824 99.9727 173.16 98.8634 173.16ZM98.8634 172.232C99.6207 172.232 100.229 171.992 100.687 171.512C101.157 171.021 101.407 170.328 101.439 169.432C101.45 169.325 101.455 169.128 101.455 168.84C101.455 168.552 101.45 168.355 101.439 168.248C101.407 167.352 101.157 166.664 100.687 166.184C100.229 165.693 99.6207 165.448 98.8634 165.448C98.106 165.448 97.4927 165.693 97.0234 166.184C96.5647 166.664 96.3194 167.352 96.2874 168.248L96.2714 168.84L96.2874 169.432C96.3194 170.328 96.5647 171.021 97.0234 171.512C97.4927 171.992 98.106 172.232 98.8634 172.232ZM105.049 173C104.943 173 104.857 172.968 104.793 172.904C104.729 172.84 104.697 172.755 104.697 172.648V165.032C104.697 164.925 104.729 164.84 104.793 164.776C104.857 164.712 104.943 164.68 105.049 164.68H105.321C105.428 164.68 105.513 164.712 105.577 164.776C105.641 164.84 105.673 164.925 105.673 165.032V165.784C105.993 165.368 106.356 165.053 106.761 164.84C107.177 164.627 107.711 164.52 108.361 164.52C109.407 164.52 110.212 164.856 110.777 165.528C111.343 166.189 111.625 167.048 111.625 168.104V172.648C111.625 172.755 111.593 172.84 111.529 172.904C111.465 172.968 111.38 173 111.273 173H111.001C110.895 173 110.809 172.968 110.745 172.904C110.681 172.84 110.649 172.755 110.649 172.648V168.184C110.649 167.32 110.436 166.648 110.009 166.168C109.593 165.688 108.991 165.448 108.201 165.448C107.433 165.448 106.82 165.693 106.361 166.184C105.903 166.664 105.673 167.331 105.673 168.184V172.648C105.673 172.755 105.641 172.84 105.577 172.904C105.513 172.968 105.428 173 105.321 173H105.049ZM117.303 173.16C116.289 173.16 115.473 172.829 114.855 172.168C114.236 171.496 113.884 170.6 113.799 169.48L113.783 168.84L113.799 168.2C113.884 167.091 114.231 166.2 114.839 165.528C115.457 164.856 116.279 164.52 117.303 164.52C118.412 164.52 119.276 164.888 119.895 165.624C120.524 166.36 120.839 167.368 120.839 168.648V168.888C120.839 168.995 120.801 169.08 120.727 169.144C120.663 169.208 120.577 169.24 120.471 169.24H114.775V169.4C114.796 169.901 114.908 170.371 115.111 170.808C115.324 171.235 115.617 171.581 115.991 171.848C116.364 172.104 116.801 172.232 117.303 172.232C117.889 172.232 118.364 172.12 118.727 171.896C119.1 171.661 119.367 171.427 119.527 171.192C119.623 171.064 119.692 170.984 119.735 170.952C119.788 170.92 119.879 170.904 120.007 170.904H120.263C120.359 170.904 120.439 170.931 120.503 170.984C120.567 171.037 120.599 171.107 120.599 171.192C120.599 171.416 120.455 171.688 120.167 172.008C119.889 172.317 119.5 172.589 118.999 172.824C118.497 173.048 117.932 173.16 117.303 173.16ZM119.863 168.344V168.28C119.863 167.459 119.628 166.781 119.159 166.248C118.7 165.715 118.081 165.448 117.303 165.448C116.524 165.448 115.905 165.715 115.447 166.248C114.999 166.781 114.775 167.459 114.775 168.28V168.344H119.863ZM123.381 173C123.274 173 123.189 172.968 123.125 172.904C123.061 172.84 123.029 172.755 123.029 172.648V165.048C123.029 164.941 123.061 164.856 123.125 164.792C123.189 164.717 123.274 164.68 123.381 164.68H123.637C123.744 164.68 123.829 164.717 123.893 164.792C123.968 164.856 124.005 164.941 124.005 165.048V165.784C124.389 165.048 125.114 164.68 126.181 164.68H126.773C126.88 164.68 126.965 164.712 127.029 164.776C127.093 164.84 127.125 164.925 127.125 165.032V165.256C127.125 165.363 127.093 165.448 127.029 165.512C126.965 165.576 126.88 165.608 126.773 165.608H126.085C125.445 165.608 124.938 165.795 124.565 166.168C124.192 166.541 124.005 167.048 124.005 167.688V172.648C124.005 172.755 123.968 172.84 123.893 172.904C123.829 172.968 123.744 173 123.637 173H123.381ZM130.787 173.16C130.275 173.16 129.8 173.053 129.363 172.84C128.925 172.627 128.573 172.339 128.307 171.976C128.051 171.613 127.923 171.213 127.923 170.776C127.923 170.072 128.205 169.496 128.771 169.048C129.347 168.6 130.12 168.312 131.091 168.184L133.619 167.832V167.272C133.619 166.685 133.437 166.237 133.075 165.928C132.723 165.608 132.179 165.448 131.443 165.448C130.899 165.448 130.451 165.555 130.099 165.768C129.757 165.981 129.539 166.237 129.443 166.536C129.4 166.664 129.347 166.755 129.283 166.808C129.229 166.851 129.155 166.872 129.059 166.872H128.835C128.739 166.872 128.653 166.84 128.579 166.776C128.515 166.701 128.483 166.616 128.483 166.52C128.483 166.285 128.589 166.013 128.803 165.704C129.016 165.384 129.347 165.107 129.795 164.872C130.243 164.637 130.792 164.52 131.443 164.52C132.584 164.52 133.395 164.792 133.875 165.336C134.355 165.88 134.595 166.541 134.595 167.32V172.648C134.595 172.755 134.563 172.84 134.499 172.904C134.435 172.968 134.349 173 134.243 173H133.971C133.864 173 133.779 172.968 133.715 172.904C133.651 172.84 133.619 172.755 133.619 172.648V171.896C133.384 172.248 133.037 172.547 132.579 172.792C132.131 173.037 131.533 173.16 130.787 173.16ZM130.947 172.232C131.725 172.232 132.365 171.976 132.867 171.464C133.368 170.952 133.619 170.216 133.619 169.256V168.712L131.555 169C130.68 169.117 130.019 169.32 129.571 169.608C129.123 169.896 128.899 170.259 128.899 170.696C128.899 171.187 129.101 171.565 129.507 171.832C129.923 172.099 130.403 172.232 130.947 172.232ZM142.233 173C142.127 173 142.041 172.968 141.977 172.904C141.913 172.84 141.881 172.755 141.881 172.648V165.608H140.457C140.351 165.608 140.265 165.576 140.201 165.512C140.137 165.448 140.105 165.363 140.105 165.256V165.032C140.105 164.925 140.137 164.84 140.201 164.776C140.265 164.712 140.351 164.68 140.457 164.68H141.881V163.768C141.881 162.957 142.057 162.323 142.409 161.864C142.761 161.395 143.391 161.16 144.297 161.16H145.129C145.236 161.16 145.321 161.192 145.385 161.256C145.449 161.32 145.481 161.405 145.481 161.512V161.736C145.481 161.843 145.449 161.928 145.385 161.992C145.321 162.056 145.236 162.088 145.129 162.088H144.297C143.753 162.088 143.375 162.232 143.161 162.52C142.959 162.797 142.857 163.24 142.857 163.848V164.68H144.969C145.076 164.68 145.161 164.712 145.225 164.776C145.289 164.84 145.321 164.925 145.321 165.032V165.256C145.321 165.363 145.289 165.448 145.225 165.512C145.161 165.576 145.076 165.608 144.969 165.608H142.857V172.648C142.857 172.755 142.825 172.84 142.761 172.904C142.697 172.968 142.612 173 142.505 173H142.233ZM149.939 173.16C148.83 173.16 147.966 172.824 147.347 172.152C146.739 171.469 146.419 170.589 146.387 169.512L146.371 168.84L146.387 168.168C146.419 167.091 146.739 166.216 147.347 165.544C147.966 164.861 148.83 164.52 149.939 164.52C151.048 164.52 151.907 164.861 152.515 165.544C153.134 166.216 153.459 167.091 153.491 168.168C153.502 168.275 153.507 168.499 153.507 168.84C153.507 169.181 153.502 169.405 153.491 169.512C153.459 170.589 153.134 171.469 152.515 172.152C151.907 172.824 151.048 173.16 149.939 173.16ZM149.939 172.232C150.696 172.232 151.304 171.992 151.763 171.512C152.232 171.021 152.483 170.328 152.515 169.432C152.526 169.325 152.531 169.128 152.531 168.84C152.531 168.552 152.526 168.355 152.515 168.248C152.483 167.352 152.232 166.664 151.763 166.184C151.304 165.693 150.696 165.448 149.939 165.448C149.182 165.448 148.568 165.693 148.099 166.184C147.64 166.664 147.395 167.352 147.363 168.248L147.347 168.84L147.363 169.432C147.395 170.328 147.64 171.021 148.099 171.512C148.568 171.992 149.182 172.232 149.939 172.232ZM148.403 162.968C148.296 162.968 148.211 162.936 148.147 162.872C148.083 162.808 148.051 162.723 148.051 162.616V162.008C148.051 161.901 148.083 161.816 148.147 161.752C148.211 161.677 148.296 161.64 148.403 161.64H149.011C149.118 161.64 149.203 161.677 149.267 161.752C149.342 161.816 149.379 161.901 149.379 162.008V162.616C149.379 162.723 149.342 162.808 149.267 162.872C149.203 162.936 149.118 162.968 149.011 162.968H148.403ZM150.851 162.968C150.744 162.968 150.659 162.936 150.595 162.872C150.531 162.808 150.499 162.723 150.499 162.616V162.008C150.499 161.901 150.531 161.816 150.595 161.752C150.659 161.677 150.744 161.64 150.851 161.64H151.459C151.566 161.64 151.651 161.677 151.715 161.752C151.79 161.816 151.827 161.901 151.827 162.008V162.616C151.827 162.723 151.79 162.808 151.715 162.872C151.651 162.936 151.566 162.968 151.459 162.968H150.851ZM156.125 173C156.018 173 155.933 172.968 155.869 172.904C155.805 172.84 155.773 172.755 155.773 172.648V165.048C155.773 164.941 155.805 164.856 155.869 164.792C155.933 164.717 156.018 164.68 156.125 164.68H156.381C156.488 164.68 156.573 164.717 156.637 164.792C156.712 164.856 156.749 164.941 156.749 165.048V165.784C157.133 165.048 157.858 164.68 158.925 164.68H159.517C159.624 164.68 159.709 164.712 159.773 164.776C159.837 164.84 159.869 164.925 159.869 165.032V165.256C159.869 165.363 159.837 165.448 159.773 165.512C159.709 165.576 159.624 165.608 159.517 165.608H158.829C158.189 165.608 157.682 165.795 157.309 166.168C156.936 166.541 156.749 167.048 156.749 167.688V172.648C156.749 172.755 156.712 172.84 156.637 172.904C156.573 172.968 156.488 173 156.381 173H156.125ZM167.47 173.16C166.958 173.16 166.483 173.053 166.046 172.84C165.608 172.627 165.256 172.339 164.99 171.976C164.734 171.613 164.606 171.213 164.606 170.776C164.606 170.072 164.888 169.496 165.454 169.048C166.03 168.6 166.803 168.312 167.774 168.184L170.302 167.832V167.272C170.302 166.685 170.12 166.237 169.758 165.928C169.406 165.608 168.862 165.448 168.126 165.448C167.582 165.448 167.134 165.555 166.782 165.768C166.44 165.981 166.222 166.237 166.126 166.536C166.083 166.664 166.03 166.755 165.966 166.808C165.912 166.851 165.838 166.872 165.742 166.872H165.518C165.422 166.872 165.336 166.84 165.262 166.776C165.198 166.701 165.166 166.616 165.166 166.52C165.166 166.285 165.272 166.013 165.486 165.704C165.699 165.384 166.03 165.107 166.478 164.872C166.926 164.637 167.475 164.52 168.126 164.52C169.267 164.52 170.078 164.792 170.558 165.336C171.038 165.88 171.278 166.541 171.278 167.32V172.648C171.278 172.755 171.246 172.84 171.182 172.904C171.118 172.968 171.032 173 170.926 173H170.654C170.547 173 170.462 172.968 170.398 172.904C170.334 172.84 170.302 172.755 170.302 172.648V171.896C170.067 172.248 169.72 172.547 169.262 172.792C168.814 173.037 168.216 173.16 167.47 173.16ZM167.63 172.232C168.408 172.232 169.048 171.976 169.55 171.464C170.051 170.952 170.302 170.216 170.302 169.256V168.712L168.238 169C167.363 169.117 166.702 169.32 166.254 169.608C165.806 169.896 165.582 170.259 165.582 170.696C165.582 171.187 165.784 171.565 166.19 171.832C166.606 172.099 167.086 172.232 167.63 172.232ZM176.61 173C175.82 173 175.26 172.765 174.93 172.296C174.599 171.816 174.434 171.16 174.434 170.328V165.608H173.186C173.079 165.608 172.994 165.576 172.93 165.512C172.866 165.448 172.834 165.363 172.834 165.256V165.032C172.834 164.925 172.866 164.84 172.93 164.776C172.994 164.712 173.079 164.68 173.186 164.68H174.434V161.992C174.434 161.885 174.466 161.8 174.53 161.736C174.594 161.672 174.679 161.64 174.786 161.64H175.058C175.164 161.64 175.25 161.672 175.314 161.736C175.378 161.8 175.41 161.885 175.41 161.992V164.68H177.394C177.5 164.68 177.586 164.712 177.65 164.776C177.714 164.84 177.746 164.925 177.746 165.032V165.256C177.746 165.363 177.714 165.448 177.65 165.512C177.586 165.576 177.5 165.608 177.394 165.608H175.41V170.264C175.41 170.861 175.506 171.315 175.698 171.624C175.9 171.923 176.231 172.072 176.69 172.072H177.554C177.66 172.072 177.746 172.104 177.81 172.168C177.874 172.232 177.906 172.317 177.906 172.424V172.648C177.906 172.755 177.874 172.84 177.81 172.904C177.746 172.968 177.66 173 177.554 173H176.61ZM182.44 173C181.65 173 181.09 172.765 180.76 172.296C180.429 171.816 180.264 171.16 180.264 170.328V165.608H179.016C178.909 165.608 178.824 165.576 178.76 165.512C178.696 165.448 178.664 165.363 178.664 165.256V165.032C178.664 164.925 178.696 164.84 178.76 164.776C178.824 164.712 178.909 164.68 179.016 164.68H180.264V161.992C180.264 161.885 180.296 161.8 180.36 161.736C180.424 161.672 180.509 161.64 180.616 161.64H180.888C180.994 161.64 181.08 161.672 181.144 161.736C181.208 161.8 181.24 161.885 181.24 161.992V164.68H183.224C183.33 164.68 183.416 164.712 183.48 164.776C183.544 164.84 183.576 164.925 183.576 165.032V165.256C183.576 165.363 183.544 165.448 183.48 165.512C183.416 165.576 183.33 165.608 183.224 165.608H181.24V170.264C181.24 170.861 181.336 171.315 181.528 171.624C181.73 171.923 182.061 172.072 182.52 172.072H183.384C183.49 172.072 183.576 172.104 183.64 172.168C183.704 172.232 183.736 172.317 183.736 172.424V172.648C183.736 172.755 183.704 172.84 183.64 172.904C183.576 172.968 183.49 173 183.384 173H182.44ZM3.936 197.16C3.24267 197.16 2.656 197.043 2.176 196.808C1.70667 196.573 1.34933 196.307 1.104 196.008C0.869333 195.709 0.752 195.469 0.752 195.288C0.752 195.192 0.789333 195.117 0.864 195.064C0.938667 195 1.01867 194.968 1.104 194.968H1.344C1.41867 194.968 1.47733 194.984 1.52 195.016C1.57333 195.037 1.632 195.091 1.696 195.176C1.93067 195.507 2.21333 195.768 2.544 195.96C2.88533 196.141 3.34933 196.232 3.936 196.232C4.59733 196.232 5.13067 196.109 5.536 195.864C5.94133 195.608 6.144 195.245 6.144 194.776C6.144 194.488 6.05867 194.253 5.888 194.072C5.728 193.891 5.46133 193.736 5.088 193.608C4.72533 193.469 4.18133 193.315 3.456 193.144C2.50667 192.931 1.856 192.637 1.504 192.264C1.16267 191.891 0.992 191.416 0.992 190.84C0.992 190.445 1.09867 190.072 1.312 189.72C1.536 189.368 1.86133 189.08 2.288 188.856C2.72533 188.632 3.248 188.52 3.856 188.52C4.496 188.52 5.03467 188.632 5.472 188.856C5.92 189.069 6.25067 189.32 6.464 189.608C6.688 189.896 6.8 190.131 6.8 190.312C6.8 190.408 6.76267 190.488 6.688 190.552C6.624 190.605 6.544 190.632 6.448 190.632H6.208C6.05867 190.632 5.94133 190.563 5.856 190.424C5.64267 190.104 5.39733 189.864 5.12 189.704C4.85333 189.533 4.432 189.448 3.856 189.448C3.23733 189.448 2.768 189.576 2.448 189.832C2.128 190.088 1.968 190.424 1.968 190.84C1.968 191.096 2.032 191.309 2.16 191.48C2.288 191.651 2.528 191.811 2.88 191.96C3.232 192.099 3.744 192.243 4.416 192.392C5.408 192.616 6.10667 192.915 6.512 193.288C6.91733 193.661 7.12 194.157 7.12 194.776C7.12 195.213 6.99733 195.613 6.752 195.976C6.50667 196.339 6.144 196.627 5.664 196.84C5.184 197.053 4.608 197.16 3.936 197.16ZM11.491 197.16C10.979 197.16 10.5043 197.053 10.067 196.84C9.62967 196.627 9.27767 196.339 9.011 195.976C8.755 195.613 8.627 195.213 8.627 194.776C8.627 194.072 8.90967 193.496 9.475 193.048C10.051 192.6 10.8243 192.312 11.795 192.184L14.323 191.832V191.272C14.323 190.685 14.1417 190.237 13.779 189.928C13.427 189.608 12.883 189.448 12.147 189.448C11.603 189.448 11.155 189.555 10.803 189.768C10.4617 189.981 10.243 190.237 10.147 190.536C10.1043 190.664 10.051 190.755 9.987 190.808C9.93367 190.851 9.859 190.872 9.763 190.872H9.539C9.443 190.872 9.35767 190.84 9.283 190.776C9.219 190.701 9.187 190.616 9.187 190.52C9.187 190.285 9.29367 190.013 9.507 189.704C9.72033 189.384 10.051 189.107 10.499 188.872C10.947 188.637 11.4963 188.52 12.147 188.52C13.2883 188.52 14.099 188.792 14.579 189.336C15.059 189.88 15.299 190.541 15.299 191.32V196.648C15.299 196.755 15.267 196.84 15.203 196.904C15.139 196.968 15.0537 197 14.947 197H14.675C14.5683 197 14.483 196.968 14.419 196.904C14.355 196.84 14.323 196.755 14.323 196.648V195.896C14.0883 196.248 13.7417 196.547 13.283 196.792C12.835 197.037 12.2377 197.16 11.491 197.16ZM11.651 196.232C12.4297 196.232 13.0697 195.976 13.571 195.464C14.0723 194.952 14.323 194.216 14.323 193.256V192.712L12.259 193C11.3843 193.117 10.723 193.32 10.275 193.608C9.827 193.896 9.603 194.259 9.603 194.696C9.603 195.187 9.80567 195.565 10.211 195.832C10.627 196.099 11.107 196.232 11.651 196.232ZM18.2611 197C18.1545 197 18.0691 196.968 18.0051 196.904C17.9411 196.84 17.9091 196.755 17.9091 196.648V189.032C17.9091 188.925 17.9411 188.84 18.0051 188.776C18.0691 188.712 18.1545 188.68 18.2611 188.68H18.5331C18.6398 188.68 18.7251 188.712 18.7891 188.776C18.8531 188.84 18.8851 188.925 18.8851 189.032V189.592C19.1625 189.24 19.4825 188.973 19.8451 188.792C20.2185 188.611 20.6611 188.52 21.1731 188.52C22.3678 188.52 23.2211 189.021 23.7331 190.024C23.9891 189.565 24.3518 189.203 24.8211 188.936C25.3011 188.659 25.8451 188.52 26.4531 188.52C27.3385 188.52 28.0585 188.824 28.6131 189.432C29.1678 190.029 29.4451 190.883 29.4451 191.992V196.648C29.4451 196.755 29.4131 196.84 29.3491 196.904C29.2851 196.968 29.1998 197 29.0931 197H28.8211C28.7145 197 28.6291 196.968 28.5651 196.904C28.5011 196.84 28.4691 196.755 28.4691 196.648V192.152C28.4691 191.181 28.2665 190.488 27.8611 190.072C27.4665 189.656 26.9438 189.448 26.2931 189.448C25.7171 189.448 25.2158 189.661 24.7891 190.088C24.3731 190.504 24.1651 191.192 24.1651 192.152V196.648C24.1651 196.755 24.1331 196.84 24.0691 196.904C24.0051 196.968 23.9198 197 23.8131 197H23.5411C23.4345 197 23.3491 196.968 23.2851 196.904C23.2211 196.84 23.1891 196.755 23.1891 196.648V192.152C23.1891 191.192 22.9811 190.504 22.5651 190.088C22.1491 189.661 21.6318 189.448 21.0131 189.448C20.4371 189.448 19.9358 189.661 19.5091 190.088C19.0931 190.504 18.8851 191.187 18.8851 192.136V196.648C18.8851 196.755 18.8531 196.84 18.7891 196.904C18.7251 196.968 18.6398 197 18.5331 197H18.2611ZM32.404 197C32.2973 197 32.212 196.968 32.148 196.904C32.084 196.84 32.052 196.755 32.052 196.648V185.992C32.052 185.885 32.084 185.8 32.148 185.736C32.212 185.672 32.2973 185.64 32.404 185.64H32.676C32.7827 185.64 32.868 185.672 32.932 185.736C32.996 185.8 33.028 185.885 33.028 185.992V196.648C33.028 196.755 32.996 196.84 32.932 196.904C32.868 196.968 32.7827 197 32.676 197H32.404ZM37.9497 197.16C37.4377 197.16 36.9631 197.053 36.5257 196.84C36.0884 196.627 35.7364 196.339 35.4697 195.976C35.2137 195.613 35.0857 195.213 35.0857 194.776C35.0857 194.072 35.3684 193.496 35.9337 193.048C36.5097 192.6 37.2831 192.312 38.2537 192.184L40.7818 191.832V191.272C40.7818 190.685 40.6004 190.237 40.2378 189.928C39.8858 189.608 39.3418 189.448 38.6058 189.448C38.0617 189.448 37.6137 189.555 37.2617 189.768C36.9204 189.981 36.7017 190.237 36.6057 190.536C36.5631 190.664 36.5097 190.755 36.4457 190.808C36.3924 190.851 36.3177 190.872 36.2217 190.872H35.9977C35.9017 190.872 35.8164 190.84 35.7417 190.776C35.6777 190.701 35.6457 190.616 35.6457 190.52C35.6457 190.285 35.7524 190.013 35.9657 189.704C36.1791 189.384 36.5097 189.107 36.9577 188.872C37.4057 188.637 37.9551 188.52 38.6058 188.52C39.7471 188.52 40.5578 188.792 41.0378 189.336C41.5178 189.88 41.7578 190.541 41.7578 191.32V196.648C41.7578 196.755 41.7257 196.84 41.6617 196.904C41.5978 196.968 41.5124 197 41.4057 197H41.1337C41.0271 197 40.9418 196.968 40.8777 196.904C40.8138 196.84 40.7818 196.755 40.7818 196.648V195.896C40.5471 196.248 40.2004 196.547 39.7417 196.792C39.2937 197.037 38.6964 197.16 37.9497 197.16ZM38.1097 196.232C38.8884 196.232 39.5284 195.976 40.0297 195.464C40.5311 194.952 40.7818 194.216 40.7818 193.256V192.712L38.7178 193C37.8431 193.117 37.1817 193.32 36.7337 193.608C36.2857 193.896 36.0617 194.259 36.0617 194.696C36.0617 195.187 36.2644 195.565 36.6697 195.832C37.0857 196.099 37.5657 196.232 38.1097 196.232ZM51.2129 197.16C50.5195 197.16 49.9329 197.043 49.4529 196.808C48.9835 196.573 48.6262 196.307 48.3809 196.008C48.1462 195.709 48.0289 195.469 48.0289 195.288C48.0289 195.192 48.0662 195.117 48.1409 195.064C48.2155 195 48.2955 194.968 48.3809 194.968H48.6209C48.6955 194.968 48.7542 194.984 48.7969 195.016C48.8502 195.037 48.9089 195.091 48.9729 195.176C49.2075 195.507 49.4902 195.768 49.8209 195.96C50.1622 196.141 50.6262 196.232 51.2129 196.232C51.8742 196.232 52.4075 196.109 52.8129 195.864C53.2182 195.608 53.4209 195.245 53.4209 194.776C53.4209 194.488 53.3355 194.253 53.1649 194.072C53.0049 193.891 52.7382 193.736 52.3649 193.608C52.0022 193.469 51.4582 193.315 50.7329 193.144C49.7835 192.931 49.1329 192.637 48.7809 192.264C48.4395 191.891 48.2689 191.416 48.2689 190.84C48.2689 190.445 48.3755 190.072 48.5889 189.72C48.8129 189.368 49.1382 189.08 49.5649 188.856C50.0022 188.632 50.5249 188.52 51.1329 188.52C51.7729 188.52 52.3115 188.632 52.7489 188.856C53.1969 189.069 53.5275 189.32 53.7409 189.608C53.9649 189.896 54.0769 190.131 54.0769 190.312C54.0769 190.408 54.0395 190.488 53.9649 190.552C53.9009 190.605 53.8209 190.632 53.7249 190.632H53.4849C53.3355 190.632 53.2182 190.563 53.1329 190.424C52.9195 190.104 52.6742 189.864 52.3969 189.704C52.1302 189.533 51.7089 189.448 51.1329 189.448C50.5142 189.448 50.0449 189.576 49.7249 189.832C49.4049 190.088 49.2449 190.424 49.2449 190.84C49.2449 191.096 49.3089 191.309 49.4369 191.48C49.5649 191.651 49.8049 191.811 50.1569 191.96C50.5089 192.099 51.0209 192.243 51.6929 192.392C52.6849 192.616 53.3835 192.915 53.7889 193.288C54.1942 193.661 54.3969 194.157 54.3969 194.776C54.3969 195.213 54.2742 195.613 54.0289 195.976C53.7835 196.339 53.4209 196.627 52.9409 196.84C52.4609 197.053 51.8849 197.16 51.2129 197.16ZM59.3279 197C58.5385 197 57.9785 196.765 57.6479 196.296C57.3172 195.816 57.1519 195.16 57.1519 194.328V189.608H55.9039C55.7972 189.608 55.7119 189.576 55.6479 189.512C55.5839 189.448 55.5519 189.363 55.5519 189.256V189.032C55.5519 188.925 55.5839 188.84 55.6479 188.776C55.7119 188.712 55.7972 188.68 55.9039 188.68H57.1519V185.992C57.1519 185.885 57.1839 185.8 57.2479 185.736C57.3119 185.672 57.3972 185.64 57.5039 185.64H57.7759C57.8825 185.64 57.9679 185.672 58.0319 185.736C58.0959 185.8 58.1279 185.885 58.1279 185.992V188.68H60.1119C60.2185 188.68 60.3039 188.712 60.3679 188.776C60.4319 188.84 60.4639 188.925 60.4639 189.032V189.256C60.4639 189.363 60.4319 189.448 60.3679 189.512C60.3039 189.576 60.2185 189.608 60.1119 189.608H58.1279V194.264C58.1279 194.861 58.2239 195.315 58.4159 195.624C58.6185 195.923 58.9492 196.072 59.4079 196.072H60.2719C60.3785 196.072 60.4639 196.104 60.5279 196.168C60.5919 196.232 60.6239 196.317 60.6239 196.424V196.648C60.6239 196.755 60.5919 196.84 60.5279 196.904C60.4639 196.968 60.3785 197 60.2719 197H59.3279ZM65.4459 197.16C64.4325 197.16 63.6165 196.829 62.9979 196.168C62.3792 195.496 62.0272 194.6 61.9419 193.48L61.9259 192.84L61.9419 192.2C62.0272 191.091 62.3739 190.2 62.9819 189.528C63.6005 188.856 64.4219 188.52 65.4459 188.52C66.5552 188.52 67.4192 188.888 68.0379 189.624C68.6672 190.36 68.9819 191.368 68.9819 192.648V192.888C68.9819 192.995 68.9445 193.08 68.8699 193.144C68.8059 193.208 68.7205 193.24 68.6139 193.24H62.9179V193.4C62.9392 193.901 63.0512 194.371 63.2539 194.808C63.4672 195.235 63.7605 195.581 64.1339 195.848C64.5072 196.104 64.9445 196.232 65.4459 196.232C66.0325 196.232 66.5072 196.12 66.8699 195.896C67.2432 195.661 67.5099 195.427 67.6699 195.192C67.7659 195.064 67.8352 194.984 67.8779 194.952C67.9312 194.92 68.0219 194.904 68.1499 194.904H68.4059C68.5019 194.904 68.5819 194.931 68.6459 194.984C68.7099 195.037 68.7419 195.107 68.7419 195.192C68.7419 195.416 68.5979 195.688 68.3099 196.008C68.0325 196.317 67.6432 196.589 67.1419 196.824C66.6405 197.048 66.0752 197.16 65.4459 197.16ZM68.0059 192.344V192.28C68.0059 191.459 67.7712 190.781 67.3019 190.248C66.8432 189.715 66.2245 189.448 65.4459 189.448C64.6672 189.448 64.0485 189.715 63.5899 190.248C63.1419 190.781 62.9179 191.459 62.9179 192.28V192.344H68.0059ZM74.2763 200.52C73.4443 200.52 72.7776 200.376 72.2763 200.088C71.7749 199.8 71.4229 199.469 71.2203 199.096C71.0283 198.733 70.9323 198.413 70.9323 198.136C70.9323 198.04 70.9643 197.96 71.0283 197.896C71.1029 197.832 71.1883 197.8 71.2843 197.8H71.5083C71.6043 197.8 71.6789 197.821 71.7323 197.864C71.7963 197.917 71.8496 198.008 71.8923 198.136C72.2229 199.107 72.9909 199.592 74.1963 199.592C75.1136 199.592 75.7909 199.4 76.2283 199.016C76.6656 198.643 76.8843 197.971 76.8843 197V195.896C76.2656 196.739 75.3696 197.16 74.1963 197.16C73.0443 197.16 72.1909 196.787 71.6363 196.04C71.0923 195.283 70.8043 194.365 70.7723 193.288L70.7563 192.84L70.7723 192.392C70.8043 191.315 71.0923 190.403 71.6363 189.656C72.1909 188.899 73.0443 188.52 74.1963 188.52C75.3589 188.52 76.2549 188.941 76.8843 189.784V189.048C76.8843 188.941 76.9163 188.856 76.9803 188.792C77.0443 188.717 77.1296 188.68 77.2363 188.68H77.4923C77.5989 188.68 77.6843 188.717 77.7483 188.792C77.8229 188.856 77.8603 188.941 77.8603 189.048V196.84C77.8603 197.981 77.5936 198.877 77.0603 199.528C76.5269 200.189 75.5989 200.52 74.2763 200.52ZM74.2923 196.232C75.1349 196.232 75.7696 195.955 76.1963 195.4C76.6229 194.835 76.8523 194.173 76.8843 193.416C76.8949 193.309 76.9003 193.117 76.9003 192.84C76.9003 192.563 76.8949 192.371 76.8843 192.264C76.8523 191.507 76.6229 190.851 76.1963 190.296C75.7696 189.731 75.1349 189.448 74.2923 189.448C73.4283 189.448 72.7936 189.725 72.3883 190.28C71.9936 190.824 71.7803 191.528 71.7483 192.392L71.7323 192.84L71.7483 193.288C71.7803 194.152 71.9936 194.861 72.3883 195.416C72.7936 195.96 73.4283 196.232 74.2923 196.232ZM87.3941 197.16C86.7008 197.16 86.1141 197.043 85.6341 196.808C85.1648 196.573 84.8075 196.307 84.5621 196.008C84.3275 195.709 84.2101 195.469 84.2101 195.288C84.2101 195.192 84.2475 195.117 84.3221 195.064C84.3968 195 84.4768 194.968 84.5621 194.968H84.8021C84.8768 194.968 84.9355 194.984 84.9781 195.016C85.0315 195.037 85.0901 195.091 85.1541 195.176C85.3888 195.507 85.6715 195.768 86.0021 195.96C86.3435 196.141 86.8075 196.232 87.3941 196.232C88.0555 196.232 88.5888 196.109 88.9941 195.864C89.3995 195.608 89.6021 195.245 89.6021 194.776C89.6021 194.488 89.5168 194.253 89.3461 194.072C89.1861 193.891 88.9195 193.736 88.5461 193.608C88.1835 193.469 87.6395 193.315 86.9141 193.144C85.9648 192.931 85.3141 192.637 84.9621 192.264C84.6208 191.891 84.4501 191.416 84.4501 190.84C84.4501 190.445 84.5568 190.072 84.7701 189.72C84.9941 189.368 85.3195 189.08 85.7461 188.856C86.1835 188.632 86.7061 188.52 87.3141 188.52C87.9541 188.52 88.4928 188.632 88.9301 188.856C89.3781 189.069 89.7088 189.32 89.9221 189.608C90.1461 189.896 90.2581 190.131 90.2581 190.312C90.2581 190.408 90.2208 190.488 90.1461 190.552C90.0821 190.605 90.0021 190.632 89.9061 190.632H89.6661C89.5168 190.632 89.3995 190.563 89.3141 190.424C89.1008 190.104 88.8555 189.864 88.5781 189.704C88.3115 189.533 87.8901 189.448 87.3141 189.448C86.6955 189.448 86.2261 189.576 85.9061 189.832C85.5861 190.088 85.4261 190.424 85.4261 190.84C85.4261 191.096 85.4901 191.309 85.6181 191.48C85.7461 191.651 85.9861 191.811 86.3381 191.96C86.6901 192.099 87.2021 192.243 87.8741 192.392C88.8661 192.616 89.5648 192.915 89.9701 193.288C90.3755 193.661 90.5781 194.157 90.5781 194.776C90.5781 195.213 90.4555 195.613 90.2101 195.976C89.9648 196.339 89.6021 196.627 89.1221 196.84C88.6421 197.053 88.0661 197.16 87.3941 197.16ZM95.8771 197.16C94.7678 197.16 93.9038 196.824 93.2851 196.152C92.6771 195.469 92.3571 194.589 92.3251 193.512L92.3091 192.84L92.3251 192.168C92.3571 191.091 92.6771 190.216 93.2851 189.544C93.9038 188.861 94.7678 188.52 95.8771 188.52C96.9865 188.52 97.8451 188.861 98.4531 189.544C99.0718 190.216 99.3971 191.091 99.4291 192.168C99.4398 192.275 99.4451 192.499 99.4451 192.84C99.4451 193.181 99.4398 193.405 99.4291 193.512C99.3971 194.589 99.0718 195.469 98.4531 196.152C97.8451 196.824 96.9865 197.16 95.8771 197.16ZM95.8771 196.232C96.6345 196.232 97.2425 195.992 97.7011 195.512C98.1705 195.021 98.4211 194.328 98.4531 193.432C98.4638 193.325 98.4691 193.128 98.4691 192.84C98.4691 192.552 98.4638 192.355 98.4531 192.248C98.4211 191.352 98.1705 190.664 97.7011 190.184C97.2425 189.693 96.6345 189.448 95.8771 189.448C95.1198 189.448 94.5065 189.693 94.0371 190.184C93.5785 190.664 93.3331 191.352 93.3011 192.248L93.2851 192.84L93.3011 193.432C93.3331 194.328 93.5785 195.021 94.0371 195.512C94.5065 195.992 95.1198 196.232 95.8771 196.232ZM102.063 197C101.956 197 101.871 196.968 101.807 196.904C101.743 196.84 101.711 196.755 101.711 196.648V189.032C101.711 188.925 101.743 188.84 101.807 188.776C101.871 188.712 101.956 188.68 102.063 188.68H102.335C102.442 188.68 102.527 188.712 102.591 188.776C102.655 188.84 102.687 188.925 102.687 189.032V189.592C102.964 189.24 103.284 188.973 103.647 188.792C104.02 188.611 104.463 188.52 104.975 188.52C106.17 188.52 107.023 189.021 107.535 190.024C107.791 189.565 108.154 189.203 108.623 188.936C109.103 188.659 109.647 188.52 110.255 188.52C111.14 188.52 111.86 188.824 112.415 189.432C112.97 190.029 113.247 190.883 113.247 191.992V196.648C113.247 196.755 113.215 196.84 113.151 196.904C113.087 196.968 113.002 197 112.895 197H112.623C112.516 197 112.431 196.968 112.367 196.904C112.303 196.84 112.271 196.755 112.271 196.648V192.152C112.271 191.181 112.068 190.488 111.663 190.072C111.268 189.656 110.746 189.448 110.095 189.448C109.519 189.448 109.018 189.661 108.591 190.088C108.175 190.504 107.967 191.192 107.967 192.152V196.648C107.967 196.755 107.935 196.84 107.871 196.904C107.807 196.968 107.722 197 107.615 197H107.343C107.236 197 107.151 196.968 107.087 196.904C107.023 196.84 106.991 196.755 106.991 196.648V192.152C106.991 191.192 106.783 190.504 106.367 190.088C105.951 189.661 105.434 189.448 104.815 189.448C104.239 189.448 103.738 189.661 103.311 190.088C102.895 190.504 102.687 191.187 102.687 192.136V196.648C102.687 196.755 102.655 196.84 102.591 196.904C102.527 196.968 102.442 197 102.335 197H102.063ZM120.411 197C120.304 197 120.219 196.968 120.155 196.904C120.091 196.84 120.059 196.755 120.059 196.648V185.992C120.059 185.885 120.091 185.8 120.155 185.736C120.219 185.672 120.304 185.64 120.411 185.64H120.683C120.79 185.64 120.875 185.672 120.939 185.736C121.003 185.8 121.035 185.885 121.035 185.992V196.648C121.035 196.755 121.003 196.84 120.939 196.904C120.875 196.968 120.79 197 120.683 197H120.411ZM125.957 197.16C125.445 197.16 124.97 197.053 124.533 196.84C124.095 196.627 123.743 196.339 123.477 195.976C123.221 195.613 123.093 195.213 123.093 194.776C123.093 194.072 123.375 193.496 123.941 193.048C124.517 192.6 125.29 192.312 126.261 192.184L128.789 191.832V191.272C128.789 190.685 128.607 190.237 128.245 189.928C127.893 189.608 127.349 189.448 126.613 189.448C126.069 189.448 125.621 189.555 125.269 189.768C124.927 189.981 124.709 190.237 124.613 190.536C124.57 190.664 124.517 190.755 124.453 190.808C124.399 190.851 124.325 190.872 124.229 190.872H124.005C123.909 190.872 123.823 190.84 123.749 190.776C123.685 190.701 123.653 190.616 123.653 190.52C123.653 190.285 123.759 190.013 123.973 189.704C124.186 189.384 124.517 189.107 124.965 188.872C125.413 188.637 125.962 188.52 126.613 188.52C127.754 188.52 128.565 188.792 129.045 189.336C129.525 189.88 129.765 190.541 129.765 191.32V196.648C129.765 196.755 129.733 196.84 129.669 196.904C129.605 196.968 129.519 197 129.413 197H129.141C129.034 197 128.949 196.968 128.885 196.904C128.821 196.84 128.789 196.755 128.789 196.648V195.896C128.554 196.248 128.207 196.547 127.749 196.792C127.301 197.037 126.703 197.16 125.957 197.16ZM126.117 196.232C126.895 196.232 127.535 195.976 128.037 195.464C128.538 194.952 128.789 194.216 128.789 193.256V192.712L126.725 193C125.85 193.117 125.189 193.32 124.741 193.608C124.293 193.896 124.069 194.259 124.069 194.696C124.069 195.187 124.271 195.565 124.677 195.832C125.093 196.099 125.573 196.232 126.117 196.232ZM126.581 187.56C126.218 187.56 125.914 187.448 125.669 187.224C125.423 187 125.301 186.712 125.301 186.36C125.301 186.008 125.423 185.72 125.669 185.496C125.914 185.272 126.218 185.16 126.581 185.16C126.943 185.16 127.247 185.272 127.493 185.496C127.738 185.72 127.861 186.008 127.861 186.36C127.861 186.712 127.738 187 127.493 187.224C127.247 187.448 126.943 187.56 126.581 187.56ZM126.581 186.84C126.719 186.84 126.831 186.797 126.917 186.712C127.013 186.616 127.061 186.499 127.061 186.36C127.061 186.221 127.013 186.109 126.917 186.024C126.831 185.928 126.719 185.88 126.581 185.88C126.442 185.88 126.325 185.928 126.229 186.024C126.143 186.109 126.101 186.221 126.101 186.36C126.101 186.499 126.143 186.616 126.229 186.712C126.325 186.797 126.442 186.84 126.581 186.84ZM135.015 197.16C134.321 197.16 133.735 197.043 133.255 196.808C132.785 196.573 132.428 196.307 132.183 196.008C131.948 195.709 131.831 195.469 131.831 195.288C131.831 195.192 131.868 195.117 131.943 195.064C132.017 195 132.097 194.968 132.183 194.968H132.423C132.497 194.968 132.556 194.984 132.599 195.016C132.652 195.037 132.711 195.091 132.775 195.176C133.009 195.507 133.292 195.768 133.623 195.96C133.964 196.141 134.428 196.232 135.015 196.232C135.676 196.232 136.209 196.109 136.615 195.864C137.02 195.608 137.223 195.245 137.223 194.776C137.223 194.488 137.137 194.253 136.967 194.072C136.807 193.891 136.54 193.736 136.167 193.608C135.804 193.469 135.26 193.315 134.535 193.144C133.585 192.931 132.935 192.637 132.583 192.264C132.241 191.891 132.071 191.416 132.071 190.84C132.071 190.445 132.177 190.072 132.391 189.72C132.615 189.368 132.94 189.08 133.367 188.856C133.804 188.632 134.327 188.52 134.935 188.52C135.575 188.52 136.113 188.632 136.551 188.856C136.999 189.069 137.329 189.32 137.543 189.608C137.767 189.896 137.879 190.131 137.879 190.312C137.879 190.408 137.841 190.488 137.767 190.552C137.703 190.605 137.623 190.632 137.527 190.632H137.287C137.137 190.632 137.02 190.563 136.935 190.424C136.721 190.104 136.476 189.864 136.199 189.704C135.932 189.533 135.511 189.448 134.935 189.448C134.316 189.448 133.847 189.576 133.527 189.832C133.207 190.088 133.047 190.424 133.047 190.84C133.047 191.096 133.111 191.309 133.239 191.48C133.367 191.651 133.607 191.811 133.959 191.96C134.311 192.099 134.823 192.243 135.495 192.392C136.487 192.616 137.185 192.915 137.591 193.288C137.996 193.661 138.199 194.157 138.199 194.776C138.199 195.213 138.076 195.613 137.831 195.976C137.585 196.339 137.223 196.627 136.743 196.84C136.263 197.053 135.687 197.16 135.015 197.16ZM143.418 197.16C142.404 197.16 141.588 196.829 140.97 196.168C140.351 195.496 139.999 194.6 139.914 193.48L139.898 192.84L139.914 192.2C139.999 191.091 140.346 190.2 140.954 189.528C141.572 188.856 142.394 188.52 143.418 188.52C144.527 188.52 145.391 188.888 146.01 189.624C146.639 190.36 146.954 191.368 146.954 192.648V192.888C146.954 192.995 146.916 193.08 146.842 193.144C146.778 193.208 146.692 193.24 146.586 193.24H140.89V193.4C140.911 193.901 141.023 194.371 141.226 194.808C141.439 195.235 141.732 195.581 142.106 195.848C142.479 196.104 142.916 196.232 143.418 196.232C144.004 196.232 144.479 196.12 144.842 195.896C145.215 195.661 145.482 195.427 145.642 195.192C145.738 195.064 145.807 194.984 145.85 194.952C145.903 194.92 145.994 194.904 146.122 194.904H146.378C146.474 194.904 146.554 194.931 146.618 194.984C146.682 195.037 146.714 195.107 146.714 195.192C146.714 195.416 146.57 195.688 146.282 196.008C146.004 196.317 145.615 196.589 145.114 196.824C144.612 197.048 144.047 197.16 143.418 197.16ZM145.978 192.344V192.28C145.978 191.459 145.743 190.781 145.274 190.248C144.815 189.715 144.196 189.448 143.418 189.448C142.639 189.448 142.02 189.715 141.562 190.248C141.114 190.781 140.89 191.459 140.89 192.28V192.344H145.978ZM149.496 197C149.389 197 149.304 196.968 149.24 196.904C149.176 196.84 149.144 196.755 149.144 196.648V189.048C149.144 188.941 149.176 188.856 149.24 188.792C149.304 188.717 149.389 188.68 149.496 188.68H149.752C149.859 188.68 149.944 188.717 150.008 188.792C150.083 188.856 150.12 188.941 150.12 189.048V189.784C150.504 189.048 151.229 188.68 152.296 188.68H152.888C152.995 188.68 153.08 188.712 153.144 188.776C153.208 188.84 153.24 188.925 153.24 189.032V189.256C153.24 189.363 153.208 189.448 153.144 189.512C153.08 189.576 152.995 189.608 152.888 189.608H152.2C151.56 189.608 151.053 189.795 150.68 190.168C150.307 190.541 150.12 191.048 150.12 191.688V196.648C150.12 196.755 150.083 196.84 150.008 196.904C149.944 196.968 149.859 197 149.752 197H149.496ZM4.416 221.16C3.37067 221.16 2.576 220.829 2.032 220.168C1.488 219.507 1.216 218.643 1.216 217.576V213.032C1.216 212.925 1.248 212.84 1.312 212.776C1.376 212.712 1.46133 212.68 1.568 212.68H1.84C1.94667 212.68 2.032 212.712 2.096 212.776C2.16 212.84 2.192 212.925 2.192 213.032V217.496C2.192 219.32 2.98667 220.232 4.576 220.232C5.344 220.232 5.952 219.992 6.4 219.512C6.85867 219.021 7.088 218.349 7.088 217.496V213.032C7.088 212.925 7.12 212.84 7.184 212.776C7.248 212.712 7.33333 212.68 7.44 212.68H7.712C7.81867 212.68 7.904 212.712 7.968 212.776C8.032 212.84 8.064 212.925 8.064 213.032V220.648C8.064 220.755 8.032 220.84 7.968 220.904C7.904 220.968 7.81867 221 7.712 221H7.44C7.33333 221 7.248 220.968 7.184 220.904C7.12 220.84 7.088 220.755 7.088 220.648V219.896C6.768 220.312 6.4 220.627 5.984 220.84C5.57867 221.053 5.056 221.16 4.416 221.16ZM11.1034 224.04C10.9967 224.04 10.9114 224.008 10.8474 223.944C10.7834 223.88 10.7514 223.795 10.7514 223.688V213.032C10.7514 212.925 10.7834 212.84 10.8474 212.776C10.9114 212.712 10.9967 212.68 11.1034 212.68H11.3754C11.482 212.68 11.5674 212.712 11.6314 212.776C11.6954 212.84 11.7274 212.925 11.7274 213.032V213.784C12.346 212.941 13.242 212.52 14.4154 212.52C15.5674 212.52 16.4154 212.888 16.9594 213.624C17.514 214.349 17.8074 215.245 17.8394 216.312C17.85 216.419 17.8554 216.595 17.8554 216.84C17.8554 217.085 17.85 217.261 17.8394 217.368C17.8074 218.435 17.514 219.336 16.9594 220.072C16.4154 220.797 15.5674 221.16 14.4154 221.16C13.2527 221.16 12.3567 220.739 11.7274 219.896V223.688C11.7274 223.795 11.6954 223.88 11.6314 223.944C11.5674 224.008 11.482 224.04 11.3754 224.04H11.1034ZM14.3194 220.232C15.1834 220.232 15.8127 219.96 16.2074 219.416C16.6127 218.861 16.8314 218.152 16.8634 217.288C16.874 217.181 16.8794 217.032 16.8794 216.84C16.8794 215.848 16.6874 215.037 16.3034 214.408C15.9194 213.768 15.258 213.448 14.3194 213.448C13.4767 213.448 12.842 213.731 12.4154 214.296C11.9887 214.851 11.7594 215.507 11.7274 216.264L11.7114 216.888L11.7274 217.512C11.738 217.971 11.8394 218.408 12.0314 218.824C12.2234 219.229 12.5114 219.565 12.8954 219.832C13.2794 220.099 13.754 220.232 14.3194 220.232ZM20.4802 224.04C20.3736 224.04 20.2882 224.008 20.2242 223.944C20.1602 223.88 20.1282 223.795 20.1282 223.688V213.032C20.1282 212.925 20.1602 212.84 20.2242 212.776C20.2882 212.712 20.3736 212.68 20.4802 212.68H20.7522C20.8589 212.68 20.9443 212.712 21.0082 212.776C21.0722 212.84 21.1042 212.925 21.1042 213.032V213.784C21.7229 212.941 22.6189 212.52 23.7923 212.52C24.9443 212.52 25.7923 212.888 26.3363 213.624C26.8909 214.349 27.1843 215.245 27.2163 216.312C27.2269 216.419 27.2323 216.595 27.2323 216.84C27.2323 217.085 27.2269 217.261 27.2163 217.368C27.1843 218.435 26.8909 219.336 26.3363 220.072C25.7923 220.797 24.9443 221.16 23.7923 221.16C22.6296 221.16 21.7336 220.739 21.1042 219.896V223.688C21.1042 223.795 21.0722 223.88 21.0082 223.944C20.9443 224.008 20.8589 224.04 20.7522 224.04H20.4802ZM23.6962 220.232C24.5602 220.232 25.1896 219.96 25.5842 219.416C25.9896 218.861 26.2083 218.152 26.2403 217.288C26.2509 217.181 26.2563 217.032 26.2563 216.84C26.2563 215.848 26.0643 215.037 25.6803 214.408C25.2963 213.768 24.6349 213.448 23.6962 213.448C22.8536 213.448 22.2189 213.731 21.7922 214.296C21.3656 214.851 21.1363 215.507 21.1042 216.264L21.0882 216.888L21.1042 217.512C21.1149 217.971 21.2162 218.408 21.4082 218.824C21.6002 219.229 21.8882 219.565 22.2722 219.832C22.6562 220.099 23.1309 220.232 23.6962 220.232ZM34.0461 221C33.9395 221 33.8541 220.968 33.7901 220.904C33.7261 220.84 33.6941 220.755 33.6941 220.648V213.048C33.6941 212.941 33.7261 212.856 33.7901 212.792C33.8541 212.717 33.9395 212.68 34.0461 212.68H34.3021C34.4088 212.68 34.4941 212.717 34.5581 212.792C34.6328 212.856 34.6701 212.941 34.6701 213.048V213.784C35.0541 213.048 35.7795 212.68 36.8461 212.68H37.4381C37.5448 212.68 37.6301 212.712 37.6941 212.776C37.7581 212.84 37.7901 212.925 37.7901 213.032V213.256C37.7901 213.363 37.7581 213.448 37.6941 213.512C37.6301 213.576 37.5448 213.608 37.4381 213.608H36.7501C36.1101 213.608 35.6035 213.795 35.2301 214.168C34.8568 214.541 34.6701 215.048 34.6701 215.688V220.648C34.6701 220.755 34.6328 220.84 34.5581 220.904C34.4941 220.968 34.4088 221 34.3021 221H34.0461ZM42.2371 221.16C41.2238 221.16 40.4078 220.829 39.7891 220.168C39.1705 219.496 38.8185 218.6 38.7331 217.48L38.7171 216.84L38.7331 216.2C38.8185 215.091 39.1651 214.2 39.7731 213.528C40.3918 212.856 41.2131 212.52 42.2371 212.52C43.3465 212.52 44.2105 212.888 44.8291 213.624C45.4585 214.36 45.7731 215.368 45.7731 216.648V216.888C45.7731 216.995 45.7358 217.08 45.6611 217.144C45.5971 217.208 45.5118 217.24 45.4051 217.24H39.7091V217.4C39.7305 217.901 39.8425 218.371 40.0451 218.808C40.2585 219.235 40.5518 219.581 40.9251 219.848C41.2985 220.104 41.7358 220.232 42.2371 220.232C42.8238 220.232 43.2985 220.12 43.6611 219.896C44.0345 219.661 44.3011 219.427 44.4611 219.192C44.5571 219.064 44.6265 218.984 44.6691 218.952C44.7225 218.92 44.8131 218.904 44.9411 218.904H45.1971C45.2931 218.904 45.3731 218.931 45.4371 218.984C45.5011 219.037 45.5331 219.107 45.5331 219.192C45.5331 219.416 45.3891 219.688 45.1011 220.008C44.8238 220.317 44.4345 220.589 43.9331 220.824C43.4318 221.048 42.8665 221.16 42.2371 221.16ZM44.7971 216.344V216.28C44.7971 215.459 44.5625 214.781 44.0931 214.248C43.6345 213.715 43.0158 213.448 42.2371 213.448C41.4585 213.448 40.8398 213.715 40.3811 214.248C39.9331 214.781 39.7091 215.459 39.7091 216.28V216.344H44.7971ZM50.6035 221.16C49.9102 221.16 49.3235 221.043 48.8435 220.808C48.3742 220.573 48.0168 220.307 47.7715 220.008C47.5368 219.709 47.4195 219.469 47.4195 219.288C47.4195 219.192 47.4568 219.117 47.5315 219.064C47.6062 219 47.6862 218.968 47.7715 218.968H48.0115C48.0862 218.968 48.1448 218.984 48.1875 219.016C48.2408 219.037 48.2995 219.091 48.3635 219.176C48.5982 219.507 48.8808 219.768 49.2115 219.96C49.5528 220.141 50.0168 220.232 50.6035 220.232C51.2648 220.232 51.7982 220.109 52.2035 219.864C52.6088 219.608 52.8115 219.245 52.8115 218.776C52.8115 218.488 52.7262 218.253 52.5555 218.072C52.3955 217.891 52.1288 217.736 51.7555 217.608C51.3928 217.469 50.8488 217.315 50.1235 217.144C49.1742 216.931 48.5235 216.637 48.1715 216.264C47.8302 215.891 47.6595 215.416 47.6595 214.84C47.6595 214.445 47.7662 214.072 47.9795 213.72C48.2035 213.368 48.5288 213.08 48.9555 212.856C49.3928 212.632 49.9155 212.52 50.5235 212.52C51.1635 212.52 51.7022 212.632 52.1395 212.856C52.5875 213.069 52.9182 213.32 53.1315 213.608C53.3555 213.896 53.4675 214.131 53.4675 214.312C53.4675 214.408 53.4302 214.488 53.3555 214.552C53.2915 214.605 53.2115 214.632 53.1155 214.632H52.8755C52.7262 214.632 52.6088 214.563 52.5235 214.424C52.3102 214.104 52.0648 213.864 51.7875 213.704C51.5208 213.533 51.0995 213.448 50.5235 213.448C49.9048 213.448 49.4355 213.576 49.1155 213.832C48.7955 214.088 48.6355 214.424 48.6355 214.84C48.6355 215.096 48.6995 215.309 48.8275 215.48C48.9555 215.651 49.1955 215.811 49.5475 215.96C49.8995 216.099 50.4115 216.243 51.0835 216.392C52.0755 216.616 52.7742 216.915 53.1795 217.288C53.5848 217.661 53.7875 218.157 53.7875 218.776C53.7875 219.213 53.6648 219.613 53.4195 219.976C53.1742 220.339 52.8115 220.627 52.3315 220.84C51.8515 221.053 51.2755 221.16 50.6035 221.16ZM58.7185 221C57.9292 221 57.3692 220.765 57.0385 220.296C56.7078 219.816 56.5425 219.16 56.5425 218.328V213.608H55.2945C55.1878 213.608 55.1025 213.576 55.0385 213.512C54.9745 213.448 54.9425 213.363 54.9425 213.256V213.032C54.9425 212.925 54.9745 212.84 55.0385 212.776C55.1025 212.712 55.1878 212.68 55.2945 212.68H56.5425V209.992C56.5425 209.885 56.5745 209.8 56.6385 209.736C56.7025 209.672 56.7878 209.64 56.8945 209.64H57.1665C57.2732 209.64 57.3585 209.672 57.4225 209.736C57.4865 209.8 57.5185 209.885 57.5185 209.992V212.68H59.5025C59.6092 212.68 59.6945 212.712 59.7585 212.776C59.8225 212.84 59.8545 212.925 59.8545 213.032V213.256C59.8545 213.363 59.8225 213.448 59.7585 213.512C59.6945 213.576 59.6092 213.608 59.5025 213.608H57.5185V218.264C57.5185 218.861 57.6145 219.315 57.8065 219.624C58.0092 219.923 58.3398 220.072 58.7985 220.072H59.6625C59.7692 220.072 59.8545 220.104 59.9185 220.168C59.9825 220.232 60.0145 220.317 60.0145 220.424V220.648C60.0145 220.755 59.9825 220.84 59.9185 220.904C59.8545 220.968 59.7692 221 59.6625 221H58.7185ZM64.8365 221.16C63.8232 221.16 63.0072 220.829 62.3885 220.168C61.7698 219.496 61.4178 218.6 61.3325 217.48L61.3165 216.84L61.3325 216.2C61.4178 215.091 61.7645 214.2 62.3725 213.528C62.9912 212.856 63.8125 212.52 64.8365 212.52C65.9458 212.52 66.8098 212.888 67.4285 213.624C68.0578 214.36 68.3725 215.368 68.3725 216.648V216.888C68.3725 216.995 68.3352 217.08 68.2605 217.144C68.1965 217.208 68.1112 217.24 68.0045 217.24H62.3085V217.4C62.3298 217.901 62.4418 218.371 62.6445 218.808C62.8578 219.235 63.1512 219.581 63.5245 219.848C63.8978 220.104 64.3352 220.232 64.8365 220.232C65.4232 220.232 65.8978 220.12 66.2605 219.896C66.6338 219.661 66.9005 219.427 67.0605 219.192C67.1565 219.064 67.2258 218.984 67.2685 218.952C67.3218 218.92 67.4125 218.904 67.5405 218.904H67.7965C67.8925 218.904 67.9725 218.931 68.0365 218.984C68.1005 219.037 68.1325 219.107 68.1325 219.192C68.1325 219.416 67.9885 219.688 67.7005 220.008C67.4232 220.317 67.0338 220.589 66.5325 220.824C66.0312 221.048 65.4658 221.16 64.8365 221.16ZM67.3965 216.344V216.28C67.3965 215.459 67.1618 214.781 66.6925 214.248C66.2338 213.715 65.6152 213.448 64.8365 213.448C64.0578 213.448 63.4392 213.715 62.9805 214.248C62.5325 214.781 62.3085 215.459 62.3085 216.28V216.344H67.3965ZM70.9149 221C70.8082 221 70.7229 220.968 70.6589 220.904C70.5949 220.84 70.5629 220.755 70.5629 220.648V213.048C70.5629 212.941 70.5949 212.856 70.6589 212.792C70.7229 212.717 70.8082 212.68 70.9149 212.68H71.1709C71.2775 212.68 71.3629 212.717 71.4269 212.792C71.5015 212.856 71.5389 212.941 71.5389 213.048V213.784C71.9229 213.048 72.6482 212.68 73.7149 212.68H74.3069C74.4135 212.68 74.4989 212.712 74.5629 212.776C74.6269 212.84 74.6589 212.925 74.6589 213.032V213.256C74.6589 213.363 74.6269 213.448 74.5629 213.512C74.4989 213.576 74.4135 213.608 74.3069 213.608H73.6189C72.9789 213.608 72.4722 213.795 72.0989 214.168C71.7255 214.541 71.5389 215.048 71.5389 215.688V220.648C71.5389 220.755 71.5015 220.84 71.4269 220.904C71.3629 220.968 71.2775 221 71.1709 221H70.9149ZM78.3204 221.16C77.8084 221.16 77.3337 221.053 76.8964 220.84C76.459 220.627 76.107 220.339 75.8404 219.976C75.5844 219.613 75.4564 219.213 75.4564 218.776C75.4564 218.072 75.739 217.496 76.3044 217.048C76.8804 216.6 77.6537 216.312 78.6244 216.184L81.1524 215.832V215.272C81.1524 214.685 80.971 214.237 80.6084 213.928C80.2564 213.608 79.7124 213.448 78.9764 213.448C78.4324 213.448 77.9844 213.555 77.6324 213.768C77.291 213.981 77.0724 214.237 76.9764 214.536C76.9337 214.664 76.8804 214.755 76.8164 214.808C76.763 214.851 76.6884 214.872 76.5924 214.872H76.3684C76.2724 214.872 76.187 214.84 76.1124 214.776C76.0484 214.701 76.0164 214.616 76.0164 214.52C76.0164 214.285 76.123 214.013 76.3364 213.704C76.5497 213.384 76.8804 213.107 77.3284 212.872C77.7764 212.637 78.3257 212.52 78.9764 212.52C80.1177 212.52 80.9284 212.792 81.4084 213.336C81.8884 213.88 82.1284 214.541 82.1284 215.32V220.648C82.1284 220.755 82.0964 220.84 82.0324 220.904C81.9684 220.968 81.883 221 81.7764 221H81.5044C81.3977 221 81.3124 220.968 81.2484 220.904C81.1844 220.84 81.1524 220.755 81.1524 220.648V219.896C80.9177 220.248 80.571 220.547 80.1124 220.792C79.6644 221.037 79.067 221.16 78.3204 221.16ZM78.4804 220.232C79.259 220.232 79.899 219.976 80.4004 219.464C80.9017 218.952 81.1524 218.216 81.1524 217.256V216.712L79.0884 217C78.2137 217.117 77.5524 217.32 77.1044 217.608C76.6564 217.896 76.4324 218.259 76.4324 218.696C76.4324 219.187 76.635 219.565 77.0404 219.832C77.4564 220.099 77.9364 220.232 78.4804 220.232ZM85.0905 221C84.9838 221 84.8985 220.968 84.8345 220.904C84.7705 220.84 84.7385 220.755 84.7385 220.648V213.032C84.7385 212.925 84.7705 212.84 84.8345 212.776C84.8985 212.712 84.9838 212.68 85.0905 212.68H85.3625C85.4692 212.68 85.5545 212.712 85.6185 212.776C85.6825 212.84 85.7145 212.925 85.7145 213.032V213.784C86.0345 213.368 86.3972 213.053 86.8025 212.84C87.2185 212.627 87.7518 212.52 88.4025 212.52C89.4478 212.52 90.2532 212.856 90.8185 213.528C91.3838 214.189 91.6665 215.048 91.6665 216.104V220.648C91.6665 220.755 91.6345 220.84 91.5705 220.904C91.5065 220.968 91.4212 221 91.3145 221H91.0425C90.9358 221 90.8505 220.968 90.7865 220.904C90.7225 220.84 90.6905 220.755 90.6905 220.648V216.184C90.6905 215.32 90.4772 214.648 90.0505 214.168C89.6345 213.688 89.0318 213.448 88.2425 213.448C87.4745 213.448 86.8612 213.693 86.4025 214.184C85.9438 214.664 85.7145 215.331 85.7145 216.184V220.648C85.7145 220.755 85.6825 220.84 85.6185 220.904C85.5545 220.968 85.4692 221 85.3625 221H85.0905ZM97.264 221.16C96.112 221.16 95.2587 220.787 94.704 220.04C94.16 219.283 93.872 218.365 93.84 217.288L93.824 216.84L93.84 216.392C93.872 215.315 94.16 214.403 94.704 213.656C95.2587 212.899 96.112 212.52 97.264 212.52C98.4267 212.52 99.3227 212.941 99.952 213.784V209.992C99.952 209.885 99.984 209.8 100.048 209.736C100.112 209.672 100.197 209.64 100.304 209.64H100.576C100.683 209.64 100.768 209.672 100.832 209.736C100.896 209.8 100.928 209.885 100.928 209.992V220.648C100.928 220.755 100.896 220.84 100.832 220.904C100.768 220.968 100.683 221 100.576 221H100.304C100.197 221 100.112 220.968 100.048 220.904C99.984 220.84 99.952 220.755 99.952 220.648V219.896C99.3333 220.739 98.4373 221.16 97.264 221.16ZM97.36 220.232C98.2027 220.232 98.8373 219.955 99.264 219.4C99.6907 218.835 99.92 218.173 99.952 217.416C99.9627 217.309 99.968 217.101 99.968 216.792C99.968 216.483 99.9627 216.275 99.952 216.168C99.9413 215.709 99.84 215.277 99.648 214.872C99.456 214.456 99.168 214.115 98.784 213.848C98.4 213.581 97.9253 213.448 97.36 213.448C96.496 213.448 95.8613 213.725 95.456 214.28C95.0613 214.824 94.848 215.528 94.816 216.392L94.8 216.84C94.8 217.832 94.992 218.648 95.376 219.288C95.76 219.917 96.4213 220.232 97.36 220.232ZM106.705 221.16C105.692 221.16 104.876 220.829 104.257 220.168C103.639 219.496 103.287 218.6 103.201 217.48L103.185 216.84L103.201 216.2C103.287 215.091 103.633 214.2 104.241 213.528C104.86 212.856 105.681 212.52 106.705 212.52C107.815 212.52 108.679 212.888 109.297 213.624C109.927 214.36 110.241 215.368 110.241 216.648V216.888C110.241 216.995 110.204 217.08 110.129 217.144C110.065 217.208 109.98 217.24 109.873 217.24H104.177V217.4C104.199 217.901 104.311 218.371 104.513 218.808C104.727 219.235 105.02 219.581 105.393 219.848C105.767 220.104 106.204 220.232 106.705 220.232C107.292 220.232 107.767 220.12 108.129 219.896C108.503 219.661 108.769 219.427 108.929 219.192C109.025 219.064 109.095 218.984 109.137 218.952C109.191 218.92 109.281 218.904 109.409 218.904H109.665C109.761 218.904 109.841 218.931 109.905 218.984C109.969 219.037 110.001 219.107 110.001 219.192C110.001 219.416 109.857 219.688 109.569 220.008C109.292 220.317 108.903 220.589 108.401 220.824C107.9 221.048 107.335 221.16 106.705 221.16ZM109.265 216.344V216.28C109.265 215.459 109.031 214.781 108.561 214.248C108.103 213.715 107.484 213.448 106.705 213.448C105.927 213.448 105.308 213.715 104.849 214.248C104.401 214.781 104.177 215.459 104.177 216.28V216.344H109.265ZM117.005 221C116.898 221 116.813 220.968 116.749 220.904C116.685 220.84 116.653 220.755 116.653 220.648V209.992C116.653 209.885 116.685 209.8 116.749 209.736C116.813 209.672 116.898 209.64 117.005 209.64H117.277C117.383 209.64 117.469 209.672 117.533 209.736C117.597 209.8 117.629 209.885 117.629 209.992V215.656L121.197 212.952C121.367 212.824 121.485 212.749 121.549 212.728C121.613 212.696 121.719 212.68 121.869 212.68H122.173C122.269 212.68 122.343 212.712 122.397 212.776C122.461 212.829 122.493 212.904 122.493 213C122.493 213.117 122.423 213.224 122.285 213.32L118.237 216.392L122.685 220.36C122.823 220.488 122.893 220.595 122.893 220.68C122.893 220.776 122.861 220.856 122.797 220.92C122.743 220.973 122.669 221 122.573 221H122.317C122.157 221 122.039 220.989 121.965 220.968C121.89 220.936 121.783 220.856 121.645 220.728L117.629 217.16V220.648C117.629 220.755 117.597 220.84 117.533 220.904C117.469 220.968 117.383 221 117.277 221H117.005ZM126.597 221.16C126.085 221.16 125.611 221.053 125.173 220.84C124.736 220.627 124.384 220.339 124.117 219.976C123.861 219.613 123.733 219.213 123.733 218.776C123.733 218.072 124.016 217.496 124.581 217.048C125.157 216.6 125.931 216.312 126.901 216.184L129.429 215.832V215.272C129.429 214.685 129.248 214.237 128.885 213.928C128.533 213.608 127.989 213.448 127.253 213.448C126.709 213.448 126.261 213.555 125.909 213.768C125.568 213.981 125.349 214.237 125.253 214.536C125.211 214.664 125.157 214.755 125.093 214.808C125.04 214.851 124.965 214.872 124.869 214.872H124.645C124.549 214.872 124.464 214.84 124.389 214.776C124.325 214.701 124.293 214.616 124.293 214.52C124.293 214.285 124.4 214.013 124.613 213.704C124.827 213.384 125.157 213.107 125.605 212.872C126.053 212.637 126.603 212.52 127.253 212.52C128.395 212.52 129.205 212.792 129.685 213.336C130.165 213.88 130.405 214.541 130.405 215.32V220.648C130.405 220.755 130.373 220.84 130.309 220.904C130.245 220.968 130.16 221 130.053 221H129.781C129.675 221 129.589 220.968 129.525 220.904C129.461 220.84 129.429 220.755 129.429 220.648V219.896C129.195 220.248 128.848 220.547 128.389 220.792C127.941 221.037 127.344 221.16 126.597 221.16ZM126.757 220.232C127.536 220.232 128.176 219.976 128.677 219.464C129.179 218.952 129.429 218.216 129.429 217.256V216.712L127.365 217C126.491 217.117 125.829 217.32 125.381 217.608C124.933 217.896 124.709 218.259 124.709 218.696C124.709 219.187 124.912 219.565 125.317 219.832C125.733 220.099 126.213 220.232 126.757 220.232ZM133.383 224.04C133.277 224.04 133.191 224.008 133.127 223.944C133.063 223.88 133.031 223.795 133.031 223.688V213.032C133.031 212.925 133.063 212.84 133.127 212.776C133.191 212.712 133.277 212.68 133.383 212.68H133.655C133.762 212.68 133.847 212.712 133.911 212.776C133.975 212.84 134.007 212.925 134.007 213.032V213.784C134.626 212.941 135.522 212.52 136.695 212.52C137.847 212.52 138.695 212.888 139.239 213.624C139.794 214.349 140.087 215.245 140.119 216.312C140.13 216.419 140.135 216.595 140.135 216.84C140.135 217.085 140.13 217.261 140.119 217.368C140.087 218.435 139.794 219.336 139.239 220.072C138.695 220.797 137.847 221.16 136.695 221.16C135.533 221.16 134.637 220.739 134.007 219.896V223.688C134.007 223.795 133.975 223.88 133.911 223.944C133.847 224.008 133.762 224.04 133.655 224.04H133.383ZM136.599 220.232C137.463 220.232 138.093 219.96 138.487 219.416C138.893 218.861 139.111 218.152 139.143 217.288C139.154 217.181 139.159 217.032 139.159 216.84C139.159 215.848 138.967 215.037 138.583 214.408C138.199 213.768 137.538 213.448 136.599 213.448C135.757 213.448 135.122 213.731 134.695 214.296C134.269 214.851 134.039 215.507 134.007 216.264L133.991 216.888L134.007 217.512C134.018 217.971 134.119 218.408 134.311 218.824C134.503 219.229 134.791 219.565 135.175 219.832C135.559 220.099 136.034 220.232 136.599 220.232ZM142.568 210.968C142.462 210.968 142.376 210.936 142.312 210.872C142.248 210.808 142.216 210.723 142.216 210.616V210.008C142.216 209.901 142.248 209.816 142.312 209.752C142.376 209.677 142.462 209.64 142.568 209.64H143.176C143.283 209.64 143.368 209.677 143.432 209.752C143.507 209.816 143.544 209.901 143.544 210.008V210.616C143.544 210.723 143.507 210.808 143.432 210.872C143.368 210.936 143.283 210.968 143.176 210.968H142.568ZM142.744 221C142.638 221 142.552 220.968 142.488 220.904C142.424 220.84 142.392 220.755 142.392 220.648V213.032C142.392 212.925 142.424 212.84 142.488 212.776C142.552 212.712 142.638 212.68 142.744 212.68H143.016C143.123 212.68 143.208 212.712 143.272 212.776C143.336 212.84 143.368 212.925 143.368 213.032V220.648C143.368 220.755 143.336 220.84 143.272 220.904C143.208 220.968 143.123 221 143.016 221H142.744ZM148.835 221C148.045 221 147.485 220.765 147.155 220.296C146.824 219.816 146.659 219.16 146.659 218.328V213.608H145.411C145.304 213.608 145.219 213.576 145.155 213.512C145.091 213.448 145.059 213.363 145.059 213.256V213.032C145.059 212.925 145.091 212.84 145.155 212.776C145.219 212.712 145.304 212.68 145.411 212.68H146.659V209.992C146.659 209.885 146.691 209.8 146.755 209.736C146.819 209.672 146.904 209.64 147.011 209.64H147.283C147.389 209.64 147.475 209.672 147.539 209.736C147.603 209.8 147.635 209.885 147.635 209.992V212.68H149.619C149.725 212.68 149.811 212.712 149.875 212.776C149.939 212.84 149.971 212.925 149.971 213.032V213.256C149.971 213.363 149.939 213.448 149.875 213.512C149.811 213.576 149.725 213.608 149.619 213.608H147.635V218.264C147.635 218.861 147.731 219.315 147.923 219.624C148.125 219.923 148.456 220.072 148.915 220.072H149.779C149.885 220.072 149.971 220.104 150.035 220.168C150.099 220.232 150.131 220.317 150.131 220.424V220.648C150.131 220.755 150.099 220.84 150.035 220.904C149.971 220.968 149.885 221 149.779 221H148.835ZM154.953 221.16C153.939 221.16 153.123 220.829 152.505 220.168C151.886 219.496 151.534 218.6 151.449 217.48L151.433 216.84L151.449 216.2C151.534 215.091 151.881 214.2 152.489 213.528C153.107 212.856 153.929 212.52 154.953 212.52C156.062 212.52 156.926 212.888 157.545 213.624C158.174 214.36 158.489 215.368 158.489 216.648V216.888C158.489 216.995 158.451 217.08 158.377 217.144C158.313 217.208 158.227 217.24 158.121 217.24H152.425V217.4C152.446 217.901 152.558 218.371 152.761 218.808C152.974 219.235 153.267 219.581 153.641 219.848C154.014 220.104 154.451 220.232 154.953 220.232C155.539 220.232 156.014 220.12 156.377 219.896C156.75 219.661 157.017 219.427 157.177 219.192C157.273 219.064 157.342 218.984 157.385 218.952C157.438 218.92 157.529 218.904 157.657 218.904H157.913C158.009 218.904 158.089 218.931 158.153 218.984C158.217 219.037 158.249 219.107 158.249 219.192C158.249 219.416 158.105 219.688 157.817 220.008C157.539 220.317 157.15 220.589 156.649 220.824C156.147 221.048 155.582 221.16 154.953 221.16ZM157.513 216.344V216.28C157.513 215.459 157.278 214.781 156.809 214.248C156.35 213.715 155.731 213.448 154.953 213.448C154.174 213.448 153.555 213.715 153.097 214.248C152.649 214.781 152.425 215.459 152.425 216.28V216.344H157.513ZM161.047 221C160.94 221 160.855 220.968 160.791 220.904C160.727 220.84 160.695 220.755 160.695 220.648V209.992C160.695 209.885 160.727 209.8 160.791 209.736C160.855 209.672 160.94 209.64 161.047 209.64H161.319C161.426 209.64 161.511 209.672 161.575 209.736C161.639 209.8 161.671 209.885 161.671 209.992V220.648C161.671 220.755 161.639 220.84 161.575 220.904C161.511 220.968 161.426 221 161.319 221H161.047Z" fill="black"/>
</svg>
