<svg width="69" height="69" viewBox="0 0 69 69" fill="none" xmlns="http://www.w3.org/2000/svg">
<circle cx="34.5" cy="34.5" r="34.5" fill="#474747"/>
<path d="M36.7084 23.8213L27.9282 34.4999L36.7084 45.1784" stroke="white" stroke-width="7.11905" stroke-linecap="round" stroke-linejoin="round"/>
<path d="M0 0V-1H-1V0H0ZM69 0H70V-1H69V0ZM69 69V70H70V69H69ZM0 69H-1V70H0V69ZM0 1H69V-1H0V1ZM68 0V69H70V0H68ZM69 68H0V70H69V68ZM1 69V0H-1V69H1Z" fill="black"/>
<path d="M0 0V-1H-1V0H0ZM69 0H70V-1H69V0ZM69 69V70H70V69H69ZM0 69H-1V70H0V69ZM0 1H69V-1H0V1ZM68 0V69H70V0H68ZM69 68H0V70H69V68ZM1 69V0H-1V69H1Z" fill="url(#paint0_linear)"/>
<defs>
<linearGradient id="paint0_linear" x1="34.5" y1="0" x2="34.5" y2="69" gradientUnits="userSpaceOnUse">
<stop stop-color="white"/>
<stop offset="1" stop-color="white" stop-opacity="0"/>
</linearGradient>
</defs>
</svg>
