<svg width="257" height="36" viewBox="0 0 257 36" fill="none" xmlns="http://www.w3.org/2000/svg">
<g opacity="0.8">
<path d="M45.136 23.16C44.1867 23.16 43.3707 23.016 42.688 22.728C42.0053 22.44 41.488 22.0613 41.136 21.592C40.784 21.1227 40.5973 20.616 40.576 20.072C40.576 19.976 40.608 19.896 40.672 19.832C40.736 19.768 40.816 19.736 40.912 19.736H42.336C42.464 19.736 42.56 19.7627 42.624 19.816C42.6987 19.8587 42.768 19.9333 42.832 20.04C42.9387 20.4027 43.184 20.7067 43.568 20.952C43.952 21.1973 44.4747 21.32 45.136 21.32C45.8933 21.32 46.464 21.1973 46.848 20.952C47.232 20.696 47.424 20.344 47.424 19.896C47.424 19.5973 47.3227 19.352 47.12 19.16C46.928 18.968 46.6347 18.8027 46.24 18.664C45.856 18.5253 45.28 18.3547 44.512 18.152C43.2533 17.8533 42.3307 17.4587 41.744 16.968C41.168 16.4667 40.88 15.7573 40.88 14.84C40.88 14.2213 41.0453 13.672 41.376 13.192C41.7173 12.712 42.2027 12.3333 42.832 12.056C43.472 11.7787 44.2133 11.64 45.056 11.64C45.9307 11.64 46.688 11.7947 47.328 12.104C47.968 12.4133 48.4533 12.8027 48.784 13.272C49.1253 13.7307 49.3067 14.1893 49.328 14.648C49.328 14.744 49.296 14.824 49.232 14.888C49.168 14.952 49.088 14.984 48.992 14.984H47.504C47.28 14.984 47.1253 14.8827 47.04 14.68C46.976 14.3387 46.7627 14.056 46.4 13.832C46.0373 13.5973 45.5893 13.48 45.056 13.48C44.4587 13.48 43.9893 13.592 43.648 13.816C43.3067 14.04 43.136 14.3653 43.136 14.792C43.136 15.0907 43.2213 15.336 43.392 15.528C43.5627 15.72 43.8293 15.8907 44.192 16.04C44.5653 16.1893 45.0987 16.3547 45.792 16.536C46.7307 16.7493 47.4773 16.9893 48.032 17.256C48.5973 17.5227 49.0133 17.8587 49.28 18.264C49.5467 18.6693 49.68 19.1867 49.68 19.816C49.68 20.4987 49.488 21.096 49.104 21.608C48.7307 22.1093 48.1973 22.4933 47.504 22.76C46.8213 23.0267 46.032 23.16 45.136 23.16ZM51.8016 23C51.695 23 51.6043 22.9627 51.5296 22.888C51.455 22.8133 51.4176 22.7227 51.4176 22.616V12.024C51.4176 11.9067 51.455 11.816 51.5296 11.752C51.6043 11.6773 51.695 11.64 51.8016 11.64H53.0976C53.215 11.64 53.3056 11.6773 53.3696 11.752C53.4443 11.816 53.4816 11.9067 53.4816 12.024V17.496L56.1696 14.952C56.2016 14.9307 56.255 14.888 56.3296 14.824C56.3936 14.7707 56.4576 14.7333 56.5216 14.712C56.5856 14.6907 56.6656 14.68 56.7616 14.68H58.2496C58.3563 14.68 58.4416 14.712 58.5056 14.776C58.5696 14.84 58.6016 14.9253 58.6016 15.032C58.6016 15.128 58.5483 15.224 58.4416 15.32L55.1456 18.408L58.8416 22.376C58.9483 22.4827 59.0016 22.5733 59.0016 22.648C59.0016 22.7547 58.9643 22.84 58.8896 22.904C58.8256 22.968 58.7456 23 58.6496 23H57.1296C56.9803 23 56.8683 22.984 56.7936 22.952C56.7296 22.9093 56.6443 22.8347 56.5376 22.728L53.4816 19.512V22.616C53.4816 22.7227 53.4443 22.8133 53.3696 22.888C53.3056 22.9627 53.215 23 53.0976 23H51.8016ZM62.5382 23.16C61.9942 23.16 61.4929 23.0533 61.0342 22.84C60.5862 22.616 60.2289 22.3173 59.9622 21.944C59.7062 21.5707 59.5782 21.16 59.5782 20.712C59.5782 19.9867 59.8716 19.4 60.4582 18.952C61.0449 18.504 61.8502 18.2 62.8742 18.04L65.0663 17.72V17.384C65.0663 16.9147 64.9489 16.5627 64.7143 16.328C64.4796 16.0933 64.1009 15.976 63.5782 15.976C63.2263 15.976 62.9383 16.0453 62.7143 16.184C62.5009 16.312 62.3302 16.44 62.2023 16.568C62.0743 16.7067 61.9889 16.7973 61.9462 16.84C61.9036 16.968 61.8236 17.032 61.7062 17.032H60.4742C60.3782 17.032 60.2929 17 60.2182 16.936C60.1542 16.872 60.1222 16.7867 60.1222 16.68C60.1329 16.4133 60.2609 16.1093 60.5062 15.768C60.7622 15.4267 61.1516 15.1333 61.6742 14.888C62.1969 14.6427 62.8369 14.52 63.5943 14.52C64.8529 14.52 65.7703 14.8027 66.3463 15.368C66.9222 15.9333 67.2102 16.6747 67.2102 17.592V22.616C67.2102 22.7227 67.1729 22.8133 67.0983 22.888C67.0343 22.9627 66.9436 23 66.8263 23H65.5303C65.4236 23 65.3329 22.9627 65.2583 22.888C65.1836 22.8133 65.1463 22.7227 65.1463 22.616V21.992C64.9116 22.3333 64.5756 22.616 64.1382 22.84C63.7116 23.0533 63.1782 23.16 62.5382 23.16ZM63.0823 21.64C63.6689 21.64 64.1489 21.448 64.5223 21.064C64.8956 20.68 65.0823 20.12 65.0823 19.384V19.048L63.4823 19.304C62.8636 19.4 62.3942 19.5547 62.0742 19.768C61.7649 19.9813 61.6102 20.2427 61.6102 20.552C61.6102 20.8933 61.7542 21.16 62.0422 21.352C62.3303 21.544 62.6769 21.64 63.0823 21.64ZM69.7429 26.04C69.6362 26.04 69.5455 26.0027 69.4709 25.928C69.3962 25.864 69.3589 25.7733 69.3589 25.656V15.064C69.3589 14.9467 69.3962 14.856 69.4709 14.792C69.5455 14.7173 69.6362 14.68 69.7429 14.68H71.0069C71.1242 14.68 71.2149 14.7173 71.2789 14.792C71.3535 14.856 71.3909 14.9467 71.3909 15.064V15.704C71.9882 14.9147 72.8415 14.52 73.9509 14.52C75.0282 14.52 75.8549 14.8613 76.4309 15.544C77.0069 16.216 77.3162 17.128 77.3589 18.28C77.3695 18.408 77.3749 18.5947 77.3749 18.84C77.3749 19.096 77.3695 19.288 77.3589 19.416C77.3162 20.536 77.0069 21.4427 76.4309 22.136C75.8549 22.8187 75.0282 23.16 73.9509 23.16C72.8735 23.16 72.0522 22.7813 71.4869 22.024V25.656C71.4869 25.7733 71.4495 25.864 71.3749 25.928C71.3109 26.0027 71.2202 26.04 71.1029 26.04H69.7429ZM73.3589 21.448C74.5109 21.448 75.1242 20.7387 75.1989 19.32C75.2095 19.2133 75.2149 19.0533 75.2149 18.84C75.2149 18.6267 75.2095 18.4667 75.1989 18.36C75.1242 16.9413 74.5109 16.232 73.3589 16.232C72.7402 16.232 72.2815 16.4293 71.9829 16.824C71.6842 17.2187 71.5189 17.704 71.4869 18.28L71.4709 18.888L71.4869 19.512C71.5082 20.0453 71.6735 20.504 71.9829 20.888C72.3029 21.2613 72.7615 21.448 73.3589 21.448ZM81.667 23.16C81.123 23.16 80.6217 23.0533 80.163 22.84C79.715 22.616 79.3577 22.3173 79.091 21.944C78.835 21.5707 78.707 21.16 78.707 20.712C78.707 19.9867 79.0003 19.4 79.587 18.952C80.1737 18.504 80.979 18.2 82.003 18.04L84.195 17.72V17.384C84.195 16.9147 84.0777 16.5627 83.843 16.328C83.6083 16.0933 83.2297 15.976 82.707 15.976C82.355 15.976 82.067 16.0453 81.843 16.184C81.6297 16.312 81.459 16.44 81.331 16.568C81.203 16.7067 81.1177 16.7973 81.075 16.84C81.0323 16.968 80.9523 17.032 80.835 17.032H79.603C79.507 17.032 79.4217 17 79.347 16.936C79.283 16.872 79.251 16.7867 79.251 16.68C79.2617 16.4133 79.3897 16.1093 79.635 15.768C79.891 15.4267 80.2803 15.1333 80.803 14.888C81.3257 14.6427 81.9657 14.52 82.723 14.52C83.9817 14.52 84.899 14.8027 85.475 15.368C86.051 15.9333 86.339 16.6747 86.339 17.592V22.616C86.339 22.7227 86.3017 22.8133 86.227 22.888C86.163 22.9627 86.0723 23 85.955 23H84.659C84.5523 23 84.4617 22.9627 84.387 22.888C84.3123 22.8133 84.275 22.7227 84.275 22.616V21.992C84.0403 22.3333 83.7043 22.616 83.267 22.84C82.8403 23.0533 82.307 23.16 81.667 23.16ZM82.211 21.64C82.7977 21.64 83.2777 21.448 83.651 21.064C84.0243 20.68 84.211 20.12 84.211 19.384V19.048L82.611 19.304C81.9923 19.4 81.523 19.5547 81.203 19.768C80.8937 19.9813 80.739 20.2427 80.739 20.552C80.739 20.8933 80.883 21.16 81.171 21.352C81.459 21.544 81.8057 21.64 82.211 21.64ZM95.7919 23.16C94.6079 23.16 93.6639 22.8187 92.9599 22.136C92.2665 21.4427 91.8985 20.472 91.8559 19.224L91.8399 18.824L91.8559 18.424C91.9092 17.208 92.2825 16.2533 92.9759 15.56C93.6799 14.8667 94.6185 14.52 95.7919 14.52C97.0505 14.52 98.0212 14.904 98.7039 15.672C99.3972 16.44 99.7439 17.464 99.7439 18.744V19.08C99.7439 19.1867 99.7065 19.2773 99.6319 19.352C99.5572 19.4267 99.4612 19.464 99.3439 19.464H94.0319V19.592C94.0532 20.1787 94.2132 20.6747 94.5119 21.08C94.8212 21.4747 95.2425 21.672 95.7759 21.672C96.4052 21.672 96.9119 21.4267 97.2959 20.936C97.3919 20.8187 97.4665 20.744 97.5199 20.712C97.5839 20.68 97.6745 20.664 97.7919 20.664H99.1679C99.2639 20.664 99.3439 20.696 99.4079 20.76C99.4825 20.8133 99.5199 20.8827 99.5199 20.968C99.5199 21.224 99.3652 21.528 99.0559 21.88C98.7572 22.2213 98.3252 22.52 97.7599 22.776C97.1945 23.032 96.5385 23.16 95.7919 23.16ZM97.5679 18.12V18.072C97.5679 17.4427 97.4079 16.936 97.0879 16.552C96.7785 16.168 96.3465 15.976 95.7919 15.976C95.2372 15.976 94.8052 16.168 94.4959 16.552C94.1865 16.936 94.0319 17.4427 94.0319 18.072V18.12H97.5679ZM105.251 23C104.28 23 103.55 22.7493 103.059 22.248C102.579 21.736 102.339 20.9893 102.339 20.008V16.376H101.075C100.968 16.376 100.878 16.3387 100.803 16.264C100.728 16.1787 100.691 16.0827 100.691 15.976V15.064C100.691 14.9573 100.728 14.8667 100.803 14.792C100.878 14.7173 100.968 14.68 101.075 14.68H102.339V12.024C102.339 11.9067 102.376 11.816 102.451 11.752C102.526 11.6773 102.616 11.64 102.723 11.64H104.019C104.136 11.64 104.227 11.6773 104.291 11.752C104.366 11.816 104.403 11.9067 104.403 12.024V14.68H106.403C106.52 14.68 106.611 14.7173 106.675 14.792C106.75 14.856 106.787 14.9467 106.787 15.064V15.976C106.787 16.0933 106.75 16.1893 106.675 16.264C106.6 16.3387 106.51 16.376 106.403 16.376H104.403V19.848C104.403 20.3067 104.483 20.6533 104.643 20.888C104.803 21.1227 105.07 21.24 105.443 21.24H106.547C106.654 21.24 106.744 21.2773 106.819 21.352C106.894 21.4267 106.931 21.5173 106.931 21.624V22.616C106.931 22.7227 106.894 22.8133 106.819 22.888C106.755 22.9627 106.664 23 106.547 23H105.251ZM112.19 23C111.22 23 110.489 22.7493 109.998 22.248C109.518 21.736 109.278 20.9893 109.278 20.008V16.376H108.014C107.908 16.376 107.817 16.3387 107.742 16.264C107.668 16.1787 107.63 16.0827 107.63 15.976V15.064C107.63 14.9573 107.668 14.8667 107.742 14.792C107.817 14.7173 107.908 14.68 108.014 14.68H109.278V12.024C109.278 11.9067 109.316 11.816 109.39 11.752C109.465 11.6773 109.556 11.64 109.662 11.64H110.958C111.076 11.64 111.166 11.6773 111.23 11.752C111.305 11.816 111.342 11.9067 111.342 12.024V14.68H113.342C113.46 14.68 113.55 14.7173 113.614 14.792C113.689 14.856 113.726 14.9467 113.726 15.064V15.976C113.726 16.0933 113.689 16.1893 113.614 16.264C113.54 16.3387 113.449 16.376 113.342 16.376H111.342V19.848C111.342 20.3067 111.422 20.6533 111.582 20.888C111.742 21.1227 112.009 21.24 112.382 21.24H113.486C113.593 21.24 113.684 21.2773 113.758 21.352C113.833 21.4267 113.87 21.5173 113.87 21.624V22.616C113.87 22.7227 113.833 22.8133 113.758 22.888C113.694 22.9627 113.604 23 113.486 23H112.19ZM119.506 23C119.399 23 119.309 22.9627 119.234 22.888C119.159 22.8133 119.122 22.7227 119.122 22.616V12.024C119.122 11.9067 119.159 11.816 119.234 11.752C119.309 11.6773 119.399 11.64 119.506 11.64H120.802C120.919 11.64 121.01 11.6773 121.074 11.752C121.149 11.816 121.186 11.9067 121.186 12.024V17.496L123.874 14.952C123.906 14.9307 123.959 14.888 124.034 14.824C124.098 14.7707 124.162 14.7333 124.226 14.712C124.29 14.6907 124.37 14.68 124.466 14.68H125.954C126.061 14.68 126.146 14.712 126.21 14.776C126.274 14.84 126.306 14.9253 126.306 15.032C126.306 15.128 126.253 15.224 126.146 15.32L122.85 18.408L126.546 22.376C126.653 22.4827 126.706 22.5733 126.706 22.648C126.706 22.7547 126.669 22.84 126.594 22.904C126.53 22.968 126.45 23 126.354 23H124.834C124.685 23 124.573 22.984 124.498 22.952C124.434 22.9093 124.349 22.8347 124.242 22.728L121.186 19.512V22.616C121.186 22.7227 121.149 22.8133 121.074 22.888C121.01 22.9627 120.919 23 120.802 23H119.506ZM131.272 23.16C130.024 23.16 129.059 22.84 128.376 22.2C127.694 21.5493 127.326 20.664 127.272 19.544L127.256 18.84L127.272 18.136C127.326 17.0267 127.699 16.1467 128.392 15.496C129.086 14.8453 130.046 14.52 131.272 14.52C132.499 14.52 133.459 14.8453 134.152 15.496C134.846 16.1467 135.219 17.0267 135.272 18.136C135.283 18.264 135.288 18.4987 135.288 18.84C135.288 19.1813 135.283 19.416 135.272 19.544C135.219 20.664 134.851 21.5493 134.168 22.2C133.486 22.84 132.52 23.16 131.272 23.16ZM131.272 21.576C131.838 21.576 132.275 21.4 132.584 21.048C132.894 20.6853 133.064 20.1573 133.096 19.464C133.107 19.3573 133.112 19.1493 133.112 18.84C133.112 18.5307 133.107 18.3227 133.096 18.216C133.064 17.5227 132.894 17 132.584 16.648C132.275 16.2853 131.838 16.104 131.272 16.104C130.707 16.104 130.27 16.2853 129.96 16.648C129.651 17 129.48 17.5227 129.448 18.216L129.432 18.84L129.448 19.464C129.48 20.1573 129.651 20.6853 129.96 21.048C130.27 21.4 130.707 21.576 131.272 21.576ZM137.525 23C137.418 23 137.328 22.9627 137.253 22.888C137.178 22.8133 137.141 22.7227 137.141 22.616V15.064C137.141 14.9573 137.178 14.8667 137.253 14.792C137.328 14.7173 137.418 14.68 137.525 14.68H138.837C138.944 14.68 139.034 14.7173 139.109 14.792C139.184 14.8667 139.221 14.9573 139.221 15.064V15.72C139.85 14.92 140.741 14.52 141.893 14.52C142.874 14.52 143.653 14.8453 144.229 15.496C144.805 16.136 145.093 17.0107 145.093 18.12V22.616C145.093 22.7227 145.056 22.8133 144.981 22.888C144.917 22.9627 144.826 23 144.709 23H143.301C143.194 23 143.104 22.9627 143.029 22.888C142.954 22.8133 142.917 22.7227 142.917 22.616V18.216C142.917 17.5867 142.762 17.1013 142.453 16.76C142.154 16.408 141.717 16.232 141.141 16.232C140.576 16.232 140.128 16.408 139.797 16.76C139.477 17.112 139.317 17.5973 139.317 18.216V22.616C139.317 22.7227 139.28 22.8133 139.205 22.888C139.141 22.9627 139.05 23 138.933 23H137.525ZM150.872 23C149.901 23 149.17 22.7493 148.68 22.248C148.2 21.736 147.96 20.9893 147.96 20.008V16.376H146.696C146.589 16.376 146.498 16.3387 146.424 16.264C146.349 16.1787 146.312 16.0827 146.312 15.976V15.064C146.312 14.9573 146.349 14.8667 146.424 14.792C146.498 14.7173 146.589 14.68 146.696 14.68H147.96V12.024C147.96 11.9067 147.997 11.816 148.072 11.752C148.146 11.6773 148.237 11.64 148.344 11.64H149.64C149.757 11.64 149.848 11.6773 149.912 11.752C149.986 11.816 150.024 11.9067 150.024 12.024V14.68H152.024C152.141 14.68 152.232 14.7173 152.296 14.792C152.37 14.856 152.408 14.9467 152.408 15.064V15.976C152.408 16.0933 152.37 16.1893 152.296 16.264C152.221 16.3387 152.13 16.376 152.024 16.376H150.024V19.848C150.024 20.3067 150.104 20.6533 150.264 20.888C150.424 21.1227 150.69 21.24 151.064 21.24H152.168C152.274 21.24 152.365 21.2773 152.44 21.352C152.514 21.4267 152.552 21.5173 152.552 21.624V22.616C152.552 22.7227 152.514 22.8133 152.44 22.888C152.376 22.9627 152.285 23 152.168 23H150.872ZM157.731 23.16C156.483 23.16 155.518 22.84 154.835 22.2C154.152 21.5493 153.784 20.664 153.731 19.544L153.715 18.84L153.731 18.136C153.784 17.0267 154.158 16.1467 154.851 15.496C155.544 14.8453 156.504 14.52 157.731 14.52C158.958 14.52 159.918 14.8453 160.611 15.496C161.304 16.1467 161.678 17.0267 161.731 18.136C161.742 18.264 161.747 18.4987 161.747 18.84C161.747 19.1813 161.742 19.416 161.731 19.544C161.678 20.664 161.31 21.5493 160.627 22.2C159.944 22.84 158.979 23.16 157.731 23.16ZM157.731 21.576C158.296 21.576 158.734 21.4 159.043 21.048C159.352 20.6853 159.523 20.1573 159.555 19.464C159.566 19.3573 159.571 19.1493 159.571 18.84C159.571 18.5307 159.566 18.3227 159.555 18.216C159.523 17.5227 159.352 17 159.043 16.648C158.734 16.2853 158.296 16.104 157.731 16.104C157.166 16.104 156.728 16.2853 156.419 16.648C156.11 17 155.939 17.5227 155.907 18.216L155.891 18.84L155.907 19.464C155.939 20.1573 156.11 20.6853 156.419 21.048C156.728 21.4 157.166 21.576 157.731 21.576ZM171.096 26.52C170.147 26.52 169.379 26.36 168.792 26.04C168.205 25.7307 167.789 25.3733 167.544 24.968C167.299 24.5627 167.176 24.216 167.176 23.928C167.176 23.832 167.213 23.7467 167.288 23.672C167.373 23.5973 167.464 23.56 167.56 23.56H168.952C169.048 23.56 169.128 23.5813 169.192 23.624C169.267 23.6773 169.325 23.768 169.368 23.896C169.475 24.184 169.645 24.424 169.88 24.616C170.125 24.8187 170.504 24.92 171.016 24.92C171.656 24.92 172.125 24.776 172.424 24.488C172.733 24.2 172.888 23.704 172.888 23V21.912C172.301 22.6053 171.48 22.952 170.424 22.952C169.315 22.952 168.477 22.6107 167.912 21.928C167.357 21.2453 167.059 20.328 167.016 19.176L167 18.744L167.016 18.312C167.059 17.1813 167.363 16.2693 167.928 15.576C168.493 14.872 169.325 14.52 170.424 14.52C170.989 14.52 171.485 14.6267 171.912 14.84C172.339 15.0533 172.696 15.3467 172.984 15.72V15.08C172.984 14.9627 173.021 14.8667 173.096 14.792C173.171 14.7173 173.261 14.68 173.368 14.68H174.664C174.771 14.68 174.861 14.7227 174.936 14.808C175.011 14.8827 175.048 14.9733 175.048 15.08L175.064 22.792C175.064 23.976 174.733 24.8933 174.072 25.544C173.411 26.1947 172.419 26.52 171.096 26.52ZM171.016 21.256C171.624 21.256 172.077 21.064 172.376 20.68C172.685 20.296 172.856 19.8267 172.888 19.272C172.899 19.1867 172.904 19.0107 172.904 18.744C172.904 18.488 172.899 18.3173 172.888 18.232C172.856 17.6667 172.685 17.192 172.376 16.808C172.077 16.424 171.624 16.232 171.016 16.232C169.864 16.232 169.256 16.9413 169.192 18.36L169.176 18.744C169.176 19.5013 169.309 20.1093 169.576 20.568C169.853 21.0267 170.333 21.256 171.016 21.256ZM177.659 23C177.553 23 177.462 22.9627 177.387 22.888C177.313 22.8133 177.275 22.7227 177.275 22.616V15.08C177.275 14.9733 177.313 14.8827 177.387 14.808C177.462 14.7227 177.553 14.68 177.659 14.68H178.955C179.073 14.68 179.169 14.7173 179.243 14.792C179.318 14.8667 179.355 14.9627 179.355 15.08V15.736C179.611 15.3947 179.931 15.1333 180.315 14.952C180.71 14.7707 181.158 14.68 181.659 14.68H182.315C182.433 14.68 182.523 14.7173 182.587 14.792C182.662 14.856 182.699 14.9467 182.699 15.064V16.216C182.699 16.3227 182.662 16.4133 182.587 16.488C182.523 16.5627 182.433 16.6 182.315 16.6H181.067C180.566 16.6 180.171 16.744 179.883 17.032C179.595 17.32 179.451 17.7147 179.451 18.216V22.616C179.451 22.7227 179.414 22.8133 179.339 22.888C179.265 22.9627 179.169 23 179.051 23H177.659ZM186.318 23.16C185.774 23.16 185.273 23.0533 184.814 22.84C184.366 22.616 184.009 22.3173 183.742 21.944C183.486 21.5707 183.358 21.16 183.358 20.712C183.358 19.9867 183.652 19.4 184.238 18.952C184.825 18.504 185.63 18.2 186.654 18.04L188.846 17.72V17.384C188.846 16.9147 188.729 16.5627 188.494 16.328C188.26 16.0933 187.881 15.976 187.358 15.976C187.006 15.976 186.718 16.0453 186.494 16.184C186.281 16.312 186.11 16.44 185.982 16.568C185.854 16.7067 185.769 16.7973 185.726 16.84C185.684 16.968 185.604 17.032 185.486 17.032H184.254C184.158 17.032 184.073 17 183.998 16.936C183.934 16.872 183.902 16.7867 183.902 16.68C183.913 16.4133 184.041 16.1093 184.286 15.768C184.542 15.4267 184.932 15.1333 185.454 14.888C185.977 14.6427 186.617 14.52 187.374 14.52C188.633 14.52 189.55 14.8027 190.126 15.368C190.702 15.9333 190.99 16.6747 190.99 17.592V22.616C190.99 22.7227 190.953 22.8133 190.878 22.888C190.814 22.9627 190.724 23 190.606 23H189.31C189.204 23 189.113 22.9627 189.038 22.888C188.964 22.8133 188.926 22.7227 188.926 22.616V21.992C188.692 22.3333 188.356 22.616 187.918 22.84C187.492 23.0533 186.958 23.16 186.318 23.16ZM186.862 21.64C187.449 21.64 187.929 21.448 188.302 21.064C188.676 20.68 188.862 20.12 188.862 19.384V19.048L187.262 19.304C186.644 19.4 186.174 19.5547 185.854 19.768C185.545 19.9813 185.39 20.2427 185.39 20.552C185.39 20.8933 185.534 21.16 185.822 21.352C186.11 21.544 186.457 21.64 186.862 21.64ZM196.805 23C195.834 23 195.103 22.7493 194.613 22.248C194.133 21.736 193.893 20.9893 193.893 20.008V16.376H192.629C192.522 16.376 192.431 16.3387 192.357 16.264C192.282 16.1787 192.245 16.0827 192.245 15.976V15.064C192.245 14.9573 192.282 14.8667 192.357 14.792C192.431 14.7173 192.522 14.68 192.629 14.68H193.893V12.024C193.893 11.9067 193.93 11.816 194.005 11.752C194.079 11.6773 194.17 11.64 194.277 11.64H195.573C195.69 11.64 195.781 11.6773 195.845 11.752C195.919 11.816 195.957 11.9067 195.957 12.024V14.68H197.957C198.074 14.68 198.165 14.7173 198.229 14.792C198.303 14.856 198.341 14.9467 198.341 15.064V15.976C198.341 16.0933 198.303 16.1893 198.229 16.264C198.154 16.3387 198.063 16.376 197.957 16.376H195.957V19.848C195.957 20.3067 196.037 20.6533 196.197 20.888C196.357 21.1227 196.623 21.24 196.997 21.24H198.101C198.207 21.24 198.298 21.2773 198.373 21.352C198.447 21.4267 198.485 21.5173 198.485 21.624V22.616C198.485 22.7227 198.447 22.8133 198.373 22.888C198.309 22.9627 198.218 23 198.101 23H196.805ZM200.304 13.304C200.197 13.304 200.107 13.2667 200.032 13.192C199.957 13.1173 199.92 13.0267 199.92 12.92V11.768C199.92 11.6613 199.957 11.5707 200.032 11.496C200.107 11.4213 200.197 11.384 200.304 11.384H201.76C201.867 11.384 201.957 11.4213 202.032 11.496C202.117 11.5707 202.16 11.6613 202.16 11.768V12.92C202.16 13.0267 202.123 13.1173 202.048 13.192C201.973 13.2667 201.877 13.304 201.76 13.304H200.304ZM200.368 23C200.261 23 200.171 22.9627 200.096 22.888C200.021 22.8133 199.984 22.7227 199.984 22.616V15.064C199.984 14.9573 200.021 14.8667 200.096 14.792C200.171 14.7173 200.261 14.68 200.368 14.68H201.696C201.813 14.68 201.904 14.7173 201.968 14.792C202.043 14.856 202.08 14.9467 202.08 15.064V22.616C202.08 22.7227 202.043 22.8133 201.968 22.888C201.904 22.9627 201.813 23 201.696 23H200.368ZM207.435 23.16C206.635 23.16 205.963 23.0427 205.419 22.808C204.875 22.5627 204.47 22.28 204.203 21.96C203.947 21.6293 203.819 21.3467 203.819 21.112C203.819 21.0053 203.856 20.92 203.931 20.856C204.006 20.792 204.091 20.76 204.187 20.76H205.451C205.547 20.76 205.627 20.7973 205.691 20.872C205.734 20.904 205.846 21 206.027 21.16C206.208 21.3307 206.422 21.464 206.667 21.56C206.912 21.656 207.184 21.704 207.483 21.704C207.91 21.704 208.262 21.6187 208.539 21.448C208.816 21.2773 208.955 21.0427 208.955 20.744C208.955 20.52 208.891 20.3387 208.763 20.2C208.646 20.0613 208.427 19.9387 208.107 19.832C207.787 19.7147 207.312 19.592 206.683 19.464C205.776 19.272 205.104 18.9787 204.667 18.584C204.24 18.1893 204.027 17.6667 204.027 17.016C204.027 16.5893 204.155 16.1893 204.411 15.816C204.667 15.432 205.046 15.1227 205.547 14.888C206.059 14.6427 206.667 14.52 207.371 14.52C208.086 14.52 208.704 14.6373 209.227 14.872C209.75 15.096 210.144 15.368 210.411 15.688C210.688 15.9973 210.827 16.2747 210.827 16.52C210.827 16.616 210.79 16.7013 210.715 16.776C210.651 16.84 210.571 16.872 210.475 16.872H209.291C209.206 16.872 209.115 16.8347 209.019 16.76C208.944 16.7067 208.827 16.6053 208.667 16.456C208.507 16.3067 208.32 16.1893 208.107 16.104C207.894 16.0187 207.643 15.976 207.355 15.976C206.96 15.976 206.651 16.0613 206.427 16.232C206.214 16.4027 206.107 16.6267 206.107 16.904C206.107 17.1067 206.16 17.272 206.267 17.4C206.374 17.528 206.582 17.6507 206.891 17.768C207.2 17.8853 207.664 18.0027 208.283 18.12C209.307 18.3227 210.038 18.6373 210.475 19.064C210.923 19.4907 211.147 20.0133 211.147 20.632C211.147 21.3787 210.822 21.9867 210.171 22.456C209.52 22.9253 208.608 23.16 207.435 23.16ZM213.31 19.896C213.204 19.896 213.113 19.8587 213.038 19.784C212.964 19.7093 212.926 19.6187 212.926 19.512V12.184C212.926 12.0773 212.964 11.9867 213.038 11.912C213.113 11.8373 213.204 11.8 213.31 11.8H214.606C214.724 11.8 214.814 11.8373 214.878 11.912C214.953 11.976 214.99 12.0667 214.99 12.184V19.512C214.99 19.6187 214.953 19.7093 214.878 19.784C214.814 19.8587 214.724 19.896 214.606 19.896H213.31ZM213.214 23C213.108 23 213.017 22.9627 212.942 22.888C212.868 22.8133 212.83 22.7227 212.83 22.616V21.128C212.83 21.0107 212.868 20.9147 212.942 20.84C213.017 20.7653 213.108 20.728 213.214 20.728H214.702C214.82 20.728 214.916 20.7653 214.99 20.84C215.065 20.9147 215.102 21.0107 215.102 21.128V22.616C215.102 22.7227 215.065 22.8133 214.99 22.888C214.916 22.9627 214.82 23 214.702 23H213.214Z" fill="black"/>
<rect x="0.5" y="0.5" width="256" height="35" rx="17.5" stroke="black"/>
</g>
</svg>
