<svg width="17" height="16" viewBox="0 0 17 16" fill="none" xmlns="http://www.w3.org/2000/svg">
<g opacity="0.3">
<path d="M5.06575 1.36575L1.86575 4.56575L0.734375 3.43438L3.93437 0.234375L5.06575 1.36575Z" fill="black"/>
<path d="M15.1343 4.56575L11.9343 1.36575L13.0657 0.234375L16.2657 3.43438L15.1343 4.56575Z" fill="black"/>
<path fill-rule="evenodd" clip-rule="evenodd" d="M1.30002 8.80005C1.30002 4.8236 4.52357 1.60005 8.50002 1.60005C12.4765 1.60005 15.7 4.8236 15.7 8.80005C15.7 12.7765 12.4765 16 8.50002 16C4.52357 16 1.30002 12.7765 1.30002 8.80005ZM7.30002 9.60005V4.40005H8.90002V8.0455L10.435 6.94906L11.365 8.25104L8.56501 10.251C8.32116 10.4252 8.00041 10.4485 7.73396 10.3114C7.4675 10.1743 7.30002 9.89972 7.30002 9.60005Z" fill="black"/>
</g>
</svg>
