<svg width="106" height="36" viewBox="0 0 106 36" fill="none" xmlns="http://www.w3.org/2000/svg">
<path opacity="0.3" d="M53.5663 3.2C54.4499 3.2 55.1663 2.48366 55.1663 1.6C55.1663 0.716344 54.4499 0 53.5663 0C52.6826 0 51.9663 0.716344 51.9663 1.6L51.9662 3.49377L50.3689 3.2941C49.5659 3.19374 48.8144 3.70866 48.6182 4.49369L47.9901 7.00597L49.5423 7.39403L50.1704 4.88175L51.7945 5.08476L51.1806 7.84736L50.8145 10.0443L48.1642 13.0732L49.3683 14.1268L52.0186 11.0979C52.2143 10.8742 52.3439 10.6005 52.3927 10.3073L52.539 9.42958L54.3662 10.8V14.4H55.9662V10.8C55.9662 10.2964 55.7291 9.82217 55.3262 9.52L52.8591 7.66969L53.3249 5.57377L54.3932 6.10792C54.9068 6.3647 55.5185 6.32661 55.9963 6.00812L58.01 4.66564L57.1225 3.33436L55.1088 4.67684L53.5662 3.90557L53.5663 3.2Z" fill="black"/>
<path opacity="0.5" d="M26.1026 32.4C26.0226 32.4 25.9586 32.376 25.9106 32.328C25.8626 32.28 25.8386 32.216 25.8386 32.136V24.984L23.6906 26.64C23.6266 26.68 23.5706 26.7 23.5226 26.7C23.4426 26.7 23.3746 26.664 23.3186 26.592L23.1866 26.424C23.1466 26.368 23.1266 26.312 23.1266 26.256C23.1266 26.176 23.1626 26.108 23.2346 26.052L25.7906 24.084C25.8706 24.028 25.9746 24 26.1026 24H26.3306C26.4106 24 26.4746 24.024 26.5226 24.072C26.5706 24.12 26.5946 24.184 26.5946 24.264V32.136C26.5946 32.216 26.5706 32.28 26.5226 32.328C26.4746 32.376 26.4106 32.4 26.3306 32.4H26.1026ZM31.3279 32.52C30.3199 32.52 29.5919 32.216 29.1439 31.608C28.7039 31 28.4719 30.2 28.4479 29.208L28.4359 28.212L28.4479 27.192C28.4719 26.2 28.7039 25.4 29.1439 24.792C29.5919 24.184 30.3199 23.88 31.3279 23.88C32.3359 23.88 33.0599 24.184 33.4999 24.792C33.9479 25.4 34.1839 26.2 34.2079 27.192C34.2159 27.416 34.2199 27.756 34.2199 28.212C34.2199 28.66 34.2159 28.992 34.2079 29.208C34.1839 30.2 33.9479 31 33.4999 31.608C33.0599 32.216 32.3359 32.52 31.3279 32.52ZM31.3279 31.8C32.0159 31.8 32.5359 31.572 32.8879 31.116C33.2479 30.652 33.4359 29.996 33.4519 29.148C33.4599 28.916 33.4639 28.596 33.4639 28.188C33.4639 27.78 33.4599 27.468 33.4519 27.252C33.4359 26.42 33.2479 25.772 32.8879 25.308C32.5359 24.836 32.0159 24.6 31.3279 24.6C30.6399 24.6 30.1159 24.836 29.7559 25.308C29.4039 25.772 29.2199 26.42 29.2039 27.252L29.1919 28.188L29.2039 29.148C29.2199 29.996 29.4039 30.652 29.7559 31.116C30.1159 31.572 30.6399 31.8 31.3279 31.8ZM36.0038 32.4C35.9238 32.4 35.8598 32.376 35.8118 32.328C35.7638 32.28 35.7398 32.216 35.7398 32.136V31.56C35.7398 31.48 35.7638 31.416 35.8118 31.368C35.8598 31.312 35.9238 31.284 36.0038 31.284H36.5798C36.6598 31.284 36.7238 31.312 36.7718 31.368C36.8278 31.416 36.8558 31.48 36.8558 31.56V32.136C36.8558 32.216 36.8278 32.28 36.7718 32.328C36.7238 32.376 36.6598 32.4 36.5798 32.4H36.0038ZM41.2565 32.52C40.2485 32.52 39.5205 32.216 39.0725 31.608C38.6325 31 38.4005 30.2 38.3765 29.208L38.3645 28.212L38.3765 27.192C38.4005 26.2 38.6325 25.4 39.0725 24.792C39.5205 24.184 40.2485 23.88 41.2565 23.88C42.2645 23.88 42.9885 24.184 43.4285 24.792C43.8765 25.4 44.1125 26.2 44.1365 27.192C44.1445 27.416 44.1485 27.756 44.1485 28.212C44.1485 28.66 44.1445 28.992 44.1365 29.208C44.1125 30.2 43.8765 31 43.4285 31.608C42.9885 32.216 42.2645 32.52 41.2565 32.52ZM41.2565 31.8C41.9445 31.8 42.4645 31.572 42.8165 31.116C43.1765 30.652 43.3645 29.996 43.3805 29.148C43.3885 28.916 43.3925 28.596 43.3925 28.188C43.3925 27.78 43.3885 27.468 43.3805 27.252C43.3645 26.42 43.1765 25.772 42.8165 25.308C42.4645 24.836 41.9445 24.6 41.2565 24.6C40.5685 24.6 40.0445 24.836 39.6845 25.308C39.3325 25.772 39.1485 26.42 39.1325 27.252L39.1205 28.188L39.1325 29.148C39.1485 29.996 39.3325 30.652 39.6845 31.116C40.0445 31.572 40.5685 31.8 41.2565 31.8ZM48.711 32.52C47.703 32.52 46.975 32.216 46.527 31.608C46.087 31 45.855 30.2 45.831 29.208L45.819 28.212L45.831 27.192C45.855 26.2 46.087 25.4 46.527 24.792C46.975 24.184 47.703 23.88 48.711 23.88C49.719 23.88 50.443 24.184 50.883 24.792C51.331 25.4 51.567 26.2 51.591 27.192C51.599 27.416 51.603 27.756 51.603 28.212C51.603 28.66 51.599 28.992 51.591 29.208C51.567 30.2 51.331 31 50.883 31.608C50.443 32.216 49.719 32.52 48.711 32.52ZM48.711 31.8C49.399 31.8 49.919 31.572 50.271 31.116C50.631 30.652 50.819 29.996 50.835 29.148C50.843 28.916 50.847 28.596 50.847 28.188C50.847 27.78 50.843 27.468 50.835 27.252C50.819 26.42 50.631 25.772 50.271 25.308C49.919 24.836 49.399 24.6 48.711 24.6C48.023 24.6 47.499 24.836 47.139 25.308C46.787 25.772 46.603 26.42 46.587 27.252L46.575 28.188L46.587 29.148C46.603 29.996 46.787 30.652 47.139 31.116C47.499 31.572 48.023 31.8 48.711 31.8ZM56.1655 32.52C55.1575 32.52 54.4295 32.216 53.9815 31.608C53.5415 31 53.3095 30.2 53.2855 29.208L53.2735 28.212L53.2855 27.192C53.3095 26.2 53.5415 25.4 53.9815 24.792C54.4295 24.184 55.1575 23.88 56.1655 23.88C57.1735 23.88 57.8975 24.184 58.3375 24.792C58.7855 25.4 59.0215 26.2 59.0455 27.192C59.0535 27.416 59.0575 27.756 59.0575 28.212C59.0575 28.66 59.0535 28.992 59.0455 29.208C59.0215 30.2 58.7855 31 58.3375 31.608C57.8975 32.216 57.1735 32.52 56.1655 32.52ZM56.1655 31.8C56.8535 31.8 57.3735 31.572 57.7255 31.116C58.0855 30.652 58.2735 29.996 58.2895 29.148C58.2975 28.916 58.3015 28.596 58.3015 28.188C58.3015 27.78 58.2975 27.468 58.2895 27.252C58.2735 26.42 58.0855 25.772 57.7255 25.308C57.3735 24.836 56.8535 24.6 56.1655 24.6C55.4775 24.6 54.9535 24.836 54.5935 25.308C54.2415 25.772 54.0575 26.42 54.0415 27.252L54.0295 28.188L54.0415 29.148C54.0575 29.996 54.2415 30.652 54.5935 31.116C54.9535 31.572 55.4775 31.8 56.1655 31.8ZM66.0298 32.52C65.5098 32.52 65.0698 32.432 64.7098 32.256C64.3578 32.08 64.0898 31.88 63.9058 31.656C63.7298 31.432 63.6418 31.252 63.6418 31.116C63.6418 31.044 63.6698 30.988 63.7258 30.948C63.7818 30.9 63.8418 30.876 63.9058 30.876H64.0858C64.1418 30.876 64.1858 30.888 64.2178 30.912C64.2578 30.928 64.3018 30.968 64.3498 31.032C64.5258 31.28 64.7378 31.476 64.9858 31.62C65.2418 31.756 65.5898 31.824 66.0298 31.824C66.5258 31.824 66.9258 31.732 67.2298 31.548C67.5338 31.356 67.6858 31.084 67.6858 30.732C67.6858 30.516 67.6218 30.34 67.4938 30.204C67.3738 30.068 67.1738 29.952 66.8938 29.856C66.6218 29.752 66.2138 29.636 65.6698 29.508C64.9578 29.348 64.4698 29.128 64.2058 28.848C63.9498 28.568 63.8218 28.212 63.8218 27.78C63.8218 27.484 63.9018 27.204 64.0618 26.94C64.2298 26.676 64.4738 26.46 64.7938 26.292C65.1218 26.124 65.5138 26.04 65.9698 26.04C66.4498 26.04 66.8538 26.124 67.1818 26.292C67.5178 26.452 67.7658 26.64 67.9258 26.856C68.0938 27.072 68.1778 27.248 68.1778 27.384C68.1778 27.456 68.1498 27.516 68.0938 27.564C68.0458 27.604 67.9858 27.624 67.9138 27.624H67.7338C67.6218 27.624 67.5338 27.572 67.4698 27.468C67.3098 27.228 67.1258 27.048 66.9178 26.928C66.7178 26.8 66.4018 26.736 65.9698 26.736C65.5058 26.736 65.1538 26.832 64.9138 27.024C64.6738 27.216 64.5538 27.468 64.5538 27.78C64.5538 27.972 64.6018 28.132 64.6978 28.26C64.7938 28.388 64.9738 28.508 65.2378 28.62C65.5018 28.724 65.8858 28.832 66.3898 28.944C67.1338 29.112 67.6578 29.336 67.9618 29.616C68.2658 29.896 68.4178 30.268 68.4178 30.732C68.4178 31.06 68.3258 31.36 68.1418 31.632C67.9578 31.904 67.6858 32.12 67.3258 32.28C66.9658 32.44 66.5338 32.52 66.0298 32.52ZM72.1161 32.4C71.5241 32.4 71.1041 32.224 70.8561 31.872C70.6081 31.512 70.4841 31.02 70.4841 30.396V26.856H69.5481C69.4681 26.856 69.4041 26.832 69.3561 26.784C69.3081 26.736 69.2841 26.672 69.2841 26.592V26.424C69.2841 26.344 69.3081 26.28 69.3561 26.232C69.4041 26.184 69.4681 26.16 69.5481 26.16H70.4841V24.144C70.4841 24.064 70.5081 24 70.5561 23.952C70.6041 23.904 70.6681 23.88 70.7481 23.88H70.9521C71.0321 23.88 71.0961 23.904 71.1441 23.952C71.1921 24 71.2161 24.064 71.2161 24.144V26.16H72.7041C72.7841 26.16 72.8481 26.184 72.8961 26.232C72.9441 26.28 72.9681 26.344 72.9681 26.424V26.592C72.9681 26.672 72.9441 26.736 72.8961 26.784C72.8481 26.832 72.7841 26.856 72.7041 26.856H71.2161V30.348C71.2161 30.796 71.2881 31.136 71.4321 31.368C71.5841 31.592 71.8321 31.704 72.1761 31.704H72.8241C72.9041 31.704 72.9681 31.728 73.0161 31.776C73.0641 31.824 73.0881 31.888 73.0881 31.968V32.136C73.0881 32.216 73.0641 32.28 73.0161 32.328C72.9681 32.376 72.9041 32.4 72.8241 32.4H72.1161ZM76.7046 32.52C75.9446 32.52 75.3326 32.272 74.8686 31.776C74.4046 31.272 74.1406 30.6 74.0766 29.76L74.0646 29.28L74.0766 28.8C74.1406 27.968 74.4006 27.3 74.8566 26.796C75.3206 26.292 75.9366 26.04 76.7046 26.04C77.5366 26.04 78.1846 26.316 78.6486 26.868C79.1206 27.42 79.3566 28.176 79.3566 29.136V29.316C79.3566 29.396 79.3286 29.46 79.2726 29.508C79.2246 29.556 79.1606 29.58 79.0806 29.58H74.8086V29.7C74.8246 30.076 74.9086 30.428 75.0606 30.756C75.2206 31.076 75.4406 31.336 75.7206 31.536C76.0006 31.728 76.3286 31.824 76.7046 31.824C77.1446 31.824 77.5006 31.74 77.7726 31.572C78.0526 31.396 78.2526 31.22 78.3726 31.044C78.4446 30.948 78.4966 30.888 78.5286 30.864C78.5686 30.84 78.6366 30.828 78.7326 30.828H78.9246C78.9966 30.828 79.0566 30.848 79.1046 30.888C79.1526 30.928 79.1766 30.98 79.1766 31.044C79.1766 31.212 79.0686 31.416 78.8526 31.656C78.6446 31.888 78.3526 32.092 77.9766 32.268C77.6006 32.436 77.1766 32.52 76.7046 32.52ZM78.6246 28.908V28.86C78.6246 28.244 78.4486 27.736 78.0966 27.336C77.7526 26.936 77.2886 26.736 76.7046 26.736C76.1206 26.736 75.6566 26.936 75.3126 27.336C74.9766 27.736 74.8086 28.244 74.8086 28.86V28.908H78.6246ZM83.3273 35.04C82.7033 35.04 82.2033 34.932 81.8273 34.716C81.4513 34.5 81.1873 34.252 81.0353 33.972C80.8913 33.7 80.8193 33.46 80.8193 33.252C80.8193 33.18 80.8433 33.12 80.8913 33.072C80.9473 33.024 81.0113 33 81.0833 33H81.2513C81.3233 33 81.3793 33.016 81.4193 33.048C81.4673 33.088 81.5073 33.156 81.5393 33.252C81.7873 33.98 82.3633 34.344 83.2673 34.344C83.9553 34.344 84.4633 34.2 84.7913 33.912C85.1193 33.632 85.2833 33.128 85.2833 32.4V31.572C84.8193 32.204 84.1473 32.52 83.2673 32.52C82.4033 32.52 81.7633 32.24 81.3473 31.68C80.9393 31.112 80.7233 30.424 80.6993 29.616L80.6873 29.28L80.6993 28.944C80.7233 28.136 80.9393 27.452 81.3473 26.892C81.7633 26.324 82.4033 26.04 83.2673 26.04C84.1393 26.04 84.8113 26.356 85.2833 26.988V26.436C85.2833 26.356 85.3073 26.292 85.3553 26.244C85.4033 26.188 85.4673 26.16 85.5473 26.16H85.7393C85.8193 26.16 85.8833 26.188 85.9313 26.244C85.9873 26.292 86.0153 26.356 86.0153 26.436V32.28C86.0153 33.136 85.8153 33.808 85.4153 34.296C85.0153 34.792 84.3193 35.04 83.3273 35.04ZM83.3393 31.824C83.9713 31.824 84.4473 31.616 84.7673 31.2C85.0873 30.776 85.2593 30.28 85.2833 29.712C85.2913 29.632 85.2953 29.488 85.2953 29.28C85.2953 29.072 85.2913 28.928 85.2833 28.848C85.2593 28.28 85.0873 27.788 84.7673 27.372C84.4473 26.948 83.9713 26.736 83.3393 26.736C82.6913 26.736 82.2153 26.944 81.9113 27.36C81.6153 27.768 81.4553 28.296 81.4313 28.944L81.4193 29.28L81.4313 29.616C81.4553 30.264 81.6153 30.796 81.9113 31.212C82.2153 31.62 82.6913 31.824 83.3393 31.824Z" fill="#343434"/>
</svg>
