<svg width="108" height="35" viewBox="0 0 108 35" fill="none" xmlns="http://www.w3.org/2000/svg">
<g opacity="0.3">
<path d="M50.5657 1.36568L47.3657 4.56568L46.2344 3.43431L49.4344 0.234314L50.5657 1.36568Z" fill="black"/>
<path d="M60.6343 4.56568L57.4343 1.36568L58.5657 0.234314L61.7657 3.43431L60.6343 4.56568Z" fill="black"/>
<path fill-rule="evenodd" clip-rule="evenodd" d="M46.8 8.79999C46.8 4.82354 50.0236 1.59999 54 1.59999C57.9765 1.59999 61.2 4.82354 61.2 8.79999C61.2 12.7764 57.9765 16 54 16C50.0236 16 46.8 12.7764 46.8 8.79999ZM52.8 9.59999V4.39999H54.4V8.04544L55.935 6.949L56.865 8.25098L54.065 10.251C53.8212 10.4252 53.5004 10.4484 53.234 10.3113C52.9675 10.1742 52.8 9.89966 52.8 9.59999Z" fill="black"/>
</g>
<path opacity="0.5" d="M29.2179 33.12C28.3859 33.12 27.7419 32.88 27.2859 32.4C26.8299 31.912 26.5899 31.232 26.5659 30.36L26.5539 29.88L26.5659 29.4C26.5899 28.528 26.8299 27.852 27.2859 27.372C27.7419 26.884 28.3859 26.64 29.2179 26.64C29.7459 26.64 30.1939 26.736 30.5619 26.928C30.9379 27.112 31.2179 27.352 31.4019 27.648C31.5859 27.936 31.6859 28.236 31.7019 28.548C31.7099 28.62 31.6859 28.684 31.6299 28.74C31.5739 28.788 31.5099 28.812 31.4379 28.812H31.2699C31.1899 28.812 31.1299 28.796 31.0899 28.764C31.0579 28.724 31.0219 28.656 30.9819 28.56C30.8219 28.12 30.5979 27.808 30.3099 27.624C30.0219 27.432 29.6579 27.336 29.2179 27.336C28.6419 27.336 28.1819 27.512 27.8379 27.864C27.5019 28.208 27.3219 28.74 27.2979 29.46L27.2859 29.88L27.2979 30.3C27.3219 31.02 27.5019 31.556 27.8379 31.908C28.1819 32.252 28.6419 32.424 29.2179 32.424C29.6579 32.424 30.0219 32.332 30.3099 32.148C30.5979 31.956 30.8219 31.64 30.9819 31.2C31.0219 31.104 31.0579 31.04 31.0899 31.008C31.1299 30.968 31.1899 30.948 31.2699 30.948H31.4379C31.5099 30.948 31.5739 30.976 31.6299 31.032C31.6859 31.08 31.7099 31.14 31.7019 31.212C31.6859 31.524 31.5859 31.828 31.4019 32.124C31.2179 32.412 30.9379 32.652 30.5619 32.844C30.1939 33.028 29.7459 33.12 29.2179 33.12ZM35.0275 33.12C34.6435 33.12 34.2875 33.04 33.9595 32.88C33.6315 32.72 33.3675 32.504 33.1675 32.232C32.9755 31.96 32.8795 31.66 32.8795 31.332C32.8795 30.804 33.0915 30.372 33.5155 30.036C33.9475 29.7 34.5275 29.484 35.2555 29.388L37.1515 29.124V28.704C37.1515 28.264 37.0155 27.928 36.7435 27.696C36.4795 27.456 36.0715 27.336 35.5195 27.336C35.1115 27.336 34.7755 27.416 34.5115 27.576C34.2555 27.736 34.0915 27.928 34.0195 28.152C33.9875 28.248 33.9475 28.316 33.8995 28.356C33.8595 28.388 33.8035 28.404 33.7315 28.404H33.5635C33.4915 28.404 33.4275 28.38 33.3715 28.332C33.3235 28.276 33.2995 28.212 33.2995 28.14C33.2995 27.964 33.3795 27.76 33.5395 27.528C33.6995 27.288 33.9475 27.08 34.2835 26.904C34.6195 26.728 35.0315 26.64 35.5195 26.64C36.3755 26.64 36.9835 26.844 37.3435 27.252C37.7035 27.66 37.8835 28.156 37.8835 28.74V32.736C37.8835 32.816 37.8595 32.88 37.8115 32.928C37.7635 32.976 37.6995 33 37.6195 33H37.4155C37.3355 33 37.2715 32.976 37.2235 32.928C37.1755 32.88 37.1515 32.816 37.1515 32.736V32.172C36.9755 32.436 36.7155 32.66 36.3715 32.844C36.0355 33.028 35.5875 33.12 35.0275 33.12ZM35.1475 32.424C35.7315 32.424 36.2115 32.232 36.5875 31.848C36.9635 31.464 37.1515 30.912 37.1515 30.192V29.784L35.6035 30C34.9475 30.088 34.4515 30.24 34.1155 30.456C33.7795 30.672 33.6115 30.944 33.6115 31.272C33.6115 31.64 33.7635 31.924 34.0675 32.124C34.3795 32.324 34.7395 32.424 35.1475 32.424ZM40.0091 33C39.9291 33 39.8651 32.976 39.8171 32.928C39.7691 32.88 39.7451 32.816 39.7451 32.736V32.16C39.7451 32.08 39.7691 32.016 39.8171 31.968C39.8651 31.912 39.9291 31.884 40.0091 31.884H40.5851C40.6651 31.884 40.7291 31.912 40.7771 31.968C40.8331 32.016 40.8611 32.08 40.8611 32.16V32.736C40.8611 32.816 40.8331 32.88 40.7771 32.928C40.7291 32.976 40.6651 33 40.5851 33H40.0091ZM48.5182 33.12C47.9022 33.12 47.3742 32.988 46.9342 32.724C46.4942 32.46 46.1622 32.112 45.9382 31.68C45.7142 31.248 45.6022 30.784 45.6022 30.288C45.6022 29.592 45.8542 28.884 46.3582 28.164L48.7222 24.84C48.7302 24.824 48.7502 24.796 48.7822 24.756C48.8222 24.708 48.8662 24.672 48.9142 24.648C48.9702 24.616 49.0302 24.6 49.0942 24.6H49.3222C49.3942 24.6 49.4502 24.628 49.4902 24.684C49.5382 24.732 49.5622 24.792 49.5622 24.864C49.5622 24.904 49.5422 24.956 49.5022 25.02L47.7022 27.564C47.9422 27.5 48.2142 27.468 48.5182 27.468C49.1342 27.468 49.6622 27.6 50.1022 27.864C50.5422 28.12 50.8742 28.464 51.0982 28.896C51.3222 29.328 51.4342 29.792 51.4342 30.288C51.4342 30.784 51.3222 31.248 51.0982 31.68C50.8742 32.112 50.5422 32.46 50.1022 32.724C49.6622 32.988 49.1342 33.12 48.5182 33.12ZM48.5182 32.4C48.9022 32.4 49.2582 32.32 49.5862 32.16C49.9142 31.992 50.1782 31.748 50.3782 31.428C50.5782 31.108 50.6782 30.728 50.6782 30.288C50.6782 29.848 50.5782 29.472 50.3782 29.16C50.1782 28.84 49.9142 28.6 49.5862 28.44C49.2582 28.272 48.9022 28.188 48.5182 28.188C48.1342 28.188 47.7782 28.272 47.4502 28.44C47.1222 28.6 46.8582 28.84 46.6582 29.16C46.4582 29.472 46.3582 29.848 46.3582 30.288C46.3582 30.728 46.4582 31.108 46.6582 31.428C46.8582 31.748 47.1222 31.992 47.4502 32.16C47.7782 32.32 48.1342 32.4 48.5182 32.4ZM55.6826 33.12C54.6746 33.12 53.9466 32.816 53.4986 32.208C53.0586 31.6 52.8266 30.8 52.8026 29.808L52.7906 28.812L52.8026 27.792C52.8266 26.8 53.0586 26 53.4986 25.392C53.9466 24.784 54.6746 24.48 55.6826 24.48C56.6906 24.48 57.4146 24.784 57.8546 25.392C58.3026 26 58.5386 26.8 58.5626 27.792C58.5706 28.016 58.5746 28.356 58.5746 28.812C58.5746 29.26 58.5706 29.592 58.5626 29.808C58.5386 30.8 58.3026 31.6 57.8546 32.208C57.4146 32.816 56.6906 33.12 55.6826 33.12ZM55.6826 32.4C56.3706 32.4 56.8906 32.172 57.2426 31.716C57.6026 31.252 57.7906 30.596 57.8066 29.748C57.8146 29.516 57.8186 29.196 57.8186 28.788C57.8186 28.38 57.8146 28.068 57.8066 27.852C57.7906 27.02 57.6026 26.372 57.2426 25.908C56.8906 25.436 56.3706 25.2 55.6826 25.2C54.9946 25.2 54.4706 25.436 54.1106 25.908C53.7586 26.372 53.5746 27.02 53.5586 27.852L53.5466 28.788L53.5586 29.748C53.5746 30.596 53.7586 31.252 54.1106 31.716C54.4706 32.172 54.9946 32.4 55.6826 32.4ZM63.8308 33C63.7508 33 63.6868 32.976 63.6388 32.928C63.5908 32.88 63.5668 32.816 63.5668 32.736V27.024C63.5668 26.944 63.5908 26.88 63.6388 26.832C63.6868 26.784 63.7508 26.76 63.8308 26.76H64.0348C64.1148 26.76 64.1788 26.784 64.2268 26.832C64.2748 26.88 64.2988 26.944 64.2988 27.024V27.444C64.5068 27.18 64.7468 26.98 65.0188 26.844C65.2988 26.708 65.6308 26.64 66.0148 26.64C66.9108 26.64 67.5508 27.016 67.9348 27.768C68.1268 27.424 68.3988 27.152 68.7508 26.952C69.1108 26.744 69.5188 26.64 69.9748 26.64C70.6388 26.64 71.1788 26.868 71.5948 27.324C72.0108 27.772 72.2188 28.412 72.2188 29.244V32.736C72.2188 32.816 72.1948 32.88 72.1468 32.928C72.0988 32.976 72.0348 33 71.9548 33H71.7508C71.6708 33 71.6068 32.976 71.5588 32.928C71.5108 32.88 71.4868 32.816 71.4868 32.736V29.364C71.4868 28.636 71.3348 28.116 71.0308 27.804C70.7348 27.492 70.3428 27.336 69.8548 27.336C69.4228 27.336 69.0468 27.496 68.7268 27.816C68.4148 28.128 68.2588 28.644 68.2588 29.364V32.736C68.2588 32.816 68.2348 32.88 68.1868 32.928C68.1388 32.976 68.0748 33 67.9948 33H67.7908C67.7108 33 67.6468 32.976 67.5988 32.928C67.5508 32.88 67.5268 32.816 67.5268 32.736V29.364C67.5268 28.644 67.3708 28.128 67.0588 27.816C66.7468 27.496 66.3588 27.336 65.8948 27.336C65.4628 27.336 65.0868 27.496 64.7668 27.816C64.4548 28.128 64.2988 28.64 64.2988 29.352V32.736C64.2988 32.816 64.2748 32.88 64.2268 32.928C64.1788 32.976 64.1148 33 64.0348 33H63.8308ZM74.294 25.476C74.214 25.476 74.15 25.452 74.102 25.404C74.054 25.356 74.03 25.292 74.03 25.212V24.756C74.03 24.676 74.054 24.612 74.102 24.564C74.15 24.508 74.214 24.48 74.294 24.48H74.75C74.83 24.48 74.894 24.508 74.942 24.564C74.998 24.612 75.026 24.676 75.026 24.756V25.212C75.026 25.292 74.998 25.356 74.942 25.404C74.894 25.452 74.83 25.476 74.75 25.476H74.294ZM74.426 33C74.346 33 74.282 32.976 74.234 32.928C74.186 32.88 74.162 32.816 74.162 32.736V27.024C74.162 26.944 74.186 26.88 74.234 26.832C74.282 26.784 74.346 26.76 74.426 26.76H74.63C74.71 26.76 74.774 26.784 74.822 26.832C74.87 26.88 74.894 26.944 74.894 27.024V32.736C74.894 32.816 74.87 32.88 74.822 32.928C74.774 32.976 74.71 33 74.63 33H74.426ZM77.1579 33C77.0779 33 77.0139 32.976 76.9659 32.928C76.9179 32.88 76.8939 32.816 76.8939 32.736V27.024C76.8939 26.944 76.9179 26.88 76.9659 26.832C77.0139 26.784 77.0779 26.76 77.1579 26.76H77.3619C77.4419 26.76 77.5059 26.784 77.5539 26.832C77.6019 26.88 77.6259 26.944 77.6259 27.024V27.588C77.8659 27.276 78.1379 27.04 78.4419 26.88C78.7539 26.72 79.1539 26.64 79.6419 26.64C80.4259 26.64 81.0299 26.892 81.4539 27.396C81.8779 27.892 82.0899 28.536 82.0899 29.328V32.736C82.0899 32.816 82.0659 32.88 82.0179 32.928C81.9699 32.976 81.9059 33 81.8259 33H81.6219C81.5419 33 81.4779 32.976 81.4299 32.928C81.3819 32.88 81.3579 32.816 81.3579 32.736V29.388C81.3579 28.74 81.1979 28.236 80.8779 27.876C80.5659 27.516 80.1139 27.336 79.5219 27.336C78.9459 27.336 78.4859 27.52 78.1419 27.888C77.7979 28.248 77.6259 28.748 77.6259 29.388V32.736C77.6259 32.816 77.6019 32.88 77.5539 32.928C77.5059 32.976 77.4419 33 77.3619 33H77.1579Z" fill="#343434"/>
</svg>
