<svg width="158" height="36" viewBox="0 0 158 36" fill="none" xmlns="http://www.w3.org/2000/svg">
<g opacity="0.8">
<rect x="0.5" y="0.5" width="157" height="35" rx="17.5" fill="black"/>
<path d="M45.136 23.16C44.1867 23.16 43.3707 23.016 42.688 22.728C42.0053 22.44 41.488 22.0613 41.136 21.592C40.784 21.1227 40.5973 20.616 40.576 20.072C40.576 19.976 40.608 19.896 40.672 19.832C40.736 19.768 40.816 19.736 40.912 19.736H42.336C42.464 19.736 42.56 19.7627 42.624 19.816C42.6987 19.8587 42.768 19.9333 42.832 20.04C42.9387 20.4027 43.184 20.7067 43.568 20.952C43.952 21.1973 44.4747 21.32 45.136 21.32C45.8933 21.32 46.464 21.1973 46.848 20.952C47.232 20.696 47.424 20.344 47.424 19.896C47.424 19.5973 47.3227 19.352 47.12 19.16C46.928 18.968 46.6347 18.8027 46.24 18.664C45.856 18.5253 45.28 18.3547 44.512 18.152C43.2533 17.8533 42.3307 17.4587 41.744 16.968C41.168 16.4667 40.88 15.7573 40.88 14.84C40.88 14.2213 41.0453 13.672 41.376 13.192C41.7173 12.712 42.2027 12.3333 42.832 12.056C43.472 11.7787 44.2133 11.64 45.056 11.64C45.9307 11.64 46.688 11.7947 47.328 12.104C47.968 12.4133 48.4533 12.8027 48.784 13.272C49.1253 13.7307 49.3067 14.1893 49.328 14.648C49.328 14.744 49.296 14.824 49.232 14.888C49.168 14.952 49.088 14.984 48.992 14.984H47.504C47.28 14.984 47.1253 14.8827 47.04 14.68C46.976 14.3387 46.7627 14.056 46.4 13.832C46.0373 13.5973 45.5893 13.48 45.056 13.48C44.4587 13.48 43.9893 13.592 43.648 13.816C43.3067 14.04 43.136 14.3653 43.136 14.792C43.136 15.0907 43.2213 15.336 43.392 15.528C43.5627 15.72 43.8293 15.8907 44.192 16.04C44.5653 16.1893 45.0987 16.3547 45.792 16.536C46.7307 16.7493 47.4773 16.9893 48.032 17.256C48.5973 17.5227 49.0133 17.8587 49.28 18.264C49.5467 18.6693 49.68 19.1867 49.68 19.816C49.68 20.4987 49.488 21.096 49.104 21.608C48.7307 22.1093 48.1973 22.4933 47.504 22.76C46.8213 23.0267 46.032 23.16 45.136 23.16ZM51.8016 26.04C51.695 26.04 51.6043 26.0027 51.5296 25.928C51.455 25.864 51.4176 25.7733 51.4176 25.656V15.064C51.4176 14.9467 51.455 14.856 51.5296 14.792C51.6043 14.7173 51.695 14.68 51.8016 14.68H53.0656C53.183 14.68 53.2736 14.7173 53.3376 14.792C53.4123 14.856 53.4496 14.9467 53.4496 15.064V15.704C54.047 14.9147 54.9003 14.52 56.0096 14.52C57.087 14.52 57.9136 14.8613 58.4896 15.544C59.0656 16.216 59.375 17.128 59.4176 18.28C59.4283 18.408 59.4336 18.5947 59.4336 18.84C59.4336 19.096 59.4283 19.288 59.4176 19.416C59.375 20.536 59.0656 21.4427 58.4896 22.136C57.9136 22.8187 57.087 23.16 56.0096 23.16C54.9323 23.16 54.111 22.7813 53.5456 22.024V25.656C53.5456 25.7733 53.5083 25.864 53.4336 25.928C53.3696 26.0027 53.279 26.04 53.1616 26.04H51.8016ZM55.4176 21.448C56.5696 21.448 57.183 20.7387 57.2576 19.32C57.2683 19.2133 57.2736 19.0533 57.2736 18.84C57.2736 18.6267 57.2683 18.4667 57.2576 18.36C57.183 16.9413 56.5696 16.232 55.4176 16.232C54.799 16.232 54.3403 16.4293 54.0416 16.824C53.743 17.2187 53.5776 17.704 53.5456 18.28L53.5296 18.888L53.5456 19.512C53.567 20.0453 53.7323 20.504 54.0416 20.888C54.3616 21.2613 54.8203 21.448 55.4176 21.448ZM64.8938 23.16C63.7098 23.16 62.7657 22.8187 62.0617 22.136C61.3684 21.4427 61.0004 20.472 60.9577 19.224L60.9417 18.824L60.9577 18.424C61.0111 17.208 61.3844 16.2533 62.0777 15.56C62.7817 14.8667 63.7204 14.52 64.8938 14.52C66.1524 14.52 67.1231 14.904 67.8058 15.672C68.4991 16.44 68.8457 17.464 68.8457 18.744V19.08C68.8457 19.1867 68.8084 19.2773 68.7338 19.352C68.6591 19.4267 68.5631 19.464 68.4458 19.464H63.1337V19.592C63.1551 20.1787 63.3151 20.6747 63.6137 21.08C63.9231 21.4747 64.3444 21.672 64.8777 21.672C65.5071 21.672 66.0138 21.4267 66.3977 20.936C66.4937 20.8187 66.5684 20.744 66.6218 20.712C66.6858 20.68 66.7764 20.664 66.8938 20.664H68.2698C68.3658 20.664 68.4458 20.696 68.5098 20.76C68.5844 20.8133 68.6217 20.8827 68.6217 20.968C68.6217 21.224 68.4671 21.528 68.1578 21.88C67.8591 22.2213 67.4271 22.52 66.8618 22.776C66.2964 23.032 65.6404 23.16 64.8938 23.16ZM66.6698 18.12V18.072C66.6698 17.4427 66.5098 16.936 66.1898 16.552C65.8804 16.168 65.4484 15.976 64.8938 15.976C64.3391 15.976 63.9071 16.168 63.5977 16.552C63.2884 16.936 63.1337 17.4427 63.1337 18.072V18.12H66.6698ZM71.0241 23C70.9175 23 70.8268 22.9627 70.7521 22.888C70.6775 22.8133 70.6401 22.7227 70.6401 22.616V12.024C70.6401 11.9067 70.6775 11.816 70.7521 11.752C70.8268 11.6773 70.9175 11.64 71.0241 11.64H72.3521C72.4695 11.64 72.5601 11.6773 72.6241 11.752C72.6988 11.816 72.7361 11.9067 72.7361 12.024V22.616C72.7361 22.7227 72.6988 22.8133 72.6241 22.888C72.5601 22.9627 72.4695 23 72.3521 23H71.0241ZM77.3545 23.16C76.8105 23.16 76.3092 23.0533 75.8505 22.84C75.4025 22.616 75.0452 22.3173 74.7785 21.944C74.5225 21.5707 74.3945 21.16 74.3945 20.712C74.3945 19.9867 74.6878 19.4 75.2745 18.952C75.8612 18.504 76.6665 18.2 77.6905 18.04L79.8825 17.72V17.384C79.8825 16.9147 79.7652 16.5627 79.5305 16.328C79.2958 16.0933 78.9172 15.976 78.3945 15.976C78.0425 15.976 77.7545 16.0453 77.5305 16.184C77.3172 16.312 77.1465 16.44 77.0185 16.568C76.8905 16.7067 76.8052 16.7973 76.7625 16.84C76.7198 16.968 76.6398 17.032 76.5225 17.032H75.2905C75.1945 17.032 75.1092 17 75.0345 16.936C74.9705 16.872 74.9385 16.7867 74.9385 16.68C74.9492 16.4133 75.0772 16.1093 75.3225 15.768C75.5785 15.4267 75.9678 15.1333 76.4905 14.888C77.0132 14.6427 77.6532 14.52 78.4105 14.52C79.6692 14.52 80.5865 14.8027 81.1625 15.368C81.7385 15.9333 82.0265 16.6747 82.0265 17.592V22.616C82.0265 22.7227 81.9892 22.8133 81.9145 22.888C81.8505 22.9627 81.7598 23 81.6425 23H80.3465C80.2398 23 80.1492 22.9627 80.0745 22.888C79.9998 22.8133 79.9625 22.7227 79.9625 22.616V21.992C79.7278 22.3333 79.3918 22.616 78.9545 22.84C78.5278 23.0533 77.9945 23.16 77.3545 23.16ZM77.8985 21.64C78.4852 21.64 78.9652 21.448 79.3385 21.064C79.7118 20.68 79.8985 20.12 79.8985 19.384V19.048L78.2985 19.304C77.6798 19.4 77.2105 19.5547 76.8905 19.768C76.5812 19.9813 76.4265 20.2427 76.4265 20.552C76.4265 20.8933 76.5705 21.16 76.8585 21.352C77.1465 21.544 77.4932 21.64 77.8985 21.64ZM88.2794 23C88.1727 23 88.082 22.9627 88.0074 22.888C87.9327 22.8133 87.8954 22.7227 87.8954 22.616V15.064C87.8954 14.9573 87.9327 14.8667 88.0074 14.792C88.082 14.7173 88.1727 14.68 88.2794 14.68H89.5914C89.698 14.68 89.7887 14.7173 89.8634 14.792C89.938 14.8667 89.9754 14.9573 89.9754 15.064V15.72C90.6047 14.92 91.4954 14.52 92.6474 14.52C93.6287 14.52 94.4074 14.8453 94.9834 15.496C95.5594 16.136 95.8474 17.0107 95.8474 18.12V22.616C95.8474 22.7227 95.81 22.8133 95.7354 22.888C95.6714 22.9627 95.5807 23 95.4634 23H94.0554C93.9487 23 93.858 22.9627 93.7834 22.888C93.7087 22.8133 93.6714 22.7227 93.6714 22.616V18.216C93.6714 17.5867 93.5167 17.1013 93.2074 16.76C92.9087 16.408 92.4714 16.232 91.8954 16.232C91.33 16.232 90.882 16.408 90.5514 16.76C90.2314 17.112 90.0714 17.5973 90.0714 18.216V22.616C90.0714 22.7227 90.034 22.8133 89.9594 22.888C89.8954 22.9627 89.8047 23 89.6874 23H88.2794ZM101.048 23.16C100.066 23.16 99.2931 22.84 98.7278 22.2C98.1624 21.5493 97.8798 20.6693 97.8798 19.56V15.064C97.8798 14.9573 97.9171 14.8667 97.9918 14.792C98.0664 14.7173 98.1571 14.68 98.2638 14.68H99.6718C99.7891 14.68 99.8798 14.7173 99.9438 14.792C100.018 14.856 100.056 14.9467 100.056 15.064V19.464C100.056 20.7867 100.637 21.448 101.8 21.448C102.354 21.448 102.792 21.272 103.112 20.92C103.442 20.568 103.608 20.0827 103.608 19.464V15.064C103.608 14.9573 103.645 14.8667 103.72 14.792C103.794 14.7173 103.885 14.68 103.992 14.68H105.4C105.517 14.68 105.608 14.7173 105.672 14.792C105.746 14.856 105.784 14.9467 105.784 15.064V22.616C105.784 22.7227 105.746 22.8133 105.672 22.888C105.608 22.9627 105.517 23 105.4 23H104.104C103.997 23 103.906 22.9627 103.832 22.888C103.757 22.8133 103.72 22.7227 103.72 22.616V21.96C103.122 22.76 102.232 23.16 101.048 23.16Z" fill="white"/>
<path d="M128 18.0001C128 17.8077 127.903 17.6423 127.762 17.5555L117.718 11.0918C117.642 11.0321 117.551 11.0001 117.457 11C117.336 11 117.22 11.0537 117.134 11.1493C117.048 11.2448 117 11.3744 117 11.5096C117 11.5294 117.003 11.548 117.005 11.5671H117V24.5479H117.005C117.018 24.672 117.07 24.7868 117.154 24.8702C117.237 24.9536 117.345 24.9998 117.457 25C117.538 24.9996 117.616 24.9754 117.685 24.93L117.689 24.938L127.774 18.4477L127.77 18.4398C127.84 18.3955 127.898 18.3316 127.938 18.2544C127.978 18.1772 128 18.0895 128 18.0001Z" fill="white"/>
<rect x="0.5" y="0.5" width="157" height="35" rx="17.5" stroke="black"/>
</g>
</svg>
