<svg width="11" height="14" viewBox="0 0 11 14" fill="none" xmlns="http://www.w3.org/2000/svg">
<path d="M11 7.00011C11 6.80767 10.9034 6.64226 10.7621 6.55546L0.718127 0.0917927C0.641734 0.0320982 0.550711 5.0731e-05 0.457416 0C0.336137 -1.3423e-08 0.219822 0.0536859 0.134046 0.149254C0.0482699 0.244822 5.40459e-05 0.374448 0 0.509632C0 0.529399 0.00326163 0.548031 0.00530003 0.567116H0V13.5479H0.00530003C0.0175835 13.672 0.0704852 13.7868 0.153892 13.8702C0.237299 13.9536 0.345359 13.9998 0.457416 14C0.537532 13.9996 0.616104 13.9754 0.685105 13.93L0.689182 13.938L10.7743 7.44772L10.7703 7.43977C10.8399 7.39552 10.8978 7.33156 10.9382 7.25436C10.9785 7.17716 10.9998 7.08945 11 7.00011Z" fill="white"/>
</svg>
