<svg width="12" height="15" viewBox="0 0 12 15" fill="none" xmlns="http://www.w3.org/2000/svg">
<path opacity="0.3" d="M6.56641 3.2C7.45006 3.2 8.16641 2.48366 8.16641 1.6C8.16641 0.716344 7.45006 0 6.56641 0C5.68275 0 4.96641 0.716344 4.96641 1.6L4.96635 3.49377L3.36899 3.2941C2.56604 3.19374 1.81456 3.70866 1.6183 4.49369L0.990234 7.00597L2.54246 7.39403L3.17053 4.88175L4.79466 5.08476L4.18075 7.84736L3.8146 10.0443L1.16429 13.0732L2.36841 14.1268L5.01873 11.0979C5.21443 10.8742 5.34397 10.6005 5.39283 10.3073L5.53912 9.42958L7.36635 10.8V14.4H8.96635V10.8C8.96635 10.2964 8.72924 9.82217 8.32635 9.52L5.85927 7.66969L6.32503 5.57377L7.39333 6.10792C7.90689 6.3647 8.51866 6.32661 8.9964 6.00812L11.0101 4.66564L10.1226 3.33436L8.10888 4.67684L6.56635 3.90557L6.56641 3.2Z" fill="black"/>
</svg>
